G04*
G04 #@! TF.GenerationSoftware,Altium Limited,Altium Designer,25.4.2 (15)*
G04*
G04 Layer_Color=65535*
%FSLAX44Y44*%
%MOMM*%
G71*
G04*
G04 #@! TF.SameCoordinates,CF2555CE-50F3-4C54-A6B1-1294104F7050*
G04*
G04*
G04 #@! TF.FilePolarity,Positive*
G04*
G01*
G75*
%ADD10C,0.2000*%
%ADD11C,0.1270*%
%ADD12C,0.1000*%
%ADD13C,0.3000*%
%ADD14C,0.2540*%
%ADD15C,0.1524*%
%ADD16C,0.2032*%
%ADD17R,1.0160X0.5080*%
%ADD18R,0.5080X1.0160*%
G36*
X532923Y671460D02*
X533385D01*
Y671306D01*
X533693D01*
Y671152D01*
X534000D01*
Y670999D01*
X534462D01*
Y670845D01*
X534770D01*
Y670691D01*
X535077D01*
Y670537D01*
X535385D01*
Y670383D01*
X535846D01*
Y670229D01*
X536154D01*
Y670075D01*
X536462D01*
Y669922D01*
X536923D01*
Y669768D01*
X537231D01*
Y669614D01*
X537539D01*
Y669460D01*
X538000D01*
Y669306D01*
X538308D01*
Y669152D01*
X538615D01*
Y668998D01*
X538923D01*
Y668845D01*
X539385D01*
Y668691D01*
X539692D01*
Y668537D01*
X540000D01*
Y668383D01*
X540462D01*
Y668229D01*
X540769D01*
Y668075D01*
X541077D01*
Y667922D01*
X541385D01*
Y667768D01*
X541846D01*
Y667614D01*
X542154D01*
Y667460D01*
X542462D01*
Y667306D01*
X542769D01*
Y667152D01*
X543231D01*
Y666999D01*
X543538D01*
Y666845D01*
X543846D01*
Y666691D01*
X544308D01*
Y666537D01*
X544615D01*
Y666383D01*
X544923D01*
Y666229D01*
X545231D01*
Y666076D01*
X545692D01*
Y665922D01*
X546000D01*
Y665768D01*
X546307D01*
Y665614D01*
X546769D01*
Y665460D01*
X547077D01*
Y665306D01*
X547384D01*
Y665153D01*
X547692D01*
Y664999D01*
X548154D01*
Y664845D01*
X548461D01*
Y664691D01*
X548923D01*
Y664537D01*
X549230D01*
Y664383D01*
X549538D01*
Y664230D01*
X549846D01*
Y664076D01*
X550307D01*
Y663922D01*
X550615D01*
Y663768D01*
X550923D01*
Y663614D01*
X551384D01*
Y663460D01*
X551692D01*
Y663306D01*
X552000D01*
Y663153D01*
X552461D01*
Y662999D01*
X552769D01*
Y662845D01*
X553077D01*
Y662691D01*
X553230D01*
Y662537D01*
X553384D01*
Y662383D01*
X553538D01*
Y662076D01*
X553692D01*
Y661460D01*
X553846D01*
Y643307D01*
X553692D01*
Y641461D01*
X553538D01*
Y640230D01*
X553384D01*
Y639307D01*
X553230D01*
Y638538D01*
X553077D01*
Y637923D01*
X552923D01*
Y637308D01*
X552769D01*
Y636692D01*
X552615D01*
Y636231D01*
X552461D01*
Y635615D01*
X552307D01*
Y635154D01*
X552154D01*
Y634692D01*
X552000D01*
Y634384D01*
X551846D01*
Y633923D01*
X551692D01*
Y633461D01*
X551538D01*
Y633154D01*
X551384D01*
Y632846D01*
X551230D01*
Y632385D01*
X551077D01*
Y632077D01*
X550923D01*
Y631769D01*
X550769D01*
Y631461D01*
X550615D01*
Y631154D01*
X550461D01*
Y630846D01*
X550307D01*
Y630538D01*
X550154D01*
Y630231D01*
X550000D01*
Y629923D01*
X549846D01*
Y629616D01*
X549692D01*
Y629462D01*
X549538D01*
Y629154D01*
X549384D01*
Y628846D01*
X549230D01*
Y628692D01*
X549077D01*
Y628385D01*
X548923D01*
Y628077D01*
X548769D01*
Y627923D01*
X548615D01*
Y627616D01*
X548461D01*
Y627462D01*
X548307D01*
Y627154D01*
X548154D01*
Y627000D01*
X548000D01*
Y626693D01*
X547846D01*
Y626539D01*
X547692D01*
Y626385D01*
X547538D01*
Y626077D01*
X547384D01*
Y625923D01*
X547231D01*
Y625769D01*
X547077D01*
Y625616D01*
X546923D01*
Y625308D01*
X546769D01*
Y625154D01*
X546615D01*
Y625000D01*
X546461D01*
Y624846D01*
X546307D01*
Y624693D01*
X546154D01*
Y624539D01*
X546000D01*
Y624385D01*
X545846D01*
Y624077D01*
X545692D01*
Y623923D01*
X545538D01*
Y623769D01*
X545384D01*
Y623616D01*
X545231D01*
Y623462D01*
X545077D01*
Y623308D01*
X544923D01*
Y623154D01*
X544769D01*
Y623000D01*
X544461D01*
Y622846D01*
X544308D01*
Y622693D01*
X544154D01*
Y622539D01*
X544000D01*
Y622385D01*
X543846D01*
Y622231D01*
X543692D01*
Y622077D01*
X543538D01*
Y621923D01*
X543385D01*
Y621770D01*
X543231D01*
Y621616D01*
X542923D01*
Y621462D01*
X542769D01*
Y621308D01*
X542615D01*
Y621154D01*
X542462D01*
Y621000D01*
X542154D01*
Y620847D01*
X542000D01*
Y620693D01*
X541846D01*
Y620539D01*
X541539D01*
Y620385D01*
X541385D01*
Y620231D01*
X541077D01*
Y620077D01*
X540923D01*
Y619924D01*
X540615D01*
Y619770D01*
X540462D01*
Y619616D01*
X540308D01*
Y619462D01*
X540000D01*
Y619308D01*
X539692D01*
Y619154D01*
X539538D01*
Y619001D01*
X539231D01*
Y618847D01*
X538923D01*
Y618693D01*
X538769D01*
Y618539D01*
X538462D01*
Y618385D01*
X538154D01*
Y618231D01*
X537846D01*
Y618077D01*
X537692D01*
Y617924D01*
X537385D01*
Y617770D01*
X537077D01*
Y617616D01*
X536769D01*
Y617462D01*
X536462D01*
Y617308D01*
X536154D01*
Y617154D01*
X535846D01*
Y617001D01*
X535539D01*
Y616847D01*
X535231D01*
Y616693D01*
X534923D01*
Y616539D01*
X534616D01*
Y616385D01*
X534308D01*
Y616231D01*
X534000D01*
Y616077D01*
X533539D01*
Y615924D01*
X533077D01*
Y615770D01*
X531693D01*
Y615924D01*
X531231D01*
Y616077D01*
X530924D01*
Y616231D01*
X530462D01*
Y616385D01*
X530154D01*
Y616539D01*
X529847D01*
Y616693D01*
X529539D01*
Y616847D01*
X529231D01*
Y617001D01*
X528924D01*
Y617154D01*
X528616D01*
Y617308D01*
X528308D01*
Y617462D01*
X528000D01*
Y617616D01*
X527693D01*
Y617770D01*
X527385D01*
Y617924D01*
X527077D01*
Y618077D01*
X526770D01*
Y618231D01*
X526616D01*
Y618385D01*
X526308D01*
Y618539D01*
X526001D01*
Y618693D01*
X525693D01*
Y618847D01*
X525539D01*
Y619001D01*
X525231D01*
Y619154D01*
X524924D01*
Y619308D01*
X524770D01*
Y619462D01*
X524462D01*
Y619616D01*
X524155D01*
Y619770D01*
X524001D01*
Y619924D01*
X523693D01*
Y620077D01*
X523539D01*
Y620231D01*
X523232D01*
Y620385D01*
X523078D01*
Y620539D01*
X522924D01*
Y620693D01*
X522616D01*
Y620847D01*
X522462D01*
Y621000D01*
X522309D01*
Y621154D01*
X522001D01*
Y621308D01*
X521847D01*
Y621462D01*
X521693D01*
Y621616D01*
X521539D01*
Y621770D01*
X521232D01*
Y621923D01*
X521078D01*
Y622077D01*
X520924D01*
Y622231D01*
X520770D01*
Y622385D01*
X520616D01*
Y622539D01*
X520462D01*
Y622693D01*
X520308D01*
Y622846D01*
X520155D01*
Y623000D01*
X519847D01*
Y623154D01*
X519693D01*
Y623308D01*
X519539D01*
Y623462D01*
X519385D01*
Y623616D01*
X519232D01*
Y623769D01*
X519078D01*
Y623923D01*
X518924D01*
Y624077D01*
X518770D01*
Y624385D01*
X518616D01*
Y624539D01*
X518462D01*
Y624693D01*
X518309D01*
Y624846D01*
X518155D01*
Y625000D01*
X518001D01*
Y625154D01*
X517847D01*
Y625308D01*
X517693D01*
Y625462D01*
X517539D01*
Y625769D01*
X517386D01*
Y625923D01*
X517232D01*
Y626077D01*
X517078D01*
Y626231D01*
X516924D01*
Y626539D01*
X516770D01*
Y626693D01*
X516616D01*
Y626846D01*
X516463D01*
Y627154D01*
X516309D01*
Y627308D01*
X516155D01*
Y627462D01*
X516001D01*
Y627769D01*
X515847D01*
Y627923D01*
X515693D01*
Y628231D01*
X515540D01*
Y628385D01*
X515386D01*
Y628692D01*
X515232D01*
Y628846D01*
X515078D01*
Y629154D01*
X514924D01*
Y629462D01*
X514770D01*
Y629769D01*
X514616D01*
Y629923D01*
X514463D01*
Y630231D01*
X514309D01*
Y630538D01*
X514155D01*
Y630846D01*
X514001D01*
Y631154D01*
X513847D01*
Y631461D01*
X513693D01*
Y631769D01*
X513540D01*
Y632077D01*
X513386D01*
Y632385D01*
X513232D01*
Y632692D01*
X513078D01*
Y633154D01*
X512924D01*
Y633461D01*
X512770D01*
Y633769D01*
X512617D01*
Y634231D01*
X512463D01*
Y634692D01*
X512309D01*
Y635154D01*
X512155D01*
Y635615D01*
X512001D01*
Y636231D01*
X511847D01*
Y636692D01*
X511693D01*
Y637308D01*
X511540D01*
Y637923D01*
X511386D01*
Y638692D01*
X511232D01*
Y639615D01*
X511078D01*
Y640538D01*
X510924D01*
Y642384D01*
X510770D01*
Y660845D01*
X510924D01*
Y662076D01*
X511078D01*
Y662383D01*
X511232D01*
Y662537D01*
X511386D01*
Y662691D01*
X511540D01*
Y662845D01*
X511847D01*
Y662999D01*
X512155D01*
Y663153D01*
X512463D01*
Y663306D01*
X512924D01*
Y663460D01*
X513232D01*
Y663614D01*
X513693D01*
Y663768D01*
X514001D01*
Y663922D01*
X514309D01*
Y664076D01*
X514770D01*
Y664230D01*
X515078D01*
Y664383D01*
X515386D01*
Y664537D01*
X515693D01*
Y664691D01*
X516155D01*
Y664845D01*
X516463D01*
Y664999D01*
X516770D01*
Y665153D01*
X517232D01*
Y665306D01*
X517539D01*
Y665460D01*
X517847D01*
Y665614D01*
X518309D01*
Y665768D01*
X518616D01*
Y665922D01*
X518924D01*
Y666076D01*
X519232D01*
Y666229D01*
X519693D01*
Y666383D01*
X520001D01*
Y666537D01*
X520462D01*
Y666691D01*
X520770D01*
Y666845D01*
X521078D01*
Y666999D01*
X521385D01*
Y667152D01*
X521847D01*
Y667306D01*
X522155D01*
Y667460D01*
X522462D01*
Y667614D01*
X522924D01*
Y667768D01*
X523232D01*
Y667922D01*
X523539D01*
Y668075D01*
X523847D01*
Y668229D01*
X524308D01*
Y668383D01*
X524616D01*
Y668537D01*
X525078D01*
Y668691D01*
X525385D01*
Y668845D01*
X525693D01*
Y668998D01*
X526001D01*
Y669152D01*
X526462D01*
Y669306D01*
X526770D01*
Y669460D01*
X527077D01*
Y669614D01*
X527539D01*
Y669768D01*
X527847D01*
Y669922D01*
X528154D01*
Y670075D01*
X528616D01*
Y670229D01*
X528924D01*
Y670383D01*
X529231D01*
Y670537D01*
X529693D01*
Y670691D01*
X530000D01*
Y670845D01*
X530308D01*
Y670999D01*
X530770D01*
Y671152D01*
X531077D01*
Y671306D01*
X531385D01*
Y671460D01*
X531847D01*
Y671614D01*
X532923D01*
Y671460D01*
D02*
G37*
G36*
X509435Y605406D02*
X510563D01*
Y605265D01*
X511128D01*
Y605123D01*
X511551D01*
Y604982D01*
X511974D01*
Y604841D01*
X512398D01*
Y604700D01*
X512680D01*
Y604559D01*
X512821D01*
Y604418D01*
X513103D01*
Y604277D01*
X513245D01*
Y604136D01*
X513386D01*
Y603994D01*
X513668D01*
Y603853D01*
X513809D01*
Y603712D01*
X513950D01*
Y603571D01*
X514091D01*
Y603430D01*
X514232D01*
Y603289D01*
X514373D01*
Y603007D01*
X514515D01*
Y602866D01*
X514656D01*
Y602583D01*
X514797D01*
Y602301D01*
X514938D01*
Y602019D01*
X515079D01*
Y601596D01*
X515220D01*
Y601031D01*
X515361D01*
Y600326D01*
X514797D01*
Y600185D01*
X512398D01*
Y600326D01*
X512116D01*
Y600467D01*
X511974D01*
Y600749D01*
X511833D01*
Y601031D01*
X511692D01*
Y601313D01*
X511551D01*
Y601455D01*
X511410D01*
Y601596D01*
X511269D01*
Y601737D01*
X511128D01*
Y601878D01*
X510846D01*
Y602019D01*
X510563D01*
Y602160D01*
X510281D01*
Y602301D01*
X509858D01*
Y602442D01*
X508729D01*
Y602583D01*
X508447D01*
Y602442D01*
X507600D01*
Y602301D01*
X507177D01*
Y602160D01*
X506894D01*
Y602019D01*
X506753D01*
Y601878D01*
X506471D01*
Y601737D01*
X506330D01*
Y601596D01*
X506189D01*
Y601455D01*
X506048D01*
Y601172D01*
X505907D01*
Y600749D01*
X505766D01*
Y599620D01*
X505907D01*
Y599338D01*
X506048D01*
Y599197D01*
X506189D01*
Y599056D01*
X506330D01*
Y598914D01*
X506471D01*
Y598773D01*
X506753D01*
Y598632D01*
X507177D01*
Y598491D01*
X507459D01*
Y598350D01*
X508023D01*
Y598209D01*
X508447D01*
Y598068D01*
X509011D01*
Y597927D01*
X509435D01*
Y597786D01*
X509858D01*
Y597645D01*
X510422D01*
Y597503D01*
X510987D01*
Y597362D01*
X511410D01*
Y597221D01*
X511833D01*
Y597080D01*
X512257D01*
Y596939D01*
X512539D01*
Y596798D01*
X512962D01*
Y596657D01*
X513245D01*
Y596516D01*
X513527D01*
Y596375D01*
X513668D01*
Y596233D01*
X513950D01*
Y596092D01*
X514091D01*
Y595951D01*
X514232D01*
Y595810D01*
X514373D01*
Y595669D01*
X514515D01*
Y595528D01*
X514656D01*
Y595387D01*
X514797D01*
Y595104D01*
X514938D01*
Y594822D01*
X515079D01*
Y594540D01*
X515220D01*
Y594258D01*
X515361D01*
Y593693D01*
X515502D01*
Y591295D01*
X515361D01*
Y590589D01*
X515220D01*
Y590307D01*
X515079D01*
Y590024D01*
X514938D01*
Y589742D01*
X514797D01*
Y589460D01*
X514656D01*
Y589319D01*
X514515D01*
Y589037D01*
X514373D01*
Y588896D01*
X514232D01*
Y588755D01*
X514091D01*
Y588613D01*
X513950D01*
Y588472D01*
X513809D01*
Y588331D01*
X513527D01*
Y588190D01*
X513386D01*
Y588049D01*
X513245D01*
Y587908D01*
X512962D01*
Y587767D01*
X512821D01*
Y587626D01*
X512398D01*
Y587485D01*
X512116D01*
Y587343D01*
X511833D01*
Y587202D01*
X511410D01*
Y587061D01*
X510846D01*
Y586920D01*
X510140D01*
Y586779D01*
X507318D01*
Y586920D01*
X506612D01*
Y587061D01*
X506048D01*
Y587202D01*
X505625D01*
Y587343D01*
X505201D01*
Y587485D01*
X504919D01*
Y587626D01*
X504637D01*
Y587767D01*
X504355D01*
Y587908D01*
X504213D01*
Y588049D01*
X503931D01*
Y588190D01*
X503790D01*
Y588331D01*
X503649D01*
Y588472D01*
X503508D01*
Y588613D01*
X503367D01*
Y588755D01*
X503226D01*
Y588896D01*
X503084D01*
Y589037D01*
X502943D01*
Y589319D01*
X502802D01*
Y589601D01*
X502661D01*
Y589742D01*
X502520D01*
Y590166D01*
X502379D01*
Y590448D01*
X502238D01*
Y590871D01*
X502097D01*
Y591436D01*
X501956D01*
Y592282D01*
X502238D01*
Y592423D01*
X505060D01*
Y592141D01*
X505201D01*
Y591718D01*
X505342D01*
Y591295D01*
X505483D01*
Y591153D01*
X505625D01*
Y591012D01*
X505766D01*
Y590871D01*
X505907D01*
Y590730D01*
X506048D01*
Y590589D01*
X506189D01*
Y590448D01*
X506330D01*
Y590307D01*
X506612D01*
Y590166D01*
X506894D01*
Y590024D01*
X507177D01*
Y589883D01*
X507741D01*
Y589742D01*
X509999D01*
Y589883D01*
X510422D01*
Y590024D01*
X510704D01*
Y590166D01*
X510987D01*
Y590307D01*
X511128D01*
Y590448D01*
X511410D01*
Y590589D01*
X511551D01*
Y590871D01*
X511692D01*
Y591012D01*
X511833D01*
Y591153D01*
X511974D01*
Y591577D01*
X512116D01*
Y592847D01*
X511974D01*
Y593270D01*
X511833D01*
Y593411D01*
X511692D01*
Y593552D01*
X511551D01*
Y593693D01*
X511269D01*
Y593834D01*
X510987D01*
Y593976D01*
X510563D01*
Y594117D01*
X510140D01*
Y594258D01*
X509717D01*
Y594399D01*
X509293D01*
Y594540D01*
X508870D01*
Y594681D01*
X508306D01*
Y594822D01*
X507882D01*
Y594963D01*
X507459D01*
Y595104D01*
X507036D01*
Y595246D01*
X506612D01*
Y595387D01*
X506189D01*
Y595528D01*
X505766D01*
Y595669D01*
X505483D01*
Y595810D01*
X505060D01*
Y595951D01*
X504778D01*
Y596092D01*
X504637D01*
Y596233D01*
X504355D01*
Y596375D01*
X504072D01*
Y596516D01*
X503931D01*
Y596657D01*
X503790D01*
Y596798D01*
X503649D01*
Y596939D01*
X503508D01*
Y597080D01*
X503367D01*
Y597221D01*
X503226D01*
Y597362D01*
X503084D01*
Y597645D01*
X502943D01*
Y597786D01*
X502802D01*
Y598209D01*
X502661D01*
Y598491D01*
X502520D01*
Y599056D01*
X502379D01*
Y601455D01*
X502520D01*
Y601878D01*
X502661D01*
Y602301D01*
X502802D01*
Y602583D01*
X502943D01*
Y602866D01*
X503084D01*
Y603007D01*
X503226D01*
Y603289D01*
X503367D01*
Y603430D01*
X503508D01*
Y603571D01*
X503649D01*
Y603712D01*
X503790D01*
Y603853D01*
X503931D01*
Y603994D01*
X504213D01*
Y604136D01*
X504355D01*
Y604277D01*
X504496D01*
Y604418D01*
X504778D01*
Y604559D01*
X505060D01*
Y604700D01*
X505342D01*
Y604841D01*
X505625D01*
Y604982D01*
X506048D01*
Y605123D01*
X506471D01*
Y605265D01*
X507036D01*
Y605406D01*
X508306D01*
Y605547D01*
X509435D01*
Y605406D01*
D02*
G37*
G36*
X564186Y604841D02*
X564327D01*
Y602019D01*
X556142D01*
Y601878D01*
X556001D01*
Y597786D01*
X556142D01*
Y597645D01*
X563480D01*
Y594822D01*
X563339D01*
Y594681D01*
X556001D01*
Y590166D01*
X556142D01*
Y590024D01*
X556566D01*
Y589883D01*
X557412D01*
Y590024D01*
X557977D01*
Y589883D01*
X558541D01*
Y590024D01*
X558823D01*
Y589883D01*
X560234D01*
Y590024D01*
X561222D01*
Y589883D01*
X561505D01*
Y590024D01*
X562069D01*
Y589883D01*
X562210D01*
Y590024D01*
X564186D01*
Y589883D01*
X564327D01*
Y587061D01*
X552756D01*
Y604982D01*
X564186D01*
Y604841D01*
D02*
G37*
G36*
X549510Y602019D02*
X541326D01*
Y601878D01*
X541185D01*
Y597645D01*
X541467D01*
Y597503D01*
X548663D01*
Y597362D01*
X548805D01*
Y594681D01*
X548663D01*
Y594540D01*
X541185D01*
Y587061D01*
X537939D01*
Y591859D01*
Y592000D01*
Y604982D01*
X549510D01*
Y602019D01*
D02*
G37*
G36*
X528343Y604982D02*
X528484D01*
Y604700D01*
X528626D01*
Y604277D01*
X528767D01*
Y603853D01*
X528908D01*
Y603430D01*
X529049D01*
Y603007D01*
X529190D01*
Y602583D01*
X529331D01*
Y602160D01*
X529472D01*
Y601737D01*
X529613D01*
Y601455D01*
X529754D01*
Y601031D01*
X529896D01*
Y600608D01*
X530037D01*
Y600185D01*
X530178D01*
Y599761D01*
X530319D01*
Y599338D01*
X530460D01*
Y598914D01*
X530601D01*
Y598491D01*
X530742D01*
Y598068D01*
X530883D01*
Y597645D01*
X531025D01*
Y597362D01*
X531166D01*
Y596939D01*
X531307D01*
Y596516D01*
X531448D01*
Y596092D01*
X531589D01*
Y595669D01*
X531730D01*
Y595246D01*
X531871D01*
Y594822D01*
X532012D01*
Y594399D01*
X532153D01*
Y593976D01*
X532295D01*
Y593552D01*
X532436D01*
Y593129D01*
X532577D01*
Y592847D01*
X532718D01*
Y592423D01*
X532859D01*
Y592000D01*
X533000D01*
Y591577D01*
X533141D01*
Y591153D01*
X533282D01*
Y590730D01*
X533423D01*
Y590307D01*
X533564D01*
Y589883D01*
X533706D01*
Y589601D01*
X533847D01*
Y589178D01*
X533988D01*
Y588755D01*
X534129D01*
Y588331D01*
X534270D01*
Y587908D01*
X534411D01*
Y587485D01*
X534552D01*
Y587061D01*
X531025D01*
Y587485D01*
X530883D01*
Y587908D01*
X530742D01*
Y588331D01*
X530601D01*
Y588896D01*
X530460D01*
Y589319D01*
X530319D01*
Y589742D01*
X530178D01*
Y590166D01*
X530037D01*
Y590589D01*
X529896D01*
Y591012D01*
X529754D01*
Y591153D01*
X522417D01*
Y590730D01*
X522276D01*
Y590307D01*
X522135D01*
Y589883D01*
X521993D01*
Y589460D01*
X521852D01*
Y589037D01*
X521711D01*
Y588613D01*
X521570D01*
Y588190D01*
X521429D01*
Y587767D01*
X521288D01*
Y587343D01*
X521147D01*
Y587061D01*
X517901D01*
Y587202D01*
X517760D01*
Y587485D01*
X517901D01*
Y587767D01*
X518042D01*
Y588190D01*
X518183D01*
Y588613D01*
X518325D01*
Y589037D01*
X518466D01*
Y589460D01*
X518607D01*
Y589883D01*
X518748D01*
Y590166D01*
X518889D01*
Y590589D01*
X519030D01*
Y591012D01*
X519171D01*
Y591436D01*
X519312D01*
Y591859D01*
X519453D01*
Y592141D01*
X519594D01*
Y592565D01*
X519736D01*
Y592988D01*
X519877D01*
Y593411D01*
X520018D01*
Y593834D01*
X520159D01*
Y594258D01*
X520300D01*
Y594540D01*
X520441D01*
Y594963D01*
X520582D01*
Y595387D01*
X520723D01*
Y595810D01*
X520864D01*
Y596233D01*
X521006D01*
Y596516D01*
X521147D01*
Y596939D01*
X521288D01*
Y597362D01*
X521429D01*
Y597786D01*
X521570D01*
Y598209D01*
X521711D01*
Y598632D01*
X521852D01*
Y598914D01*
X521993D01*
Y599338D01*
X522135D01*
Y599761D01*
X522276D01*
Y600185D01*
X522417D01*
Y600608D01*
X522558D01*
Y600890D01*
X522699D01*
Y601313D01*
X522840D01*
Y601737D01*
X522981D01*
Y602160D01*
X523122D01*
Y602583D01*
X523263D01*
Y602866D01*
X523405D01*
Y603289D01*
X523546D01*
Y603712D01*
X523687D01*
Y604136D01*
X523828D01*
Y604559D01*
X523969D01*
Y604841D01*
X524110D01*
Y605123D01*
X528343D01*
Y604982D01*
D02*
G37*
G36*
X589821Y293334D02*
X588284D01*
X589506Y295945D01*
X592246D01*
X589821Y293334D01*
D02*
G37*
G36*
X670720Y295871D02*
X670923Y295853D01*
X671145Y295816D01*
X671405Y295779D01*
X671683Y295723D01*
X671979Y295649D01*
X672293Y295556D01*
X672608Y295445D01*
X672942Y295297D01*
X673256Y295149D01*
X673553Y294964D01*
X673867Y294741D01*
X674145Y294501D01*
X674164D01*
X674182Y294464D01*
X674238Y294408D01*
X674293Y294353D01*
X674367Y294260D01*
X674441Y294149D01*
X674645Y293890D01*
X674849Y293556D01*
X675071Y293149D01*
X675275Y292686D01*
X675460Y292149D01*
X672905Y291538D01*
Y291557D01*
X672886Y291575D01*
Y291631D01*
X672849Y291705D01*
X672793Y291871D01*
X672701Y292094D01*
X672571Y292353D01*
X672405Y292612D01*
X672182Y292871D01*
X671942Y293094D01*
X671905Y293112D01*
X671812Y293186D01*
X671664Y293279D01*
X671460Y293390D01*
X671201Y293501D01*
X670905Y293594D01*
X670572Y293668D01*
X670201Y293686D01*
X670071D01*
X669960Y293668D01*
X669849Y293649D01*
X669701Y293631D01*
X669386Y293556D01*
X669016Y293427D01*
X668627Y293242D01*
X668423Y293131D01*
X668238Y293001D01*
X668053Y292834D01*
X667887Y292649D01*
Y292631D01*
X667850Y292594D01*
X667812Y292538D01*
X667757Y292446D01*
X667683Y292334D01*
X667609Y292205D01*
X667535Y292038D01*
X667461Y291853D01*
X667368Y291631D01*
X667294Y291390D01*
X667220Y291112D01*
X667146Y290816D01*
X667090Y290483D01*
X667053Y290131D01*
X667035Y289742D01*
X667016Y289316D01*
Y289298D01*
Y289205D01*
Y289076D01*
X667035Y288927D01*
Y288724D01*
X667072Y288483D01*
X667090Y288242D01*
X667127Y287964D01*
X667238Y287390D01*
X667387Y286816D01*
X667479Y286539D01*
X667609Y286280D01*
X667738Y286039D01*
X667887Y285835D01*
X667905Y285816D01*
X667924Y285798D01*
X667979Y285742D01*
X668053Y285668D01*
X668238Y285520D01*
X668498Y285335D01*
X668812Y285131D01*
X669201Y284983D01*
X669646Y284854D01*
X669886Y284835D01*
X670146Y284817D01*
X670238D01*
X670312Y284835D01*
X670516Y284854D01*
X670757Y284891D01*
X671016Y284983D01*
X671312Y285094D01*
X671608Y285243D01*
X671905Y285465D01*
X671942Y285502D01*
X672034Y285594D01*
X672164Y285742D01*
X672312Y285965D01*
X672497Y286261D01*
X672664Y286613D01*
X672831Y287039D01*
X672979Y287539D01*
X675497Y286761D01*
Y286742D01*
X675478Y286668D01*
X675441Y286557D01*
X675386Y286409D01*
X675312Y286242D01*
X675238Y286039D01*
X675145Y285816D01*
X675034Y285576D01*
X674775Y285076D01*
X674441Y284557D01*
X674034Y284058D01*
X673812Y283835D01*
X673571Y283632D01*
X673553Y283613D01*
X673516Y283595D01*
X673441Y283539D01*
X673330Y283465D01*
X673201Y283391D01*
X673034Y283317D01*
X672849Y283224D01*
X672645Y283132D01*
X672405Y283020D01*
X672145Y282928D01*
X671868Y282854D01*
X671571Y282780D01*
X671257Y282706D01*
X670905Y282650D01*
X670553Y282632D01*
X670164Y282613D01*
X670053D01*
X669923Y282632D01*
X669738Y282650D01*
X669535Y282669D01*
X669275Y282706D01*
X668997Y282761D01*
X668683Y282835D01*
X668368Y282928D01*
X668035Y283039D01*
X667683Y283187D01*
X667331Y283354D01*
X666979Y283539D01*
X666627Y283780D01*
X666294Y284039D01*
X665979Y284354D01*
X665961Y284372D01*
X665905Y284428D01*
X665831Y284539D01*
X665720Y284669D01*
X665609Y284854D01*
X665461Y285057D01*
X665313Y285317D01*
X665165Y285613D01*
X665016Y285928D01*
X664868Y286280D01*
X664720Y286687D01*
X664609Y287113D01*
X664498Y287557D01*
X664424Y288057D01*
X664368Y288575D01*
X664350Y289131D01*
Y289149D01*
Y289168D01*
Y289279D01*
X664368Y289446D01*
Y289668D01*
X664405Y289927D01*
X664443Y290242D01*
X664480Y290575D01*
X664554Y290964D01*
X664646Y291353D01*
X664757Y291760D01*
X664887Y292168D01*
X665053Y292594D01*
X665239Y293001D01*
X665461Y293390D01*
X665702Y293760D01*
X665998Y294112D01*
X666016Y294130D01*
X666072Y294186D01*
X666164Y294279D01*
X666294Y294390D01*
X666461Y294519D01*
X666665Y294667D01*
X666887Y294834D01*
X667164Y295001D01*
X667461Y295167D01*
X667775Y295334D01*
X668146Y295482D01*
X668516Y295612D01*
X668942Y295723D01*
X669368Y295816D01*
X669849Y295871D01*
X670331Y295890D01*
X670553D01*
X670720Y295871D01*
D02*
G37*
G36*
X647426Y282835D02*
X645148D01*
Y284187D01*
X645130Y284150D01*
X645056Y284058D01*
X644926Y283909D01*
X644759Y283743D01*
X644574Y283557D01*
X644333Y283354D01*
X644074Y283169D01*
X643796Y283002D01*
X643759Y282983D01*
X643667Y282946D01*
X643500Y282891D01*
X643315Y282817D01*
X643074Y282743D01*
X642797Y282687D01*
X642519Y282650D01*
X642223Y282632D01*
X642074D01*
X641963Y282650D01*
X641815Y282669D01*
X641667Y282706D01*
X641482Y282743D01*
X641278Y282798D01*
X641075Y282854D01*
X640852Y282946D01*
X640630Y283039D01*
X640389Y283169D01*
X640167Y283317D01*
X639926Y283484D01*
X639704Y283687D01*
X639482Y283909D01*
X639464Y283928D01*
X639426Y283965D01*
X639371Y284039D01*
X639315Y284150D01*
X639223Y284280D01*
X639130Y284446D01*
X639019Y284632D01*
X638927Y284854D01*
X638815Y285094D01*
X638704Y285354D01*
X638612Y285650D01*
X638538Y285965D01*
X638464Y286317D01*
X638408Y286687D01*
X638371Y287076D01*
X638353Y287502D01*
Y287520D01*
Y287613D01*
Y287724D01*
X638371Y287890D01*
X638390Y288094D01*
X638408Y288316D01*
X638445Y288575D01*
X638482Y288835D01*
X638612Y289427D01*
X638704Y289724D01*
X638815Y290020D01*
X638945Y290316D01*
X639093Y290594D01*
X639260Y290853D01*
X639445Y291094D01*
X639464Y291112D01*
X639501Y291149D01*
X639556Y291205D01*
X639649Y291297D01*
X639760Y291390D01*
X639889Y291483D01*
X640038Y291594D01*
X640223Y291723D01*
X640408Y291834D01*
X640630Y291945D01*
X641093Y292149D01*
X641371Y292223D01*
X641648Y292279D01*
X641945Y292316D01*
X642260Y292334D01*
X642408D01*
X642519Y292316D01*
X642648Y292297D01*
X642815Y292260D01*
X642982Y292223D01*
X643185Y292168D01*
X643389Y292112D01*
X643611Y292020D01*
X643833Y291908D01*
X644056Y291797D01*
X644296Y291631D01*
X644519Y291464D01*
X644741Y291260D01*
X644963Y291038D01*
Y295649D01*
X647426D01*
Y282835D01*
D02*
G37*
G36*
X604634D02*
X602356D01*
Y284187D01*
X602338Y284150D01*
X602264Y284058D01*
X602134Y283909D01*
X601968Y283743D01*
X601782Y283557D01*
X601542Y283354D01*
X601282Y283169D01*
X601005Y283002D01*
X600968Y282983D01*
X600875Y282946D01*
X600708Y282891D01*
X600523Y282817D01*
X600282Y282743D01*
X600005Y282687D01*
X599727Y282650D01*
X599431Y282632D01*
X599282D01*
X599171Y282650D01*
X599023Y282669D01*
X598875Y282706D01*
X598690Y282743D01*
X598486Y282798D01*
X598283Y282854D01*
X598060Y282946D01*
X597838Y283039D01*
X597598Y283169D01*
X597375Y283317D01*
X597135Y283484D01*
X596912Y283687D01*
X596690Y283909D01*
X596672Y283928D01*
X596635Y283965D01*
X596579Y284039D01*
X596524Y284150D01*
X596431Y284280D01*
X596338Y284446D01*
X596227Y284632D01*
X596135Y284854D01*
X596024Y285094D01*
X595913Y285354D01*
X595820Y285650D01*
X595746Y285965D01*
X595672Y286317D01*
X595616Y286687D01*
X595579Y287076D01*
X595561Y287502D01*
Y287520D01*
Y287613D01*
Y287724D01*
X595579Y287890D01*
X595598Y288094D01*
X595616Y288316D01*
X595653Y288575D01*
X595690Y288835D01*
X595820Y289427D01*
X595913Y289724D01*
X596024Y290020D01*
X596153Y290316D01*
X596301Y290594D01*
X596468Y290853D01*
X596653Y291094D01*
X596672Y291112D01*
X596709Y291149D01*
X596764Y291205D01*
X596857Y291297D01*
X596968Y291390D01*
X597098Y291483D01*
X597246Y291594D01*
X597431Y291723D01*
X597616Y291834D01*
X597838Y291945D01*
X598301Y292149D01*
X598579Y292223D01*
X598857Y292279D01*
X599153Y292316D01*
X599468Y292334D01*
X599616D01*
X599727Y292316D01*
X599857Y292297D01*
X600023Y292260D01*
X600190Y292223D01*
X600393Y292168D01*
X600597Y292112D01*
X600819Y292020D01*
X601042Y291908D01*
X601264Y291797D01*
X601505Y291631D01*
X601727Y291464D01*
X601949Y291260D01*
X602171Y291038D01*
Y295649D01*
X604634D01*
Y282835D01*
D02*
G37*
G36*
X710141Y292316D02*
X710345Y292279D01*
X710604Y292223D01*
X710882Y292131D01*
X711160Y292020D01*
X711456Y291853D01*
X710678Y289724D01*
X710660Y289742D01*
X710567Y289779D01*
X710456Y289853D01*
X710308Y289927D01*
X710123Y290001D01*
X709938Y290075D01*
X709734Y290112D01*
X709530Y290131D01*
X709456D01*
X709345Y290112D01*
X709234Y290094D01*
X709105Y290057D01*
X708956Y290001D01*
X708808Y289927D01*
X708660Y289835D01*
X708642Y289816D01*
X708605Y289779D01*
X708531Y289705D01*
X708456Y289594D01*
X708364Y289464D01*
X708271Y289279D01*
X708179Y289057D01*
X708105Y288798D01*
Y288761D01*
X708086Y288705D01*
X708068Y288650D01*
Y288557D01*
X708049Y288446D01*
X708030Y288298D01*
X708012Y288131D01*
X707993Y287946D01*
X707975Y287705D01*
X707956Y287465D01*
Y287168D01*
X707938Y286854D01*
X707919Y286502D01*
Y286113D01*
Y285687D01*
Y282835D01*
X705457D01*
Y292131D01*
X707734D01*
Y290816D01*
X707753Y290835D01*
X707827Y290946D01*
X707938Y291112D01*
X708086Y291316D01*
X708234Y291520D01*
X708419Y291723D01*
X708586Y291908D01*
X708771Y292038D01*
X708790Y292057D01*
X708845Y292094D01*
X708956Y292131D01*
X709086Y292186D01*
X709234Y292242D01*
X709419Y292297D01*
X709604Y292316D01*
X709827Y292334D01*
X709975D01*
X710141Y292316D01*
D02*
G37*
G36*
X694254D02*
X694458Y292297D01*
X694680Y292260D01*
X694921Y292205D01*
X695180Y292131D01*
X695439Y292038D01*
X695476Y292020D01*
X695550Y291983D01*
X695680Y291927D01*
X695828Y291834D01*
X695995Y291723D01*
X696161Y291594D01*
X696328Y291446D01*
X696476Y291279D01*
X696495Y291260D01*
X696532Y291205D01*
X696587Y291112D01*
X696661Y290983D01*
X696754Y290835D01*
X696828Y290649D01*
X696902Y290464D01*
X696958Y290242D01*
Y290224D01*
X696976Y290131D01*
X697013Y290001D01*
X697032Y289816D01*
X697069Y289594D01*
X697087Y289298D01*
X697106Y288983D01*
Y288594D01*
Y282835D01*
X694643D01*
Y287557D01*
Y287576D01*
Y287631D01*
Y287705D01*
Y287798D01*
Y287927D01*
Y288057D01*
X694624Y288372D01*
X694606Y288687D01*
X694569Y289020D01*
X694532Y289298D01*
X694513Y289409D01*
X694476Y289501D01*
Y289520D01*
X694439Y289575D01*
X694402Y289650D01*
X694347Y289761D01*
X694180Y289983D01*
X694088Y290094D01*
X693958Y290187D01*
X693939Y290205D01*
X693902Y290224D01*
X693828Y290261D01*
X693717Y290316D01*
X693588Y290372D01*
X693458Y290409D01*
X693291Y290427D01*
X693106Y290446D01*
X692995D01*
X692884Y290427D01*
X692736Y290409D01*
X692551Y290353D01*
X692365Y290298D01*
X692162Y290205D01*
X691958Y290094D01*
X691940Y290075D01*
X691884Y290038D01*
X691792Y289946D01*
X691680Y289853D01*
X691569Y289705D01*
X691458Y289557D01*
X691347Y289353D01*
X691273Y289149D01*
Y289131D01*
X691236Y289038D01*
X691217Y288890D01*
X691180Y288668D01*
X691162Y288538D01*
X691143Y288372D01*
X691125Y288205D01*
Y288001D01*
X691106Y287798D01*
X691088Y287557D01*
Y287298D01*
Y287020D01*
Y282835D01*
X688625D01*
Y292131D01*
X690903D01*
Y290760D01*
X690921Y290779D01*
X690958Y290835D01*
X691032Y290909D01*
X691125Y291001D01*
X691236Y291131D01*
X691384Y291260D01*
X691551Y291409D01*
X691736Y291557D01*
X691940Y291686D01*
X692180Y291834D01*
X692421Y291964D01*
X692699Y292094D01*
X692995Y292186D01*
X693291Y292260D01*
X693625Y292316D01*
X693958Y292334D01*
X694088D01*
X694254Y292316D01*
D02*
G37*
G36*
X582562Y282835D02*
X580173D01*
X580155Y292908D01*
X577637Y282835D01*
X575137D01*
X572619Y292908D01*
Y282835D01*
X570230D01*
Y295649D01*
X574100D01*
X576396Y286891D01*
X578674Y295649D01*
X582562D01*
Y282835D01*
D02*
G37*
G36*
X615466D02*
X613189D01*
Y284224D01*
X613170Y284187D01*
X613096Y284095D01*
X612985Y283965D01*
X612818Y283798D01*
X612633Y283595D01*
X612392Y283409D01*
X612133Y283206D01*
X611837Y283039D01*
X611800Y283020D01*
X611689Y282983D01*
X611522Y282909D01*
X611300Y282835D01*
X611041Y282761D01*
X610744Y282687D01*
X610429Y282650D01*
X610096Y282632D01*
X609930D01*
X609763Y282650D01*
X609541Y282687D01*
X609263Y282724D01*
X608985Y282798D01*
X608689Y282909D01*
X608411Y283039D01*
X608374Y283058D01*
X608300Y283113D01*
X608152Y283206D01*
X608004Y283335D01*
X607819Y283502D01*
X607652Y283687D01*
X607485Y283928D01*
X607337Y284187D01*
X607319Y284224D01*
X607282Y284317D01*
X607226Y284483D01*
X607171Y284724D01*
X607115Y285020D01*
X607060Y285372D01*
X607023Y285779D01*
X607004Y286242D01*
Y292131D01*
X609467D01*
Y287853D01*
Y287835D01*
Y287761D01*
Y287668D01*
Y287539D01*
Y287390D01*
Y287224D01*
X609485Y286835D01*
X609504Y286409D01*
X609522Y286020D01*
X609541Y285854D01*
X609559Y285687D01*
X609578Y285557D01*
X609596Y285465D01*
Y285446D01*
X609615Y285391D01*
X609652Y285317D01*
X609707Y285205D01*
X609763Y285094D01*
X609855Y284983D01*
X609948Y284872D01*
X610078Y284761D01*
X610096Y284743D01*
X610152Y284724D01*
X610226Y284687D01*
X610337Y284650D01*
X610467Y284594D01*
X610633Y284557D01*
X610800Y284539D01*
X611004Y284520D01*
X611115D01*
X611226Y284539D01*
X611374Y284557D01*
X611559Y284594D01*
X611744Y284669D01*
X611948Y284743D01*
X612133Y284854D01*
X612152Y284872D01*
X612207Y284909D01*
X612300Y284983D01*
X612411Y285094D01*
X612522Y285224D01*
X612633Y285354D01*
X612744Y285520D01*
X612818Y285705D01*
Y285724D01*
X612855Y285816D01*
Y285891D01*
X612874Y285983D01*
X612892Y286076D01*
X612911Y286205D01*
X612929Y286372D01*
X612948Y286539D01*
X612966Y286742D01*
Y286983D01*
X612985Y287242D01*
X613003Y287539D01*
Y287853D01*
Y288205D01*
Y292131D01*
X615466D01*
Y282835D01*
D02*
G37*
G36*
X725918D02*
X723455D01*
Y295649D01*
X725918D01*
Y282835D01*
D02*
G37*
G36*
X620447D02*
X617984D01*
Y295649D01*
X620447D01*
Y282835D01*
D02*
G37*
G36*
X717085Y292316D02*
X717270Y292297D01*
X717474Y292260D01*
X717715Y292223D01*
X717955Y292168D01*
X718233Y292094D01*
X718511Y292001D01*
X718789Y291890D01*
X719085Y291760D01*
X719381Y291594D01*
X719659Y291409D01*
X719937Y291205D01*
X720196Y290964D01*
X720214Y290946D01*
X720251Y290909D01*
X720326Y290816D01*
X720400Y290723D01*
X720511Y290575D01*
X720622Y290427D01*
X720751Y290224D01*
X720881Y290020D01*
X720992Y289779D01*
X721122Y289520D01*
X721233Y289224D01*
X721344Y288927D01*
X721418Y288594D01*
X721492Y288261D01*
X721529Y287890D01*
X721548Y287502D01*
Y287483D01*
Y287409D01*
Y287298D01*
X721529Y287150D01*
X721511Y286965D01*
X721474Y286761D01*
X721437Y286520D01*
X721381Y286280D01*
X721307Y286002D01*
X721214Y285724D01*
X721103Y285428D01*
X720974Y285131D01*
X720807Y284835D01*
X720622Y284557D01*
X720418Y284280D01*
X720177Y284002D01*
X720159Y283983D01*
X720122Y283946D01*
X720048Y283872D01*
X719937Y283780D01*
X719807Y283687D01*
X719640Y283576D01*
X719455Y283446D01*
X719252Y283317D01*
X719011Y283187D01*
X718752Y283058D01*
X718474Y282946D01*
X718159Y282854D01*
X717844Y282761D01*
X717493Y282687D01*
X717141Y282650D01*
X716752Y282632D01*
X716622D01*
X716530Y282650D01*
X716419D01*
X716289Y282669D01*
X715974Y282706D01*
X715585Y282780D01*
X715178Y282872D01*
X714752Y283020D01*
X714308Y283206D01*
X714289D01*
X714252Y283224D01*
X714197Y283261D01*
X714122Y283317D01*
X713919Y283446D01*
X713660Y283632D01*
X713382Y283872D01*
X713086Y284169D01*
X712808Y284502D01*
X712549Y284891D01*
Y284909D01*
X712530Y284946D01*
X712493Y285002D01*
X712456Y285094D01*
X712419Y285205D01*
X712363Y285335D01*
X712308Y285483D01*
X712252Y285650D01*
X712197Y285835D01*
X712141Y286039D01*
X712049Y286502D01*
X711975Y287039D01*
X711956Y287613D01*
Y287631D01*
Y287668D01*
Y287742D01*
X711975Y287816D01*
Y287927D01*
X711993Y288057D01*
X712030Y288372D01*
X712104Y288724D01*
X712215Y289112D01*
X712345Y289538D01*
X712549Y289964D01*
Y289983D01*
X712586Y290020D01*
X712604Y290075D01*
X712660Y290149D01*
X712808Y290353D01*
X712993Y290612D01*
X713234Y290890D01*
X713530Y291186D01*
X713863Y291464D01*
X714252Y291723D01*
X714271D01*
X714308Y291742D01*
X714363Y291779D01*
X714456Y291816D01*
X714548Y291871D01*
X714678Y291908D01*
X714826Y291964D01*
X714974Y292038D01*
X715345Y292149D01*
X715770Y292242D01*
X716233Y292316D01*
X716733Y292334D01*
X716937D01*
X717085Y292316D01*
D02*
G37*
G36*
X702179Y292131D02*
X703864D01*
Y290168D01*
X702179D01*
Y286409D01*
Y286391D01*
Y286353D01*
Y286298D01*
Y286224D01*
Y286039D01*
Y285816D01*
X702198Y285594D01*
Y285372D01*
Y285205D01*
X702216Y285131D01*
Y285094D01*
X702235Y285057D01*
X702272Y284983D01*
X702327Y284891D01*
X702439Y284780D01*
X702476Y284761D01*
X702550Y284724D01*
X702679Y284687D01*
X702846Y284669D01*
X702920D01*
X702994Y284687D01*
X703105Y284706D01*
X703253Y284724D01*
X703420Y284761D01*
X703624Y284817D01*
X703846Y284891D01*
X704068Y282983D01*
X704050D01*
X704031Y282965D01*
X703920Y282928D01*
X703735Y282872D01*
X703494Y282817D01*
X703216Y282743D01*
X702883Y282687D01*
X702513Y282650D01*
X702124Y282632D01*
X702013D01*
X701883Y282650D01*
X701716Y282669D01*
X701531Y282687D01*
X701328Y282724D01*
X701124Y282780D01*
X700920Y282854D01*
X700902Y282872D01*
X700828Y282891D01*
X700735Y282946D01*
X700624Y283002D01*
X700365Y283187D01*
X700235Y283298D01*
X700124Y283428D01*
X700105Y283446D01*
X700087Y283502D01*
X700050Y283576D01*
X699994Y283687D01*
X699939Y283817D01*
X699883Y283983D01*
X699828Y284169D01*
X699791Y284372D01*
Y284391D01*
X699772Y284465D01*
Y284576D01*
X699754Y284761D01*
X699735Y285002D01*
Y285298D01*
X699717Y285465D01*
Y285668D01*
Y285872D01*
Y286113D01*
Y290168D01*
X698587D01*
Y292131D01*
X699717D01*
Y293982D01*
X702179Y295427D01*
Y292131D01*
D02*
G37*
G36*
X682274Y292316D02*
X682459Y292297D01*
X682663Y292260D01*
X682904Y292223D01*
X683144Y292168D01*
X683422Y292094D01*
X683700Y292001D01*
X683978Y291890D01*
X684274Y291760D01*
X684570Y291594D01*
X684848Y291409D01*
X685126Y291205D01*
X685385Y290964D01*
X685403Y290946D01*
X685440Y290909D01*
X685514Y290816D01*
X685588Y290723D01*
X685699Y290575D01*
X685811Y290427D01*
X685940Y290224D01*
X686070Y290020D01*
X686181Y289779D01*
X686311Y289520D01*
X686422Y289224D01*
X686533Y288927D01*
X686607Y288594D01*
X686681Y288261D01*
X686718Y287890D01*
X686736Y287502D01*
Y287483D01*
Y287409D01*
Y287298D01*
X686718Y287150D01*
X686699Y286965D01*
X686662Y286761D01*
X686625Y286520D01*
X686570Y286280D01*
X686496Y286002D01*
X686403Y285724D01*
X686292Y285428D01*
X686162Y285131D01*
X685996Y284835D01*
X685811Y284557D01*
X685607Y284280D01*
X685366Y284002D01*
X685348Y283983D01*
X685311Y283946D01*
X685237Y283872D01*
X685126Y283780D01*
X684996Y283687D01*
X684829Y283576D01*
X684644Y283446D01*
X684440Y283317D01*
X684200Y283187D01*
X683940Y283058D01*
X683663Y282946D01*
X683348Y282854D01*
X683033Y282761D01*
X682681Y282687D01*
X682329Y282650D01*
X681941Y282632D01*
X681811D01*
X681718Y282650D01*
X681607D01*
X681478Y282669D01*
X681163Y282706D01*
X680774Y282780D01*
X680367Y282872D01*
X679941Y283020D01*
X679497Y283206D01*
X679478D01*
X679441Y283224D01*
X679385Y283261D01*
X679311Y283317D01*
X679108Y283446D01*
X678848Y283632D01*
X678571Y283872D01*
X678274Y284169D01*
X677997Y284502D01*
X677737Y284891D01*
Y284909D01*
X677719Y284946D01*
X677682Y285002D01*
X677645Y285094D01*
X677608Y285205D01*
X677552Y285335D01*
X677497Y285483D01*
X677441Y285650D01*
X677386Y285835D01*
X677330Y286039D01*
X677237Y286502D01*
X677163Y287039D01*
X677145Y287613D01*
Y287631D01*
Y287668D01*
Y287742D01*
X677163Y287816D01*
Y287927D01*
X677182Y288057D01*
X677219Y288372D01*
X677293Y288724D01*
X677404Y289112D01*
X677534Y289538D01*
X677737Y289964D01*
Y289983D01*
X677774Y290020D01*
X677793Y290075D01*
X677849Y290149D01*
X677997Y290353D01*
X678182Y290612D01*
X678422Y290890D01*
X678719Y291186D01*
X679052Y291464D01*
X679441Y291723D01*
X679459D01*
X679497Y291742D01*
X679552Y291779D01*
X679645Y291816D01*
X679737Y291871D01*
X679867Y291908D01*
X680015Y291964D01*
X680163Y292038D01*
X680533Y292149D01*
X680959Y292242D01*
X681422Y292316D01*
X681922Y292334D01*
X682126D01*
X682274Y292316D01*
D02*
G37*
G36*
X653721D02*
X653888Y292297D01*
X654092Y292260D01*
X654314Y292223D01*
X654555Y292168D01*
X654814Y292094D01*
X655073Y292001D01*
X655351Y291890D01*
X655629Y291742D01*
X655888Y291594D01*
X656147Y291409D01*
X656406Y291186D01*
X656628Y290946D01*
X656647Y290927D01*
X656684Y290890D01*
X656740Y290798D01*
X656814Y290686D01*
X656906Y290538D01*
X656999Y290372D01*
X657110Y290149D01*
X657221Y289909D01*
X657332Y289631D01*
X657443Y289316D01*
X657536Y288983D01*
X657628Y288594D01*
X657702Y288187D01*
X657758Y287742D01*
X657795Y287279D01*
Y286761D01*
X651647D01*
Y286742D01*
Y286705D01*
Y286650D01*
X651666Y286576D01*
X651684Y286391D01*
X651722Y286131D01*
X651796Y285872D01*
X651907Y285576D01*
X652036Y285298D01*
X652222Y285057D01*
X652240Y285039D01*
X652333Y284965D01*
X652444Y284872D01*
X652610Y284761D01*
X652814Y284650D01*
X653073Y284557D01*
X653351Y284483D01*
X653647Y284465D01*
X653740D01*
X653851Y284483D01*
X653981Y284502D01*
X654129Y284539D01*
X654295Y284594D01*
X654462Y284669D01*
X654610Y284780D01*
X654629Y284798D01*
X654684Y284835D01*
X654758Y284909D01*
X654832Y285020D01*
X654943Y285168D01*
X655036Y285335D01*
X655129Y285557D01*
X655221Y285798D01*
X657665Y285391D01*
Y285372D01*
X657647Y285335D01*
X657610Y285261D01*
X657573Y285168D01*
X657517Y285057D01*
X657462Y284928D01*
X657295Y284632D01*
X657091Y284298D01*
X656832Y283946D01*
X656517Y283632D01*
X656165Y283335D01*
X656147D01*
X656128Y283298D01*
X656054Y283280D01*
X655980Y283224D01*
X655888Y283169D01*
X655758Y283113D01*
X655629Y283058D01*
X655462Y282983D01*
X655092Y282854D01*
X654666Y282743D01*
X654166Y282669D01*
X653629Y282632D01*
X653518D01*
X653407Y282650D01*
X653240D01*
X653036Y282687D01*
X652795Y282724D01*
X652536Y282761D01*
X652277Y282835D01*
X651981Y282909D01*
X651684Y283020D01*
X651388Y283150D01*
X651092Y283298D01*
X650796Y283484D01*
X650518Y283687D01*
X650277Y283928D01*
X650036Y284206D01*
X650018Y284224D01*
X649999Y284261D01*
X649962Y284335D01*
X649888Y284428D01*
X649833Y284557D01*
X649759Y284706D01*
X649666Y284872D01*
X649592Y285076D01*
X649500Y285298D01*
X649426Y285539D01*
X649333Y285798D01*
X649277Y286094D01*
X649222Y286391D01*
X649166Y286705D01*
X649148Y287057D01*
X649129Y287409D01*
Y287428D01*
Y287502D01*
Y287631D01*
X649148Y287798D01*
X649166Y287983D01*
X649185Y288205D01*
X649222Y288446D01*
X649277Y288724D01*
X649426Y289298D01*
X649518Y289594D01*
X649629Y289909D01*
X649777Y290205D01*
X649944Y290483D01*
X650129Y290760D01*
X650333Y291020D01*
X650351Y291038D01*
X650388Y291075D01*
X650462Y291149D01*
X650555Y291223D01*
X650666Y291316D01*
X650814Y291427D01*
X650981Y291557D01*
X651166Y291686D01*
X651370Y291797D01*
X651610Y291927D01*
X651851Y292038D01*
X652129Y292131D01*
X652407Y292205D01*
X652721Y292279D01*
X653036Y292316D01*
X653370Y292334D01*
X653573D01*
X653721Y292316D01*
D02*
G37*
G36*
X627539D02*
X627724Y292297D01*
X627928Y292260D01*
X628168Y292223D01*
X628409Y292168D01*
X628687Y292094D01*
X628965Y292001D01*
X629242Y291890D01*
X629539Y291760D01*
X629835Y291594D01*
X630113Y291409D01*
X630390Y291205D01*
X630650Y290964D01*
X630668Y290946D01*
X630705Y290909D01*
X630779Y290816D01*
X630853Y290723D01*
X630964Y290575D01*
X631076Y290427D01*
X631205Y290224D01*
X631335Y290020D01*
X631446Y289779D01*
X631576Y289520D01*
X631687Y289224D01*
X631798Y288927D01*
X631872Y288594D01*
X631946Y288261D01*
X631983Y287890D01*
X632001Y287502D01*
Y287483D01*
Y287409D01*
Y287298D01*
X631983Y287150D01*
X631964Y286965D01*
X631927Y286761D01*
X631890Y286520D01*
X631835Y286280D01*
X631761Y286002D01*
X631668Y285724D01*
X631557Y285428D01*
X631427Y285131D01*
X631261Y284835D01*
X631076Y284557D01*
X630872Y284280D01*
X630631Y284002D01*
X630613Y283983D01*
X630576Y283946D01*
X630502Y283872D01*
X630390Y283780D01*
X630261Y283687D01*
X630094Y283576D01*
X629909Y283446D01*
X629705Y283317D01*
X629465Y283187D01*
X629205Y283058D01*
X628928Y282946D01*
X628613Y282854D01*
X628298Y282761D01*
X627946Y282687D01*
X627594Y282650D01*
X627206Y282632D01*
X627076D01*
X626983Y282650D01*
X626872D01*
X626743Y282669D01*
X626428Y282706D01*
X626039Y282780D01*
X625632Y282872D01*
X625206Y283020D01*
X624761Y283206D01*
X624743D01*
X624706Y283224D01*
X624650Y283261D01*
X624576Y283317D01*
X624372Y283446D01*
X624113Y283632D01*
X623836Y283872D01*
X623539Y284169D01*
X623261Y284502D01*
X623002Y284891D01*
Y284909D01*
X622984Y284946D01*
X622947Y285002D01*
X622910Y285094D01*
X622873Y285205D01*
X622817Y285335D01*
X622762Y285483D01*
X622706Y285650D01*
X622650Y285835D01*
X622595Y286039D01*
X622502Y286502D01*
X622428Y287039D01*
X622410Y287613D01*
Y287631D01*
Y287668D01*
Y287742D01*
X622428Y287816D01*
Y287927D01*
X622447Y288057D01*
X622484Y288372D01*
X622558Y288724D01*
X622669Y289112D01*
X622799Y289538D01*
X623002Y289964D01*
Y289983D01*
X623039Y290020D01*
X623058Y290075D01*
X623113Y290149D01*
X623261Y290353D01*
X623447Y290612D01*
X623687Y290890D01*
X623984Y291186D01*
X624317Y291464D01*
X624706Y291723D01*
X624724D01*
X624761Y291742D01*
X624817Y291779D01*
X624910Y291816D01*
X625002Y291871D01*
X625132Y291908D01*
X625280Y291964D01*
X625428Y292038D01*
X625798Y292149D01*
X626224Y292242D01*
X626687Y292316D01*
X627187Y292334D01*
X627391D01*
X627539Y292316D01*
D02*
G37*
G36*
X589728D02*
X589913Y292297D01*
X590117Y292260D01*
X590358Y292223D01*
X590598Y292168D01*
X590876Y292094D01*
X591154Y292001D01*
X591432Y291890D01*
X591728Y291760D01*
X592024Y291594D01*
X592302Y291409D01*
X592579Y291205D01*
X592839Y290964D01*
X592857Y290946D01*
X592894Y290909D01*
X592968Y290816D01*
X593042Y290723D01*
X593154Y290575D01*
X593265Y290427D01*
X593394Y290224D01*
X593524Y290020D01*
X593635Y289779D01*
X593765Y289520D01*
X593876Y289224D01*
X593987Y288927D01*
X594061Y288594D01*
X594135Y288261D01*
X594172Y287890D01*
X594190Y287502D01*
Y287483D01*
Y287409D01*
Y287298D01*
X594172Y287150D01*
X594153Y286965D01*
X594116Y286761D01*
X594079Y286520D01*
X594024Y286280D01*
X593950Y286002D01*
X593857Y285724D01*
X593746Y285428D01*
X593616Y285131D01*
X593450Y284835D01*
X593265Y284557D01*
X593061Y284280D01*
X592820Y284002D01*
X592802Y283983D01*
X592765Y283946D01*
X592691Y283872D01*
X592579Y283780D01*
X592450Y283687D01*
X592283Y283576D01*
X592098Y283446D01*
X591894Y283317D01*
X591654Y283187D01*
X591395Y283058D01*
X591117Y282946D01*
X590802Y282854D01*
X590487Y282761D01*
X590135Y282687D01*
X589784Y282650D01*
X589395Y282632D01*
X589265D01*
X589173Y282650D01*
X589061D01*
X588932Y282669D01*
X588617Y282706D01*
X588228Y282780D01*
X587821Y282872D01*
X587395Y283020D01*
X586950Y283206D01*
X586932D01*
X586895Y283224D01*
X586839Y283261D01*
X586765Y283317D01*
X586562Y283446D01*
X586302Y283632D01*
X586025Y283872D01*
X585728Y284169D01*
X585451Y284502D01*
X585191Y284891D01*
Y284909D01*
X585173Y284946D01*
X585136Y285002D01*
X585099Y285094D01*
X585062Y285205D01*
X585006Y285335D01*
X584951Y285483D01*
X584895Y285650D01*
X584840Y285835D01*
X584784Y286039D01*
X584692Y286502D01*
X584617Y287039D01*
X584599Y287613D01*
Y287631D01*
Y287668D01*
Y287742D01*
X584617Y287816D01*
Y287927D01*
X584636Y288057D01*
X584673Y288372D01*
X584747Y288724D01*
X584858Y289112D01*
X584988Y289538D01*
X585191Y289964D01*
Y289983D01*
X585228Y290020D01*
X585247Y290075D01*
X585303Y290149D01*
X585451Y290353D01*
X585636Y290612D01*
X585877Y290890D01*
X586173Y291186D01*
X586506Y291464D01*
X586895Y291723D01*
X586913D01*
X586950Y291742D01*
X587006Y291779D01*
X587099Y291816D01*
X587191Y291871D01*
X587321Y291908D01*
X587469Y291964D01*
X587617Y292038D01*
X587987Y292149D01*
X588413Y292242D01*
X588876Y292316D01*
X589376Y292334D01*
X589580D01*
X589728Y292316D01*
D02*
G37*
G36*
X612800Y277477D02*
X610337D01*
Y279754D01*
X612800D01*
Y277477D01*
D02*
G37*
G36*
X619984Y277440D02*
X618447D01*
X619669Y280051D01*
X622410D01*
X619984Y277440D01*
D02*
G37*
G36*
X598005Y276421D02*
X598209Y276384D01*
X598468Y276329D01*
X598746Y276236D01*
X599023Y276125D01*
X599320Y275958D01*
X598542Y273829D01*
X598523Y273847D01*
X598431Y273884D01*
X598320Y273958D01*
X598172Y274033D01*
X597986Y274107D01*
X597801Y274181D01*
X597598Y274218D01*
X597394Y274236D01*
X597320D01*
X597209Y274218D01*
X597098Y274199D01*
X596968Y274162D01*
X596820Y274107D01*
X596672Y274033D01*
X596524Y273940D01*
X596505Y273922D01*
X596468Y273884D01*
X596394Y273810D01*
X596320Y273699D01*
X596227Y273570D01*
X596135Y273384D01*
X596042Y273162D01*
X595968Y272903D01*
Y272866D01*
X595950Y272810D01*
X595931Y272755D01*
Y272662D01*
X595913Y272551D01*
X595894Y272403D01*
X595876Y272236D01*
X595857Y272051D01*
X595839Y271811D01*
X595820Y271570D01*
Y271274D01*
X595801Y270959D01*
X595783Y270607D01*
Y270218D01*
Y269792D01*
Y266941D01*
X593320D01*
Y276236D01*
X595598D01*
Y274921D01*
X595616Y274940D01*
X595690Y275051D01*
X595801Y275218D01*
X595950Y275421D01*
X596098Y275625D01*
X596283Y275829D01*
X596450Y276014D01*
X596635Y276143D01*
X596653Y276162D01*
X596709Y276199D01*
X596820Y276236D01*
X596950Y276292D01*
X597098Y276347D01*
X597283Y276403D01*
X597468Y276421D01*
X597690Y276440D01*
X597838D01*
X598005Y276421D01*
D02*
G37*
G36*
X631872D02*
X632075Y276403D01*
X632298Y276366D01*
X632538Y276310D01*
X632798Y276236D01*
X633057Y276143D01*
X633094Y276125D01*
X633168Y276088D01*
X633298Y276032D01*
X633446Y275940D01*
X633612Y275829D01*
X633779Y275699D01*
X633946Y275551D01*
X634094Y275384D01*
X634112Y275366D01*
X634149Y275310D01*
X634205Y275218D01*
X634279Y275088D01*
X634371Y274940D01*
X634446Y274755D01*
X634520Y274570D01*
X634575Y274347D01*
Y274329D01*
X634594Y274236D01*
X634631Y274107D01*
X634649Y273922D01*
X634686Y273699D01*
X634705Y273403D01*
X634723Y273088D01*
Y272699D01*
Y266941D01*
X632261D01*
Y271662D01*
Y271681D01*
Y271737D01*
Y271811D01*
Y271903D01*
Y272033D01*
Y272162D01*
X632242Y272477D01*
X632224Y272792D01*
X632187Y273125D01*
X632150Y273403D01*
X632131Y273514D01*
X632094Y273607D01*
Y273625D01*
X632057Y273681D01*
X632020Y273755D01*
X631964Y273866D01*
X631798Y274088D01*
X631705Y274199D01*
X631576Y274292D01*
X631557Y274310D01*
X631520Y274329D01*
X631446Y274366D01*
X631335Y274421D01*
X631205Y274477D01*
X631076Y274514D01*
X630909Y274533D01*
X630724Y274551D01*
X630613D01*
X630502Y274533D01*
X630353Y274514D01*
X630168Y274459D01*
X629983Y274403D01*
X629779Y274310D01*
X629576Y274199D01*
X629557Y274181D01*
X629502Y274144D01*
X629409Y274051D01*
X629298Y273958D01*
X629187Y273810D01*
X629076Y273662D01*
X628965Y273459D01*
X628891Y273255D01*
Y273236D01*
X628854Y273144D01*
X628835Y272996D01*
X628798Y272773D01*
X628779Y272644D01*
X628761Y272477D01*
X628742Y272311D01*
Y272107D01*
X628724Y271903D01*
X628705Y271662D01*
Y271403D01*
Y271126D01*
Y266941D01*
X626243D01*
Y276236D01*
X628520D01*
Y274866D01*
X628539Y274884D01*
X628576Y274940D01*
X628650Y275014D01*
X628742Y275107D01*
X628854Y275236D01*
X629002Y275366D01*
X629168Y275514D01*
X629353Y275662D01*
X629557Y275792D01*
X629798Y275940D01*
X630039Y276069D01*
X630316Y276199D01*
X630613Y276292D01*
X630909Y276366D01*
X631242Y276421D01*
X631576Y276440D01*
X631705D01*
X631872Y276421D01*
D02*
G37*
G36*
X604226D02*
X604412Y276403D01*
X604615Y276384D01*
X604837Y276366D01*
X605300Y276292D01*
X605763Y276180D01*
X606208Y276014D01*
X606411Y275921D01*
X606597Y275810D01*
X606615D01*
X606634Y275773D01*
X606745Y275699D01*
X606911Y275551D01*
X607097Y275347D01*
X607319Y275107D01*
X607522Y274792D01*
X607726Y274421D01*
X607874Y273995D01*
X605560Y273570D01*
Y273588D01*
X605523Y273662D01*
X605486Y273755D01*
X605430Y273866D01*
X605356Y274014D01*
X605245Y274144D01*
X605134Y274273D01*
X604986Y274384D01*
X604967Y274403D01*
X604912Y274440D01*
X604819Y274477D01*
X604689Y274533D01*
X604523Y274588D01*
X604319Y274644D01*
X604078Y274662D01*
X603801Y274681D01*
X603634D01*
X603467Y274662D01*
X603264Y274644D01*
X603023Y274607D01*
X602801Y274570D01*
X602597Y274496D01*
X602412Y274403D01*
X602393D01*
X602375Y274366D01*
X602282Y274273D01*
X602171Y274107D01*
X602153Y274014D01*
X602134Y273903D01*
Y273884D01*
Y273866D01*
X602171Y273755D01*
X602245Y273607D01*
X602301Y273533D01*
X602375Y273459D01*
X602393Y273440D01*
X602467Y273421D01*
X602504Y273384D01*
X602579Y273366D01*
X602671Y273329D01*
X602782Y273273D01*
X602930Y273236D01*
X603078Y273181D01*
X603264Y273125D01*
X603486Y273070D01*
X603727Y272996D01*
X604004Y272922D01*
X604319Y272847D01*
X604671Y272755D01*
X604689D01*
X604763Y272736D01*
X604856Y272718D01*
X604986Y272681D01*
X605152Y272625D01*
X605337Y272588D01*
X605745Y272459D01*
X606208Y272292D01*
X606652Y272107D01*
X606874Y271996D01*
X607078Y271903D01*
X607245Y271773D01*
X607411Y271662D01*
X607448Y271625D01*
X607541Y271551D01*
X607652Y271403D01*
X607800Y271199D01*
X607948Y270940D01*
X608059Y270625D01*
X608152Y270255D01*
X608189Y269848D01*
Y269829D01*
Y269792D01*
Y269718D01*
X608171Y269626D01*
X608152Y269533D01*
X608134Y269403D01*
X608059Y269089D01*
X607930Y268755D01*
X607837Y268570D01*
X607745Y268385D01*
X607615Y268200D01*
X607467Y268015D01*
X607300Y267829D01*
X607115Y267644D01*
X607097Y267626D01*
X607060Y267607D01*
X607004Y267570D01*
X606911Y267496D01*
X606800Y267441D01*
X606671Y267367D01*
X606504Y267274D01*
X606319Y267200D01*
X606115Y267107D01*
X605874Y267033D01*
X605615Y266941D01*
X605337Y266885D01*
X605023Y266830D01*
X604689Y266774D01*
X604338Y266756D01*
X603967Y266737D01*
X603782D01*
X603652Y266756D01*
X603486D01*
X603301Y266774D01*
X603097Y266793D01*
X602875Y266830D01*
X602393Y266922D01*
X601893Y267052D01*
X601393Y267237D01*
X601171Y267367D01*
X600949Y267496D01*
X600930Y267515D01*
X600894Y267533D01*
X600838Y267570D01*
X600782Y267644D01*
X600579Y267811D01*
X600356Y268052D01*
X600116Y268348D01*
X599894Y268700D01*
X599690Y269126D01*
X599523Y269589D01*
X601986Y269959D01*
Y269922D01*
X602023Y269848D01*
X602060Y269718D01*
X602116Y269552D01*
X602208Y269366D01*
X602319Y269200D01*
X602449Y269015D01*
X602616Y268866D01*
X602634Y268848D01*
X602708Y268811D01*
X602819Y268755D01*
X602967Y268700D01*
X603153Y268626D01*
X603393Y268570D01*
X603652Y268533D01*
X603967Y268515D01*
X604115D01*
X604300Y268533D01*
X604504Y268552D01*
X604726Y268589D01*
X604967Y268663D01*
X605189Y268737D01*
X605393Y268848D01*
X605411Y268866D01*
X605449Y268904D01*
X605504Y268959D01*
X605560Y269033D01*
X605615Y269126D01*
X605671Y269237D01*
X605708Y269366D01*
X605726Y269515D01*
Y269533D01*
Y269570D01*
X605708Y269681D01*
X605652Y269829D01*
X605541Y269977D01*
X605504Y270014D01*
X605449Y270033D01*
X605374Y270089D01*
X605263Y270126D01*
X605115Y270181D01*
X604949Y270237D01*
X604726Y270292D01*
X604689D01*
X604597Y270329D01*
X604449Y270366D01*
X604245Y270403D01*
X604004Y270459D01*
X603745Y270533D01*
X603449Y270607D01*
X603134Y270700D01*
X602486Y270885D01*
X602171Y270977D01*
X601875Y271088D01*
X601597Y271181D01*
X601338Y271292D01*
X601116Y271403D01*
X600949Y271496D01*
X600930Y271514D01*
X600894Y271533D01*
X600857Y271570D01*
X600782Y271644D01*
X600597Y271811D01*
X600412Y272051D01*
X600208Y272348D01*
X600023Y272699D01*
X599949Y272903D01*
X599912Y273125D01*
X599875Y273347D01*
X599857Y273588D01*
Y273607D01*
Y273644D01*
Y273699D01*
X599875Y273792D01*
X599894Y273884D01*
X599912Y274014D01*
X599968Y274292D01*
X600079Y274607D01*
X600264Y274940D01*
X600356Y275125D01*
X600486Y275292D01*
X600634Y275458D01*
X600801Y275606D01*
X600819Y275625D01*
X600838Y275644D01*
X600894Y275681D01*
X600986Y275736D01*
X601079Y275792D01*
X601208Y275866D01*
X601356Y275940D01*
X601523Y276032D01*
X601727Y276106D01*
X601949Y276180D01*
X602190Y276255D01*
X602449Y276310D01*
X602745Y276366D01*
X603060Y276403D01*
X603393Y276440D01*
X604078D01*
X604226Y276421D01*
D02*
G37*
G36*
X577618Y266941D02*
X574822D01*
X570230Y279754D01*
X573026D01*
X576285Y270274D01*
X579414Y279754D01*
X582173D01*
X577618Y266941D01*
D02*
G37*
G36*
X654610D02*
X652147D01*
Y269403D01*
X654610D01*
Y266941D01*
D02*
G37*
G36*
X647944D02*
X645481D01*
Y276217D01*
X645463Y276199D01*
X645426Y276162D01*
X645352Y276106D01*
X645241Y276014D01*
X645111Y275903D01*
X644963Y275792D01*
X644778Y275662D01*
X644574Y275514D01*
X644352Y275366D01*
X644111Y275218D01*
X643852Y275051D01*
X643574Y274903D01*
X642982Y274625D01*
X642315Y274366D01*
Y276588D01*
X642334D01*
X642352Y276606D01*
X642408Y276625D01*
X642482Y276643D01*
X642667Y276736D01*
X642926Y276847D01*
X643241Y276995D01*
X643593Y277199D01*
X643982Y277458D01*
X644389Y277754D01*
X644408Y277773D01*
X644445Y277791D01*
X644500Y277847D01*
X644574Y277921D01*
X644778Y278106D01*
X645000Y278347D01*
X645259Y278643D01*
X645518Y279014D01*
X645759Y279402D01*
X645944Y279828D01*
X647944D01*
Y266941D01*
D02*
G37*
G36*
X612800D02*
X610337D01*
Y276236D01*
X612800D01*
Y266941D01*
D02*
G37*
G36*
X619892Y276421D02*
X620077Y276403D01*
X620280Y276366D01*
X620521Y276329D01*
X620762Y276273D01*
X621040Y276199D01*
X621317Y276106D01*
X621595Y275995D01*
X621891Y275866D01*
X622188Y275699D01*
X622465Y275514D01*
X622743Y275310D01*
X623002Y275070D01*
X623021Y275051D01*
X623058Y275014D01*
X623132Y274921D01*
X623206Y274829D01*
X623317Y274681D01*
X623428Y274533D01*
X623558Y274329D01*
X623687Y274125D01*
X623798Y273884D01*
X623928Y273625D01*
X624039Y273329D01*
X624150Y273033D01*
X624224Y272699D01*
X624299Y272366D01*
X624336Y271996D01*
X624354Y271607D01*
Y271588D01*
Y271514D01*
Y271403D01*
X624336Y271255D01*
X624317Y271070D01*
X624280Y270866D01*
X624243Y270625D01*
X624187Y270385D01*
X624113Y270107D01*
X624021Y269829D01*
X623910Y269533D01*
X623780Y269237D01*
X623613Y268941D01*
X623428Y268663D01*
X623224Y268385D01*
X622984Y268107D01*
X622965Y268089D01*
X622928Y268052D01*
X622854Y267978D01*
X622743Y267885D01*
X622613Y267792D01*
X622447Y267681D01*
X622262Y267552D01*
X622058Y267422D01*
X621817Y267292D01*
X621558Y267163D01*
X621280Y267052D01*
X620965Y266959D01*
X620651Y266867D01*
X620299Y266793D01*
X619947Y266756D01*
X619558Y266737D01*
X619429D01*
X619336Y266756D01*
X619225D01*
X619095Y266774D01*
X618781Y266811D01*
X618392Y266885D01*
X617984Y266978D01*
X617558Y267126D01*
X617114Y267311D01*
X617095D01*
X617058Y267330D01*
X617003Y267367D01*
X616929Y267422D01*
X616725Y267552D01*
X616466Y267737D01*
X616188Y267978D01*
X615892Y268274D01*
X615614Y268607D01*
X615355Y268996D01*
Y269015D01*
X615336Y269052D01*
X615299Y269107D01*
X615262Y269200D01*
X615225Y269311D01*
X615170Y269440D01*
X615114Y269589D01*
X615059Y269755D01*
X615003Y269940D01*
X614948Y270144D01*
X614855Y270607D01*
X614781Y271144D01*
X614762Y271718D01*
Y271737D01*
Y271773D01*
Y271848D01*
X614781Y271922D01*
Y272033D01*
X614799Y272162D01*
X614837Y272477D01*
X614911Y272829D01*
X615022Y273218D01*
X615151Y273644D01*
X615355Y274070D01*
Y274088D01*
X615392Y274125D01*
X615410Y274181D01*
X615466Y274255D01*
X615614Y274459D01*
X615799Y274718D01*
X616040Y274995D01*
X616336Y275292D01*
X616670Y275569D01*
X617058Y275829D01*
X617077D01*
X617114Y275847D01*
X617170Y275884D01*
X617262Y275921D01*
X617355Y275977D01*
X617484Y276014D01*
X617632Y276069D01*
X617781Y276143D01*
X618151Y276255D01*
X618577Y276347D01*
X619040Y276421D01*
X619540Y276440D01*
X619743D01*
X619892Y276421D01*
D02*
G37*
G36*
X587339D02*
X587506Y276403D01*
X587710Y276366D01*
X587932Y276329D01*
X588173Y276273D01*
X588432Y276199D01*
X588691Y276106D01*
X588969Y275995D01*
X589246Y275847D01*
X589506Y275699D01*
X589765Y275514D01*
X590024Y275292D01*
X590246Y275051D01*
X590265Y275033D01*
X590302Y274995D01*
X590358Y274903D01*
X590432Y274792D01*
X590524Y274644D01*
X590617Y274477D01*
X590728Y274255D01*
X590839Y274014D01*
X590950Y273736D01*
X591061Y273421D01*
X591154Y273088D01*
X591246Y272699D01*
X591320Y272292D01*
X591376Y271848D01*
X591413Y271385D01*
Y270866D01*
X585266D01*
Y270848D01*
Y270811D01*
Y270755D01*
X585284Y270681D01*
X585303Y270496D01*
X585340Y270237D01*
X585414Y269977D01*
X585525Y269681D01*
X585654Y269403D01*
X585840Y269163D01*
X585858Y269144D01*
X585951Y269070D01*
X586062Y268978D01*
X586228Y268866D01*
X586432Y268755D01*
X586691Y268663D01*
X586969Y268589D01*
X587265Y268570D01*
X587358D01*
X587469Y268589D01*
X587599Y268607D01*
X587747Y268644D01*
X587913Y268700D01*
X588080Y268774D01*
X588228Y268885D01*
X588247Y268904D01*
X588302Y268941D01*
X588376Y269015D01*
X588450Y269126D01*
X588561Y269274D01*
X588654Y269440D01*
X588747Y269663D01*
X588839Y269903D01*
X591283Y269496D01*
Y269478D01*
X591265Y269440D01*
X591228Y269366D01*
X591191Y269274D01*
X591135Y269163D01*
X591080Y269033D01*
X590913Y268737D01*
X590709Y268403D01*
X590450Y268052D01*
X590135Y267737D01*
X589784Y267441D01*
X589765D01*
X589747Y267404D01*
X589672Y267385D01*
X589598Y267330D01*
X589506Y267274D01*
X589376Y267218D01*
X589246Y267163D01*
X589080Y267089D01*
X588710Y266959D01*
X588284Y266848D01*
X587784Y266774D01*
X587247Y266737D01*
X587136D01*
X587025Y266756D01*
X586858D01*
X586654Y266793D01*
X586413Y266830D01*
X586154Y266867D01*
X585895Y266941D01*
X585599Y267015D01*
X585303Y267126D01*
X585006Y267255D01*
X584710Y267404D01*
X584414Y267589D01*
X584136Y267792D01*
X583895Y268033D01*
X583655Y268311D01*
X583636Y268330D01*
X583618Y268367D01*
X583581Y268441D01*
X583506Y268533D01*
X583451Y268663D01*
X583377Y268811D01*
X583284Y268978D01*
X583210Y269181D01*
X583118Y269403D01*
X583044Y269644D01*
X582951Y269903D01*
X582895Y270200D01*
X582840Y270496D01*
X582784Y270811D01*
X582766Y271162D01*
X582747Y271514D01*
Y271533D01*
Y271607D01*
Y271737D01*
X582766Y271903D01*
X582784Y272088D01*
X582803Y272311D01*
X582840Y272551D01*
X582895Y272829D01*
X583044Y273403D01*
X583136Y273699D01*
X583247Y274014D01*
X583395Y274310D01*
X583562Y274588D01*
X583747Y274866D01*
X583951Y275125D01*
X583969Y275144D01*
X584006Y275181D01*
X584080Y275255D01*
X584173Y275329D01*
X584284Y275421D01*
X584432Y275532D01*
X584599Y275662D01*
X584784Y275792D01*
X584988Y275903D01*
X585228Y276032D01*
X585469Y276143D01*
X585747Y276236D01*
X586025Y276310D01*
X586339Y276384D01*
X586654Y276421D01*
X586987Y276440D01*
X587191D01*
X587339Y276421D01*
D02*
G37*
G36*
X661072Y279810D02*
X661221Y279791D01*
X661406Y279754D01*
X661591Y279717D01*
X661813Y279662D01*
X662054Y279588D01*
X662276Y279495D01*
X662517Y279402D01*
X662757Y279273D01*
X662998Y279106D01*
X663239Y278939D01*
X663461Y278736D01*
X663665Y278495D01*
X663683Y278477D01*
X663720Y278421D01*
X663776Y278328D01*
X663868Y278199D01*
X663961Y278014D01*
X664072Y277791D01*
X664183Y277551D01*
X664294Y277236D01*
X664405Y276903D01*
X664535Y276514D01*
X664628Y276088D01*
X664720Y275606D01*
X664813Y275088D01*
X664868Y274533D01*
X664905Y273922D01*
X664924Y273255D01*
Y273236D01*
Y273218D01*
Y273162D01*
Y273088D01*
Y272903D01*
X664905Y272662D01*
X664887Y272366D01*
X664850Y272014D01*
X664813Y271644D01*
X664776Y271237D01*
X664702Y270811D01*
X664609Y270366D01*
X664517Y269940D01*
X664387Y269515D01*
X664257Y269089D01*
X664072Y268700D01*
X663887Y268330D01*
X663665Y268015D01*
X663646Y267996D01*
X663609Y267959D01*
X663554Y267885D01*
X663480Y267811D01*
X663369Y267718D01*
X663239Y267607D01*
X663072Y267478D01*
X662906Y267367D01*
X662702Y267237D01*
X662498Y267107D01*
X662258Y266996D01*
X661998Y266904D01*
X661721Y266830D01*
X661406Y266756D01*
X661091Y266719D01*
X660758Y266700D01*
X660684D01*
X660573Y266719D01*
X660443D01*
X660295Y266737D01*
X660110Y266774D01*
X659906Y266811D01*
X659684Y266885D01*
X659443Y266959D01*
X659202Y267052D01*
X658943Y267163D01*
X658702Y267311D01*
X658443Y267459D01*
X658202Y267663D01*
X657962Y267866D01*
X657739Y268126D01*
X657721Y268144D01*
X657684Y268200D01*
X657628Y268292D01*
X657573Y268403D01*
X657480Y268570D01*
X657388Y268774D01*
X657277Y269033D01*
X657184Y269311D01*
X657073Y269644D01*
X656962Y270014D01*
X656869Y270440D01*
X656795Y270903D01*
X656721Y271422D01*
X656665Y271996D01*
X656628Y272607D01*
X656610Y273273D01*
Y273292D01*
Y273310D01*
Y273366D01*
Y273440D01*
Y273625D01*
X656628Y273866D01*
X656647Y274162D01*
X656684Y274514D01*
X656721Y274884D01*
X656758Y275292D01*
X656832Y275718D01*
X656906Y276143D01*
X657017Y276588D01*
X657128Y277014D01*
X657277Y277421D01*
X657443Y277810D01*
X657628Y278180D01*
X657851Y278495D01*
X657869Y278514D01*
X657906Y278551D01*
X657962Y278625D01*
X658054Y278699D01*
X658147Y278810D01*
X658276Y278921D01*
X658443Y279032D01*
X658610Y279162D01*
X658813Y279291D01*
X659017Y279402D01*
X659258Y279513D01*
X659517Y279625D01*
X659795Y279699D01*
X660110Y279773D01*
X660424Y279810D01*
X660758Y279828D01*
X660943D01*
X661072Y279810D01*
D02*
G37*
%LPC*%
G36*
X532616Y668845D02*
X532154D01*
Y668691D01*
X531693D01*
Y668537D01*
X531385D01*
Y668383D01*
X531077D01*
Y668229D01*
X530616D01*
Y668075D01*
X530308D01*
Y667922D01*
X530000D01*
Y667768D01*
X529539D01*
Y667614D01*
X529231D01*
Y667460D01*
X528924D01*
Y667306D01*
X528462D01*
Y667152D01*
X528154D01*
Y666999D01*
X527847D01*
Y666845D01*
X527385D01*
Y666691D01*
X527077D01*
Y666537D01*
X526770D01*
Y666383D01*
X526308D01*
Y666229D01*
X526001D01*
Y666076D01*
X525693D01*
Y665922D01*
X525231D01*
Y665768D01*
X524924D01*
Y665614D01*
X524616D01*
Y665460D01*
X524155D01*
Y665306D01*
X523847D01*
Y665153D01*
X523539D01*
Y664999D01*
X523078D01*
Y664845D01*
X522770D01*
Y664691D01*
X522462D01*
Y664537D01*
X522155D01*
Y664383D01*
X521693D01*
Y664230D01*
X521385D01*
Y664076D01*
X520924D01*
Y663922D01*
X520616D01*
Y663768D01*
X520308D01*
Y663614D01*
X520001D01*
Y663460D01*
X519539D01*
Y663306D01*
X519232D01*
Y663153D01*
X518924D01*
Y662999D01*
X518462D01*
Y662845D01*
X518155D01*
Y662691D01*
X517847D01*
Y662537D01*
X517386D01*
Y662383D01*
X517078D01*
Y662230D01*
X516770D01*
Y662076D01*
X516309D01*
Y661922D01*
X516001D01*
Y661768D01*
X515693D01*
Y661614D01*
X515232D01*
Y661460D01*
X514924D01*
Y661307D01*
X514616D01*
Y661153D01*
X514155D01*
Y660999D01*
X513847D01*
Y660845D01*
X513540D01*
Y660537D01*
X513386D01*
Y653307D01*
Y653153D01*
Y642692D01*
X513540D01*
Y640846D01*
X513693D01*
Y639923D01*
X513847D01*
Y639154D01*
X514001D01*
Y638384D01*
X514155D01*
Y637769D01*
X514309D01*
Y637154D01*
X514463D01*
Y636538D01*
X514616D01*
Y636077D01*
X514770D01*
Y635615D01*
X514924D01*
Y635154D01*
X515078D01*
Y634692D01*
X515232D01*
Y634384D01*
X515386D01*
Y633923D01*
X515540D01*
Y633615D01*
X515693D01*
Y633308D01*
X515847D01*
Y633000D01*
X516001D01*
Y632692D01*
X516155D01*
Y632385D01*
X516309D01*
Y632077D01*
X516463D01*
Y631769D01*
X516616D01*
Y631461D01*
X516770D01*
Y631154D01*
X516924D01*
Y630846D01*
X517078D01*
Y630692D01*
X517232D01*
Y630385D01*
X517386D01*
Y630077D01*
X517539D01*
Y629923D01*
X517693D01*
Y629616D01*
X517847D01*
Y629462D01*
X518001D01*
Y629154D01*
X518155D01*
Y629000D01*
X518309D01*
Y628692D01*
X518462D01*
Y628539D01*
X518616D01*
Y628385D01*
X518770D01*
Y628077D01*
X518924D01*
Y627923D01*
X519078D01*
Y627769D01*
X519232D01*
Y627462D01*
X519385D01*
Y627308D01*
X519539D01*
Y627154D01*
X519693D01*
Y627000D01*
X519847D01*
Y626846D01*
X520001D01*
Y626693D01*
X520155D01*
Y626385D01*
X520308D01*
Y626231D01*
X520462D01*
Y626077D01*
X520616D01*
Y625923D01*
X520770D01*
Y625769D01*
X520924D01*
Y625616D01*
X521078D01*
Y625462D01*
X521232D01*
Y625308D01*
X521385D01*
Y625154D01*
X521539D01*
Y625000D01*
X521693D01*
Y624846D01*
X521847D01*
Y624693D01*
X522001D01*
Y624539D01*
X522155D01*
Y624385D01*
X522462D01*
Y624231D01*
X522616D01*
Y624077D01*
X522770D01*
Y623923D01*
X522924D01*
Y623769D01*
X523078D01*
Y623616D01*
X523385D01*
Y623462D01*
X523539D01*
Y623308D01*
X523693D01*
Y623154D01*
X523847D01*
Y623000D01*
X524155D01*
Y622846D01*
X524308D01*
Y622693D01*
X524462D01*
Y622539D01*
X524770D01*
Y622385D01*
X524924D01*
Y622231D01*
X525231D01*
Y622077D01*
X525385D01*
Y621923D01*
X525693D01*
Y621770D01*
X525847D01*
Y621616D01*
X526154D01*
Y621462D01*
X526462D01*
Y621308D01*
X526616D01*
Y621154D01*
X526924D01*
Y621000D01*
X527231D01*
Y620847D01*
X527385D01*
Y620693D01*
X527693D01*
Y620539D01*
X528000D01*
Y620385D01*
X528308D01*
Y620231D01*
X528616D01*
Y620077D01*
X528924D01*
Y619924D01*
X529231D01*
Y619770D01*
X529539D01*
Y619616D01*
X529847D01*
Y619462D01*
X530154D01*
Y619308D01*
X530462D01*
Y619154D01*
X530770D01*
Y619001D01*
X531077D01*
Y618847D01*
X531385D01*
Y618693D01*
X531693D01*
Y618539D01*
X532000D01*
Y618385D01*
X532770D01*
Y618539D01*
X533077D01*
Y618693D01*
X533385D01*
Y618847D01*
X533693D01*
Y619001D01*
X534000D01*
Y619154D01*
X534308D01*
Y619308D01*
X534616D01*
Y619462D01*
X534923D01*
Y619616D01*
X535385D01*
Y619770D01*
X535539D01*
Y619924D01*
X535846D01*
Y620077D01*
X536154D01*
Y620231D01*
X536462D01*
Y620385D01*
X536769D01*
Y620539D01*
X537077D01*
Y620693D01*
X537231D01*
Y620847D01*
X537539D01*
Y621000D01*
X537846D01*
Y621154D01*
X538154D01*
Y621308D01*
X538308D01*
Y621462D01*
X538615D01*
Y621616D01*
X538769D01*
Y621770D01*
X539077D01*
Y621923D01*
X539231D01*
Y622077D01*
X539538D01*
Y622231D01*
X539692D01*
Y622385D01*
X540000D01*
Y622539D01*
X540154D01*
Y622693D01*
X540462D01*
Y622846D01*
X540615D01*
Y623000D01*
X540769D01*
Y623154D01*
X540923D01*
Y623308D01*
X541231D01*
Y623462D01*
X541385D01*
Y623616D01*
X541539D01*
Y623769D01*
X541692D01*
Y623923D01*
X542000D01*
Y624077D01*
X542154D01*
Y624231D01*
X542308D01*
Y624385D01*
X542462D01*
Y624539D01*
X542615D01*
Y624693D01*
X542769D01*
Y624846D01*
X542923D01*
Y625000D01*
X543077D01*
Y625154D01*
X543231D01*
Y625308D01*
X543385D01*
Y625462D01*
X543538D01*
Y625616D01*
X543692D01*
Y625769D01*
X543846D01*
Y625923D01*
X544000D01*
Y626077D01*
X544154D01*
Y626385D01*
X544308D01*
Y626539D01*
X544461D01*
Y626693D01*
X544615D01*
Y626846D01*
X544769D01*
Y627000D01*
X544923D01*
Y627154D01*
X545077D01*
Y627462D01*
X545231D01*
Y627616D01*
X545384D01*
Y627769D01*
X545538D01*
Y628077D01*
X545692D01*
Y628231D01*
X545846D01*
Y628385D01*
X546000D01*
Y628692D01*
X546154D01*
Y628846D01*
X546307D01*
Y629154D01*
X546461D01*
Y629308D01*
X546615D01*
Y629616D01*
X546769D01*
Y629769D01*
X546923D01*
Y630077D01*
X547077D01*
Y630385D01*
X547231D01*
Y630538D01*
X547384D01*
Y630846D01*
X547538D01*
Y631154D01*
X547692D01*
Y631461D01*
X547846D01*
Y631769D01*
X548000D01*
Y631923D01*
X548154D01*
Y632385D01*
X548307D01*
Y632692D01*
X548461D01*
Y633000D01*
X548615D01*
Y633308D01*
X548769D01*
Y633615D01*
X548923D01*
Y633923D01*
X549077D01*
Y634384D01*
X549230D01*
Y634692D01*
X549384D01*
Y635154D01*
X549538D01*
Y635615D01*
X549692D01*
Y636077D01*
X549846D01*
Y636538D01*
X550000D01*
Y637000D01*
X550154D01*
Y637615D01*
X550307D01*
Y638231D01*
X550461D01*
Y638846D01*
X550615D01*
Y639615D01*
X550769D01*
Y640538D01*
X550923D01*
Y641769D01*
X551077D01*
Y660845D01*
X550615D01*
Y660999D01*
X550307D01*
Y661153D01*
X550000D01*
Y661307D01*
X549538D01*
Y661460D01*
X549230D01*
Y661614D01*
X548923D01*
Y661768D01*
X548615D01*
Y661922D01*
X548154D01*
Y662076D01*
X547846D01*
Y662230D01*
X547538D01*
Y662383D01*
X547077D01*
Y662537D01*
X546769D01*
Y662691D01*
X546461D01*
Y662845D01*
X546000D01*
Y662999D01*
X545692D01*
Y663153D01*
X545384D01*
Y663306D01*
X544923D01*
Y663460D01*
X544615D01*
Y663614D01*
X544308D01*
Y663768D01*
X544000D01*
Y663922D01*
X543538D01*
Y664076D01*
X543231D01*
Y664230D01*
X542769D01*
Y664383D01*
X542462D01*
Y664537D01*
X542154D01*
Y664691D01*
X541846D01*
Y664845D01*
X541385D01*
Y664999D01*
X541077D01*
Y665153D01*
X540769D01*
Y665306D01*
X540308D01*
Y665460D01*
X540000D01*
Y665614D01*
X539692D01*
Y665768D01*
X539385D01*
Y665922D01*
X538923D01*
Y666076D01*
X538615D01*
Y666229D01*
X538308D01*
Y666383D01*
X538000D01*
Y666537D01*
X537539D01*
Y666691D01*
X537231D01*
Y666845D01*
X536923D01*
Y666999D01*
X536462D01*
Y667152D01*
X536154D01*
Y667306D01*
X535846D01*
Y667460D01*
X535539D01*
Y667614D01*
X535077D01*
Y667768D01*
X534770D01*
Y667922D01*
X534462D01*
Y668075D01*
X534000D01*
Y668229D01*
X533693D01*
Y668383D01*
X533385D01*
Y668537D01*
X532923D01*
Y668691D01*
X532616D01*
Y668845D01*
D02*
G37*
%LPD*%
G36*
X533385Y661614D02*
X534308D01*
Y661460D01*
X534923D01*
Y661307D01*
X535385D01*
Y661153D01*
X535693D01*
Y660999D01*
X536154D01*
Y660845D01*
X536462D01*
Y660691D01*
X536769D01*
Y660537D01*
X536923D01*
Y660384D01*
X537231D01*
Y660230D01*
X537385D01*
Y660076D01*
X537692D01*
Y659922D01*
X537846D01*
Y659768D01*
X538000D01*
Y659614D01*
X538154D01*
Y659461D01*
X538462D01*
Y659307D01*
X538615D01*
Y659153D01*
X538769D01*
Y658999D01*
X538923D01*
Y658691D01*
X539077D01*
Y658537D01*
X539231D01*
Y658384D01*
X539385D01*
Y658230D01*
X539538D01*
Y657922D01*
X539692D01*
Y657768D01*
X539846D01*
Y657460D01*
X540000D01*
Y657307D01*
X540154D01*
Y656999D01*
X540308D01*
Y656691D01*
X540462D01*
Y656230D01*
X540615D01*
Y655922D01*
X540769D01*
Y655307D01*
X540923D01*
Y654691D01*
X541077D01*
Y653922D01*
X541231D01*
Y648999D01*
X543692D01*
Y648846D01*
X544154D01*
Y648692D01*
X544308D01*
Y648538D01*
X544461D01*
Y648384D01*
X544615D01*
Y648076D01*
X544769D01*
Y647307D01*
X544923D01*
Y644692D01*
Y644538D01*
Y638384D01*
X544769D01*
Y637308D01*
X544615D01*
Y636538D01*
X544461D01*
Y635769D01*
X544308D01*
Y635308D01*
X544154D01*
Y634846D01*
X544000D01*
Y634384D01*
X543846D01*
Y634077D01*
X543692D01*
Y633769D01*
X543538D01*
Y633308D01*
X543385D01*
Y633000D01*
X543231D01*
Y632846D01*
X543077D01*
Y632538D01*
X542923D01*
Y632231D01*
X542769D01*
Y632077D01*
X542615D01*
Y631769D01*
X542462D01*
Y631615D01*
X542308D01*
Y631308D01*
X542154D01*
Y631154D01*
X542000D01*
Y631000D01*
X541846D01*
Y630846D01*
X541692D01*
Y630538D01*
X541539D01*
Y630385D01*
X541385D01*
Y630231D01*
X541231D01*
Y630077D01*
X541077D01*
Y629923D01*
X540923D01*
Y629769D01*
X540769D01*
Y629616D01*
X540615D01*
Y629462D01*
X540462D01*
Y629308D01*
X540308D01*
Y629154D01*
X540000D01*
Y629000D01*
X539846D01*
Y628846D01*
X539692D01*
Y628692D01*
X539385D01*
Y628539D01*
X539231D01*
Y628385D01*
X539077D01*
Y628231D01*
X538769D01*
Y628077D01*
X538615D01*
Y627923D01*
X538308D01*
Y627769D01*
X538000D01*
Y627616D01*
X537846D01*
Y627462D01*
X537539D01*
Y627308D01*
X537231D01*
Y627154D01*
X536923D01*
Y627000D01*
X536616D01*
Y626846D01*
X536154D01*
Y626693D01*
X535846D01*
Y626539D01*
X535385D01*
Y626385D01*
X534923D01*
Y626231D01*
X534462D01*
Y626077D01*
X533847D01*
Y625923D01*
X533077D01*
Y625769D01*
X531385D01*
Y625923D01*
X530770D01*
Y626077D01*
X530154D01*
Y626231D01*
X529693D01*
Y626385D01*
X529231D01*
Y626539D01*
X528770D01*
Y626693D01*
X528462D01*
Y626846D01*
X528000D01*
Y627000D01*
X527693D01*
Y627154D01*
X527385D01*
Y627308D01*
X527077D01*
Y627462D01*
X526770D01*
Y627616D01*
X526462D01*
Y627769D01*
X526308D01*
Y627923D01*
X526001D01*
Y628077D01*
X525847D01*
Y628231D01*
X525539D01*
Y628385D01*
X525231D01*
Y628539D01*
X525078D01*
Y628692D01*
X524924D01*
Y628846D01*
X524616D01*
Y629000D01*
X524462D01*
Y629154D01*
X524308D01*
Y629308D01*
X524155D01*
Y629462D01*
X524001D01*
Y629616D01*
X523847D01*
Y629769D01*
X523693D01*
Y629923D01*
X523385D01*
Y630077D01*
X523232D01*
Y630385D01*
X523078D01*
Y630538D01*
X522924D01*
Y630692D01*
X522770D01*
Y630846D01*
X522616D01*
Y631000D01*
X522462D01*
Y631154D01*
X522309D01*
Y631461D01*
X522155D01*
Y631615D01*
X522001D01*
Y631923D01*
X521847D01*
Y632077D01*
X521693D01*
Y632385D01*
X521539D01*
Y632538D01*
X521385D01*
Y632846D01*
X521232D01*
Y633154D01*
X521078D01*
Y633461D01*
X520924D01*
Y633769D01*
X520770D01*
Y634077D01*
X520616D01*
Y634384D01*
X520462D01*
Y634846D01*
X520308D01*
Y635308D01*
X520155D01*
Y635769D01*
X520001D01*
Y636384D01*
X519847D01*
Y637154D01*
X519693D01*
Y638384D01*
X519539D01*
Y647922D01*
X519693D01*
Y648230D01*
X519847D01*
Y648538D01*
X520001D01*
Y648692D01*
X520308D01*
Y648846D01*
X520770D01*
Y648999D01*
X523232D01*
Y653922D01*
X523385D01*
Y654691D01*
X523539D01*
Y655307D01*
X523693D01*
Y655922D01*
X523847D01*
Y656230D01*
X524001D01*
Y656691D01*
X524155D01*
Y656999D01*
X524308D01*
Y657307D01*
X524462D01*
Y657614D01*
X524616D01*
Y657768D01*
X524770D01*
Y658076D01*
X524924D01*
Y658230D01*
X525078D01*
Y658537D01*
X525231D01*
Y658691D01*
X525385D01*
Y658845D01*
X525539D01*
Y658999D01*
X525693D01*
Y659153D01*
X525847D01*
Y659307D01*
X526001D01*
Y659461D01*
X526154D01*
Y659614D01*
X526308D01*
Y659768D01*
X526616D01*
Y659922D01*
X526770D01*
Y660076D01*
X526924D01*
Y660230D01*
X527231D01*
Y660384D01*
X527539D01*
Y660537D01*
X527693D01*
Y660691D01*
X528000D01*
Y660845D01*
X528462D01*
Y660999D01*
X528770D01*
Y661153D01*
X529231D01*
Y661307D01*
X529693D01*
Y661460D01*
X530308D01*
Y661614D01*
X531231D01*
Y661768D01*
X533385D01*
Y661614D01*
D02*
G37*
%LPC*%
G36*
X533539Y658845D02*
X530924D01*
Y658691D01*
X530308D01*
Y658537D01*
X529847D01*
Y658384D01*
X529539D01*
Y658230D01*
X529231D01*
Y658076D01*
X528924D01*
Y657922D01*
X528770D01*
Y657768D01*
X528462D01*
Y657614D01*
X528308D01*
Y657460D01*
X528154D01*
Y657307D01*
X528000D01*
Y657153D01*
X527847D01*
Y656999D01*
X527693D01*
Y656845D01*
X527539D01*
Y656691D01*
X527385D01*
Y656384D01*
X527231D01*
Y656230D01*
X527077D01*
Y655922D01*
X526924D01*
Y655614D01*
X526770D01*
Y655307D01*
X526616D01*
Y654845D01*
X526462D01*
Y654384D01*
X526308D01*
Y653615D01*
X526154D01*
Y648999D01*
X538308D01*
Y651307D01*
Y651461D01*
Y652999D01*
X538154D01*
Y654230D01*
X538000D01*
Y654691D01*
X537846D01*
Y655153D01*
X537692D01*
Y655461D01*
X537539D01*
Y655922D01*
X537385D01*
Y656076D01*
X537231D01*
Y656384D01*
X537077D01*
Y656537D01*
X536923D01*
Y656845D01*
X536769D01*
Y656999D01*
X536616D01*
Y657153D01*
X536462D01*
Y657307D01*
X536308D01*
Y657460D01*
X536000D01*
Y657614D01*
X535846D01*
Y657768D01*
X535693D01*
Y657922D01*
X535385D01*
Y658076D01*
X535231D01*
Y658230D01*
X534923D01*
Y658384D01*
X534462D01*
Y658537D01*
X534154D01*
Y658691D01*
X533539D01*
Y658845D01*
D02*
G37*
G36*
X542154Y646384D02*
X522309D01*
Y646230D01*
X522155D01*
Y639000D01*
X522309D01*
Y637308D01*
X522462D01*
Y636538D01*
X522616D01*
Y636077D01*
X522770D01*
Y635615D01*
X522924D01*
Y635308D01*
X523078D01*
Y634846D01*
X523232D01*
Y634538D01*
X523385D01*
Y634231D01*
X523539D01*
Y633923D01*
X523693D01*
Y633769D01*
X523847D01*
Y633461D01*
X524001D01*
Y633308D01*
X524155D01*
Y633000D01*
X524308D01*
Y632846D01*
X524462D01*
Y632692D01*
X524616D01*
Y632538D01*
X524770D01*
Y632385D01*
X524924D01*
Y632077D01*
X525078D01*
Y631923D01*
X525231D01*
Y631769D01*
X525385D01*
Y631615D01*
X525539D01*
Y631461D01*
X525693D01*
Y631308D01*
X525847D01*
Y631154D01*
X526154D01*
Y631000D01*
X526308D01*
Y630846D01*
X526462D01*
Y630692D01*
X526770D01*
Y630538D01*
X526924D01*
Y630385D01*
X527077D01*
Y630231D01*
X527385D01*
Y630077D01*
X527693D01*
Y629923D01*
X527847D01*
Y629769D01*
X528154D01*
Y629616D01*
X528462D01*
Y629462D01*
X528770D01*
Y629308D01*
X529231D01*
Y629154D01*
X529539D01*
Y629000D01*
X530000D01*
Y628846D01*
X530462D01*
Y628692D01*
X531077D01*
Y628539D01*
X532000D01*
Y628385D01*
X532770D01*
Y628539D01*
X533539D01*
Y628692D01*
X534154D01*
Y628846D01*
X534616D01*
Y629000D01*
X535077D01*
Y629154D01*
X535385D01*
Y629308D01*
X535693D01*
Y629462D01*
X536000D01*
Y629616D01*
X536308D01*
Y629769D01*
X536616D01*
Y629923D01*
X536923D01*
Y630077D01*
X537077D01*
Y630231D01*
X537385D01*
Y630385D01*
X537539D01*
Y630538D01*
X537846D01*
Y630692D01*
X538000D01*
Y630846D01*
X538154D01*
Y631000D01*
X538308D01*
Y631154D01*
X538615D01*
Y631308D01*
X538769D01*
Y631461D01*
X538923D01*
Y631615D01*
X539077D01*
Y631769D01*
X539231D01*
Y631923D01*
X539385D01*
Y632077D01*
X539538D01*
Y632231D01*
X539692D01*
Y632538D01*
X539846D01*
Y632692D01*
X540000D01*
Y632846D01*
X540154D01*
Y633000D01*
X540308D01*
Y633308D01*
X540462D01*
Y633461D01*
X540615D01*
Y633769D01*
X540769D01*
Y633923D01*
X540923D01*
Y634231D01*
X541077D01*
Y634538D01*
X541231D01*
Y634846D01*
X541385D01*
Y635154D01*
X541539D01*
Y635615D01*
X541692D01*
Y636077D01*
X541846D01*
Y636538D01*
X542000D01*
Y637308D01*
X542154D01*
Y638692D01*
X542308D01*
Y646230D01*
X542154D01*
Y646384D01*
D02*
G37*
%LPD*%
G36*
X533077Y642846D02*
X533539D01*
Y642692D01*
X533693D01*
Y642538D01*
X534000D01*
Y642384D01*
X534154D01*
Y642230D01*
X534308D01*
Y642076D01*
X534462D01*
Y641769D01*
X534616D01*
Y641461D01*
X534770D01*
Y639923D01*
X534616D01*
Y639615D01*
X534462D01*
Y639461D01*
X534308D01*
Y639154D01*
X534154D01*
Y639000D01*
X534000D01*
Y638846D01*
X533847D01*
Y638692D01*
X533539D01*
Y633923D01*
X533385D01*
Y633769D01*
X533231D01*
Y633615D01*
X533077D01*
Y633461D01*
X531385D01*
Y633615D01*
X531231D01*
Y633769D01*
X531077D01*
Y633923D01*
X530924D01*
Y635308D01*
Y635461D01*
Y638538D01*
X530770D01*
Y638692D01*
X530616D01*
Y638846D01*
X530462D01*
Y639000D01*
X530308D01*
Y639154D01*
X530154D01*
Y639307D01*
X530000D01*
Y639615D01*
X529847D01*
Y639923D01*
X529693D01*
Y641307D01*
X529847D01*
Y641615D01*
X530000D01*
Y641923D01*
X530154D01*
Y642076D01*
X530308D01*
Y642230D01*
X530462D01*
Y642384D01*
X530616D01*
Y642538D01*
X530770D01*
Y642692D01*
X531077D01*
Y642846D01*
X531385D01*
Y643000D01*
X533077D01*
Y642846D01*
D02*
G37*
%LPC*%
G36*
X526227Y601878D02*
X526086D01*
Y601596D01*
X525945D01*
Y601172D01*
X525803D01*
Y600749D01*
X525662D01*
Y600326D01*
X525521D01*
Y599902D01*
X525380D01*
Y599479D01*
X525239D01*
Y599056D01*
X525098D01*
Y598632D01*
X524957D01*
Y598209D01*
X524816D01*
Y597786D01*
X524674D01*
Y597362D01*
X524533D01*
Y597080D01*
X524392D01*
Y596516D01*
X524251D01*
Y596092D01*
X524110D01*
Y595669D01*
X523969D01*
Y595246D01*
X523828D01*
Y594822D01*
X523687D01*
Y594399D01*
X523546D01*
Y594117D01*
X523828D01*
Y593976D01*
X528626D01*
Y594681D01*
X528484D01*
Y595104D01*
X528343D01*
Y595528D01*
X528202D01*
Y595951D01*
X528061D01*
Y596375D01*
X527920D01*
Y596798D01*
X527779D01*
Y597221D01*
X527638D01*
Y597645D01*
X527497D01*
Y598068D01*
X527356D01*
Y598491D01*
Y598632D01*
X527215D01*
Y599056D01*
X527073D01*
Y599479D01*
X526932D01*
Y599902D01*
X526791D01*
Y600326D01*
X526650D01*
Y600749D01*
X526509D01*
Y601172D01*
X526368D01*
Y601596D01*
X526227D01*
Y601878D01*
D02*
G37*
G36*
X642908Y290446D02*
X642871D01*
X642759Y290427D01*
X642593Y290409D01*
X642408Y290353D01*
X642167Y290279D01*
X641926Y290149D01*
X641686Y289983D01*
X641445Y289742D01*
X641426Y289705D01*
X641352Y289613D01*
X641260Y289446D01*
X641167Y289224D01*
X641056Y288927D01*
X640963Y288575D01*
X640889Y288150D01*
X640871Y287668D01*
Y287650D01*
Y287613D01*
Y287520D01*
Y287428D01*
X640889Y287298D01*
Y287168D01*
X640926Y286854D01*
X640963Y286502D01*
X641038Y286131D01*
X641149Y285798D01*
X641204Y285650D01*
X641278Y285520D01*
Y285502D01*
X641315Y285483D01*
X641389Y285372D01*
X641519Y285224D01*
X641704Y285057D01*
X641945Y284872D01*
X642223Y284724D01*
X642556Y284613D01*
X642741Y284594D01*
X642926Y284576D01*
X642963D01*
X643074Y284594D01*
X643222Y284613D01*
X643426Y284669D01*
X643648Y284743D01*
X643889Y284872D01*
X644130Y285039D01*
X644370Y285280D01*
X644389Y285317D01*
X644463Y285409D01*
X644556Y285576D01*
X644667Y285816D01*
X644778Y286113D01*
X644870Y286483D01*
X644945Y286928D01*
X644963Y287428D01*
Y287446D01*
Y287502D01*
Y287576D01*
Y287687D01*
X644945Y287816D01*
X644926Y287983D01*
X644889Y288316D01*
X644815Y288705D01*
X644722Y289076D01*
X644574Y289446D01*
X644482Y289594D01*
X644370Y289742D01*
X644352Y289779D01*
X644259Y289853D01*
X644148Y289964D01*
X643982Y290094D01*
X643759Y290224D01*
X643519Y290335D01*
X643222Y290409D01*
X642908Y290446D01*
D02*
G37*
G36*
X600116D02*
X600079D01*
X599968Y290427D01*
X599801Y290409D01*
X599616Y290353D01*
X599375Y290279D01*
X599134Y290149D01*
X598894Y289983D01*
X598653Y289742D01*
X598634Y289705D01*
X598560Y289613D01*
X598468Y289446D01*
X598375Y289224D01*
X598264Y288927D01*
X598172Y288575D01*
X598097Y288150D01*
X598079Y287668D01*
Y287650D01*
Y287613D01*
Y287520D01*
Y287428D01*
X598097Y287298D01*
Y287168D01*
X598134Y286854D01*
X598172Y286502D01*
X598246Y286131D01*
X598357Y285798D01*
X598412Y285650D01*
X598486Y285520D01*
Y285502D01*
X598523Y285483D01*
X598597Y285372D01*
X598727Y285224D01*
X598912Y285057D01*
X599153Y284872D01*
X599431Y284724D01*
X599764Y284613D01*
X599949Y284594D01*
X600134Y284576D01*
X600171D01*
X600282Y284594D01*
X600431Y284613D01*
X600634Y284669D01*
X600857Y284743D01*
X601097Y284872D01*
X601338Y285039D01*
X601579Y285280D01*
X601597Y285317D01*
X601671Y285409D01*
X601764Y285576D01*
X601875Y285816D01*
X601986Y286113D01*
X602079Y286483D01*
X602153Y286928D01*
X602171Y287428D01*
Y287446D01*
Y287502D01*
Y287576D01*
Y287687D01*
X602153Y287816D01*
X602134Y287983D01*
X602097Y288316D01*
X602023Y288705D01*
X601930Y289076D01*
X601782Y289446D01*
X601690Y289594D01*
X601579Y289742D01*
X601560Y289779D01*
X601468Y289853D01*
X601356Y289964D01*
X601190Y290094D01*
X600968Y290224D01*
X600727Y290335D01*
X600431Y290409D01*
X600116Y290446D01*
D02*
G37*
G36*
X716752Y290335D02*
X716659D01*
X716585Y290316D01*
X716419Y290298D01*
X716196Y290242D01*
X715937Y290149D01*
X715659Y290020D01*
X715382Y289835D01*
X715122Y289594D01*
X715104Y289557D01*
X715030Y289464D01*
X714919Y289279D01*
X714808Y289057D01*
X714678Y288761D01*
X714585Y288390D01*
X714511Y287964D01*
X714474Y287483D01*
Y287465D01*
Y287428D01*
Y287353D01*
X714493Y287261D01*
Y287131D01*
X714511Y287002D01*
X714548Y286705D01*
X714641Y286353D01*
X714752Y286002D01*
X714900Y285650D01*
X715122Y285354D01*
X715159Y285317D01*
X715234Y285243D01*
X715382Y285131D01*
X715585Y285002D01*
X715807Y284854D01*
X716085Y284743D01*
X716400Y284669D01*
X716752Y284632D01*
X716844D01*
X716918Y284650D01*
X717085Y284669D01*
X717307Y284724D01*
X717567Y284817D01*
X717844Y284928D01*
X718104Y285113D01*
X718363Y285354D01*
X718400Y285391D01*
X718474Y285483D01*
X718567Y285668D01*
X718696Y285891D01*
X718826Y286205D01*
X718918Y286557D01*
X718992Y287002D01*
X719029Y287483D01*
Y287502D01*
Y287539D01*
Y287613D01*
X719011Y287705D01*
Y287816D01*
X718992Y287964D01*
X718955Y288261D01*
X718863Y288594D01*
X718752Y288946D01*
X718585Y289298D01*
X718363Y289594D01*
X718326Y289631D01*
X718252Y289705D01*
X718104Y289835D01*
X717918Y289964D01*
X717678Y290094D01*
X717419Y290224D01*
X717104Y290298D01*
X716752Y290335D01*
D02*
G37*
G36*
X681941D02*
X681848D01*
X681774Y290316D01*
X681607Y290298D01*
X681385Y290242D01*
X681126Y290149D01*
X680848Y290020D01*
X680570Y289835D01*
X680311Y289594D01*
X680293Y289557D01*
X680219Y289464D01*
X680107Y289279D01*
X679996Y289057D01*
X679867Y288761D01*
X679774Y288390D01*
X679700Y287964D01*
X679663Y287483D01*
Y287465D01*
Y287428D01*
Y287353D01*
X679682Y287261D01*
Y287131D01*
X679700Y287002D01*
X679737Y286705D01*
X679830Y286353D01*
X679941Y286002D01*
X680089Y285650D01*
X680311Y285354D01*
X680348Y285317D01*
X680422Y285243D01*
X680570Y285131D01*
X680774Y285002D01*
X680996Y284854D01*
X681274Y284743D01*
X681589Y284669D01*
X681941Y284632D01*
X682033D01*
X682107Y284650D01*
X682274Y284669D01*
X682496Y284724D01*
X682755Y284817D01*
X683033Y284928D01*
X683292Y285113D01*
X683552Y285354D01*
X683589Y285391D01*
X683663Y285483D01*
X683755Y285668D01*
X683885Y285891D01*
X684015Y286205D01*
X684107Y286557D01*
X684181Y287002D01*
X684218Y287483D01*
Y287502D01*
Y287539D01*
Y287613D01*
X684200Y287705D01*
Y287816D01*
X684181Y287964D01*
X684144Y288261D01*
X684052Y288594D01*
X683940Y288946D01*
X683774Y289298D01*
X683552Y289594D01*
X683515Y289631D01*
X683440Y289705D01*
X683292Y289835D01*
X683107Y289964D01*
X682867Y290094D01*
X682607Y290224D01*
X682292Y290298D01*
X681941Y290335D01*
D02*
G37*
G36*
X653518Y290446D02*
X653388D01*
X653240Y290409D01*
X653055Y290372D01*
X652851Y290298D01*
X652629Y290205D01*
X652407Y290057D01*
X652203Y289853D01*
X652185Y289835D01*
X652129Y289742D01*
X652036Y289613D01*
X651944Y289427D01*
X651833Y289205D01*
X651759Y288927D01*
X651703Y288613D01*
X651684Y288261D01*
X655351D01*
Y288279D01*
Y288316D01*
Y288353D01*
X655332Y288427D01*
X655314Y288631D01*
X655277Y288853D01*
X655203Y289112D01*
X655110Y289390D01*
X654962Y289650D01*
X654795Y289872D01*
X654777Y289890D01*
X654703Y289964D01*
X654592Y290057D01*
X654444Y290168D01*
X654258Y290261D01*
X654036Y290353D01*
X653795Y290427D01*
X653518Y290446D01*
D02*
G37*
G36*
X627206Y290335D02*
X627113D01*
X627039Y290316D01*
X626872Y290298D01*
X626650Y290242D01*
X626391Y290149D01*
X626113Y290020D01*
X625835Y289835D01*
X625576Y289594D01*
X625558Y289557D01*
X625484Y289464D01*
X625372Y289279D01*
X625261Y289057D01*
X625132Y288761D01*
X625039Y288390D01*
X624965Y287964D01*
X624928Y287483D01*
Y287465D01*
Y287428D01*
Y287353D01*
X624947Y287261D01*
Y287131D01*
X624965Y287002D01*
X625002Y286705D01*
X625095Y286353D01*
X625206Y286002D01*
X625354Y285650D01*
X625576Y285354D01*
X625613Y285317D01*
X625687Y285243D01*
X625835Y285131D01*
X626039Y285002D01*
X626261Y284854D01*
X626539Y284743D01*
X626854Y284669D01*
X627206Y284632D01*
X627298D01*
X627372Y284650D01*
X627539Y284669D01*
X627761Y284724D01*
X628020Y284817D01*
X628298Y284928D01*
X628557Y285113D01*
X628816Y285354D01*
X628854Y285391D01*
X628928Y285483D01*
X629020Y285668D01*
X629150Y285891D01*
X629279Y286205D01*
X629372Y286557D01*
X629446Y287002D01*
X629483Y287483D01*
Y287502D01*
Y287539D01*
Y287613D01*
X629465Y287705D01*
Y287816D01*
X629446Y287964D01*
X629409Y288261D01*
X629316Y288594D01*
X629205Y288946D01*
X629039Y289298D01*
X628816Y289594D01*
X628779Y289631D01*
X628705Y289705D01*
X628557Y289835D01*
X628372Y289964D01*
X628131Y290094D01*
X627872Y290224D01*
X627557Y290298D01*
X627206Y290335D01*
D02*
G37*
G36*
X589395D02*
X589302D01*
X589228Y290316D01*
X589061Y290298D01*
X588839Y290242D01*
X588580Y290149D01*
X588302Y290020D01*
X588024Y289835D01*
X587765Y289594D01*
X587747Y289557D01*
X587673Y289464D01*
X587561Y289279D01*
X587450Y289057D01*
X587321Y288761D01*
X587228Y288390D01*
X587154Y287964D01*
X587117Y287483D01*
Y287465D01*
Y287428D01*
Y287353D01*
X587136Y287261D01*
Y287131D01*
X587154Y287002D01*
X587191Y286705D01*
X587284Y286353D01*
X587395Y286002D01*
X587543Y285650D01*
X587765Y285354D01*
X587802Y285317D01*
X587876Y285243D01*
X588024Y285131D01*
X588228Y285002D01*
X588450Y284854D01*
X588728Y284743D01*
X589043Y284669D01*
X589395Y284632D01*
X589487D01*
X589561Y284650D01*
X589728Y284669D01*
X589950Y284724D01*
X590209Y284817D01*
X590487Y284928D01*
X590746Y285113D01*
X591006Y285354D01*
X591043Y285391D01*
X591117Y285483D01*
X591209Y285668D01*
X591339Y285891D01*
X591469Y286205D01*
X591561Y286557D01*
X591635Y287002D01*
X591672Y287483D01*
Y287502D01*
Y287539D01*
Y287613D01*
X591654Y287705D01*
Y287816D01*
X591635Y287964D01*
X591598Y288261D01*
X591506Y288594D01*
X591395Y288946D01*
X591228Y289298D01*
X591006Y289594D01*
X590969Y289631D01*
X590895Y289705D01*
X590746Y289835D01*
X590561Y289964D01*
X590321Y290094D01*
X590061Y290224D01*
X589747Y290298D01*
X589395Y290335D01*
D02*
G37*
G36*
X619558Y274440D02*
X619466D01*
X619392Y274421D01*
X619225Y274403D01*
X619003Y274347D01*
X618744Y274255D01*
X618466Y274125D01*
X618188Y273940D01*
X617929Y273699D01*
X617910Y273662D01*
X617836Y273570D01*
X617725Y273384D01*
X617614Y273162D01*
X617484Y272866D01*
X617392Y272496D01*
X617318Y272070D01*
X617281Y271588D01*
Y271570D01*
Y271533D01*
Y271459D01*
X617299Y271366D01*
Y271237D01*
X617318Y271107D01*
X617355Y270811D01*
X617447Y270459D01*
X617558Y270107D01*
X617707Y269755D01*
X617929Y269459D01*
X617966Y269422D01*
X618040Y269348D01*
X618188Y269237D01*
X618392Y269107D01*
X618614Y268959D01*
X618892Y268848D01*
X619206Y268774D01*
X619558Y268737D01*
X619651D01*
X619725Y268755D01*
X619892Y268774D01*
X620114Y268829D01*
X620373Y268922D01*
X620651Y269033D01*
X620910Y269218D01*
X621169Y269459D01*
X621206Y269496D01*
X621280Y269589D01*
X621373Y269774D01*
X621502Y269996D01*
X621632Y270311D01*
X621725Y270663D01*
X621799Y271107D01*
X621836Y271588D01*
Y271607D01*
Y271644D01*
Y271718D01*
X621817Y271811D01*
Y271922D01*
X621799Y272070D01*
X621762Y272366D01*
X621669Y272699D01*
X621558Y273051D01*
X621391Y273403D01*
X621169Y273699D01*
X621132Y273736D01*
X621058Y273810D01*
X620910Y273940D01*
X620725Y274070D01*
X620484Y274199D01*
X620225Y274329D01*
X619910Y274403D01*
X619558Y274440D01*
D02*
G37*
G36*
X587136Y274551D02*
X587006D01*
X586858Y274514D01*
X586673Y274477D01*
X586469Y274403D01*
X586247Y274310D01*
X586025Y274162D01*
X585821Y273958D01*
X585802Y273940D01*
X585747Y273847D01*
X585654Y273718D01*
X585562Y273533D01*
X585451Y273310D01*
X585377Y273033D01*
X585321Y272718D01*
X585303Y272366D01*
X588969D01*
Y272385D01*
Y272422D01*
Y272459D01*
X588950Y272533D01*
X588932Y272736D01*
X588895Y272959D01*
X588821Y273218D01*
X588728Y273496D01*
X588580Y273755D01*
X588413Y273977D01*
X588395Y273995D01*
X588321Y274070D01*
X588210Y274162D01*
X588061Y274273D01*
X587876Y274366D01*
X587654Y274459D01*
X587413Y274533D01*
X587136Y274551D01*
D02*
G37*
G36*
X660758Y277791D02*
X660684D01*
X660591Y277773D01*
X660498Y277754D01*
X660369Y277717D01*
X660239Y277662D01*
X660091Y277588D01*
X659961Y277495D01*
X659943Y277477D01*
X659906Y277440D01*
X659850Y277366D01*
X659776Y277273D01*
X659684Y277125D01*
X659610Y276958D01*
X659517Y276736D01*
X659443Y276477D01*
Y276458D01*
X659425Y276440D01*
Y276366D01*
X659406Y276292D01*
X659387Y276180D01*
X659369Y276051D01*
X659350Y275903D01*
X659332Y275718D01*
X659295Y275495D01*
X659276Y275273D01*
X659258Y274995D01*
X659239Y274718D01*
X659221Y274384D01*
Y274051D01*
X659202Y273662D01*
Y273255D01*
Y273236D01*
Y273162D01*
Y273033D01*
Y272885D01*
Y272699D01*
X659221Y272496D01*
Y272255D01*
X659239Y272014D01*
X659258Y271496D01*
X659295Y270977D01*
X659313Y270737D01*
X659350Y270514D01*
X659387Y270311D01*
X659425Y270126D01*
X659443Y270089D01*
X659462Y269996D01*
X659517Y269848D01*
X659573Y269681D01*
X659665Y269496D01*
X659758Y269311D01*
X659869Y269144D01*
X659980Y269015D01*
X659998Y268996D01*
X660035Y268978D01*
X660110Y268922D01*
X660202Y268885D01*
X660313Y268829D01*
X660443Y268774D01*
X660591Y268755D01*
X660758Y268737D01*
X660832D01*
X660924Y268755D01*
X661017Y268774D01*
X661146Y268811D01*
X661276Y268848D01*
X661406Y268922D01*
X661535Y269015D01*
X661554Y269033D01*
X661591Y269070D01*
X661665Y269144D01*
X661739Y269255D01*
X661813Y269385D01*
X661906Y269570D01*
X661998Y269774D01*
X662072Y270033D01*
Y270051D01*
X662091Y270070D01*
Y270144D01*
X662109Y270218D01*
X662128Y270329D01*
X662146Y270459D01*
X662183Y270607D01*
X662202Y270792D01*
X662221Y270996D01*
X662258Y271237D01*
X662276Y271496D01*
X662294Y271792D01*
X662313Y272107D01*
Y272459D01*
X662332Y272847D01*
Y273255D01*
Y273273D01*
Y273347D01*
Y273477D01*
Y273625D01*
Y273810D01*
X662313Y274014D01*
Y274255D01*
X662294Y274496D01*
X662276Y275014D01*
X662239Y275514D01*
X662202Y275755D01*
X662165Y275995D01*
X662128Y276199D01*
X662091Y276366D01*
Y276384D01*
X662072Y276403D01*
X662054Y276495D01*
X661998Y276643D01*
X661943Y276829D01*
X661850Y277014D01*
X661758Y277199D01*
X661646Y277366D01*
X661535Y277495D01*
X661517Y277514D01*
X661480Y277551D01*
X661406Y277588D01*
X661313Y277643D01*
X661202Y277699D01*
X661072Y277754D01*
X660924Y277773D01*
X660758Y277791D01*
D02*
G37*
%LPD*%
D10*
X669600Y517450D02*
G03*
X669600Y517450I-1000J0D01*
G01*
X729100Y902000D02*
G03*
X729100Y902000I-1000J0D01*
G01*
X258359Y474070D02*
G03*
X258359Y474070I-1000J0D01*
G01*
X665000Y599500D02*
G03*
X665000Y599500I-1000J0D01*
G01*
X175000Y842000D02*
G03*
X175000Y842000I-1000J0D01*
G01*
X404070Y728130D02*
G03*
X404070Y728130I-1000J0D01*
G01*
X618170Y639070D02*
G03*
X618170Y639070I-1000J0D01*
G01*
X352550Y734000D02*
G03*
X352550Y734000I-1000J0D01*
G01*
X-26000Y428250D02*
G03*
X-26000Y400950I13650J-13650D01*
G01*
Y313950D02*
G03*
X-26000Y286650I13650J-13650D01*
G01*
Y270750D02*
G03*
X-26000Y243450I13650J-13650D01*
G01*
Y156450D02*
G03*
X-26000Y129150I13650J-13650D01*
G01*
X9272Y762237D02*
G03*
X-12545Y756591I7932J-75627D01*
G01*
X-21250Y752500D02*
G03*
X-12545Y756591I-16753J46957D01*
G01*
X-26000Y740750D02*
G03*
X-26000Y713450I13650J-13650D01*
G01*
Y626450D02*
G03*
X-26000Y599150I13650J-13650D01*
G01*
Y583250D02*
G03*
X-26000Y555950I13650J-13650D01*
G01*
Y468950D02*
G03*
X-26000Y441650I13650J-13650D01*
G01*
X22648Y763297D02*
G03*
X9272Y762237I-2230J-56792D01*
G01*
X22648Y763297D02*
G03*
X33529Y764691I1981J27692D01*
G01*
Y105209D02*
G03*
X22648Y106603I-8900J-26298D01*
G01*
X9272Y107663D02*
G03*
X22648Y106603I11145J55732D01*
G01*
X-12545Y113309D02*
G03*
X-21250Y117400I-25458J-42866D01*
G01*
X-12545Y113309D02*
G03*
X9272Y107663I29749J69981D01*
G01*
X647600Y977400D02*
G03*
X647600Y977400I-1000J0D01*
G01*
X464600Y516700D02*
G03*
X464600Y516700I-1000J0D01*
G01*
Y580700D02*
G03*
X464600Y580700I-1000J0D01*
G01*
X213000Y306000D02*
G03*
X213000Y306000I-1000J0D01*
G01*
Y141700D02*
G03*
X213000Y141700I-1000J0D01*
G01*
Y619843D02*
G03*
X213000Y619843I-1000J0D01*
G01*
Y468050D02*
G03*
X213000Y468050I-1000J0D01*
G01*
X688000Y199000D02*
G03*
X688000Y199000I-1000J0D01*
G01*
X737200Y587300D02*
X750000D01*
X737200Y676700D02*
X750000D01*
X697500Y587300D02*
X710000D01*
X697500Y676700D02*
X710000D01*
X169000Y825750D02*
Y836250D01*
X127000Y825750D02*
Y836250D01*
X131500Y117400D02*
Y341400D01*
Y371000D02*
Y498900D01*
Y528500D02*
Y752500D01*
X-26000Y117400D02*
X48000D01*
X77800D02*
X131500D01*
X77800Y752500D02*
X131500D01*
X-26000D02*
X48000D01*
X-26000Y117400D02*
Y752500D01*
X640100Y939300D02*
Y990100D01*
X563900Y939300D02*
Y990100D01*
Y939300D02*
X640100D01*
X563900Y990100D02*
X640100D01*
X457100Y478600D02*
Y529400D01*
X380900Y478600D02*
Y529400D01*
Y478600D02*
X457100D01*
X380900Y529400D02*
X457100D01*
Y542600D02*
Y593400D01*
X380900Y542600D02*
Y593400D01*
Y542600D02*
X457100D01*
X380900Y593400D02*
X457100D01*
D11*
X190200Y969000D02*
G03*
X190200Y969000I-5000J0D01*
G01*
X140200D02*
G03*
X140200Y969000I-5000J0D01*
G01*
X30000Y903000D02*
X109000D01*
X30000Y813000D02*
X37000Y813000D01*
X102000D02*
X109000D01*
Y893000D02*
Y903000D01*
Y813000D02*
Y823000D01*
X676400Y327450D02*
X743600D01*
Y507450D01*
X676400D02*
X743600D01*
X488600Y327450D02*
X495900D01*
X488600Y507450D02*
X495900D01*
X488600Y327450D02*
Y507450D01*
X210200Y964000D02*
Y975000D01*
X110200Y964000D02*
Y975000D01*
X100200Y914000D02*
X222200D01*
Y975000D01*
X110200Y964000D02*
X210200D01*
X100200Y914000D02*
Y975000D01*
X222200D01*
X180200Y914000D02*
X190200D01*
X130200D02*
X140200D01*
X378550Y65000D02*
X391250D01*
X384900Y415350D02*
Y428050D01*
X378550Y421700D02*
X391250D01*
X395525Y673809D02*
X398000Y676284D01*
X369716Y648000D02*
X372191Y650475D01*
X423809Y645525D02*
X426284Y648000D01*
X398000Y619716D02*
X400475Y622191D01*
X398000Y676284D02*
X400475Y673809D01*
X369716Y648000D02*
X372191Y645525D01*
X423809Y650475D02*
X426284Y648000D01*
X395525Y622191D02*
X398000Y619716D01*
X735800Y892000D02*
X740000D01*
Y712000D02*
Y892000D01*
X735800Y712000D02*
X740000D01*
X548000Y892000D02*
X555300D01*
X548000Y866850D02*
Y892000D01*
Y712000D02*
Y737150D01*
Y712000D02*
X555300D01*
X251909Y504870D02*
Y528270D01*
X300909Y504870D02*
Y528270D01*
X190000Y814350D02*
X206000D01*
X190000Y845650D02*
X206000D01*
X332000Y757500D02*
X344550D01*
X447450D02*
X460000D01*
Y826500D01*
X447450D02*
X460000D01*
X332000D02*
X344550D01*
X332000Y757500D02*
Y826500D01*
X309400Y951400D02*
Y1026700D01*
Y866700D02*
Y922900D01*
X484600Y866700D02*
Y922900D01*
Y951400D02*
Y1026700D01*
X309400D02*
X484600D01*
X309400Y866700D02*
X484600D01*
X272380Y965380D02*
Y980620D01*
X287620Y965380D02*
Y980620D01*
X515620Y910380D02*
Y925620D01*
X500380Y910380D02*
Y925620D01*
X634380Y601620D02*
X649620D01*
X634380Y586380D02*
X649620D01*
X670380Y571620D02*
X685620D01*
X670380Y556380D02*
X685620D01*
X59030Y770380D02*
X74270D01*
X59030Y785620D02*
X74270D01*
X554380Y134380D02*
Y149620D01*
X569620Y134380D02*
Y149620D01*
X84380Y78380D02*
X99620D01*
X84380Y93620D02*
X99620D01*
X321620Y792380D02*
Y807620D01*
X306380Y792380D02*
Y807620D01*
X240475Y960840D02*
Y981160D01*
X259525Y960840D02*
Y981160D01*
X687080Y905555D02*
Y914445D01*
X676920Y905555D02*
Y914445D01*
X557820Y687555D02*
Y696445D01*
X567980Y687555D02*
Y696445D01*
X608906Y687555D02*
Y696445D01*
X619066Y687555D02*
Y696445D01*
X502920Y885555D02*
Y894445D01*
X513080Y885555D02*
Y894445D01*
X329555Y850920D02*
X338445D01*
X329555Y861080D02*
X338445D01*
X474920Y822778D02*
Y831668D01*
X485080Y822778D02*
Y831668D01*
Y841555D02*
Y850445D01*
X474920Y841555D02*
Y850445D01*
X369555Y723080D02*
X378445D01*
X369555Y712920D02*
X378445D01*
X413555D02*
X422445D01*
X413555Y723080D02*
X422445D01*
X413555Y692920D02*
X422445D01*
X413555Y703080D02*
X422445D01*
X369555D02*
X378445D01*
X369555Y692920D02*
X378445D01*
X622578Y687415D02*
Y696305D01*
X632738Y687415D02*
Y696305D01*
X592021Y905555D02*
Y914445D01*
X581861Y905555D02*
Y914445D01*
X606572Y905555D02*
Y914445D01*
X596412Y905555D02*
Y914445D01*
X620724Y905555D02*
Y914445D01*
X610564Y905555D02*
Y914445D01*
X657080Y905555D02*
Y914445D01*
X646920Y905555D02*
Y914445D01*
X669080Y905555D02*
Y914445D01*
X658920Y905555D02*
Y914445D01*
X368920Y607005D02*
Y615895D01*
X379080Y607005D02*
Y615895D01*
X582312Y687555D02*
Y696445D01*
X572152Y687555D02*
Y696445D01*
X407555Y689080D02*
X416445D01*
X407555Y678920D02*
X416445D01*
X637555Y606920D02*
X646445D01*
X637555Y617080D02*
X646445D01*
X645555Y646920D02*
X654445D01*
X645555Y657080D02*
X654445D01*
X659080Y521555D02*
Y530445D01*
X648920Y521555D02*
Y530445D01*
X559080Y523555D02*
Y532445D01*
X548920Y523555D02*
Y532445D01*
X498682Y301752D02*
Y310642D01*
X508842Y301752D02*
Y310642D01*
X271555Y466920D02*
X280445D01*
X271555Y477080D02*
X280445D01*
X189080Y292365D02*
Y301255D01*
X178920Y292365D02*
Y301255D01*
X189080Y131555D02*
Y140445D01*
X178920Y131555D02*
Y140445D01*
Y401555D02*
Y410445D01*
X189080Y401555D02*
Y410445D01*
X178920Y239208D02*
Y248098D01*
X189080Y239208D02*
Y248098D01*
X178920Y373555D02*
Y382445D01*
X189080Y373555D02*
Y382445D01*
X178920Y208361D02*
Y217251D01*
X189080Y208361D02*
Y217251D01*
X178920Y319005D02*
Y327895D01*
X189080Y319005D02*
Y327895D01*
X178920Y157555D02*
Y166445D01*
X189080Y157555D02*
Y166445D01*
Y601555D02*
Y610445D01*
X178920Y601555D02*
Y610445D01*
X189080Y445555D02*
Y454445D01*
X178920Y445555D02*
Y454445D01*
X178920Y711257D02*
Y720147D01*
X189080Y711257D02*
Y720147D01*
X178920Y559555D02*
Y568445D01*
X189080Y559555D02*
Y568445D01*
X178920Y687443D02*
Y696333D01*
X189080Y687443D02*
Y696333D01*
X178920Y533555D02*
Y542445D01*
X189080Y533555D02*
Y542445D01*
X229555Y446920D02*
X238445D01*
X229555Y457080D02*
X238445D01*
X178920Y629751D02*
Y638641D01*
X189080Y629751D02*
Y638641D01*
X178920Y473555D02*
Y482445D01*
X189080Y473555D02*
Y482445D01*
X210105Y446920D02*
X218995D01*
X210105Y457080D02*
X218995D01*
X200555Y809080D02*
X209445D01*
X200555Y798920D02*
X209445D01*
X189258Y891833D02*
Y900723D01*
X179097Y891833D02*
Y900723D01*
X151097Y891833D02*
Y900723D01*
X161257Y891833D02*
Y900723D01*
X681080Y205555D02*
Y214445D01*
X670920Y205555D02*
Y214445D01*
X715080Y205555D02*
Y214445D01*
X704920Y205555D02*
Y214445D01*
X525080Y271555D02*
Y280445D01*
X514920Y271555D02*
Y280445D01*
X511080Y271555D02*
Y280445D01*
X500920Y271555D02*
Y280445D01*
X118920Y894555D02*
Y903445D01*
X129080Y894555D02*
Y903445D01*
X195920Y893555D02*
Y902445D01*
X206080Y893555D02*
Y902445D01*
X712920Y905555D02*
Y914445D01*
X723080Y905555D02*
Y914445D01*
X696920Y905555D02*
Y914445D01*
X707080Y905555D02*
Y914445D01*
X353555Y722920D02*
X362445D01*
X353555Y733080D02*
X362445D01*
X437555Y687080D02*
X446445D01*
X437555Y676920D02*
X446445D01*
X339555Y656920D02*
X348445D01*
X339555Y667080D02*
X348445D01*
X386105Y678920D02*
X394995D01*
X386105Y689080D02*
X394995D01*
X663150Y521432D02*
Y530322D01*
X673310Y521432D02*
Y530322D01*
X634920Y521555D02*
Y530445D01*
X645080Y521555D02*
Y530445D01*
X267555Y558920D02*
X276445D01*
X267555Y569080D02*
X276445D01*
X204555Y848920D02*
X213445D01*
X204555Y859080D02*
X213445D01*
X175257Y891833D02*
Y900723D01*
X165098Y891833D02*
Y900723D01*
X137098Y891833D02*
Y900723D01*
X147257Y891833D02*
Y900723D01*
X648920Y205555D02*
Y214445D01*
X659080Y205555D02*
Y214445D01*
X521555Y183080D02*
X530445D01*
X521555Y172920D02*
X530445D01*
X209920Y893555D02*
Y902445D01*
X220080Y893555D02*
Y902445D01*
X239740Y424190D02*
Y431810D01*
X209260Y424190D02*
X239740D01*
X209260D02*
Y431810D01*
X239740D01*
X605000Y547400D02*
X651000D01*
X605000Y576600D02*
X651000D01*
Y547400D02*
Y550570D01*
Y573430D02*
Y576600D01*
X605000Y573430D02*
Y576600D01*
Y547400D02*
Y550570D01*
X596250Y546760D02*
X601330D01*
X596250D02*
X598790Y550570D01*
X601330Y546760D01*
X469600Y332000D02*
Y378000D01*
X440400Y332000D02*
Y378000D01*
X466430D02*
X469600D01*
X440400D02*
X443570D01*
X440400Y332000D02*
X443570D01*
X466430D02*
X469600D01*
X470240Y323250D02*
Y328330D01*
X466430Y325790D02*
X470240Y323250D01*
X466430Y325790D02*
X470240Y328330D01*
X294600Y895000D02*
Y941000D01*
X265400Y895000D02*
Y941000D01*
X291430D02*
X294600D01*
X265400D02*
X268570D01*
X265400Y895000D02*
X268570D01*
X291430D02*
X294600D01*
X295240Y886250D02*
Y891330D01*
X291430Y888790D02*
X295240Y886250D01*
X291430Y888790D02*
X295240Y891330D01*
X231400Y895000D02*
Y941000D01*
X260600Y895000D02*
Y941000D01*
X231400Y895000D02*
X234570D01*
X257430D02*
X260600D01*
X257430Y941000D02*
X260600D01*
X231400D02*
X234570D01*
X230760Y944670D02*
Y949750D01*
X234570Y947210D01*
X230760Y944670D02*
X234570Y947210D01*
X109000Y786600D02*
X155000D01*
X109000Y757400D02*
X155000D01*
X109000Y783430D02*
Y786600D01*
Y757400D02*
Y760570D01*
X155000Y757400D02*
Y760570D01*
Y783430D02*
Y786600D01*
X158670Y787240D02*
X163750D01*
X161210Y783430D02*
X163750Y787240D01*
X158670D02*
X161210Y783430D01*
X205700Y330000D02*
X207550D01*
X205700D02*
Y374000D01*
X207550D01*
X232450Y330000D02*
X234300D01*
Y374000D01*
X232450D02*
X234300D01*
X205700Y165700D02*
X207550D01*
X205700D02*
Y209700D01*
X207550D01*
X232450Y165700D02*
X234300D01*
Y209700D01*
X232450D02*
X234300D01*
X205700Y643843D02*
X207550D01*
X205700D02*
Y687843D01*
X207550D01*
X232450Y643843D02*
X234300D01*
Y687843D01*
X232450D02*
X234300D01*
X205700Y492050D02*
X207550D01*
X205700D02*
Y536050D01*
X207550D01*
X232450Y492050D02*
X234300D01*
Y536050D01*
X232450D02*
X234300D01*
X589600Y65500D02*
X726400D01*
Y92900D01*
Y122800D02*
Y182500D01*
X716700D02*
X726400D01*
X589600D02*
X603800D01*
X589600Y122800D02*
Y182500D01*
Y65500D02*
Y92900D01*
X223490Y870130D02*
X256510D01*
X222220D02*
X223490D01*
X222220Y853620D02*
Y870130D01*
X257780Y853620D02*
Y870130D01*
X256510D02*
X257780D01*
X253500Y841000D02*
Y851000D01*
X226500Y841000D02*
Y851000D01*
X263490Y870130D02*
X296510D01*
X262220D02*
X263490D01*
X262220Y853620D02*
Y870130D01*
X297780Y853620D02*
Y870130D01*
X296510D02*
X297780D01*
X293500Y841000D02*
Y851000D01*
X266500Y841000D02*
Y851000D01*
X221490Y784130D02*
X254510D01*
X220220D02*
X221490D01*
X220220Y767620D02*
Y784130D01*
X255780Y767620D02*
Y784130D01*
X254510D02*
X255780D01*
X251500Y755000D02*
Y765000D01*
X224500Y755000D02*
Y765000D01*
X490500Y821000D02*
Y831000D01*
X517500Y821000D02*
Y831000D01*
X451000Y694500D02*
X461000D01*
X451000Y721500D02*
X461000D01*
X332600Y701500D02*
X342600D01*
X332600Y674500D02*
X342600D01*
D12*
X387999Y676320D02*
G03*
X387999Y676320I-500J0D01*
G01*
D13*
X298084Y973305D02*
G03*
X298084Y973305I-1414J0D01*
G01*
D14*
X507585Y183995D02*
G03*
X507585Y183995I-635J0D01*
G01*
X225000Y90000D02*
G03*
X225000Y90000I-25000J0D01*
G01*
X555000D02*
G03*
X555000Y90000I-25000J0D01*
G01*
X735000Y960000D02*
G03*
X735000Y960000I-25000J0D01*
G01*
X65000D02*
G03*
X65000Y960000I-25000J0D01*
G01*
X366000Y402000D02*
X386000D01*
Y372000D02*
Y402000D01*
Y372000D02*
X426000D01*
Y122000D02*
Y372000D01*
X386000Y122000D02*
X426000D01*
X386000Y82000D02*
Y122000D01*
X366000Y82000D02*
X386000D01*
X306000D02*
X326000D01*
X306000D02*
Y122000D01*
X266000D02*
X306000D01*
X266000D02*
Y372000D01*
X306000Y402000D02*
X326000D01*
X306000Y372000D02*
Y402000D01*
X266000Y372000D02*
X306000D01*
D15*
X552416Y202664D02*
Y245336D01*
X499584Y202664D02*
Y245336D01*
X498307Y980078D02*
X494922D01*
X496614D01*
Y971614D01*
X494922Y969922D01*
X493229D01*
X491536Y971614D01*
X501693Y978386D02*
X503386Y980078D01*
X506771D01*
X508464Y978386D01*
Y976693D01*
X506771Y975000D01*
X505078D01*
X506771D01*
X508464Y973307D01*
Y971614D01*
X506771Y969922D01*
X503386D01*
X501693Y971614D01*
X28922Y799386D02*
X27229Y801078D01*
X23843D01*
X22150Y799386D01*
Y792614D01*
X23843Y790922D01*
X27229D01*
X28922Y792614D01*
X32307Y790922D02*
Y801078D01*
X39078Y790922D01*
Y801078D01*
X42464Y790922D02*
X45849D01*
X44157D01*
Y801078D01*
X42464Y799386D01*
X100050Y804643D02*
Y794486D01*
X105128D01*
X106821Y796179D01*
Y802950D01*
X105128Y804643D01*
X100050D01*
X110207Y794486D02*
X113592D01*
X111899D01*
Y804643D01*
X110207Y802950D01*
X469477Y574038D02*
X466092D01*
X467784D01*
Y565574D01*
X466092Y563882D01*
X464399D01*
X462706Y565574D01*
X479634Y574038D02*
X476248Y572346D01*
X472863Y568960D01*
Y565574D01*
X474556Y563882D01*
X477941D01*
X479634Y565574D01*
Y567267D01*
X477941Y568960D01*
X472863D01*
X469477Y507998D02*
X466092D01*
X467784D01*
Y499534D01*
X466092Y497842D01*
X464399D01*
X462706Y499534D01*
X479634Y507998D02*
X472863D01*
Y502920D01*
X476248Y504613D01*
X477941D01*
X479634Y502920D01*
Y499534D01*
X477941Y497842D01*
X474556D01*
X472863Y499534D01*
X654897Y971548D02*
X651512D01*
X653204D01*
Y963084D01*
X651512Y961392D01*
X649819D01*
X648126Y963084D01*
X665054Y961392D02*
X658283D01*
X665054Y968163D01*
Y969856D01*
X663361Y971548D01*
X659976D01*
X658283Y969856D01*
X279229Y794078D02*
X272458D01*
Y789000D01*
X275843D01*
X272458D01*
Y783922D01*
X282614Y794078D02*
Y783922D01*
X287693D01*
X289386Y785614D01*
Y787307D01*
X287693Y789000D01*
X282614D01*
X287693D01*
X289386Y790693D01*
Y792386D01*
X287693Y794078D01*
X282614D01*
X292771Y792386D02*
X294464Y794078D01*
X297850D01*
X299542Y792386D01*
Y790693D01*
X297850Y789000D01*
X299542Y787307D01*
Y785614D01*
X297850Y783922D01*
X294464D01*
X292771Y785614D01*
Y787307D01*
X294464Y789000D01*
X292771Y790693D01*
Y792386D01*
X294464Y789000D02*
X297850D01*
X238536Y883078D02*
Y872922D01*
X243614D01*
X245307Y874614D01*
Y881386D01*
X243614Y883078D01*
X238536D01*
X255464D02*
X248693D01*
Y878000D01*
X252078Y879693D01*
X253771D01*
X255464Y878000D01*
Y874614D01*
X253771Y872922D01*
X250386D01*
X248693Y874614D01*
X711307Y697078D02*
X707922D01*
X709614D01*
Y688614D01*
X707922Y686922D01*
X706229D01*
X704536Y688614D01*
X719771Y686922D02*
Y697078D01*
X714693Y692000D01*
X721464D01*
X119229Y91078D02*
X112458D01*
Y86000D01*
X115843D01*
X112458D01*
Y80922D01*
X122614Y91078D02*
Y80922D01*
X127693D01*
X129386Y82614D01*
Y84307D01*
X127693Y86000D01*
X122614D01*
X127693D01*
X129386Y87693D01*
Y89386D01*
X127693Y91078D01*
X122614D01*
X132771D02*
X139542D01*
Y89386D01*
X132771Y82614D01*
Y80922D01*
X148167Y746758D02*
X144782D01*
X146474D01*
Y738294D01*
X144782Y736602D01*
X143089D01*
X141396Y738294D01*
X151553Y746758D02*
X158324D01*
Y745066D01*
X151553Y738294D01*
Y736602D01*
X248151Y113078D02*
Y102922D01*
X253229D01*
X254922Y104614D01*
Y106307D01*
X253229Y108000D01*
X248151D01*
X253229D01*
X254922Y109693D01*
Y111386D01*
X253229Y113078D01*
X248151D01*
X258307D02*
X265078D01*
X261693D01*
Y102922D01*
X268464D02*
X271849D01*
X270157D01*
Y113078D01*
X268464Y111386D01*
X557304Y232078D02*
Y223614D01*
X558997Y221922D01*
X562383D01*
X564075Y223614D01*
Y232078D01*
X567461Y221922D02*
X570846D01*
X569154D01*
Y232078D01*
X567461Y230386D01*
X575925D02*
X577618Y232078D01*
X581003D01*
X582696Y230386D01*
Y228693D01*
X581003Y227000D01*
X579310D01*
X581003D01*
X582696Y225307D01*
Y223614D01*
X581003Y221922D01*
X577618D01*
X575925Y223614D01*
X159304Y806078D02*
Y797614D01*
X160997Y795922D01*
X164382D01*
X166075Y797614D01*
Y806078D01*
X169461Y795922D02*
X172846D01*
X171154D01*
Y806078D01*
X169461Y804386D01*
X184696Y795922D02*
X177925D01*
X184696Y802693D01*
Y804386D01*
X183003Y806078D01*
X179618D01*
X177925Y804386D01*
X203997Y571078D02*
Y562614D01*
X205690Y560922D01*
X209075D01*
X210768Y562614D01*
Y571078D01*
X214154Y560922D02*
X217539D01*
X215846D01*
Y571078D01*
X214154Y569386D01*
X222618Y560922D02*
X226003D01*
X224310D01*
Y571078D01*
X222618Y569386D01*
X204444Y725395D02*
Y716931D01*
X206137Y715238D01*
X209522D01*
X211215Y716931D01*
Y725395D01*
X214601Y715238D02*
X217986D01*
X216294D01*
Y725395D01*
X214601Y723702D01*
X223065D02*
X224757Y725395D01*
X228143D01*
X229836Y723702D01*
Y716931D01*
X228143Y715238D01*
X224757D01*
X223065Y716931D01*
Y723702D01*
X211536Y243078D02*
Y234614D01*
X213229Y232922D01*
X216614D01*
X218307Y234614D01*
Y243078D01*
X221693Y234614D02*
X223386Y232922D01*
X226771D01*
X228464Y234614D01*
Y241386D01*
X226771Y243078D01*
X223386D01*
X221693Y241386D01*
Y239693D01*
X223386Y238000D01*
X228464D01*
X211536Y407078D02*
Y398614D01*
X213229Y396922D01*
X216614D01*
X218307Y398614D01*
Y407078D01*
X221693Y405386D02*
X223386Y407078D01*
X226771D01*
X228464Y405386D01*
Y403693D01*
X226771Y402000D01*
X228464Y400307D01*
Y398614D01*
X226771Y396922D01*
X223386D01*
X221693Y398614D01*
Y400307D01*
X223386Y402000D01*
X221693Y403693D01*
Y405386D01*
X223386Y402000D02*
X226771D01*
X303956Y499108D02*
Y490644D01*
X305649Y488952D01*
X309034D01*
X310727Y490644D01*
Y499108D01*
X314113D02*
X320884D01*
Y497416D01*
X314113Y490644D01*
Y488952D01*
X465536Y457078D02*
Y448614D01*
X467229Y446922D01*
X470614D01*
X472307Y448614D01*
Y457078D01*
X482464D02*
X479078Y455386D01*
X475693Y452000D01*
Y448614D01*
X477386Y446922D01*
X480771D01*
X482464Y448614D01*
Y450307D01*
X480771Y452000D01*
X475693D01*
X595536Y635078D02*
Y626614D01*
X597229Y624922D01*
X600614D01*
X602307Y626614D01*
Y635078D01*
X612464D02*
X605693D01*
Y630000D01*
X609078Y631693D01*
X610771D01*
X612464Y630000D01*
Y626614D01*
X610771Y624922D01*
X607386D01*
X605693Y626614D01*
X522436Y727078D02*
Y718614D01*
X524129Y716922D01*
X527514D01*
X529207Y718614D01*
Y727078D01*
X537671Y716922D02*
Y727078D01*
X532593Y722000D01*
X539364D01*
X375536Y736078D02*
Y727614D01*
X377229Y725922D01*
X380614D01*
X382307Y727614D01*
Y736078D01*
X385693Y734386D02*
X387386Y736078D01*
X390771D01*
X392464Y734386D01*
Y732693D01*
X390771Y731000D01*
X389078D01*
X390771D01*
X392464Y729307D01*
Y727614D01*
X390771Y725922D01*
X387386D01*
X385693Y727614D01*
X417424Y624606D02*
X423409Y618621D01*
X425803D01*
X428197Y621015D01*
Y623409D01*
X422212Y629394D01*
X436576D02*
X431788Y624606D01*
Y634182D01*
X430591Y635379D01*
X428197D01*
X425803Y632985D01*
Y630591D01*
X465229Y775078D02*
Y766614D01*
X466922Y764922D01*
X470307D01*
X472000Y766614D01*
Y775078D01*
X475386Y764922D02*
X478771D01*
X477078D01*
Y775078D01*
X475386Y773386D01*
X237078Y956151D02*
X226922D01*
Y961229D01*
X228614Y962922D01*
X232000D01*
X233693Y961229D01*
Y956151D01*
Y959536D02*
X237078Y962922D01*
X226922Y966307D02*
X233693D01*
X237078Y969693D01*
X233693Y973078D01*
X226922D01*
X237078Y976464D02*
Y979849D01*
Y978157D01*
X226922D01*
X228614Y976464D01*
X190078Y859458D02*
X179922D01*
Y864536D01*
X181614Y866229D01*
X185000D01*
X186693Y864536D01*
Y859458D01*
Y862843D02*
X190078Y866229D01*
X179922Y876386D02*
Y869614D01*
X185000D01*
X183307Y873000D01*
Y874693D01*
X185000Y876386D01*
X188386D01*
X190078Y874693D01*
Y871307D01*
X188386Y869614D01*
X181614Y879771D02*
X179922Y881464D01*
Y884849D01*
X181614Y886542D01*
X183307D01*
X185000Y884849D01*
Y883157D01*
Y884849D01*
X186693Y886542D01*
X188386D01*
X190078Y884849D01*
Y881464D01*
X188386Y879771D01*
X104078Y861458D02*
X93922D01*
Y866536D01*
X95614Y868229D01*
X99000D01*
X100693Y866536D01*
Y861458D01*
Y864843D02*
X104078Y868229D01*
X93922Y878386D02*
Y871614D01*
X99000D01*
X97307Y875000D01*
Y876693D01*
X99000Y878386D01*
X102386D01*
X104078Y876693D01*
Y873307D01*
X102386Y871614D01*
X104078Y888542D02*
Y881771D01*
X97307Y888542D01*
X95614D01*
X93922Y886850D01*
Y883464D01*
X95614Y881771D01*
X527078Y288151D02*
X516922D01*
Y293229D01*
X518614Y294922D01*
X522000D01*
X523693Y293229D01*
Y288151D01*
Y291536D02*
X527078Y294922D01*
X516922Y305078D02*
Y298307D01*
X522000D01*
X520307Y301693D01*
Y303386D01*
X522000Y305078D01*
X525386D01*
X527078Y303386D01*
Y300000D01*
X525386Y298307D01*
X527078Y308464D02*
Y311849D01*
Y310157D01*
X516922D01*
X518614Y308464D01*
X546078Y287458D02*
X535922D01*
Y292536D01*
X537614Y294229D01*
X541000D01*
X542693Y292536D01*
Y287458D01*
Y290843D02*
X546078Y294229D01*
X535922Y304386D02*
Y297614D01*
X541000D01*
X539307Y301000D01*
Y302693D01*
X541000Y304386D01*
X544386D01*
X546078Y302693D01*
Y299307D01*
X544386Y297614D01*
X537614Y307771D02*
X535922Y309464D01*
Y312850D01*
X537614Y314542D01*
X544386D01*
X546078Y312850D01*
Y309464D01*
X544386Y307771D01*
X537614D01*
X715078Y225458D02*
X704922D01*
Y230536D01*
X706614Y232229D01*
X710000D01*
X711693Y230536D01*
Y225458D01*
Y228843D02*
X715078Y232229D01*
Y240693D02*
X704922D01*
X710000Y235614D01*
Y242386D01*
X713386Y245771D02*
X715078Y247464D01*
Y250849D01*
X713386Y252542D01*
X706614D01*
X704922Y250849D01*
Y247464D01*
X706614Y245771D01*
X708307D01*
X710000Y247464D01*
Y252542D01*
X682078Y224458D02*
X671922D01*
Y229536D01*
X673614Y231229D01*
X677000D01*
X678693Y229536D01*
Y224458D01*
Y227843D02*
X682078Y231229D01*
Y239693D02*
X671922D01*
X677000Y234614D01*
Y241386D01*
X673614Y244771D02*
X671922Y246464D01*
Y249849D01*
X673614Y251542D01*
X675307D01*
X677000Y249849D01*
X678693Y251542D01*
X680386D01*
X682078Y249849D01*
Y246464D01*
X680386Y244771D01*
X678693D01*
X677000Y246464D01*
X675307Y244771D01*
X673614D01*
X677000Y246464D02*
Y249849D01*
X142078Y860458D02*
X131922D01*
Y865536D01*
X133614Y867229D01*
X137000D01*
X138693Y865536D01*
Y860458D01*
Y863843D02*
X142078Y867229D01*
Y875693D02*
X131922D01*
X137000Y870614D01*
Y877386D01*
X131922Y880771D02*
Y887542D01*
X133614D01*
X140386Y880771D01*
X142078D01*
X174078Y859458D02*
X163922D01*
Y864536D01*
X165614Y866229D01*
X169000D01*
X170693Y864536D01*
Y859458D01*
Y862843D02*
X174078Y866229D01*
Y874693D02*
X163922D01*
X169000Y869614D01*
Y876386D01*
X163922Y886542D02*
X165614Y883157D01*
X169000Y879771D01*
X172386D01*
X174078Y881464D01*
Y884849D01*
X172386Y886542D01*
X170693D01*
X169000Y884849D01*
Y879771D01*
X190458Y782922D02*
Y793078D01*
X195536D01*
X197229Y791386D01*
Y788000D01*
X195536Y786307D01*
X190458D01*
X193843D02*
X197229Y782922D01*
X205693D02*
Y793078D01*
X200614Y788000D01*
X207386D01*
X217542Y793078D02*
X210771D01*
Y788000D01*
X214157Y789693D01*
X215849D01*
X217542Y788000D01*
Y784614D01*
X215849Y782922D01*
X212464D01*
X210771Y784614D01*
X179458Y429922D02*
Y440078D01*
X184536D01*
X186229Y438386D01*
Y435000D01*
X184536Y433307D01*
X179458D01*
X182843D02*
X186229Y429922D01*
X194693D02*
Y440078D01*
X189614Y435000D01*
X196386D01*
X204849Y429922D02*
Y440078D01*
X199771Y435000D01*
X206542D01*
X145458Y472922D02*
Y483078D01*
X150536D01*
X152229Y481386D01*
Y478000D01*
X150536Y476307D01*
X145458D01*
X148843D02*
X152229Y472922D01*
X160693D02*
Y483078D01*
X155614Y478000D01*
X162386D01*
X165771Y481386D02*
X167464Y483078D01*
X170849D01*
X172542Y481386D01*
Y479693D01*
X170849Y478000D01*
X169157D01*
X170849D01*
X172542Y476307D01*
Y474614D01*
X170849Y472922D01*
X167464D01*
X165771Y474614D01*
X145458Y629922D02*
Y640078D01*
X150536D01*
X152229Y638386D01*
Y635000D01*
X150536Y633307D01*
X145458D01*
X148843D02*
X152229Y629922D01*
X160693D02*
Y640078D01*
X155614Y635000D01*
X162386D01*
X172542Y629922D02*
X165771D01*
X172542Y636693D01*
Y638386D01*
X170849Y640078D01*
X167464D01*
X165771Y638386D01*
X246150Y452922D02*
Y463078D01*
X251229D01*
X252922Y461386D01*
Y458000D01*
X251229Y456307D01*
X246150D01*
X249536D02*
X252922Y452922D01*
X261386D02*
Y463078D01*
X256307Y458000D01*
X263078D01*
X266464Y452922D02*
X269849D01*
X268157D01*
Y463078D01*
X266464Y461386D01*
X145458Y532922D02*
Y543078D01*
X150536D01*
X152229Y541386D01*
Y538000D01*
X150536Y536307D01*
X145458D01*
X148843D02*
X152229Y532922D01*
X160693D02*
Y543078D01*
X155614Y538000D01*
X162386D01*
X165771Y541386D02*
X167464Y543078D01*
X170849D01*
X172542Y541386D01*
Y534614D01*
X170849Y532922D01*
X167464D01*
X165771Y534614D01*
Y541386D01*
X145458Y686922D02*
Y697078D01*
X150536D01*
X152229Y695386D01*
Y692000D01*
X150536Y690307D01*
X145458D01*
X148843D02*
X152229Y686922D01*
X155614Y695386D02*
X157307Y697078D01*
X160693D01*
X162386Y695386D01*
Y693693D01*
X160693Y692000D01*
X159000D01*
X160693D01*
X162386Y690307D01*
Y688614D01*
X160693Y686922D01*
X157307D01*
X155614Y688614D01*
X165771D02*
X167464Y686922D01*
X170849D01*
X172542Y688614D01*
Y695386D01*
X170849Y697078D01*
X167464D01*
X165771Y695386D01*
Y693693D01*
X167464Y692000D01*
X172542D01*
X145458Y558922D02*
Y569078D01*
X150536D01*
X152229Y567386D01*
Y564000D01*
X150536Y562307D01*
X145458D01*
X148843D02*
X152229Y558922D01*
X155614Y567386D02*
X157307Y569078D01*
X160693D01*
X162386Y567386D01*
Y565693D01*
X160693Y564000D01*
X159000D01*
X160693D01*
X162386Y562307D01*
Y560614D01*
X160693Y558922D01*
X157307D01*
X155614Y560614D01*
X165771Y567386D02*
X167464Y569078D01*
X170849D01*
X172542Y567386D01*
Y565693D01*
X170849Y564000D01*
X172542Y562307D01*
Y560614D01*
X170849Y558922D01*
X167464D01*
X165771Y560614D01*
Y562307D01*
X167464Y564000D01*
X165771Y565693D01*
Y567386D01*
X167464Y564000D02*
X170849D01*
X146458Y710922D02*
Y721078D01*
X151536D01*
X153229Y719386D01*
Y716000D01*
X151536Y714307D01*
X146458D01*
X149843D02*
X153229Y710922D01*
X156614Y719386D02*
X158307Y721078D01*
X161693D01*
X163386Y719386D01*
Y717693D01*
X161693Y716000D01*
X160000D01*
X161693D01*
X163386Y714307D01*
Y712614D01*
X161693Y710922D01*
X158307D01*
X156614Y712614D01*
X166771Y721078D02*
X173542D01*
Y719386D01*
X166771Y712614D01*
Y710922D01*
X145458Y444922D02*
Y455078D01*
X150536D01*
X152229Y453386D01*
Y450000D01*
X150536Y448307D01*
X145458D01*
X148843D02*
X152229Y444922D01*
X155614Y453386D02*
X157307Y455078D01*
X160693D01*
X162386Y453386D01*
Y451693D01*
X160693Y450000D01*
X159000D01*
X160693D01*
X162386Y448307D01*
Y446614D01*
X160693Y444922D01*
X157307D01*
X155614Y446614D01*
X172542Y455078D02*
X169157Y453386D01*
X165771Y450000D01*
Y446614D01*
X167464Y444922D01*
X170849D01*
X172542Y446614D01*
Y448307D01*
X170849Y450000D01*
X165771D01*
X145458Y601922D02*
Y612078D01*
X150536D01*
X152229Y610386D01*
Y607000D01*
X150536Y605307D01*
X145458D01*
X148843D02*
X152229Y601922D01*
X155614Y610386D02*
X157307Y612078D01*
X160693D01*
X162386Y610386D01*
Y608693D01*
X160693Y607000D01*
X159000D01*
X160693D01*
X162386Y605307D01*
Y603614D01*
X160693Y601922D01*
X157307D01*
X155614Y603614D01*
X172542Y612078D02*
X165771D01*
Y607000D01*
X169157Y608693D01*
X170849D01*
X172542Y607000D01*
Y603614D01*
X170849Y601922D01*
X167464D01*
X165771Y603614D01*
X145458Y156922D02*
Y167078D01*
X150536D01*
X152229Y165386D01*
Y162000D01*
X150536Y160307D01*
X145458D01*
X148843D02*
X152229Y156922D01*
X155614Y165386D02*
X157307Y167078D01*
X160693D01*
X162386Y165386D01*
Y163693D01*
X160693Y162000D01*
X159000D01*
X160693D01*
X162386Y160307D01*
Y158614D01*
X160693Y156922D01*
X157307D01*
X155614Y158614D01*
X170849Y156922D02*
Y167078D01*
X165771Y162000D01*
X172542D01*
X145458Y317922D02*
Y328078D01*
X150536D01*
X152229Y326386D01*
Y323000D01*
X150536Y321307D01*
X145458D01*
X148843D02*
X152229Y317922D01*
X155614Y326386D02*
X157307Y328078D01*
X160693D01*
X162386Y326386D01*
Y324693D01*
X160693Y323000D01*
X159000D01*
X160693D01*
X162386Y321307D01*
Y319614D01*
X160693Y317922D01*
X157307D01*
X155614Y319614D01*
X165771Y326386D02*
X167464Y328078D01*
X170849D01*
X172542Y326386D01*
Y324693D01*
X170849Y323000D01*
X169157D01*
X170849D01*
X172542Y321307D01*
Y319614D01*
X170849Y317922D01*
X167464D01*
X165771Y319614D01*
X145458Y207922D02*
Y218078D01*
X150536D01*
X152229Y216386D01*
Y213000D01*
X150536Y211307D01*
X145458D01*
X148843D02*
X152229Y207922D01*
X155614Y216386D02*
X157307Y218078D01*
X160693D01*
X162386Y216386D01*
Y214693D01*
X160693Y213000D01*
X159000D01*
X160693D01*
X162386Y211307D01*
Y209614D01*
X160693Y207922D01*
X157307D01*
X155614Y209614D01*
X172542Y207922D02*
X165771D01*
X172542Y214693D01*
Y216386D01*
X170849Y218078D01*
X167464D01*
X165771Y216386D01*
X145150Y372922D02*
Y383078D01*
X150229D01*
X151922Y381386D01*
Y378000D01*
X150229Y376307D01*
X145150D01*
X148536D02*
X151922Y372922D01*
X155307Y381386D02*
X157000Y383078D01*
X160386D01*
X162078Y381386D01*
Y379693D01*
X160386Y378000D01*
X158693D01*
X160386D01*
X162078Y376307D01*
Y374614D01*
X160386Y372922D01*
X157000D01*
X155307Y374614D01*
X165464Y372922D02*
X168850D01*
X167157D01*
Y383078D01*
X165464Y381386D01*
X145458Y238922D02*
Y249078D01*
X150536D01*
X152229Y247386D01*
Y244000D01*
X150536Y242307D01*
X145458D01*
X148843D02*
X152229Y238922D01*
X155614Y247386D02*
X157307Y249078D01*
X160693D01*
X162386Y247386D01*
Y245693D01*
X160693Y244000D01*
X159000D01*
X160693D01*
X162386Y242307D01*
Y240614D01*
X160693Y238922D01*
X157307D01*
X155614Y240614D01*
X165771Y247386D02*
X167464Y249078D01*
X170849D01*
X172542Y247386D01*
Y240614D01*
X170849Y238922D01*
X167464D01*
X165771Y240614D01*
Y247386D01*
X145458Y400922D02*
Y411078D01*
X150536D01*
X152229Y409386D01*
Y406000D01*
X150536Y404307D01*
X145458D01*
X148843D02*
X152229Y400922D01*
X162386D02*
X155614D01*
X162386Y407693D01*
Y409386D01*
X160693Y411078D01*
X157307D01*
X155614Y409386D01*
X165771Y402614D02*
X167464Y400922D01*
X170849D01*
X172542Y402614D01*
Y409386D01*
X170849Y411078D01*
X167464D01*
X165771Y409386D01*
Y407693D01*
X167464Y406000D01*
X172542D01*
X145458Y130922D02*
Y141078D01*
X150536D01*
X152229Y139386D01*
Y136000D01*
X150536Y134307D01*
X145458D01*
X148843D02*
X152229Y130922D01*
X162386D02*
X155614D01*
X162386Y137693D01*
Y139386D01*
X160693Y141078D01*
X157307D01*
X155614Y139386D01*
X165771D02*
X167464Y141078D01*
X170849D01*
X172542Y139386D01*
Y137693D01*
X170849Y136000D01*
X172542Y134307D01*
Y132614D01*
X170849Y130922D01*
X167464D01*
X165771Y132614D01*
Y134307D01*
X167464Y136000D01*
X165771Y137693D01*
Y139386D01*
X167464Y136000D02*
X170849D01*
X145458Y291922D02*
Y302078D01*
X150536D01*
X152229Y300386D01*
Y297000D01*
X150536Y295307D01*
X145458D01*
X148843D02*
X152229Y291922D01*
X162386D02*
X155614D01*
X162386Y298693D01*
Y300386D01*
X160693Y302078D01*
X157307D01*
X155614Y300386D01*
X165771Y302078D02*
X172542D01*
Y300386D01*
X165771Y293614D01*
Y291922D01*
X288458Y463922D02*
Y474078D01*
X293536D01*
X295229Y472386D01*
Y469000D01*
X293536Y467307D01*
X288458D01*
X291843D02*
X295229Y463922D01*
X305386D02*
X298614D01*
X305386Y470693D01*
Y472386D01*
X303693Y474078D01*
X300307D01*
X298614Y472386D01*
X315542Y474078D02*
X312157Y472386D01*
X308771Y469000D01*
Y465614D01*
X310464Y463922D01*
X313850D01*
X315542Y465614D01*
Y467307D01*
X313850Y469000D01*
X308771D01*
X493078Y279458D02*
X482922D01*
Y284536D01*
X484614Y286229D01*
X488000D01*
X489693Y284536D01*
Y279458D01*
Y282843D02*
X493078Y286229D01*
Y296386D02*
Y289614D01*
X486307Y296386D01*
X484614D01*
X482922Y294693D01*
Y291307D01*
X484614Y289614D01*
X482922Y306542D02*
Y299771D01*
X488000D01*
X486307Y303157D01*
Y304849D01*
X488000Y306542D01*
X491386D01*
X493078Y304849D01*
Y301464D01*
X491386Y299771D01*
X541458Y540922D02*
Y551078D01*
X546536D01*
X548229Y549386D01*
Y546000D01*
X546536Y544307D01*
X541458D01*
X544843D02*
X548229Y540922D01*
X558386D02*
X551614D01*
X558386Y547693D01*
Y549386D01*
X556693Y551078D01*
X553307D01*
X551614Y549386D01*
X566850Y540922D02*
Y551078D01*
X561771Y546000D01*
X568542D01*
X703078Y524458D02*
X692922D01*
Y529536D01*
X694614Y531229D01*
X698000D01*
X699693Y529536D01*
Y524458D01*
Y527843D02*
X703078Y531229D01*
Y541386D02*
Y534614D01*
X696307Y541386D01*
X694614D01*
X692922Y539693D01*
Y536307D01*
X694614Y534614D01*
Y544771D02*
X692922Y546464D01*
Y549850D01*
X694614Y551542D01*
X696307D01*
X698000Y549850D01*
Y548157D01*
Y549850D01*
X699693Y551542D01*
X701385D01*
X703078Y549850D01*
Y546464D01*
X701385Y544771D01*
X609458Y647922D02*
Y658078D01*
X614536D01*
X616229Y656386D01*
Y653000D01*
X614536Y651307D01*
X609458D01*
X612843D02*
X616229Y647922D01*
X626386D02*
X619614D01*
X626386Y654693D01*
Y656386D01*
X624693Y658078D01*
X621307D01*
X619614Y656386D01*
X636542Y647922D02*
X629771D01*
X636542Y654693D01*
Y656386D01*
X634850Y658078D01*
X631464D01*
X629771Y656386D01*
X606151Y606922D02*
Y617078D01*
X611229D01*
X612922Y615386D01*
Y612000D01*
X611229Y610307D01*
X606151D01*
X609536D02*
X612922Y606922D01*
X623078D02*
X616307D01*
X623078Y613693D01*
Y615386D01*
X621385Y617078D01*
X618000D01*
X616307Y615386D01*
X626464Y606922D02*
X629850D01*
X628157D01*
Y617078D01*
X626464Y615386D01*
X428458Y661922D02*
Y672078D01*
X433536D01*
X435229Y670386D01*
Y667000D01*
X433536Y665307D01*
X428458D01*
X431843D02*
X435229Y661922D01*
X445386D02*
X438614D01*
X445386Y668693D01*
Y670386D01*
X443693Y672078D01*
X440307D01*
X438614Y670386D01*
X448771D02*
X450464Y672078D01*
X453849D01*
X455542Y670386D01*
Y663614D01*
X453849Y661922D01*
X450464D01*
X448771Y663614D01*
Y670386D01*
X558204Y668922D02*
Y679078D01*
X563282D01*
X564975Y677386D01*
Y674000D01*
X563282Y672307D01*
X558204D01*
X561590D02*
X564975Y668922D01*
X568361D02*
X571746D01*
X570054D01*
Y679078D01*
X568361Y677386D01*
X576825Y670614D02*
X578517Y668922D01*
X581903D01*
X583596Y670614D01*
Y677386D01*
X581903Y679078D01*
X578517D01*
X576825Y677386D01*
Y675693D01*
X578517Y674000D01*
X583596D01*
X335304Y606922D02*
Y617078D01*
X340382D01*
X342075Y615386D01*
Y612000D01*
X340382Y610307D01*
X335304D01*
X338690D02*
X342075Y606922D01*
X345461D02*
X348846D01*
X347154D01*
Y617078D01*
X345461Y615386D01*
X353925D02*
X355618Y617078D01*
X359003D01*
X360696Y615386D01*
Y613693D01*
X359003Y612000D01*
X360696Y610307D01*
Y608614D01*
X359003Y606922D01*
X355618D01*
X353925Y608614D01*
Y610307D01*
X355618Y612000D01*
X353925Y613693D01*
Y615386D01*
X355618Y612000D02*
X359003D01*
X671078Y921304D02*
X660922D01*
Y926383D01*
X662614Y928075D01*
X666000D01*
X667693Y926383D01*
Y921304D01*
Y924690D02*
X671078Y928075D01*
Y931461D02*
Y934846D01*
Y933154D01*
X660922D01*
X662614Y931461D01*
X660922Y939925D02*
Y946696D01*
X662614D01*
X669386Y939925D01*
X671078D01*
X657078Y921304D02*
X646922D01*
Y926383D01*
X648614Y928075D01*
X652000D01*
X653693Y926383D01*
Y921304D01*
Y924690D02*
X657078Y928075D01*
Y931461D02*
Y934846D01*
Y933154D01*
X646922D01*
X648614Y931461D01*
X646922Y946696D02*
X648614Y943310D01*
X652000Y939925D01*
X655386D01*
X657078Y941618D01*
Y945003D01*
X655386Y946696D01*
X653693D01*
X652000Y945003D01*
Y939925D01*
X575078Y909304D02*
X564922D01*
Y914382D01*
X566614Y916075D01*
X570000D01*
X571693Y914382D01*
Y909304D01*
Y912690D02*
X575078Y916075D01*
Y919461D02*
Y922846D01*
Y921154D01*
X564922D01*
X566614Y919461D01*
X564922Y934696D02*
Y927925D01*
X570000D01*
X568307Y931310D01*
Y933003D01*
X570000Y934696D01*
X573386D01*
X575078Y933003D01*
Y929618D01*
X573386Y927925D01*
X559078Y909304D02*
X548922D01*
Y914382D01*
X550614Y916075D01*
X554000D01*
X555693Y914382D01*
Y909304D01*
Y912690D02*
X559078Y916075D01*
Y919461D02*
Y922846D01*
Y921154D01*
X548922D01*
X550614Y919461D01*
X559078Y933003D02*
X548922D01*
X554000Y927925D01*
Y934696D01*
X543078Y909304D02*
X532922D01*
Y914382D01*
X534614Y916075D01*
X538000D01*
X539693Y914382D01*
Y909304D01*
Y912690D02*
X543078Y916075D01*
Y919461D02*
Y922846D01*
Y921154D01*
X532922D01*
X534614Y919461D01*
Y927925D02*
X532922Y929618D01*
Y933003D01*
X534614Y934696D01*
X536307D01*
X538000Y933003D01*
Y931310D01*
Y933003D01*
X539693Y934696D01*
X541386D01*
X543078Y933003D01*
Y929618D01*
X541386Y927925D01*
X638204Y686922D02*
Y697078D01*
X643282D01*
X644975Y695386D01*
Y692000D01*
X643282Y690307D01*
X638204D01*
X641590D02*
X644975Y686922D01*
X648361D02*
X651746D01*
X650054D01*
Y697078D01*
X648361Y695386D01*
X663596Y686922D02*
X656825D01*
X663596Y693693D01*
Y695386D01*
X661903Y697078D01*
X658518D01*
X656825Y695386D01*
X335997Y706922D02*
Y717078D01*
X341075D01*
X342768Y715386D01*
Y712000D01*
X341075Y710307D01*
X335997D01*
X339383D02*
X342768Y706922D01*
X346154D02*
X349539D01*
X347846D01*
Y717078D01*
X346154Y715386D01*
X354618Y706922D02*
X358003D01*
X356310D01*
Y717078D01*
X354618Y715386D01*
X454304Y678922D02*
Y689078D01*
X459383D01*
X461075Y687386D01*
Y684000D01*
X459383Y682307D01*
X454304D01*
X457690D02*
X461075Y678922D01*
X464461D02*
X467846D01*
X466154D01*
Y689078D01*
X464461Y687386D01*
X472925D02*
X474618Y689078D01*
X478003D01*
X479696Y687386D01*
Y680614D01*
X478003Y678922D01*
X474618D01*
X472925Y680614D01*
Y687386D01*
X415536Y726922D02*
Y737078D01*
X420614D01*
X422307Y735386D01*
Y732000D01*
X420614Y730307D01*
X415536D01*
X418922D02*
X422307Y726922D01*
X425693Y728614D02*
X427386Y726922D01*
X430771D01*
X432464Y728614D01*
Y735386D01*
X430771Y737078D01*
X427386D01*
X425693Y735386D01*
Y733693D01*
X427386Y732000D01*
X432464D01*
X309536Y714922D02*
Y725078D01*
X314614D01*
X316307Y723386D01*
Y720000D01*
X314614Y718307D01*
X309536D01*
X312922D02*
X316307Y714922D01*
X319693Y723386D02*
X321386Y725078D01*
X324771D01*
X326464Y723386D01*
Y721693D01*
X324771Y720000D01*
X326464Y718307D01*
Y716614D01*
X324771Y714922D01*
X321386D01*
X319693Y716614D01*
Y718307D01*
X321386Y720000D01*
X319693Y721693D01*
Y723386D01*
X321386Y720000D02*
X324771D01*
X454536Y850922D02*
Y861078D01*
X459614D01*
X461307Y859386D01*
Y856000D01*
X459614Y854307D01*
X454536D01*
X457922D02*
X461307Y850922D01*
X464693Y861078D02*
X471464D01*
Y859386D01*
X464693Y852614D01*
Y850922D01*
X467536Y805922D02*
Y816078D01*
X472614D01*
X474307Y814386D01*
Y811000D01*
X472614Y809307D01*
X467536D01*
X470922D02*
X474307Y805922D01*
X484464Y816078D02*
X481078Y814386D01*
X477693Y811000D01*
Y807614D01*
X479386Y805922D01*
X482771D01*
X484464Y807614D01*
Y809307D01*
X482771Y811000D01*
X477693D01*
X347536Y850922D02*
Y861078D01*
X352614D01*
X354307Y859386D01*
Y856000D01*
X352614Y854307D01*
X347536D01*
X350922D02*
X354307Y850922D01*
X364464Y861078D02*
X357693D01*
Y856000D01*
X361078Y857693D01*
X362771D01*
X364464Y856000D01*
Y852614D01*
X362771Y850922D01*
X359386D01*
X357693Y852614D01*
X518586Y875032D02*
Y885188D01*
X523664D01*
X525357Y883496D01*
Y880110D01*
X523664Y878417D01*
X518586D01*
X521972D02*
X525357Y875032D01*
X533821D02*
Y885188D01*
X528743Y880110D01*
X535514D01*
X614536Y669922D02*
Y680078D01*
X619614D01*
X621307Y678386D01*
Y675000D01*
X619614Y673307D01*
X614536D01*
X617922D02*
X621307Y669922D01*
X624693Y678386D02*
X626386Y680078D01*
X629771D01*
X631464Y678386D01*
Y676693D01*
X629771Y675000D01*
X628078D01*
X629771D01*
X631464Y673307D01*
Y671614D01*
X629771Y669922D01*
X626386D01*
X624693Y671614D01*
X534436Y688922D02*
Y699078D01*
X539514D01*
X541207Y697386D01*
Y694000D01*
X539514Y692307D01*
X534436D01*
X537822D02*
X541207Y688922D01*
X551364D02*
X544593D01*
X551364Y695693D01*
Y697386D01*
X549671Y699078D01*
X546286D01*
X544593Y697386D01*
X688078Y921229D02*
X677922D01*
Y926307D01*
X679614Y928000D01*
X683000D01*
X684693Y926307D01*
Y921229D01*
Y924614D02*
X688078Y928000D01*
Y931386D02*
Y934771D01*
Y933078D01*
X677922D01*
X679614Y931386D01*
X199000Y415614D02*
Y422386D01*
X197307Y424078D01*
X193922D01*
X192229Y422386D01*
Y415614D01*
X193922Y413922D01*
X197307D01*
X195614Y417307D02*
X199000Y413922D01*
X197307D02*
X199000Y415614D01*
X202386Y413922D02*
X205771D01*
X204078D01*
Y424078D01*
X202386Y422386D01*
X127229Y806078D02*
Y795922D01*
X134000D01*
X137386D02*
X140771D01*
X139078D01*
Y806078D01*
X137386Y804386D01*
X83307Y917078D02*
X79922D01*
X81614D01*
Y908614D01*
X79922Y906922D01*
X78229D01*
X76536Y908614D01*
X86693D02*
X88386Y906922D01*
X91771D01*
X93464Y908614D01*
Y915386D01*
X91771Y917078D01*
X88386D01*
X86693Y915386D01*
Y913693D01*
X88386Y912000D01*
X93464D01*
X591307Y207078D02*
X587922D01*
X589614D01*
Y198614D01*
X587922Y196922D01*
X586229D01*
X584536Y198614D01*
X594693Y205386D02*
X596386Y207078D01*
X599771D01*
X601464Y205386D01*
Y203693D01*
X599771Y202000D01*
X601464Y200307D01*
Y198614D01*
X599771Y196922D01*
X596386D01*
X594693Y198614D01*
Y200307D01*
X596386Y202000D01*
X594693Y203693D01*
Y205386D01*
X596386Y202000D02*
X599771D01*
X530229Y133078D02*
X523458D01*
Y128000D01*
X526843D01*
X523458D01*
Y122922D01*
X533614Y133078D02*
Y122922D01*
X538693D01*
X540386Y124614D01*
Y126307D01*
X538693Y128000D01*
X533614D01*
X538693D01*
X540386Y129693D01*
Y131386D01*
X538693Y133078D01*
X533614D01*
X550542D02*
X547157Y131386D01*
X543771Y128000D01*
Y124614D01*
X545464Y122922D01*
X548849D01*
X550542Y124614D01*
Y126307D01*
X548849Y128000D01*
X543771D01*
X29229Y782078D02*
X22458D01*
Y777000D01*
X25843D01*
X22458D01*
Y771922D01*
X32614Y782078D02*
Y771922D01*
X37693D01*
X39386Y773614D01*
Y775307D01*
X37693Y777000D01*
X32614D01*
X37693D01*
X39386Y778693D01*
Y780386D01*
X37693Y782078D01*
X32614D01*
X49542D02*
X42771D01*
Y777000D01*
X46157Y778693D01*
X47849D01*
X49542Y777000D01*
Y773614D01*
X47849Y771922D01*
X44464D01*
X42771Y773614D01*
X703229Y570078D02*
X696458D01*
Y565000D01*
X699843D01*
X696458D01*
Y559922D01*
X706614Y570078D02*
Y559922D01*
X711693D01*
X713386Y561614D01*
Y563307D01*
X711693Y565000D01*
X706614D01*
X711693D01*
X713386Y566693D01*
Y568386D01*
X711693Y570078D01*
X706614D01*
X721850Y559922D02*
Y570078D01*
X716771Y565000D01*
X723542D01*
X607229Y599078D02*
X600458D01*
Y594000D01*
X603843D01*
X600458D01*
Y588922D01*
X610614Y599078D02*
Y588922D01*
X615693D01*
X617386Y590614D01*
Y592307D01*
X615693Y594000D01*
X610614D01*
X615693D01*
X617386Y595693D01*
Y597386D01*
X615693Y599078D01*
X610614D01*
X620771Y597386D02*
X622464Y599078D01*
X625849D01*
X627542Y597386D01*
Y595693D01*
X625849Y594000D01*
X624157D01*
X625849D01*
X627542Y592307D01*
Y590614D01*
X625849Y588922D01*
X622464D01*
X620771Y590614D01*
X525359Y900428D02*
X518588D01*
Y895350D01*
X521973D01*
X518588D01*
Y890272D01*
X528744Y900428D02*
Y890272D01*
X533823D01*
X535516Y891964D01*
Y893657D01*
X533823Y895350D01*
X528744D01*
X533823D01*
X535516Y897043D01*
Y898736D01*
X533823Y900428D01*
X528744D01*
X545672Y890272D02*
X538901D01*
X545672Y897043D01*
Y898736D01*
X543979Y900428D01*
X540594D01*
X538901Y898736D01*
X292922Y951922D02*
Y945151D01*
X298000D01*
Y948536D01*
Y945151D01*
X303078D01*
X292922Y955307D02*
X303078D01*
Y960386D01*
X301385Y962078D01*
X299693D01*
X298000Y960386D01*
Y955307D01*
Y960386D01*
X296307Y962078D01*
X294614D01*
X292922Y960386D01*
Y955307D01*
X303078Y965464D02*
Y968849D01*
Y967157D01*
X292922D01*
X294614Y965464D01*
X271536Y883078D02*
Y872922D01*
X276614D01*
X278307Y874614D01*
Y881386D01*
X276614Y883078D01*
X271536D01*
X286771Y872922D02*
Y883078D01*
X281693Y878000D01*
X288464D01*
X439922Y298536D02*
X450078D01*
Y303614D01*
X448386Y305307D01*
X441614D01*
X439922Y303614D01*
Y298536D01*
X441614Y308693D02*
X439922Y310386D01*
Y313771D01*
X441614Y315464D01*
X443307D01*
X445000Y313771D01*
Y312078D01*
Y313771D01*
X446693Y315464D01*
X448386D01*
X450078Y313771D01*
Y310386D01*
X448386Y308693D01*
X573536Y570078D02*
Y559922D01*
X578614D01*
X580307Y561614D01*
Y568386D01*
X578614Y570078D01*
X573536D01*
X590464Y559922D02*
X583693D01*
X590464Y566693D01*
Y568386D01*
X588771Y570078D01*
X585386D01*
X583693Y568386D01*
X211614Y868229D02*
X209922Y866536D01*
Y863150D01*
X211614Y861458D01*
X218386D01*
X220078Y863150D01*
Y866536D01*
X218386Y868229D01*
X220078Y878386D02*
Y871615D01*
X213307Y878386D01*
X211614D01*
X209922Y876693D01*
Y873307D01*
X211614Y871615D01*
X220078Y888542D02*
Y881771D01*
X213307Y888542D01*
X211614D01*
X209922Y886850D01*
Y883464D01*
X211614Y881771D01*
X521229Y166386D02*
X519536Y168078D01*
X516151D01*
X514458Y166386D01*
Y159614D01*
X516151Y157922D01*
X519536D01*
X521229Y159614D01*
X531386Y157922D02*
X524614D01*
X531386Y164693D01*
Y166386D01*
X529693Y168078D01*
X526307D01*
X524614Y166386D01*
X534771D02*
X536464Y168078D01*
X539850D01*
X541542Y166386D01*
Y159614D01*
X539850Y157922D01*
X536464D01*
X534771Y159614D01*
Y166386D01*
X649614Y231075D02*
X647922Y229382D01*
Y225997D01*
X649614Y224304D01*
X656386D01*
X658078Y225997D01*
Y229382D01*
X656386Y231075D01*
X658078Y234461D02*
Y237846D01*
Y236154D01*
X647922D01*
X649614Y234461D01*
X656386Y242925D02*
X658078Y244618D01*
Y248003D01*
X656386Y249696D01*
X649614D01*
X647922Y248003D01*
Y244618D01*
X649614Y242925D01*
X651307D01*
X653000Y244618D01*
Y249696D01*
X266075Y760386D02*
X264382Y762078D01*
X260997D01*
X259304Y760386D01*
Y753614D01*
X260997Y751922D01*
X264382D01*
X266075Y753614D01*
X269461Y751922D02*
X272846D01*
X271154D01*
Y762078D01*
X269461Y760386D01*
X277925D02*
X279618Y762078D01*
X283003D01*
X284696Y760386D01*
Y758693D01*
X283003Y757000D01*
X284696Y755307D01*
Y753614D01*
X283003Y751922D01*
X279618D01*
X277925Y753614D01*
Y755307D01*
X279618Y757000D01*
X277925Y758693D01*
Y760386D01*
X279618Y757000D02*
X283003D01*
X115614Y869075D02*
X113922Y867383D01*
Y863997D01*
X115614Y862304D01*
X122386D01*
X124078Y863997D01*
Y867383D01*
X122386Y869075D01*
X124078Y872461D02*
Y875846D01*
Y874154D01*
X113922D01*
X115614Y872461D01*
X113922Y880925D02*
Y887696D01*
X115614D01*
X122386Y880925D01*
X124078D01*
X275075Y820386D02*
X273382Y822078D01*
X269997D01*
X268304Y820386D01*
Y813614D01*
X269997Y811922D01*
X273382D01*
X275075Y813614D01*
X278461Y811922D02*
X281846D01*
X280154D01*
Y822078D01*
X278461Y820386D01*
X293696Y822078D02*
X290310Y820386D01*
X286925Y817000D01*
Y813614D01*
X288618Y811922D01*
X292003D01*
X293696Y813614D01*
Y815307D01*
X292003Y817000D01*
X286925D01*
X234075Y820386D02*
X232383Y822078D01*
X228997D01*
X227304Y820386D01*
Y813614D01*
X228997Y811922D01*
X232383D01*
X234075Y813614D01*
X237461Y811922D02*
X240846D01*
X239154D01*
Y822078D01*
X237461Y820386D01*
X252696Y822078D02*
X245925D01*
Y817000D01*
X249310Y818693D01*
X251003D01*
X252696Y817000D01*
Y813614D01*
X251003Y811922D01*
X247618D01*
X245925Y813614D01*
X150614Y868075D02*
X148922Y866383D01*
Y862997D01*
X150614Y861304D01*
X157386D01*
X159078Y862997D01*
Y866383D01*
X157386Y868075D01*
X159078Y871461D02*
Y874846D01*
Y873154D01*
X148922D01*
X150614Y871461D01*
X159078Y885003D02*
X148922D01*
X154000Y879925D01*
Y886696D01*
X196614Y868075D02*
X194922Y866383D01*
Y862997D01*
X196614Y861304D01*
X203386D01*
X205078Y862997D01*
Y866383D01*
X203386Y868075D01*
X205078Y871461D02*
Y874846D01*
Y873154D01*
X194922D01*
X196614Y871461D01*
Y879925D02*
X194922Y881618D01*
Y885003D01*
X196614Y886696D01*
X198307D01*
X200000Y885003D01*
Y883310D01*
Y885003D01*
X201693Y886696D01*
X203386D01*
X205078Y885003D01*
Y881618D01*
X203386Y879925D01*
X266075Y581386D02*
X264382Y583078D01*
X260997D01*
X259304Y581386D01*
Y574614D01*
X260997Y572922D01*
X264382D01*
X266075Y574614D01*
X269461Y572922D02*
X272846D01*
X271154D01*
Y583078D01*
X269461Y581386D01*
X284696Y572922D02*
X277925D01*
X284696Y579693D01*
Y581386D01*
X283003Y583078D01*
X279618D01*
X277925Y581386D01*
X680614Y530768D02*
X678922Y529075D01*
Y525690D01*
X680614Y523997D01*
X687386D01*
X689078Y525690D01*
Y529075D01*
X687386Y530768D01*
X689078Y534154D02*
Y537539D01*
Y535846D01*
X678922D01*
X680614Y534154D01*
X689078Y542618D02*
Y546003D01*
Y544310D01*
X678922D01*
X680614Y542618D01*
X710614Y531075D02*
X708922Y529383D01*
Y525997D01*
X710614Y524304D01*
X717386D01*
X719078Y525997D01*
Y529383D01*
X717386Y531075D01*
X719078Y534461D02*
Y537846D01*
Y536154D01*
X708922D01*
X710614Y534461D01*
Y542925D02*
X708922Y544618D01*
Y548003D01*
X710614Y549696D01*
X717386D01*
X719078Y548003D01*
Y544618D01*
X717386Y542925D01*
X710614D01*
X297307Y673386D02*
X295614Y675078D01*
X292229D01*
X290536Y673386D01*
Y666614D01*
X292229Y664922D01*
X295614D01*
X297307Y666614D01*
X300693D02*
X302386Y664922D01*
X305771D01*
X307464Y666614D01*
Y673386D01*
X305771Y675078D01*
X302386D01*
X300693Y673386D01*
Y671693D01*
X302386Y670000D01*
X307464D01*
X371307Y684386D02*
X369614Y686078D01*
X366229D01*
X364536Y684386D01*
Y677614D01*
X366229Y675922D01*
X369614D01*
X371307Y677614D01*
X374693Y684386D02*
X376386Y686078D01*
X379771D01*
X381464Y684386D01*
Y682693D01*
X379771Y681000D01*
X381464Y679307D01*
Y677614D01*
X379771Y675922D01*
X376386D01*
X374693Y677614D01*
Y679307D01*
X376386Y681000D01*
X374693Y682693D01*
Y684386D01*
X376386Y681000D02*
X379771D01*
X491307Y722386D02*
X489614Y724078D01*
X486229D01*
X484536Y722386D01*
Y715614D01*
X486229Y713922D01*
X489614D01*
X491307Y715614D01*
X494693Y724078D02*
X501464D01*
Y722386D01*
X494693Y715614D01*
Y713922D01*
X321307Y651386D02*
X319614Y653078D01*
X316229D01*
X314536Y651386D01*
Y644614D01*
X316229Y642922D01*
X319614D01*
X321307Y644614D01*
X331464Y653078D02*
X328078Y651386D01*
X324693Y648000D01*
Y644614D01*
X326386Y642922D01*
X329771D01*
X331464Y644614D01*
Y646307D01*
X329771Y648000D01*
X324693D01*
X476307Y671386D02*
X474614Y673078D01*
X471229D01*
X469536Y671386D01*
Y664614D01*
X471229Y662922D01*
X474614D01*
X476307Y664614D01*
X486464Y673078D02*
X479693D01*
Y668000D01*
X483078Y669693D01*
X484771D01*
X486464Y668000D01*
Y664614D01*
X484771Y662922D01*
X481386D01*
X479693Y664614D01*
X504307Y799386D02*
X502614Y801078D01*
X499229D01*
X497536Y799386D01*
Y792614D01*
X499229Y790922D01*
X502614D01*
X504307Y792614D01*
X512771Y790922D02*
Y801078D01*
X507693Y796000D01*
X514464D01*
X331307Y737386D02*
X329614Y739078D01*
X326229D01*
X324536Y737386D01*
Y730614D01*
X326229Y728922D01*
X329614D01*
X331307Y730614D01*
X334693Y737386D02*
X336386Y739078D01*
X339771D01*
X341464Y737386D01*
Y735693D01*
X339771Y734000D01*
X338078D01*
X339771D01*
X341464Y732307D01*
Y730614D01*
X339771Y728922D01*
X336386D01*
X334693Y730614D01*
X697614Y927307D02*
X695922Y925614D01*
Y922229D01*
X697614Y920536D01*
X704386D01*
X706078Y922229D01*
Y925614D01*
X704386Y927307D01*
X706078Y937464D02*
Y930693D01*
X699307Y937464D01*
X697614D01*
X695922Y935771D01*
Y932386D01*
X697614Y930693D01*
X714614Y927000D02*
X712922Y925307D01*
Y921922D01*
X714614Y920229D01*
X721386D01*
X723078Y921922D01*
Y925307D01*
X721386Y927000D01*
X723078Y930386D02*
Y933771D01*
Y932078D01*
X712922D01*
X714614Y930386D01*
D16*
X281496Y420612D02*
X279380Y422728D01*
X275148D01*
X273032Y420612D01*
Y412148D01*
X275148Y410032D01*
X279380D01*
X281496Y412148D01*
X292076Y410032D02*
X287844D01*
X285728Y412148D01*
Y416380D01*
X287844Y418496D01*
X292076D01*
X294192Y416380D01*
Y414264D01*
X285728D01*
X298424Y410032D02*
X302656D01*
X300540D01*
Y422728D01*
X298424D01*
X309004Y410032D02*
X313236D01*
X311120D01*
Y422728D01*
X309004D01*
X281496Y437612D02*
X279380Y439728D01*
X275148D01*
X273032Y437612D01*
Y429148D01*
X275148Y427032D01*
X279380D01*
X281496Y429148D01*
X285728Y427032D02*
Y439728D01*
X292076D01*
X294192Y437612D01*
Y433380D01*
X292076Y431264D01*
X285728D01*
X289960D02*
X294192Y427032D01*
X306888D02*
X298424D01*
X306888Y435496D01*
Y437612D01*
X304772Y439728D01*
X300540D01*
X298424Y437612D01*
X311120D02*
X313236Y439728D01*
X317468D01*
X319584Y437612D01*
Y429148D01*
X317468Y427032D01*
X313236D01*
X311120Y429148D01*
Y437612D01*
X323815D02*
X325932Y439728D01*
X330163D01*
X332280Y437612D01*
Y435496D01*
X330163Y433380D01*
X328047D01*
X330163D01*
X332280Y431264D01*
Y429148D01*
X330163Y427032D01*
X325932D01*
X323815Y429148D01*
X344975Y427032D02*
X336511D01*
X344975Y435496D01*
Y437612D01*
X342859Y439728D01*
X338627D01*
X336511Y437612D01*
X95758Y921512D02*
X87294D01*
X83062Y925744D01*
X87294Y929976D01*
X95758D01*
X89410D01*
Y921512D01*
X95758Y934208D02*
Y938440D01*
Y936324D01*
X83062D01*
Y934208D01*
X87294Y946904D02*
Y951136D01*
X89410Y953252D01*
X95758D01*
Y946904D01*
X93642Y944788D01*
X91526Y946904D01*
Y953252D01*
X87294Y957484D02*
X95758D01*
X91526D01*
X89410Y959600D01*
X87294Y961716D01*
Y963832D01*
X95758Y970180D02*
X87294D01*
Y972296D01*
X89410Y974411D01*
X95758D01*
X89410D01*
X87294Y976527D01*
X89410Y978643D01*
X95758D01*
X336886Y506642D02*
X334770Y508758D01*
X330538D01*
X328422Y506642D01*
Y498178D01*
X330538Y496062D01*
X334770D01*
X336886Y498178D01*
X343234Y496062D02*
X347466D01*
X349582Y498178D01*
Y502410D01*
X347466Y504526D01*
X343234D01*
X341118Y502410D01*
Y498178D01*
X343234Y496062D01*
X353814D02*
Y504526D01*
X360162D01*
X362278Y502410D01*
Y496062D01*
X366510D02*
Y504526D01*
X372858D01*
X374974Y502410D01*
Y496062D01*
X315722Y529500D02*
Y516804D01*
X322070D01*
X324186Y518920D01*
Y527384D01*
X322070Y529500D01*
X315722D01*
X334766Y516804D02*
X330534D01*
X328418Y518920D01*
Y523152D01*
X330534Y525268D01*
X334766D01*
X336882Y523152D01*
Y521036D01*
X328418D01*
X341114Y529500D02*
Y516804D01*
X347462D01*
X349578Y518920D01*
Y521036D01*
Y523152D01*
X347462Y525268D01*
X341114D01*
X353810D02*
Y518920D01*
X355926Y516804D01*
X362274D01*
Y525268D01*
X370737Y512572D02*
X372854D01*
X374969Y514688D01*
Y525268D01*
X368621D01*
X366506Y523152D01*
Y518920D01*
X368621Y516804D01*
X374969D01*
X336886Y566332D02*
X334770Y568448D01*
X330538D01*
X328422Y566332D01*
Y557868D01*
X330538Y555752D01*
X334770D01*
X336886Y557868D01*
X343234Y555752D02*
X347466D01*
X349582Y557868D01*
Y562100D01*
X347466Y564216D01*
X343234D01*
X341118Y562100D01*
Y557868D01*
X343234Y555752D01*
X353814D02*
Y564216D01*
X360162D01*
X362278Y562100D01*
Y555752D01*
X366510D02*
Y564216D01*
X372858D01*
X374974Y562100D01*
Y555752D01*
X344506Y587498D02*
X336042D01*
Y574802D01*
X344506D01*
X336042Y581150D02*
X340274D01*
X348738Y587498D02*
X357202Y574802D01*
Y587498D02*
X348738Y574802D01*
X361434D02*
Y587498D01*
X367782D01*
X369898Y585382D01*
Y581150D01*
X367782Y579034D01*
X361434D01*
X512572Y948604D02*
Y961300D01*
X518920D01*
X521036Y959184D01*
Y954952D01*
X518920Y952836D01*
X512572D01*
X525268Y957068D02*
Y948604D01*
Y952836D01*
X527384Y954952D01*
X529500Y957068D01*
X531616D01*
X540080Y948604D02*
X544312D01*
X546428Y950720D01*
Y954952D01*
X544312Y957068D01*
X540080D01*
X537964Y954952D01*
Y950720D01*
X540080Y948604D01*
X554892Y944372D02*
X557008D01*
X559124Y946488D01*
Y957068D01*
X552776D01*
X550660Y954952D01*
Y950720D01*
X552776Y948604D01*
X559124D01*
X535006Y979928D02*
X526542D01*
Y967232D01*
X535006D01*
X526542Y973580D02*
X530774D01*
X541354Y977812D02*
Y975696D01*
X539238D01*
X543470D01*
X541354D01*
Y969348D01*
X543470Y967232D01*
X549818Y979928D02*
Y967232D01*
Y973580D01*
X551934Y975696D01*
X556166D01*
X558282Y973580D01*
Y967232D01*
D17*
X612760Y549300D02*
D03*
Y574700D02*
D03*
X147240Y784700D02*
D03*
Y759300D02*
D03*
D18*
X467700Y339760D02*
D03*
X442300D02*
D03*
X292700Y902760D02*
D03*
X267300D02*
D03*
X233300Y933240D02*
D03*
X258700D02*
D03*
M02*
