G04*
G04 #@! TF.GenerationSoftware,Altium Limited,Altium Designer,25.4.2 (15)*
G04*
G04 Layer_Physical_Order=2*
G04 Layer_Color=16711680*
%FSLAX44Y44*%
%MOMM*%
G71*
G04*
G04 #@! TF.SameCoordinates,CF2555CE-50F3-4C54-A6B1-1294104F7050*
G04*
G04*
G04 #@! TF.FilePolarity,Positive*
G04*
G01*
G75*
%ADD14C,0.2540*%
%ADD99C,0.5080*%
%ADD100C,0.3810*%
%ADD101C,1.2700*%
%ADD102C,0.7620*%
%ADD104C,0.6350*%
%ADD105C,0.1778*%
%ADD106O,1.8000X6.3000*%
%ADD107O,1.8000X5.4000*%
%ADD108O,5.4000X1.8000*%
%ADD109C,2.4000*%
%ADD110R,2.4000X2.4000*%
G04:AMPARAMS|DCode=111|XSize=1.8mm|YSize=1mm|CornerRadius=0.25mm|HoleSize=0mm|Usage=FLASHONLY|Rotation=180.000|XOffset=0mm|YOffset=0mm|HoleType=Round|Shape=RoundedRectangle|*
%AMROUNDEDRECTD111*
21,1,1.8000,0.5000,0,0,180.0*
21,1,1.3000,1.0000,0,0,180.0*
1,1,0.5000,-0.6500,0.2500*
1,1,0.5000,0.6500,0.2500*
1,1,0.5000,0.6500,-0.2500*
1,1,0.5000,-0.6500,-0.2500*
%
%ADD111ROUNDEDRECTD111*%
%ADD112O,2.1000X1.0000*%
%ADD113C,0.6500*%
%ADD114C,1.3980*%
%ADD115R,1.3980X1.3980*%
%ADD116C,2.3550*%
%ADD117C,3.2500*%
%ADD118C,1.3000*%
G04:AMPARAMS|DCode=119|XSize=1.3mm|YSize=1.3mm|CornerRadius=0.325mm|HoleSize=0mm|Usage=FLASHONLY|Rotation=270.000|XOffset=0mm|YOffset=0mm|HoleType=Round|Shape=RoundedRectangle|*
%AMROUNDEDRECTD119*
21,1,1.3000,0.6500,0,0,270.0*
21,1,0.6500,1.3000,0,0,270.0*
1,1,0.6500,-0.3250,-0.3250*
1,1,0.6500,-0.3250,0.3250*
1,1,0.6500,0.3250,0.3250*
1,1,0.6500,0.3250,-0.3250*
%
%ADD119ROUNDEDRECTD119*%
%ADD120R,1.5300X1.5300*%
%ADD121C,1.5300*%
%ADD122C,1.4000*%
%ADD123C,3.2000*%
%ADD124C,0.5000*%
G36*
X704338Y986685D02*
X701547Y986015D01*
X697581Y984373D01*
X693922Y982130D01*
X690658Y979342D01*
X687870Y976078D01*
X685627Y972419D01*
X683985Y968453D01*
X682982Y964279D01*
X682646Y960000D01*
X682982Y955721D01*
X683985Y951547D01*
X685627Y947581D01*
X687870Y943922D01*
X690658Y940658D01*
X693922Y937870D01*
X697581Y935627D01*
X701547Y933985D01*
X705721Y932982D01*
X710000Y932646D01*
X714279Y932982D01*
X718453Y933985D01*
X722419Y935627D01*
X726078Y937870D01*
X729342Y940658D01*
X732130Y943922D01*
X734373Y947581D01*
X736015Y951547D01*
X736685Y954338D01*
X737685Y954220D01*
Y508532D01*
X683600D01*
X682835Y508215D01*
X682518Y507450D01*
Y445948D01*
X681594Y445566D01*
X641065Y486094D01*
X640104Y486736D01*
X638971Y486962D01*
X575227D01*
X571500Y490689D01*
Y490696D01*
X570967Y491983D01*
X569983Y492967D01*
X568696Y493500D01*
X567304D01*
X566017Y492967D01*
X565033Y491983D01*
X564500Y490696D01*
Y489304D01*
X565033Y488017D01*
X566017Y487033D01*
X567304Y486500D01*
X567311D01*
X571906Y481906D01*
X572867Y481264D01*
X574000Y481038D01*
X602674D01*
X603088Y480038D01*
X603033Y479983D01*
X602500Y478696D01*
Y477304D01*
X603033Y476017D01*
X603088Y475962D01*
X602674Y474962D01*
X599227D01*
X597500Y476689D01*
Y476696D01*
X596967Y477983D01*
X595983Y478967D01*
X594696Y479500D01*
X593304D01*
X592017Y478967D01*
X591033Y477983D01*
X590500Y476696D01*
Y475304D01*
X591033Y474017D01*
X592017Y473033D01*
X593304Y472500D01*
X593311D01*
X595906Y469906D01*
X596866Y469264D01*
X598000Y469038D01*
X632773D01*
X668113Y433698D01*
Y322262D01*
X668338Y321129D01*
X668981Y320168D01*
X691038Y298110D01*
Y256970D01*
X630008D01*
X628874Y256744D01*
X627913Y256102D01*
X618906Y247094D01*
X618264Y246133D01*
X618038Y245000D01*
Y216988D01*
X618033Y216983D01*
X617500Y215696D01*
Y214304D01*
X618033Y213017D01*
X619017Y212033D01*
X620304Y211500D01*
X621696D01*
X622983Y212033D01*
X623967Y213017D01*
X624500Y214304D01*
Y215696D01*
X623967Y216983D01*
X623962Y216988D01*
Y243773D01*
X631235Y251046D01*
X641585D01*
X641967Y250122D01*
X640906Y249060D01*
X640264Y248099D01*
X640038Y246966D01*
Y216988D01*
X640033Y216983D01*
X639500Y215696D01*
Y214304D01*
X640033Y213017D01*
X641017Y212033D01*
X642304Y211500D01*
X643696D01*
X644983Y212033D01*
X645967Y213017D01*
X646500Y214304D01*
Y215696D01*
X645967Y216983D01*
X645962Y216988D01*
Y245739D01*
X646459Y246236D01*
X666740D01*
X667123Y245312D01*
X663906Y242094D01*
X663263Y241133D01*
X663038Y240000D01*
Y201988D01*
X663033Y201983D01*
X662500Y200696D01*
Y199304D01*
X663033Y198017D01*
X664017Y197033D01*
X665304Y196500D01*
X666696D01*
X667983Y197033D01*
X668967Y198017D01*
X669500Y199304D01*
Y200696D01*
X668967Y201983D01*
X668962Y201988D01*
Y238773D01*
X671615Y241426D01*
X699190D01*
X700323Y241651D01*
X701284Y242293D01*
X708094Y249103D01*
X708736Y250064D01*
X708962Y251198D01*
Y300942D01*
X708736Y302075D01*
X708094Y303036D01*
X685687Y325444D01*
X686069Y326368D01*
X737685D01*
Y90000D01*
X737688Y89990D01*
X737347Y85669D01*
X736333Y81444D01*
X734670Y77430D01*
X732400Y73725D01*
X729579Y70421D01*
X726275Y67600D01*
X722570Y65329D01*
X718556Y63667D01*
X714331Y62653D01*
X710010Y62312D01*
X710000Y62315D01*
X535780D01*
X535662Y63314D01*
X538453Y63984D01*
X542419Y65627D01*
X546078Y67870D01*
X549342Y70658D01*
X552130Y73922D01*
X554373Y77581D01*
X556016Y81547D01*
X557018Y85721D01*
X557354Y90000D01*
X557018Y94279D01*
X556016Y98453D01*
X554373Y102419D01*
X552130Y106079D01*
X549342Y109342D01*
X546078Y112130D01*
X542419Y114373D01*
X538453Y116016D01*
X534279Y117017D01*
X530000Y117354D01*
X525721Y117017D01*
X521547Y116016D01*
X517581Y114373D01*
X513922Y112130D01*
X510658Y109342D01*
X507870Y106079D01*
X505627Y102419D01*
X503984Y98453D01*
X502982Y94279D01*
X502646Y90000D01*
X502982Y85721D01*
X503984Y81547D01*
X505627Y77581D01*
X507870Y73922D01*
X510658Y70658D01*
X513922Y67870D01*
X517581Y65627D01*
X521547Y63984D01*
X524338Y63314D01*
X524220Y62315D01*
X205780D01*
X205662Y63314D01*
X208453Y63984D01*
X212419Y65627D01*
X216078Y67870D01*
X219342Y70658D01*
X222130Y73921D01*
X224373Y77581D01*
X226015Y81547D01*
X227017Y85721D01*
X227354Y90000D01*
X227017Y94279D01*
X226015Y98453D01*
X224373Y102419D01*
X222130Y106079D01*
X219342Y109342D01*
X216078Y112130D01*
X212419Y114373D01*
X208453Y116016D01*
X204279Y117018D01*
X200000Y117354D01*
X195721Y117018D01*
X191547Y116016D01*
X187581Y114373D01*
X183922Y112130D01*
X180658Y109342D01*
X177870Y106079D01*
X175627Y102419D01*
X173985Y98453D01*
X172982Y94279D01*
X172646Y90000D01*
X172982Y85721D01*
X173985Y81547D01*
X175627Y77581D01*
X177870Y73921D01*
X180658Y70658D01*
X183922Y67870D01*
X187581Y65627D01*
X191547Y63984D01*
X194338Y63314D01*
X194220Y62315D01*
X40000D01*
X39990Y62312D01*
X35669Y62653D01*
X31444Y63667D01*
X27430Y65329D01*
X23725Y67600D01*
X20421Y70421D01*
X17600Y73725D01*
X15330Y77430D01*
X13667Y81444D01*
X12653Y85669D01*
X12312Y89990D01*
X12314Y90000D01*
Y126877D01*
X13295Y127072D01*
X13313Y127029D01*
X15201Y124204D01*
X17604Y121801D01*
X20429Y119913D01*
X23568Y118613D01*
X26901Y117950D01*
X30299D01*
X33632Y118613D01*
X36771Y119913D01*
X39596Y121801D01*
X41999Y124204D01*
X43887Y127029D01*
X45187Y130168D01*
X45850Y133501D01*
Y136899D01*
X45187Y140232D01*
X43887Y143371D01*
X41999Y146196D01*
X39596Y148599D01*
X36771Y150487D01*
X33632Y151787D01*
X30299Y152450D01*
X26901D01*
X23568Y151787D01*
X20429Y150487D01*
X17604Y148599D01*
X15201Y146196D01*
X13313Y143371D01*
X13295Y143328D01*
X12314Y143523D01*
Y726377D01*
X13295Y726572D01*
X13313Y726529D01*
X15201Y723704D01*
X17604Y721301D01*
X20429Y719413D01*
X23568Y718113D01*
X26901Y717450D01*
X30299D01*
X33632Y718113D01*
X36771Y719413D01*
X39596Y721301D01*
X41999Y723704D01*
X43887Y726529D01*
X45096Y729448D01*
X46096Y729249D01*
Y715495D01*
X44505Y713904D01*
X30300D01*
X28423Y713531D01*
X26832Y712468D01*
X25769Y710877D01*
X25396Y709000D01*
X25769Y707123D01*
X26832Y705532D01*
X28423Y704469D01*
X30300Y704096D01*
X46536D01*
X47361Y704260D01*
X47854Y703338D01*
X46766Y702251D01*
X45977Y700884D01*
X45934Y700847D01*
X44705Y700654D01*
X43707Y701420D01*
X41919Y702161D01*
X40000Y702413D01*
X38081Y702161D01*
X36293Y701420D01*
X34758Y700242D01*
X33580Y698707D01*
X32839Y696919D01*
X32587Y695000D01*
Y684000D01*
Y672000D01*
Y662219D01*
Y522447D01*
Y450000D01*
X32839Y448081D01*
X33580Y446293D01*
X34758Y444758D01*
X48758Y430758D01*
X50293Y429580D01*
X52081Y428839D01*
X54000Y428587D01*
X88587D01*
Y389000D01*
Y358456D01*
X74847D01*
X70165Y363138D01*
X70682Y364035D01*
X70813Y364000D01*
X72787D01*
X74695Y364511D01*
X76405Y365499D01*
X77801Y366895D01*
X78789Y368605D01*
X79300Y370513D01*
Y372487D01*
X78789Y374395D01*
X77801Y376105D01*
X76405Y377501D01*
X74695Y378489D01*
X72787Y379000D01*
X70813D01*
X68905Y378489D01*
X67195Y377501D01*
X65799Y376105D01*
X64850Y374462D01*
X60961D01*
X60546Y375462D01*
X61234Y376149D01*
X62424Y378211D01*
X63019Y380430D01*
X54000D01*
X44981D01*
X45576Y378211D01*
X46766Y376149D01*
X47454Y375462D01*
X47039Y374462D01*
X36500D01*
X35366Y374236D01*
X34406Y373594D01*
X29906Y369094D01*
X29264Y368134D01*
X29038Y367000D01*
Y305000D01*
X29264Y303867D01*
X29906Y302906D01*
X33906Y298906D01*
X34866Y298263D01*
X36000Y298038D01*
X173000D01*
X174133Y298263D01*
X174487Y298500D01*
X174696D01*
X175983Y299033D01*
X176967Y300017D01*
X177500Y301304D01*
Y302696D01*
X176967Y303983D01*
X175983Y304967D01*
X174696Y305500D01*
X173304D01*
X172017Y304967D01*
X171033Y303983D01*
X171024Y303962D01*
X125483D01*
X125069Y304962D01*
X126002Y305895D01*
X126989Y307605D01*
X127500Y309513D01*
Y311487D01*
X126989Y313395D01*
X126002Y315105D01*
X124605Y316502D01*
X122895Y317489D01*
X120987Y318000D01*
X119013D01*
X117105Y317489D01*
X115395Y316502D01*
X113998Y315105D01*
X113050Y313462D01*
X108727D01*
X79560Y342629D01*
X79974Y343629D01*
X89887D01*
X90758Y342758D01*
X92293Y341580D01*
X94081Y340839D01*
X96000Y340587D01*
X97919Y340839D01*
X99707Y341580D01*
X101242Y342758D01*
X102420Y344293D01*
X103161Y346081D01*
X103413Y348000D01*
Y389000D01*
Y432000D01*
X103161Y433919D01*
X102420Y435707D01*
X101242Y437242D01*
X97242Y441242D01*
X95707Y442420D01*
X93919Y443161D01*
X92000Y443413D01*
X57071D01*
X47413Y453071D01*
Y470665D01*
X48413Y471200D01*
X49092Y470747D01*
X50750Y470417D01*
X56635D01*
X56690Y470406D01*
X64659D01*
X66532Y468532D01*
X68123Y467469D01*
X70000Y467096D01*
X91536D01*
X93413Y467469D01*
X95004Y468532D01*
X99468Y472996D01*
X100531Y474587D01*
X100904Y476464D01*
Y485969D01*
X101468Y486532D01*
X102531Y488123D01*
X102904Y490000D01*
X102531Y491877D01*
X101468Y493468D01*
X100985Y493791D01*
X101288Y494791D01*
X104105D01*
X118391Y480505D01*
Y478434D01*
X118181Y478120D01*
X117906Y476739D01*
Y475204D01*
X117105Y474989D01*
X115395Y474002D01*
X113998Y472605D01*
X113011Y470895D01*
X112500Y468987D01*
Y467013D01*
X113011Y465105D01*
X113998Y463395D01*
X115395Y461998D01*
X117105Y461011D01*
X119013Y460500D01*
X120987D01*
X122895Y461011D01*
X124605Y461998D01*
X126002Y463395D01*
X126989Y465105D01*
X127500Y467013D01*
Y468987D01*
X126989Y470895D01*
X126002Y472605D01*
X125125Y473482D01*
Y475528D01*
X125335Y475842D01*
X125609Y477223D01*
Y482000D01*
X125335Y483381D01*
X124552Y484552D01*
X108152Y500952D01*
X106981Y501735D01*
X105600Y502009D01*
X77230D01*
X76816Y503009D01*
X77801Y503995D01*
X78789Y505705D01*
X79085Y506810D01*
X96554D01*
X97304Y506500D01*
X98696D01*
X99983Y507033D01*
X100967Y508017D01*
X101500Y509304D01*
Y510696D01*
X100967Y511983D01*
X99983Y512967D01*
X98696Y513500D01*
X97304D01*
X96017Y512967D01*
X95785Y512734D01*
X78073D01*
X77801Y513205D01*
X76405Y514602D01*
X74695Y515589D01*
X72787Y516100D01*
X70813D01*
X70704Y516071D01*
X67295D01*
X60058Y523308D01*
X60002Y523405D01*
X58605Y524801D01*
X56895Y525789D01*
X54987Y526300D01*
X53013D01*
X52904Y526271D01*
X47413D01*
Y531696D01*
X48337Y532078D01*
X48449Y531966D01*
X50511Y530776D01*
X52730Y530181D01*
Y539200D01*
Y548219D01*
X50511Y547624D01*
X48449Y546434D01*
X48337Y546322D01*
X47413Y546704D01*
Y628165D01*
X48413Y628700D01*
X49092Y628247D01*
X50750Y627917D01*
X57250D01*
X58908Y628247D01*
X60314Y629186D01*
X61253Y630592D01*
X61583Y632250D01*
Y638750D01*
X61253Y640408D01*
X60314Y641814D01*
X58908Y642753D01*
X57250Y643083D01*
X50750D01*
X49092Y642753D01*
X48413Y642300D01*
X47413Y642835D01*
Y650466D01*
X48413Y650880D01*
X49395Y649899D01*
X51105Y648911D01*
X53013Y648400D01*
X54987D01*
X56895Y648911D01*
X58605Y649899D01*
X60002Y651295D01*
X60950Y652938D01*
X67337D01*
X67605Y651938D01*
X67195Y651702D01*
X65799Y650305D01*
X64811Y648595D01*
X64300Y646687D01*
Y644713D01*
X64811Y642805D01*
X65799Y641095D01*
X67195Y639698D01*
X68905Y638711D01*
X70813Y638200D01*
X72787D01*
X74695Y638711D01*
X76405Y639698D01*
X77801Y641095D01*
X78789Y642805D01*
X79300Y644713D01*
Y646687D01*
X78789Y648595D01*
X77801Y650305D01*
X76405Y651702D01*
X75995Y651938D01*
X76263Y652938D01*
X104873D01*
X117038Y640773D01*
Y632450D01*
X115395Y631502D01*
X113998Y630105D01*
X113011Y628395D01*
X112500Y626487D01*
Y624513D01*
X113011Y622605D01*
X113998Y620895D01*
X115395Y619498D01*
X117105Y618511D01*
X119013Y618000D01*
X120987D01*
X122895Y618511D01*
X124605Y619498D01*
X126002Y620895D01*
X126989Y622605D01*
X127500Y624513D01*
Y626487D01*
X126989Y628395D01*
X126002Y630105D01*
X124605Y631502D01*
X122962Y632450D01*
Y642000D01*
X122737Y643133D01*
X122094Y644094D01*
X108194Y657994D01*
X107233Y658636D01*
X106100Y658862D01*
X76263D01*
X75995Y659862D01*
X76405Y660098D01*
X77801Y661495D01*
X78789Y663205D01*
X79300Y665113D01*
Y667087D01*
X78789Y668995D01*
X77801Y670705D01*
X76405Y672102D01*
X74695Y673089D01*
X72787Y673600D01*
X70813D01*
X68905Y673089D01*
X67195Y672102D01*
X65799Y670705D01*
X64811Y668995D01*
X64300Y667087D01*
Y665113D01*
X64811Y663205D01*
X65799Y661495D01*
X67195Y660098D01*
X67605Y659862D01*
X67337Y658862D01*
X60950D01*
X60002Y660505D01*
X58605Y661901D01*
X56895Y662889D01*
X54987Y663400D01*
X53080D01*
X52882Y663625D01*
X52519Y664254D01*
X58508Y670242D01*
X58605Y670298D01*
X60002Y671695D01*
X60989Y673405D01*
X61500Y675313D01*
Y677287D01*
X60989Y679195D01*
X60002Y680905D01*
X58605Y682301D01*
X56895Y683289D01*
X54987Y683800D01*
X53013D01*
X51105Y683289D01*
X49395Y682301D01*
X48413Y681320D01*
X47413Y681734D01*
Y689195D01*
X48337Y689578D01*
X48449Y689466D01*
X50511Y688276D01*
X52730Y687681D01*
Y696700D01*
Y705719D01*
X51193Y705307D01*
X50675Y706203D01*
X54468Y709996D01*
X55531Y711587D01*
X55904Y713464D01*
Y737969D01*
X58189Y740254D01*
X61189Y739450D01*
X64612D01*
X67918Y740336D01*
X70882Y742047D01*
X73303Y744468D01*
X75014Y747432D01*
X75900Y750739D01*
Y754162D01*
X75014Y757468D01*
X73303Y760432D01*
X70882Y762853D01*
X67918Y764564D01*
X64612Y765450D01*
X61189D01*
X57882Y764564D01*
X54918Y762853D01*
X52497Y760432D01*
X50786Y757468D01*
X49900Y754162D01*
Y750739D01*
X50786Y747432D01*
X51046Y746982D01*
X47532Y743468D01*
X46469Y741877D01*
X46096Y740000D01*
X45096Y739952D01*
X43887Y742871D01*
X41999Y745696D01*
X39596Y748099D01*
X36771Y749987D01*
X33632Y751287D01*
X30299Y751950D01*
X26901D01*
X23568Y751287D01*
X20429Y749987D01*
X17604Y748099D01*
X15201Y745696D01*
X13313Y742871D01*
X13295Y742828D01*
X12314Y743023D01*
Y954220D01*
X13314Y954338D01*
X13985Y951547D01*
X15627Y947581D01*
X17870Y943922D01*
X20658Y940658D01*
X23921Y937870D01*
X27581Y935627D01*
X31547Y933985D01*
X35721Y932982D01*
X40000Y932646D01*
X44279Y932982D01*
X48453Y933985D01*
X52419Y935627D01*
X56079Y937870D01*
X59342Y940658D01*
X62130Y943922D01*
X64373Y947581D01*
X66016Y951547D01*
X67017Y955721D01*
X67354Y960000D01*
X67017Y964279D01*
X66016Y968453D01*
X64373Y972419D01*
X62130Y976078D01*
X59342Y979342D01*
X56079Y982130D01*
X52419Y984373D01*
X48453Y986015D01*
X45662Y986685D01*
X45781Y987685D01*
X325177Y987685D01*
X325372Y986705D01*
X325329Y986687D01*
X322504Y984799D01*
X320101Y982396D01*
X318213Y979571D01*
X316913Y976432D01*
X316250Y973099D01*
Y969701D01*
X316913Y966368D01*
X318213Y963229D01*
X320101Y960404D01*
X322504Y958001D01*
X325329Y956113D01*
X328468Y954813D01*
X331801Y954150D01*
X335199D01*
X338532Y954813D01*
X341671Y956113D01*
X344496Y958001D01*
X346899Y960404D01*
X348787Y963229D01*
X350087Y966368D01*
X350750Y969701D01*
Y973099D01*
X350087Y976432D01*
X348787Y979571D01*
X346899Y982396D01*
X344496Y984799D01*
X341671Y986687D01*
X341628Y986705D01*
X341823Y987685D01*
X452177D01*
X452373Y986705D01*
X452329Y986687D01*
X449504Y984799D01*
X447101Y982396D01*
X445213Y979571D01*
X443913Y976432D01*
X443250Y973099D01*
Y969701D01*
X443913Y966368D01*
X445213Y963229D01*
X447101Y960404D01*
X449504Y958001D01*
X452329Y956113D01*
X455468Y954813D01*
X458801Y954150D01*
X462199D01*
X465532Y954813D01*
X468671Y956113D01*
X471496Y958001D01*
X473899Y960404D01*
X475787Y963229D01*
X477087Y966368D01*
X477750Y969701D01*
Y973099D01*
X477087Y976432D01*
X475787Y979571D01*
X473899Y982396D01*
X471496Y984799D01*
X468671Y986687D01*
X468628Y986705D01*
X468823Y987685D01*
X572035Y987685D01*
X572303Y986685D01*
X570343Y985554D01*
X568446Y983657D01*
X567104Y981333D01*
X566410Y978742D01*
Y978670D01*
X576600D01*
X586790D01*
Y978742D01*
X586096Y981333D01*
X584754Y983657D01*
X582857Y985554D01*
X580897Y986685D01*
X581165Y987685D01*
X704220D01*
X704338Y986685D01*
D02*
G37*
%LPC*%
G36*
X586790Y976130D02*
X577870D01*
Y967210D01*
X577942D01*
X580533Y967904D01*
X582857Y969246D01*
X584754Y971143D01*
X586096Y973467D01*
X586790Y976058D01*
Y976130D01*
D02*
G37*
G36*
X575330D02*
X566410D01*
Y976058D01*
X567104Y973467D01*
X568446Y971143D01*
X570343Y969246D01*
X572667Y967904D01*
X575258Y967210D01*
X575330D01*
Y976130D01*
D02*
G37*
G36*
X603139Y960650D02*
X600861D01*
X598661Y960061D01*
X596689Y958922D01*
X595078Y957311D01*
X593940Y955339D01*
X593350Y953139D01*
Y950861D01*
X593940Y948661D01*
X595078Y946689D01*
X596689Y945078D01*
X598661Y943940D01*
X600861Y943350D01*
X603139D01*
X605339Y943940D01*
X607311Y945078D01*
X608922Y946689D01*
X610061Y948661D01*
X610650Y950861D01*
Y953139D01*
X610061Y955339D01*
X608922Y957311D01*
X607311Y958922D01*
X605339Y960061D01*
X603139Y960650D01*
D02*
G37*
G36*
X423452Y953990D02*
X421348D01*
X419316Y953446D01*
X417494Y952394D01*
X416006Y950906D01*
X414954Y949084D01*
X414410Y947052D01*
Y944948D01*
X414954Y942916D01*
X416006Y941094D01*
X417494Y939606D01*
X419316Y938555D01*
X421348Y938010D01*
X423452D01*
X425484Y938555D01*
X427306Y939606D01*
X428794Y941094D01*
X429846Y942916D01*
X430390Y944948D01*
Y947052D01*
X429846Y949084D01*
X428794Y950906D01*
X427306Y952394D01*
X425484Y953446D01*
X423452Y953990D01*
D02*
G37*
G36*
X403052D02*
X400948D01*
X398916Y953446D01*
X397094Y952394D01*
X395606Y950906D01*
X394554Y949084D01*
X394010Y947052D01*
Y944948D01*
X394554Y942916D01*
X395606Y941094D01*
X397094Y939606D01*
X398916Y938555D01*
X400948Y938010D01*
X403052D01*
X405084Y938555D01*
X406906Y939606D01*
X408394Y941094D01*
X409445Y942916D01*
X409990Y944948D01*
Y947052D01*
X409445Y949084D01*
X408394Y950906D01*
X406906Y952394D01*
X405084Y953446D01*
X403052Y953990D01*
D02*
G37*
G36*
X382652D02*
X380548D01*
X378516Y953446D01*
X376694Y952394D01*
X375206Y950906D01*
X374155Y949084D01*
X373610Y947052D01*
Y944948D01*
X374155Y942916D01*
X375206Y941094D01*
X376694Y939606D01*
X378516Y938555D01*
X380548Y938010D01*
X382652D01*
X384684Y938555D01*
X386506Y939606D01*
X387994Y941094D01*
X389045Y942916D01*
X389590Y944948D01*
Y947052D01*
X389045Y949084D01*
X387994Y950906D01*
X386506Y952394D01*
X384684Y953446D01*
X382652Y953990D01*
D02*
G37*
G36*
X369190D02*
X353210D01*
Y938010D01*
X369190D01*
Y953990D01*
D02*
G37*
G36*
X149740Y948540D02*
X136470D01*
Y935270D01*
X149740D01*
Y948540D01*
D02*
G37*
G36*
X133930D02*
X120660D01*
Y935270D01*
X133930D01*
Y948540D01*
D02*
G37*
G36*
X479982Y949875D02*
X476618D01*
X473369Y949004D01*
X470456Y947322D01*
X468078Y944944D01*
X466396Y942031D01*
X465525Y938782D01*
Y935418D01*
X465855Y934186D01*
X462832Y931162D01*
X440078D01*
X440046Y931284D01*
X438994Y933106D01*
X437506Y934594D01*
X435684Y935646D01*
X433652Y936190D01*
X431548D01*
X429516Y935646D01*
X427694Y934594D01*
X426206Y933106D01*
X425154Y931284D01*
X424610Y929252D01*
Y927148D01*
X425154Y925116D01*
X426206Y923294D01*
X427694Y921806D01*
X429516Y920754D01*
X431548Y920210D01*
X433652D01*
X435684Y920754D01*
X437506Y921806D01*
X438994Y923294D01*
X440046Y925116D01*
X440078Y925238D01*
X464058D01*
X465192Y925463D01*
X466153Y926106D01*
X468690Y928643D01*
X470456Y926877D01*
X473369Y925196D01*
X476618Y924325D01*
X479982D01*
X483231Y925196D01*
X486144Y926877D01*
X488522Y929256D01*
X490204Y932169D01*
X491075Y935418D01*
Y938782D01*
X490204Y942031D01*
X488522Y944944D01*
X486144Y947322D01*
X483231Y949004D01*
X479982Y949875D01*
D02*
G37*
G36*
X317382D02*
X314018D01*
X310769Y949004D01*
X307856Y947322D01*
X305478Y944944D01*
X303796Y942031D01*
X302925Y938782D01*
Y935418D01*
X303796Y932169D01*
X305478Y929256D01*
X307856Y926877D01*
X310769Y925196D01*
X314018Y924325D01*
X317382D01*
X320631Y925196D01*
X323544Y926877D01*
X325923Y929256D01*
X327604Y932169D01*
X328475Y935418D01*
Y938782D01*
X327604Y942031D01*
X325923Y944944D01*
X323544Y947322D01*
X320631Y949004D01*
X317382Y949875D01*
D02*
G37*
G36*
X187712Y947000D02*
X184289D01*
X180982Y946114D01*
X178018Y944403D01*
X175597Y941982D01*
X173886Y939018D01*
X173000Y935712D01*
Y932289D01*
X173886Y928982D01*
X175597Y926018D01*
X178018Y923597D01*
X180982Y921886D01*
X184289Y921000D01*
X187712D01*
X191018Y921886D01*
X193982Y923597D01*
X196403Y926018D01*
X198114Y928982D01*
X199000Y932289D01*
Y935712D01*
X198114Y939018D01*
X196403Y941982D01*
X193982Y944403D01*
X191018Y946114D01*
X187712Y947000D01*
D02*
G37*
G36*
X413252Y936190D02*
X411148D01*
X409116Y935646D01*
X407294Y934594D01*
X405806Y933106D01*
X404754Y931284D01*
X404210Y929252D01*
Y927148D01*
X404754Y925116D01*
X405806Y923294D01*
X407294Y921806D01*
X409116Y920754D01*
X411148Y920210D01*
X413252D01*
X415284Y920754D01*
X417106Y921806D01*
X418594Y923294D01*
X419646Y925116D01*
X420190Y927148D01*
Y929252D01*
X419646Y931284D01*
X418594Y933106D01*
X417106Y934594D01*
X415284Y935646D01*
X413252Y936190D01*
D02*
G37*
G36*
X276000Y961254D02*
X274240Y960904D01*
X266000D01*
X264123Y960531D01*
X262532Y959468D01*
X261469Y957877D01*
X261096Y956000D01*
Y938000D01*
X261469Y936123D01*
X262532Y934532D01*
X284132Y912932D01*
X285723Y911869D01*
X287600Y911496D01*
X378279D01*
X380156Y911869D01*
X381747Y912932D01*
X389389Y920574D01*
X390748Y920210D01*
X392852D01*
X394884Y920754D01*
X396706Y921806D01*
X398194Y923294D01*
X399245Y925116D01*
X399790Y927148D01*
Y929252D01*
X399245Y931284D01*
X398194Y933106D01*
X396706Y934594D01*
X394884Y935646D01*
X392852Y936190D01*
X390748D01*
X388716Y935646D01*
X386894Y934594D01*
X385406Y933106D01*
X384355Y931284D01*
X383810Y929252D01*
Y928867D01*
X379815Y924872D01*
X378919Y925390D01*
X379390Y927148D01*
Y929252D01*
X378845Y931284D01*
X377794Y933106D01*
X376306Y934594D01*
X374484Y935646D01*
X372452Y936190D01*
X370348D01*
X368316Y935646D01*
X366494Y934594D01*
X365006Y933106D01*
X363955Y931284D01*
X363410Y929252D01*
Y927148D01*
X363955Y925116D01*
X365006Y923294D01*
X365996Y922304D01*
X365582Y921304D01*
X289631D01*
X270904Y940031D01*
Y951096D01*
X275650D01*
X277527Y951469D01*
X279118Y952532D01*
X279468Y952882D01*
X280531Y954473D01*
X280904Y956350D01*
X280531Y958227D01*
X279468Y959818D01*
X277877Y960881D01*
X276000Y961254D01*
D02*
G37*
G36*
X149740Y932730D02*
X136470D01*
Y919460D01*
X149740D01*
Y932730D01*
D02*
G37*
G36*
X133930D02*
X120660D01*
Y919460D01*
X133930D01*
Y932730D01*
D02*
G37*
G36*
X636050Y986050D02*
X618750D01*
Y968750D01*
X636050D01*
Y972391D01*
X640505D01*
X642391Y970505D01*
Y918000D01*
X642665Y916619D01*
X643448Y915448D01*
X657448Y901448D01*
X658619Y900665D01*
X660000Y900391D01*
X692000D01*
X692550Y900500D01*
X692696D01*
X692831Y900556D01*
X693381Y900665D01*
X693847Y900977D01*
X693983Y901033D01*
X694086Y901136D01*
X694552Y901448D01*
X694864Y901914D01*
X694967Y902017D01*
X695023Y902153D01*
X695335Y902619D01*
X695444Y903168D01*
X695500Y903304D01*
Y903450D01*
X695609Y904000D01*
X695500Y904550D01*
Y904696D01*
X695444Y904831D01*
X695335Y905381D01*
X695023Y905847D01*
X694967Y905983D01*
X694864Y906086D01*
X694552Y906552D01*
X694086Y906863D01*
X693983Y906967D01*
X693847Y907023D01*
X693381Y907335D01*
X692831Y907444D01*
X692696Y907500D01*
X692550D01*
X692000Y907609D01*
X661495D01*
X649609Y919495D01*
Y972000D01*
X649335Y973381D01*
X648552Y974552D01*
X644552Y978552D01*
X643381Y979335D01*
X642000Y979609D01*
X636050D01*
Y986050D01*
D02*
G37*
G36*
X352352Y887990D02*
X350248D01*
X348216Y887446D01*
X346394Y886394D01*
X344906Y884906D01*
X343854Y883084D01*
X343310Y881052D01*
Y878948D01*
X343854Y876916D01*
X344906Y875094D01*
X346394Y873606D01*
X348216Y872554D01*
X350248Y872010D01*
X352352D01*
X354384Y872554D01*
X356206Y873606D01*
X357694Y875094D01*
X358745Y876916D01*
X359290Y878948D01*
Y881052D01*
X358745Y883084D01*
X357694Y884906D01*
X356206Y886394D01*
X354384Y887446D01*
X352352Y887990D01*
D02*
G37*
G36*
X480000Y897609D02*
X444976D01*
X443595Y897335D01*
X442424Y896552D01*
X439448Y893576D01*
X438665Y892405D01*
X438391Y891024D01*
Y886738D01*
X437794Y886394D01*
X436306Y884906D01*
X435255Y883084D01*
X434710Y881052D01*
Y878948D01*
X435255Y876916D01*
X436306Y875094D01*
X437794Y873606D01*
X439616Y872554D01*
X441648Y872010D01*
X443752D01*
X445784Y872554D01*
X447606Y873606D01*
X449094Y875094D01*
X450145Y876916D01*
X450690Y878948D01*
Y881052D01*
X450145Y883084D01*
X449094Y884906D01*
X447606Y886394D01*
X445784Y887446D01*
X445609Y887492D01*
Y889529D01*
X446471Y890391D01*
X478505D01*
X486391Y882505D01*
Y878000D01*
X486665Y876619D01*
X487448Y875448D01*
X491448Y871448D01*
X492619Y870665D01*
X494000Y870391D01*
X508000D01*
X508550Y870500D01*
X508696D01*
X508831Y870556D01*
X509381Y870665D01*
X509847Y870977D01*
X509983Y871033D01*
X510086Y871136D01*
X510552Y871448D01*
X510863Y871914D01*
X510967Y872017D01*
X511023Y872153D01*
X511335Y872619D01*
X511444Y873168D01*
X511500Y873304D01*
Y873450D01*
X511609Y874000D01*
X511500Y874550D01*
Y874696D01*
X511444Y874831D01*
X511335Y875381D01*
X511023Y875847D01*
X510967Y875983D01*
X510863Y876086D01*
X510552Y876552D01*
X510086Y876863D01*
X509983Y876967D01*
X509847Y877023D01*
X509381Y877335D01*
X508831Y877444D01*
X508696Y877500D01*
X508550D01*
X508000Y877609D01*
X495495D01*
X493609Y879495D01*
Y884000D01*
X493335Y885381D01*
X492552Y886552D01*
X482552Y896552D01*
X481381Y897335D01*
X480000Y897609D01*
D02*
G37*
G36*
X466652Y887990D02*
X464548D01*
X462516Y887446D01*
X460694Y886394D01*
X459206Y884906D01*
X458154Y883084D01*
X457610Y881052D01*
Y878948D01*
X458154Y876916D01*
X459206Y875094D01*
X460694Y873606D01*
X462516Y872554D01*
X464548Y872010D01*
X466652D01*
X468684Y872554D01*
X470506Y873606D01*
X471994Y875094D01*
X472988Y876817D01*
X474459D01*
X484074Y867202D01*
Y860075D01*
X483074Y859771D01*
X483023Y859847D01*
X482967Y859983D01*
X482864Y860086D01*
X482552Y860552D01*
X482086Y860864D01*
X481983Y860967D01*
X481847Y861023D01*
X481381Y861335D01*
X480831Y861444D01*
X480696Y861500D01*
X480550D01*
X480000Y861609D01*
X470000D01*
X468619Y861335D01*
X467448Y860552D01*
X457448Y850552D01*
X456665Y849381D01*
X456391Y848000D01*
Y822471D01*
X455529Y821609D01*
X428000D01*
X427450Y821500D01*
X427304D01*
X427169Y821444D01*
X426619Y821335D01*
X426153Y821023D01*
X426017Y820967D01*
X425914Y820863D01*
X425448Y820552D01*
X425136Y820086D01*
X425033Y819983D01*
X424977Y819847D01*
X424665Y819381D01*
X424556Y818831D01*
X424500Y818696D01*
Y818550D01*
X424391Y818000D01*
X424500Y817450D01*
Y817304D01*
X424556Y817169D01*
X424665Y816619D01*
X424977Y816153D01*
X425033Y816017D01*
X425136Y815914D01*
X425448Y815448D01*
X425914Y815136D01*
X426017Y815033D01*
X426153Y814977D01*
X426619Y814665D01*
X427169Y814556D01*
X427304Y814500D01*
X427450D01*
X428000Y814391D01*
X457024D01*
X458405Y814665D01*
X459576Y815448D01*
X462552Y818424D01*
X463335Y819595D01*
X463609Y820976D01*
Y846505D01*
X471495Y854391D01*
X480000D01*
X480550Y854500D01*
X480696D01*
X480831Y854556D01*
X481381Y854665D01*
X481847Y854977D01*
X481983Y855033D01*
X482086Y855136D01*
X482552Y855448D01*
X482864Y855914D01*
X482967Y856017D01*
X483023Y856153D01*
X483074Y856229D01*
X484074Y855925D01*
Y790798D01*
X441202Y747926D01*
X386000D01*
X385263Y747779D01*
X384638Y747362D01*
X372249Y734973D01*
X371832Y734348D01*
X371685Y733611D01*
Y678635D01*
X371033Y677983D01*
X370926Y677725D01*
X369926Y677924D01*
Y852000D01*
X369926Y852000D01*
X369779Y852737D01*
X369362Y853362D01*
X355362Y867362D01*
X354737Y867779D01*
X354000Y867926D01*
X332798D01*
X330802Y869922D01*
X333213Y873553D01*
X333306Y873606D01*
X334794Y875094D01*
X335845Y876916D01*
X336390Y878948D01*
Y881052D01*
X335845Y883084D01*
X334794Y884906D01*
X333306Y886394D01*
X331484Y887446D01*
X329452Y887990D01*
X327348D01*
X325316Y887446D01*
X323494Y886394D01*
X322006Y884906D01*
X320955Y883084D01*
X320410Y881052D01*
Y878948D01*
X320955Y876916D01*
X322006Y875094D01*
X323494Y873606D01*
X323587Y873553D01*
X326586Y869036D01*
X326621Y868863D01*
X327038Y868238D01*
X330638Y864638D01*
X331263Y864221D01*
X332000Y864074D01*
X353202D01*
X366074Y851202D01*
Y675421D01*
X365150Y675039D01*
X362094Y678094D01*
X361133Y678736D01*
X360000Y678962D01*
X350000D01*
X348867Y678736D01*
X347906Y678094D01*
X341906Y672094D01*
X341264Y671133D01*
X341038Y670000D01*
Y640000D01*
X341264Y638867D01*
X341906Y637906D01*
X361038Y618773D01*
Y612232D01*
X361264Y611098D01*
X361906Y610137D01*
X370137Y601906D01*
X371098Y601264D01*
X372232Y601038D01*
X480000D01*
X481133Y601264D01*
X482094Y601906D01*
X559227Y679038D01*
X598000D01*
X599133Y679264D01*
X600094Y679906D01*
X602689Y682500D01*
X602696D01*
X603983Y683033D01*
X604967Y684017D01*
X605500Y685304D01*
Y686696D01*
X604967Y687983D01*
X603983Y688967D01*
X602696Y689500D01*
X601304D01*
X600017Y688967D01*
X599033Y687983D01*
X598500Y686696D01*
Y686689D01*
X596773Y684962D01*
X558000D01*
X556866Y684736D01*
X555906Y684094D01*
X478773Y606962D01*
X472482D01*
X472170Y607722D01*
X472151Y607962D01*
X555227Y691038D01*
X602000D01*
X603134Y691264D01*
X604094Y691906D01*
X611227Y699038D01*
X626012D01*
X626017Y699033D01*
X627304Y698500D01*
X628696D01*
X629983Y699033D01*
X630967Y700017D01*
X631500Y701304D01*
Y702696D01*
X630967Y703983D01*
X629983Y704967D01*
X628696Y705500D01*
X627304D01*
X626017Y704967D01*
X626012Y704962D01*
X610000D01*
X608867Y704736D01*
X607906Y704094D01*
X600773Y696962D01*
X554000D01*
X552867Y696737D01*
X551906Y696094D01*
X468773Y612962D01*
X398095D01*
X394506Y616550D01*
X394226Y617228D01*
X394848Y618228D01*
X409190D01*
X410323Y618453D01*
X411284Y619096D01*
X429576Y637387D01*
X430619Y637016D01*
X431033Y636017D01*
X432017Y635033D01*
X433304Y634500D01*
X434696D01*
X435983Y635033D01*
X435988Y635038D01*
X468012D01*
X468017Y635033D01*
X469304Y634500D01*
X470696D01*
X471983Y635033D01*
X472967Y636017D01*
X473500Y637304D01*
Y638696D01*
X472967Y639983D01*
X471983Y640967D01*
X470696Y641500D01*
X469304D01*
X468017Y640967D01*
X468012Y640962D01*
X435988D01*
X435983Y640967D01*
X434984Y641381D01*
X434613Y642424D01*
X588094Y795906D01*
X588736Y796867D01*
X588962Y798000D01*
Y830773D01*
X590094Y831906D01*
X590737Y832867D01*
X590962Y834000D01*
Y848012D01*
X590967Y848017D01*
X591500Y849304D01*
Y850696D01*
X590967Y851983D01*
X590912Y852038D01*
X591326Y853038D01*
X605044D01*
X605188Y852942D01*
X606322Y852716D01*
X609478D01*
X610612Y852942D01*
X611572Y853584D01*
X614489Y856500D01*
X614496D01*
X615783Y857033D01*
X616767Y858017D01*
X617300Y859304D01*
Y860696D01*
X616767Y861983D01*
X615783Y862967D01*
X614496Y863500D01*
X613104D01*
X611817Y862967D01*
X610833Y861983D01*
X610300Y860696D01*
Y860689D01*
X608251Y858640D01*
X607278D01*
X607133Y858736D01*
X606000Y858962D01*
X584000D01*
X582867Y858736D01*
X581906Y858094D01*
X577962Y854151D01*
X577722Y854170D01*
X576962Y854482D01*
Y856773D01*
X581227Y861038D01*
X598012D01*
X598017Y861033D01*
X599304Y860500D01*
X600696D01*
X601983Y861033D01*
X602967Y862017D01*
X603500Y863304D01*
Y864696D01*
X602967Y865983D01*
X601983Y866967D01*
X600696Y867500D01*
X599304D01*
X598017Y866967D01*
X598012Y866962D01*
X580000D01*
X578867Y866737D01*
X577906Y866094D01*
X571906Y860094D01*
X571264Y859134D01*
X571038Y858000D01*
Y803227D01*
X432773Y664962D01*
X427326D01*
X426912Y665962D01*
X426967Y666017D01*
X427500Y667304D01*
Y668696D01*
X426967Y669983D01*
X425983Y670967D01*
X424696Y671500D01*
X423756D01*
X423139Y672432D01*
X423500Y673304D01*
Y674696D01*
X422967Y675983D01*
X421983Y676967D01*
X420696Y677500D01*
X419304D01*
X418017Y676967D01*
X417158Y677522D01*
X416967Y677983D01*
X416315Y678635D01*
Y694000D01*
X416138Y694886D01*
X415637Y695637D01*
X410295Y700978D01*
Y723365D01*
X410948Y724017D01*
X411481Y725304D01*
Y726696D01*
X410948Y727983D01*
X409964Y728967D01*
X408677Y729500D01*
X407285D01*
X405998Y728967D01*
X405314Y728283D01*
X404314Y728697D01*
Y730000D01*
X404138Y730886D01*
X403637Y731637D01*
X399500Y735773D01*
Y736696D01*
X398967Y737983D01*
X398264Y738686D01*
X398662Y739686D01*
X435041D01*
X437686Y737041D01*
Y736635D01*
X437033Y735983D01*
X436500Y734696D01*
Y733304D01*
X437033Y732017D01*
X438017Y731033D01*
X439304Y730500D01*
X440696D01*
X441983Y731033D01*
X442967Y732017D01*
X443500Y733304D01*
Y734696D01*
X442967Y735983D01*
X442314Y736635D01*
Y738000D01*
X442138Y738886D01*
X441637Y739637D01*
X438199Y743074D01*
X438613Y744074D01*
X442000D01*
X442737Y744221D01*
X443362Y744638D01*
X487362Y788638D01*
X487779Y789263D01*
X487926Y790000D01*
Y868000D01*
X487779Y868737D01*
X487362Y869362D01*
X487362Y869362D01*
X476619Y880105D01*
X475994Y880522D01*
X475257Y880669D01*
X473590D01*
Y881052D01*
X473046Y883084D01*
X471994Y884906D01*
X470506Y886394D01*
X468684Y887446D01*
X466652Y887990D01*
D02*
G37*
G36*
X43270Y887472D02*
Y859270D01*
X53639D01*
Y876000D01*
X53243Y879013D01*
X52080Y881820D01*
X50230Y884230D01*
X47820Y886080D01*
X45012Y887243D01*
X43270Y887472D01*
D02*
G37*
G36*
X40730D02*
X38988Y887243D01*
X36180Y886080D01*
X33770Y884230D01*
X31920Y881820D01*
X30757Y879013D01*
X30360Y876000D01*
Y859270D01*
X40730D01*
Y887472D01*
D02*
G37*
G36*
X307000Y890609D02*
X306450Y890500D01*
X306304D01*
X306168Y890444D01*
X305619Y890335D01*
X305153Y890023D01*
X305017Y889967D01*
X304914Y889864D01*
X304448Y889552D01*
X301448Y886552D01*
X300665Y885381D01*
X300391Y884000D01*
Y852000D01*
X300500Y851450D01*
Y851304D01*
X300556Y851169D01*
X300665Y850619D01*
X300977Y850153D01*
X301033Y850017D01*
X301136Y849914D01*
X301448Y849448D01*
X301914Y849137D01*
X302017Y849033D01*
X302153Y848977D01*
X302619Y848665D01*
X303169Y848556D01*
X303304Y848500D01*
X303450D01*
X304000Y848391D01*
X304550Y848500D01*
X304696D01*
X304832Y848556D01*
X305381Y848665D01*
X305847Y848977D01*
X305983Y849033D01*
X306086Y849137D01*
X306552Y849448D01*
X306863Y849914D01*
X306967Y850017D01*
X307023Y850153D01*
X307335Y850619D01*
X307444Y851169D01*
X307500Y851304D01*
Y851450D01*
X307609Y852000D01*
Y882505D01*
X309552Y884448D01*
X309863Y884914D01*
X309967Y885017D01*
X310023Y885153D01*
X310335Y885619D01*
X310444Y886169D01*
X310500Y886304D01*
Y886450D01*
X310609Y887000D01*
X310500Y887550D01*
Y887696D01*
X310444Y887831D01*
X310335Y888381D01*
X310023Y888847D01*
X309967Y888983D01*
X309864Y889086D01*
X309552Y889552D01*
X309086Y889864D01*
X308983Y889967D01*
X308847Y890023D01*
X308381Y890335D01*
X307831Y890444D01*
X307696Y890500D01*
X307550D01*
X307000Y890609D01*
D02*
G37*
G36*
X53639Y856730D02*
X43270D01*
Y828528D01*
X45012Y828757D01*
X47820Y829920D01*
X50230Y831770D01*
X52080Y834180D01*
X53243Y836988D01*
X53639Y840000D01*
Y856730D01*
D02*
G37*
G36*
X40730D02*
X30360D01*
Y840000D01*
X30757Y836988D01*
X31920Y834180D01*
X33770Y831770D01*
X36180Y829920D01*
X38988Y828757D01*
X40730Y828528D01*
Y856730D01*
D02*
G37*
G36*
X102000Y890586D02*
X99389Y890243D01*
X96957Y889235D01*
X94868Y887632D01*
X93265Y885543D01*
X92257Y883111D01*
X91914Y880500D01*
Y835500D01*
X92257Y832889D01*
X93265Y830457D01*
X94868Y828368D01*
X96957Y826765D01*
X99389Y825757D01*
X102000Y825414D01*
X104611Y825757D01*
X107043Y826765D01*
X109132Y828368D01*
X110735Y830457D01*
X111743Y832889D01*
X112086Y835500D01*
Y880500D01*
X111743Y883111D01*
X110735Y885543D01*
X109132Y887632D01*
X107043Y889235D01*
X104611Y890243D01*
X102000Y890586D01*
D02*
G37*
G36*
X194696Y904500D02*
X193304D01*
X192017Y903967D01*
X191033Y902983D01*
X190500Y901696D01*
Y900304D01*
X191033Y899017D01*
X191038Y899012D01*
Y855000D01*
X191264Y853867D01*
X191906Y852906D01*
X198906Y845906D01*
X199867Y845264D01*
X201000Y845038D01*
X215773D01*
X219038Y841773D01*
Y824720D01*
X219033Y824715D01*
X218500Y823428D01*
Y822036D01*
X219033Y820749D01*
X220017Y819765D01*
X221304Y819232D01*
X222696D01*
X223983Y819765D01*
X224967Y820749D01*
X225500Y822036D01*
Y823428D01*
X224967Y824715D01*
X224962Y824720D01*
Y843000D01*
X224736Y844134D01*
X224094Y845094D01*
X219094Y850094D01*
X218134Y850736D01*
X217000Y850962D01*
X202227D01*
X196962Y856227D01*
Y899012D01*
X196967Y899017D01*
X197500Y900304D01*
Y901696D01*
X196967Y902983D01*
X195983Y903967D01*
X194696Y904500D01*
D02*
G37*
G36*
X90000Y822640D02*
X73270D01*
Y812270D01*
X101472D01*
X101243Y814013D01*
X100080Y816820D01*
X98230Y819230D01*
X95820Y821080D01*
X93013Y822243D01*
X90000Y822640D01*
D02*
G37*
G36*
X70730D02*
X54000D01*
X50988Y822243D01*
X48180Y821080D01*
X45770Y819230D01*
X43920Y816820D01*
X42757Y814013D01*
X42528Y812270D01*
X70730D01*
Y822640D01*
D02*
G37*
G36*
X101472Y809730D02*
X73270D01*
Y799361D01*
X90000D01*
X93013Y799757D01*
X95820Y800920D01*
X98230Y802770D01*
X100080Y805180D01*
X101243Y807988D01*
X101472Y809730D01*
D02*
G37*
G36*
X70730D02*
X42528D01*
X42757Y807988D01*
X43920Y805180D01*
X45770Y802770D01*
X48180Y800920D01*
X50988Y799757D01*
X54000Y799361D01*
X70730D01*
Y809730D01*
D02*
G37*
G36*
X577739Y960650D02*
X575461D01*
X573261Y960061D01*
X571289Y958922D01*
X569678Y957311D01*
X568540Y955339D01*
X567950Y953139D01*
Y950861D01*
X568540Y948661D01*
X569678Y946689D01*
X571289Y945078D01*
X572991Y944096D01*
Y892976D01*
X573265Y891595D01*
X574048Y890424D01*
X577024Y887448D01*
X578195Y886665D01*
X579576Y886391D01*
X606505D01*
X620391Y872505D01*
Y841495D01*
X591448Y812552D01*
X590665Y811381D01*
X590391Y810000D01*
Y785495D01*
X549448Y744552D01*
X548665Y743381D01*
X548391Y742000D01*
Y718000D01*
X548500Y717450D01*
Y717304D01*
X548556Y717169D01*
X548665Y716619D01*
X548977Y716153D01*
X549033Y716017D01*
X549136Y715914D01*
X549448Y715448D01*
X549914Y715136D01*
X550017Y715033D01*
X550153Y714977D01*
X550619Y714665D01*
X551169Y714556D01*
X551304Y714500D01*
X551450D01*
X552000Y714391D01*
X552550Y714500D01*
X552696D01*
X552831Y714556D01*
X553381Y714665D01*
X553847Y714977D01*
X553983Y715033D01*
X554086Y715136D01*
X554552Y715448D01*
X554864Y715914D01*
X554967Y716017D01*
X555023Y716153D01*
X555335Y716619D01*
X555444Y717169D01*
X555500Y717304D01*
Y717450D01*
X555609Y718000D01*
Y740505D01*
X596552Y781448D01*
X597335Y782619D01*
X597609Y784000D01*
Y808505D01*
X626552Y837448D01*
X627335Y838619D01*
X627609Y840000D01*
Y874000D01*
X627335Y875381D01*
X626552Y876552D01*
X610552Y892552D01*
X609381Y893335D01*
X608000Y893609D01*
X581071D01*
X580209Y894471D01*
Y944096D01*
X581911Y945078D01*
X583522Y946689D01*
X584660Y948661D01*
X585250Y950861D01*
Y953139D01*
X584660Y955339D01*
X583522Y957311D01*
X581911Y958922D01*
X579939Y960061D01*
X577739Y960650D01*
D02*
G37*
G36*
X120987Y724400D02*
X119013D01*
X117105Y723889D01*
X115395Y722902D01*
X113998Y721505D01*
X113011Y719795D01*
X112500Y717887D01*
Y715913D01*
X113011Y714005D01*
X113998Y712295D01*
X115395Y710899D01*
X117105Y709911D01*
X119013Y709400D01*
X120987D01*
X122895Y709911D01*
X124605Y710899D01*
X126002Y712295D01*
X126989Y714005D01*
X127500Y715913D01*
Y717887D01*
X126989Y719795D01*
X126002Y721505D01*
X124605Y722902D01*
X122895Y723889D01*
X120987Y724400D01*
D02*
G37*
G36*
X73070Y715919D02*
Y708170D01*
X80819D01*
X80224Y710389D01*
X79034Y712451D01*
X77351Y714134D01*
X75289Y715324D01*
X73070Y715919D01*
D02*
G37*
G36*
X70530Y715919D02*
X68311Y715324D01*
X66249Y714134D01*
X64566Y712451D01*
X63376Y710389D01*
X62781Y708170D01*
X70530D01*
Y715919D01*
D02*
G37*
G36*
X576696Y705500D02*
X575304D01*
X574017Y704967D01*
X574012Y704962D01*
X548000D01*
X546866Y704736D01*
X545906Y704094D01*
X462773Y620962D01*
X419988D01*
X419983Y620967D01*
X418696Y621500D01*
X417304D01*
X416017Y620967D01*
X415033Y619983D01*
X414500Y618696D01*
Y617304D01*
X415033Y616017D01*
X416017Y615033D01*
X417304Y614500D01*
X418696D01*
X419983Y615033D01*
X419988Y615038D01*
X464000D01*
X465134Y615263D01*
X466094Y615906D01*
X549227Y699038D01*
X574012D01*
X574017Y699033D01*
X575304Y698500D01*
X576696D01*
X577983Y699033D01*
X578967Y700017D01*
X579500Y701304D01*
Y702696D01*
X578967Y703983D01*
X577983Y704967D01*
X576696Y705500D01*
D02*
G37*
G36*
X603139Y986050D02*
X600861D01*
X598661Y985461D01*
X596689Y984322D01*
X595078Y982711D01*
X593940Y980739D01*
X593350Y978539D01*
Y976261D01*
X593940Y974061D01*
X595078Y972089D01*
X596689Y970478D01*
X598661Y969340D01*
X600861Y968750D01*
X603139D01*
X605037Y969259D01*
X612391Y961905D01*
Y922000D01*
X612665Y920619D01*
X613448Y919448D01*
X674391Y858505D01*
Y702000D01*
X674500Y701450D01*
Y701304D01*
X674556Y701169D01*
X674665Y700619D01*
X674977Y700153D01*
X675033Y700017D01*
X675136Y699914D01*
X675448Y699448D01*
X675914Y699136D01*
X676017Y699033D01*
X676153Y698977D01*
X676619Y698665D01*
X677169Y698556D01*
X677304Y698500D01*
X677450D01*
X678000Y698391D01*
X678550Y698500D01*
X678696D01*
X678831Y698556D01*
X679381Y698665D01*
X679847Y698977D01*
X679983Y699033D01*
X680086Y699136D01*
X680552Y699448D01*
X680863Y699914D01*
X680967Y700017D01*
X681023Y700153D01*
X681335Y700619D01*
X681444Y701169D01*
X681500Y701304D01*
Y701450D01*
X681609Y702000D01*
Y860000D01*
X681335Y861381D01*
X680552Y862552D01*
X619609Y923495D01*
Y946372D01*
X620609Y946558D01*
X622089Y945078D01*
X623791Y944096D01*
Y924600D01*
X624065Y923219D01*
X624848Y922048D01*
X686391Y860505D01*
Y833695D01*
Y702000D01*
X686500Y701450D01*
Y701304D01*
X686556Y701169D01*
X686665Y700619D01*
X686977Y700153D01*
X687033Y700017D01*
X687136Y699914D01*
X687448Y699448D01*
X687914Y699136D01*
X688017Y699033D01*
X688153Y698977D01*
X688619Y698665D01*
X689168Y698556D01*
X689304Y698500D01*
X689450D01*
X690000Y698391D01*
X690550Y698500D01*
X690696D01*
X690832Y698556D01*
X691381Y698665D01*
X691847Y698977D01*
X691983Y699033D01*
X692086Y699136D01*
X692552Y699448D01*
X692863Y699914D01*
X692967Y700017D01*
X693023Y700153D01*
X693335Y700619D01*
X693444Y701169D01*
X693500Y701304D01*
Y701450D01*
X693609Y702000D01*
Y833695D01*
Y862000D01*
X693335Y863381D01*
X692552Y864552D01*
X631009Y926095D01*
Y944096D01*
X632711Y945078D01*
X634322Y946689D01*
X635461Y948661D01*
X636050Y950861D01*
Y953139D01*
X635461Y955339D01*
X634322Y957311D01*
X632711Y958922D01*
X630739Y960061D01*
X628539Y960650D01*
X626261D01*
X624061Y960061D01*
X622089Y958922D01*
X620609Y957442D01*
X619609Y957628D01*
Y963400D01*
X619335Y964781D01*
X618552Y965952D01*
X610141Y974363D01*
X610650Y976261D01*
Y978539D01*
X610061Y980739D01*
X608922Y982711D01*
X607311Y984322D01*
X605339Y985461D01*
X603139Y986050D01*
D02*
G37*
G36*
X55270Y705719D02*
Y697970D01*
X63019D01*
X62424Y700189D01*
X61234Y702251D01*
X59551Y703934D01*
X57489Y705124D01*
X55270Y705719D01*
D02*
G37*
G36*
X80819Y705630D02*
X73070D01*
Y697881D01*
X75289Y698476D01*
X77351Y699666D01*
X79034Y701349D01*
X80224Y703411D01*
X80819Y705630D01*
D02*
G37*
G36*
X70530D02*
X62781D01*
X63376Y703411D01*
X64566Y701349D01*
X66249Y699666D01*
X68311Y698476D01*
X70530Y697881D01*
Y705630D01*
D02*
G37*
G36*
X63019Y695430D02*
X55270D01*
Y687681D01*
X57489Y688276D01*
X59551Y689466D01*
X61234Y691149D01*
X62424Y693211D01*
X63019Y695430D01*
D02*
G37*
G36*
X730500Y681269D02*
X717500D01*
X716134Y680997D01*
X714977Y680223D01*
X714203Y679066D01*
X713931Y677700D01*
Y672700D01*
X714203Y671334D01*
X714977Y670177D01*
X716134Y669403D01*
X717500Y669131D01*
X730500D01*
X731866Y669403D01*
X733023Y670177D01*
X733797Y671334D01*
X734069Y672700D01*
Y677700D01*
X733797Y679066D01*
X733023Y680223D01*
X731866Y680997D01*
X730500Y681269D01*
D02*
G37*
G36*
X687700Y681318D02*
X676700D01*
X674359Y680852D01*
X672374Y679526D01*
X671048Y677541D01*
X670583Y675200D01*
X671048Y672859D01*
X672374Y670874D01*
X674359Y669548D01*
X676700Y669082D01*
X687700D01*
X690041Y669548D01*
X692026Y670874D01*
X693352Y672859D01*
X693818Y675200D01*
X693352Y677541D01*
X692026Y679526D01*
X690041Y680852D01*
X687700Y681318D01*
D02*
G37*
G36*
X688045Y665150D02*
X686355D01*
X684793Y664503D01*
X683597Y663307D01*
X682950Y661745D01*
Y660055D01*
X683597Y658493D01*
X684793Y657297D01*
X686355Y656650D01*
X688045D01*
X689607Y657297D01*
X690803Y658493D01*
X691450Y660055D01*
Y661745D01*
X690803Y663307D01*
X689607Y664503D01*
X688045Y665150D01*
D02*
G37*
G36*
X72787Y694000D02*
X70813D01*
X68905Y693489D01*
X67195Y692502D01*
X65799Y691105D01*
X64811Y689395D01*
X64300Y687487D01*
Y685513D01*
X64811Y683605D01*
X65799Y681895D01*
X67195Y680499D01*
X68905Y679511D01*
X70813Y679000D01*
X72787D01*
X74695Y679511D01*
X76405Y680499D01*
X77801Y681895D01*
X78750Y683538D01*
X182273D01*
X200154Y665657D01*
Y617988D01*
X200149Y617983D01*
X199616Y616696D01*
Y615304D01*
X200149Y614017D01*
X201133Y613033D01*
X202420Y612500D01*
X203812D01*
X205098Y613033D01*
X206083Y614017D01*
X206616Y615304D01*
Y616696D01*
X206083Y617983D01*
X206078Y617988D01*
Y666884D01*
X205852Y668018D01*
X205210Y668979D01*
X185594Y688594D01*
X184634Y689237D01*
X183500Y689462D01*
X78750D01*
X77801Y691105D01*
X76405Y692502D01*
X74695Y693489D01*
X72787Y694000D01*
D02*
G37*
G36*
X688045Y607350D02*
X686355D01*
X684793Y606703D01*
X683597Y605508D01*
X682950Y603945D01*
Y602255D01*
X683597Y600693D01*
X684793Y599497D01*
X686355Y598850D01*
X688045D01*
X689607Y599497D01*
X690803Y600693D01*
X691450Y602255D01*
Y603945D01*
X690803Y605508D01*
X689607Y606703D01*
X688045Y607350D01*
D02*
G37*
G36*
X120987Y610100D02*
X119013D01*
X117105Y609589D01*
X115395Y608601D01*
X113998Y607205D01*
X113011Y605495D01*
X112500Y603587D01*
Y601613D01*
X113011Y599705D01*
X113998Y597995D01*
X115395Y596599D01*
X117105Y595611D01*
X119013Y595100D01*
X120987D01*
X122895Y595611D01*
X124605Y596599D01*
X126002Y597995D01*
X126989Y599705D01*
X127500Y601613D01*
Y603587D01*
X126989Y605495D01*
X126002Y607205D01*
X124605Y608601D01*
X122895Y609589D01*
X120987Y610100D01*
D02*
G37*
G36*
Y747300D02*
X119013D01*
X117105Y746789D01*
X115395Y745801D01*
X113998Y744405D01*
X113011Y742695D01*
X112500Y740787D01*
Y738813D01*
X113011Y736905D01*
X113998Y735195D01*
X115395Y733799D01*
X117105Y732811D01*
X119013Y732300D01*
X120987D01*
X122895Y732811D01*
X124605Y733799D01*
X126002Y735195D01*
X126950Y736838D01*
X236973D01*
X247038Y726773D01*
Y589988D01*
X247033Y589983D01*
X246500Y588696D01*
Y587304D01*
X247033Y586017D01*
X248017Y585033D01*
X249304Y584500D01*
X250696D01*
X251983Y585033D01*
X252967Y586017D01*
X253500Y587304D01*
Y588696D01*
X252967Y589983D01*
X252962Y589988D01*
Y728000D01*
X252736Y729134D01*
X252094Y730094D01*
X240294Y741894D01*
X239333Y742536D01*
X238200Y742762D01*
X126950D01*
X126002Y744405D01*
X124605Y745801D01*
X122895Y746789D01*
X120987Y747300D01*
D02*
G37*
G36*
X730500Y594869D02*
X717500D01*
X716134Y594597D01*
X714977Y593823D01*
X714203Y592666D01*
X713931Y591300D01*
Y586300D01*
X714203Y584934D01*
X714977Y583777D01*
X716134Y583003D01*
X717500Y582731D01*
X730500D01*
X731866Y583003D01*
X733023Y583777D01*
X733797Y584934D01*
X734069Y586300D01*
Y591300D01*
X733797Y592666D01*
X733023Y593823D01*
X731866Y594597D01*
X730500Y594869D01*
D02*
G37*
G36*
X687700Y594918D02*
X676700D01*
X674359Y594452D01*
X672374Y593126D01*
X671048Y591141D01*
X670583Y588800D01*
X671048Y586459D01*
X672374Y584474D01*
X674359Y583148D01*
X676700Y582682D01*
X687700D01*
X690041Y583148D01*
X692026Y584474D01*
X693352Y586459D01*
X693818Y588800D01*
X693352Y591141D01*
X692026Y593126D01*
X690041Y594452D01*
X687700Y594918D01*
D02*
G37*
G36*
X394942Y590890D02*
X394870D01*
Y581970D01*
X403790D01*
Y582042D01*
X403096Y584633D01*
X401754Y586957D01*
X399857Y588854D01*
X397533Y590196D01*
X394942Y590890D01*
D02*
G37*
G36*
X392330D02*
X392258D01*
X389667Y590196D01*
X387343Y588854D01*
X385446Y586957D01*
X384104Y584633D01*
X383410Y582042D01*
Y581970D01*
X392330D01*
Y590890D01*
D02*
G37*
G36*
X663064Y635609D02*
X660000D01*
X659450Y635500D01*
X659304D01*
X659168Y635444D01*
X658619Y635335D01*
X658153Y635023D01*
X658017Y634967D01*
X657914Y634864D01*
X657448Y634552D01*
X657137Y634086D01*
X657033Y633983D01*
X656977Y633847D01*
X656665Y633381D01*
X656556Y632831D01*
X656500Y632696D01*
Y632550D01*
X656391Y632000D01*
X656500Y631450D01*
Y631304D01*
X656556Y631169D01*
X656665Y630619D01*
X656977Y630153D01*
X657033Y630017D01*
X657137Y629914D01*
X657448Y629448D01*
X657914Y629137D01*
X658017Y629033D01*
X658153Y628977D01*
X658619Y628665D01*
X659168Y628556D01*
X659304Y628500D01*
X659450D01*
X660000Y628391D01*
X661569D01*
X662431Y627529D01*
Y608181D01*
X662391Y607980D01*
Y591495D01*
X655448Y584552D01*
X655136Y584086D01*
X655033Y583983D01*
X654977Y583847D01*
X654665Y583381D01*
X654556Y582831D01*
X654500Y582696D01*
Y582550D01*
X654391Y582000D01*
X654500Y581450D01*
Y581304D01*
X654556Y581169D01*
X654665Y580619D01*
X654977Y580153D01*
X655033Y580017D01*
X655136Y579914D01*
X655448Y579448D01*
X655914Y579137D01*
X656017Y579033D01*
X656153Y578977D01*
X656619Y578665D01*
X657169Y578556D01*
X657304Y578500D01*
X657450D01*
X658000Y578391D01*
X658550Y578500D01*
X658696D01*
X658831Y578556D01*
X659381Y578665D01*
X659847Y578977D01*
X659983Y579033D01*
X660086Y579137D01*
X660552Y579448D01*
X668552Y587448D01*
X669335Y588619D01*
X669609Y590000D01*
Y607819D01*
X669649Y608020D01*
Y629024D01*
X669375Y630405D01*
X668592Y631576D01*
X665616Y634552D01*
X664445Y635335D01*
X663064Y635609D01*
D02*
G37*
G36*
X524300Y584309D02*
X491300D01*
X490750Y584200D01*
X490604D01*
X490468Y584144D01*
X489919Y584035D01*
X489453Y583723D01*
X489317Y583667D01*
X489214Y583564D01*
X488748Y583252D01*
X488437Y582786D01*
X488333Y582683D01*
X488277Y582547D01*
X487965Y582081D01*
X487856Y581531D01*
X487800Y581396D01*
Y581250D01*
X487691Y580700D01*
X487800Y580150D01*
Y580004D01*
X487856Y579869D01*
X487965Y579319D01*
X488277Y578853D01*
X488333Y578717D01*
X488437Y578614D01*
X488748Y578148D01*
X489214Y577836D01*
X489317Y577733D01*
X489453Y577677D01*
X489919Y577365D01*
X490468Y577256D01*
X490604Y577200D01*
X490750D01*
X491300Y577091D01*
X522805D01*
X523448Y576448D01*
X523914Y576137D01*
X524017Y576033D01*
X524153Y575977D01*
X524619Y575665D01*
X525168Y575556D01*
X525304Y575500D01*
X525450D01*
X526000Y575391D01*
X526550Y575500D01*
X526696D01*
X526832Y575556D01*
X527381Y575665D01*
X527847Y575977D01*
X527983Y576033D01*
X528086Y576137D01*
X528552Y576448D01*
X528863Y576914D01*
X528967Y577017D01*
X529023Y577153D01*
X529335Y577619D01*
X529444Y578168D01*
X529500Y578304D01*
Y578450D01*
X529609Y579000D01*
X529500Y579550D01*
Y579696D01*
X529444Y579832D01*
X529335Y580381D01*
X529023Y580847D01*
X528967Y580983D01*
X528863Y581086D01*
X528552Y581552D01*
X526852Y583252D01*
X525681Y584035D01*
X524300Y584309D01*
D02*
G37*
G36*
X120987Y589800D02*
X119013D01*
X117105Y589289D01*
X115395Y588302D01*
X113998Y586905D01*
X113011Y585195D01*
X112500Y583287D01*
Y581313D01*
X113011Y579405D01*
X113998Y577695D01*
X115395Y576298D01*
X117105Y575311D01*
X119013Y574800D01*
X120987D01*
X122895Y575311D01*
X124605Y576298D01*
X126002Y577695D01*
X126989Y579405D01*
X127500Y581313D01*
Y583287D01*
X126989Y585195D01*
X126002Y586905D01*
X124605Y588302D01*
X122895Y589289D01*
X120987Y589800D01*
D02*
G37*
G36*
X258696Y720057D02*
X257304D01*
X256017Y719525D01*
X255033Y718540D01*
X254500Y717254D01*
Y715861D01*
X255033Y714575D01*
X255038Y714570D01*
Y564389D01*
X254974Y564348D01*
X254095Y564023D01*
X253500Y564591D01*
Y564696D01*
X252967Y565983D01*
X251983Y566967D01*
X250696Y567500D01*
X249304D01*
X248017Y566967D01*
X247033Y565983D01*
X246500Y564696D01*
Y563304D01*
X247033Y562017D01*
X248017Y561033D01*
X248767Y560722D01*
X249038Y560451D01*
Y441988D01*
X249033Y441983D01*
X248500Y440696D01*
Y439304D01*
X249033Y438017D01*
X250017Y437033D01*
X251304Y436500D01*
X252696D01*
X253983Y437033D01*
X254967Y438017D01*
X255500Y439304D01*
Y440244D01*
X256432Y440861D01*
X257304Y440500D01*
X258696D01*
X259983Y441033D01*
X260967Y442017D01*
X261500Y443304D01*
Y444696D01*
X260967Y445983D01*
X260962Y445988D01*
Y714570D01*
X260967Y714575D01*
X261500Y715861D01*
Y717254D01*
X260967Y718540D01*
X259983Y719525D01*
X258696Y720057D01*
D02*
G37*
G36*
X120987Y566900D02*
X119013D01*
X117105Y566389D01*
X115395Y565401D01*
X113998Y564005D01*
X113011Y562295D01*
X112500Y560387D01*
Y558413D01*
X113011Y556505D01*
X113998Y554795D01*
X115395Y553399D01*
X117105Y552411D01*
X119013Y551900D01*
X120987D01*
X122895Y552411D01*
X124605Y553399D01*
X126002Y554795D01*
X126989Y556505D01*
X127500Y558413D01*
Y560387D01*
X126989Y562295D01*
X126002Y564005D01*
X124605Y565401D01*
X122895Y566389D01*
X120987Y566900D01*
D02*
G37*
G36*
X73070Y558419D02*
Y550670D01*
X80819D01*
X80224Y552889D01*
X79034Y554951D01*
X77351Y556634D01*
X75289Y557824D01*
X73070Y558419D01*
D02*
G37*
G36*
X70530D02*
X68311Y557824D01*
X66249Y556634D01*
X64566Y554951D01*
X63376Y552889D01*
X62781Y550670D01*
X70530D01*
Y558419D01*
D02*
G37*
G36*
X55270Y548219D02*
Y540470D01*
X63019D01*
X62424Y542689D01*
X61234Y544751D01*
X59551Y546434D01*
X57489Y547624D01*
X55270Y548219D01*
D02*
G37*
G36*
X80819Y548130D02*
X73070D01*
Y540381D01*
X75289Y540976D01*
X77351Y542166D01*
X79034Y543849D01*
X80224Y545911D01*
X80819Y548130D01*
D02*
G37*
G36*
X70530D02*
X62781D01*
X63376Y545911D01*
X64566Y543849D01*
X66249Y542166D01*
X68311Y540976D01*
X70530Y540381D01*
Y548130D01*
D02*
G37*
G36*
X608696Y681500D02*
X607304D01*
X606017Y680967D01*
X605033Y679983D01*
X604500Y678696D01*
Y677304D01*
X605033Y676017D01*
X605038Y676012D01*
Y537988D01*
X605033Y537983D01*
X604500Y536696D01*
Y535304D01*
X605033Y534017D01*
X606017Y533033D01*
X607304Y532500D01*
X608696D01*
X609983Y533033D01*
X610967Y534017D01*
X611500Y535304D01*
Y536696D01*
X610967Y537983D01*
X610962Y537988D01*
Y676012D01*
X610967Y676017D01*
X611500Y677304D01*
Y678696D01*
X610967Y679983D01*
X609983Y680967D01*
X608696Y681500D01*
D02*
G37*
G36*
X63019Y537930D02*
X55270D01*
Y530181D01*
X57489Y530776D01*
X59551Y531966D01*
X61234Y533649D01*
X62424Y535711D01*
X63019Y537930D01*
D02*
G37*
G36*
X265000Y923609D02*
X263000D01*
X262450Y923500D01*
X262304D01*
X262169Y923444D01*
X261619Y923335D01*
X261153Y923023D01*
X261017Y922967D01*
X260914Y922863D01*
X260448Y922552D01*
X260137Y922086D01*
X260033Y921983D01*
X259977Y921847D01*
X259665Y921381D01*
X259556Y920832D01*
X259500Y920696D01*
Y920550D01*
X259391Y920000D01*
X259500Y919450D01*
Y919304D01*
X259556Y919168D01*
X259665Y918619D01*
X259977Y918153D01*
X260033Y918017D01*
X260137Y917914D01*
X260448Y917448D01*
X260914Y917136D01*
X261017Y917033D01*
X261153Y916977D01*
X261619Y916665D01*
X262169Y916556D01*
X262304Y916500D01*
X262450D01*
X263000Y916391D01*
X263505D01*
X291391Y888505D01*
Y650000D01*
X291665Y648619D01*
X292448Y647448D01*
X346448Y593448D01*
X347619Y592665D01*
X349000Y592391D01*
X561105D01*
X576191Y577305D01*
Y526800D01*
X576300Y526250D01*
Y526104D01*
X576356Y525968D01*
X576465Y525419D01*
X576777Y524953D01*
X576833Y524817D01*
X576936Y524714D01*
X577248Y524248D01*
X577714Y523936D01*
X577817Y523833D01*
X577953Y523777D01*
X578419Y523465D01*
X578969Y523356D01*
X579104Y523300D01*
X579250D01*
X579800Y523191D01*
X580350Y523300D01*
X580496D01*
X580631Y523356D01*
X581181Y523465D01*
X581647Y523777D01*
X581783Y523833D01*
X581886Y523936D01*
X582352Y524248D01*
X582663Y524714D01*
X582767Y524817D01*
X582823Y524953D01*
X583135Y525419D01*
X583244Y525968D01*
X583300Y526104D01*
Y526250D01*
X583409Y526800D01*
Y578800D01*
X583135Y580181D01*
X582352Y581352D01*
X565152Y598552D01*
X563981Y599335D01*
X562600Y599609D01*
X350495D01*
X298609Y651495D01*
Y890000D01*
X298335Y891381D01*
X297552Y892552D01*
X267552Y922552D01*
X266381Y923335D01*
X265000Y923609D01*
D02*
G37*
G36*
X593696Y738500D02*
X592304D01*
X591017Y737967D01*
X590033Y736983D01*
X589500Y735696D01*
Y734304D01*
X590033Y733017D01*
X591017Y732033D01*
X592304Y731500D01*
X593696D01*
X594983Y732033D01*
X594988Y732038D01*
X631773D01*
X645038Y718773D01*
Y549227D01*
X628906Y533094D01*
X628264Y532133D01*
X628038Y531000D01*
Y523988D01*
X628033Y523983D01*
X627500Y522696D01*
Y521304D01*
X628033Y520017D01*
X629017Y519033D01*
X630304Y518500D01*
X631696D01*
X632983Y519033D01*
X633967Y520017D01*
X634500Y521304D01*
Y522696D01*
X633967Y523983D01*
X633962Y523988D01*
Y529773D01*
X650094Y545906D01*
X650736Y546866D01*
X650962Y548000D01*
Y720000D01*
X650736Y721133D01*
X650094Y722094D01*
X635094Y737094D01*
X634133Y737737D01*
X633000Y737962D01*
X594988D01*
X594983Y737967D01*
X593696Y738500D01*
D02*
G37*
G36*
X585696Y753500D02*
X584304D01*
X583017Y752967D01*
X582033Y751983D01*
X581500Y750696D01*
Y749304D01*
X582033Y748017D01*
X582038Y748012D01*
Y732000D01*
X582263Y730866D01*
X582906Y729906D01*
X588906Y723906D01*
X589866Y723263D01*
X591000Y723038D01*
X627773D01*
X635038Y715773D01*
Y554227D01*
X615906Y535094D01*
X615263Y534133D01*
X615038Y533000D01*
Y523988D01*
X615033Y523983D01*
X614500Y522696D01*
Y521304D01*
X615033Y520017D01*
X616017Y519033D01*
X617304Y518500D01*
X618696D01*
X619983Y519033D01*
X620967Y520017D01*
X621500Y521304D01*
Y522696D01*
X620967Y523983D01*
X620962Y523988D01*
Y531773D01*
X640094Y550906D01*
X640736Y551866D01*
X640962Y553000D01*
Y717000D01*
X640736Y718133D01*
X640094Y719094D01*
X631094Y728094D01*
X630134Y728736D01*
X629000Y728962D01*
X592227D01*
X587962Y733227D01*
Y748012D01*
X587967Y748017D01*
X588500Y749304D01*
Y750696D01*
X587967Y751983D01*
X586983Y752967D01*
X585696Y753500D01*
D02*
G37*
G36*
X394942Y526890D02*
X394870D01*
Y517970D01*
X403790D01*
Y518042D01*
X403096Y520633D01*
X401754Y522957D01*
X399857Y524854D01*
X397533Y526196D01*
X394942Y526890D01*
D02*
G37*
G36*
X392330D02*
X392258D01*
X389667Y526196D01*
X387343Y524854D01*
X385446Y522957D01*
X384104Y520633D01*
X383410Y518042D01*
Y517970D01*
X392330D01*
Y526890D01*
D02*
G37*
G36*
X420139Y525350D02*
X417861D01*
X415661Y524761D01*
X413689Y523622D01*
X412078Y522011D01*
X410939Y520039D01*
X410350Y517839D01*
Y515561D01*
X410939Y513361D01*
X412078Y511389D01*
X413689Y509778D01*
X415661Y508639D01*
X417861Y508050D01*
X420139D01*
X422339Y508639D01*
X424311Y509778D01*
X425922Y511389D01*
X427061Y513361D01*
X427650Y515561D01*
Y517839D01*
X427061Y520039D01*
X425922Y522011D01*
X424311Y523622D01*
X422339Y524761D01*
X420139Y525350D01*
D02*
G37*
G36*
X403790Y515430D02*
X394870D01*
Y506510D01*
X394942D01*
X397533Y507204D01*
X399857Y508546D01*
X401754Y510443D01*
X403096Y512767D01*
X403790Y515359D01*
Y515430D01*
D02*
G37*
G36*
X392330D02*
X383410D01*
Y515359D01*
X384104Y512767D01*
X385446Y510443D01*
X387343Y508546D01*
X389667Y507204D01*
X392258Y506510D01*
X392330D01*
Y515430D01*
D02*
G37*
G36*
X269280Y811257D02*
X228000D01*
X226371Y810933D01*
X224990Y810010D01*
X224067Y808629D01*
X223743Y807000D01*
X224067Y805371D01*
X224990Y803990D01*
X226371Y803067D01*
X228000Y802743D01*
X267517D01*
X268743Y801517D01*
Y630000D01*
X269067Y628371D01*
X269990Y626990D01*
X321990Y574990D01*
X323371Y574067D01*
X325000Y573743D01*
X370237D01*
X378115Y565865D01*
X379496Y564942D01*
X381125Y564618D01*
X391091D01*
X391223Y563618D01*
X390261Y563360D01*
X388289Y562222D01*
X386678Y560611D01*
X385540Y558639D01*
X384950Y556439D01*
Y554161D01*
X385540Y551961D01*
X386678Y549989D01*
X388289Y548378D01*
X390261Y547239D01*
X392461Y546650D01*
X394739D01*
X396939Y547239D01*
X398911Y548378D01*
X400522Y549989D01*
X401660Y551961D01*
X402250Y554161D01*
Y556439D01*
X401660Y558639D01*
X400522Y560611D01*
X398911Y562222D01*
X396939Y563360D01*
X395977Y563618D01*
X396109Y564618D01*
X416491D01*
X416623Y563618D01*
X415661Y563360D01*
X413689Y562222D01*
X412078Y560611D01*
X410939Y558639D01*
X410350Y556439D01*
Y554161D01*
X410939Y551961D01*
X412078Y549989D01*
X413689Y548378D01*
X415661Y547239D01*
X417861Y546650D01*
X420139D01*
X422339Y547239D01*
X424311Y548378D01*
X425922Y549989D01*
X427061Y551961D01*
X427650Y554161D01*
Y556439D01*
X427061Y558639D01*
X425922Y560611D01*
X424311Y562222D01*
X422339Y563360D01*
X421377Y563618D01*
X421509Y564618D01*
X441891D01*
X442023Y563618D01*
X441061Y563360D01*
X439089Y562222D01*
X437478Y560611D01*
X436339Y558639D01*
X435750Y556439D01*
Y554161D01*
X436339Y551961D01*
X437478Y549989D01*
X439089Y548378D01*
X441061Y547239D01*
X443261Y546650D01*
X445539D01*
X447739Y547239D01*
X449711Y548378D01*
X451322Y549989D01*
X452461Y551961D01*
X452481Y552038D01*
X453541D01*
X454038Y551541D01*
Y525379D01*
X453050Y525350D01*
X453038Y525350D01*
X435750D01*
Y508050D01*
X453038D01*
X453050Y508050D01*
X454038Y508021D01*
Y504565D01*
X453092Y504097D01*
X452296Y504893D01*
X451335Y505535D01*
X450201Y505760D01*
X398030D01*
X396897Y505535D01*
X395936Y504893D01*
X393704Y502661D01*
X393062Y501700D01*
X392837Y500567D01*
Y499950D01*
X392461D01*
X390261Y499361D01*
X388289Y498222D01*
X386678Y496611D01*
X385540Y494639D01*
X384950Y492439D01*
Y490161D01*
X385540Y487961D01*
X386678Y485989D01*
X388289Y484378D01*
X390261Y483240D01*
X392461Y482650D01*
X394739D01*
X396939Y483240D01*
X398911Y484378D01*
X400522Y485989D01*
X401660Y487961D01*
X402250Y490161D01*
Y492439D01*
X401660Y494639D01*
X400522Y496611D01*
X398911Y498222D01*
X398760Y498309D01*
Y499340D01*
X399257Y499837D01*
X414486D01*
X414754Y498837D01*
X413689Y498222D01*
X412078Y496611D01*
X410939Y494639D01*
X410350Y492439D01*
Y490161D01*
X410939Y487961D01*
X412078Y485989D01*
X413689Y484378D01*
X415661Y483240D01*
X416038Y483139D01*
Y446227D01*
X390773Y420962D01*
X338000D01*
X336866Y420737D01*
X335906Y420094D01*
X312773Y396962D01*
X200962D01*
Y424190D01*
X207499Y430728D01*
X208141Y431688D01*
X208367Y432822D01*
Y543595D01*
X208141Y544729D01*
X207499Y545689D01*
X198094Y555094D01*
X197134Y555737D01*
X196000Y555962D01*
X185988D01*
X185983Y555967D01*
X184696Y556500D01*
X183304D01*
X182017Y555967D01*
X181033Y554983D01*
X180500Y553696D01*
Y552304D01*
X181033Y551017D01*
X182017Y550033D01*
X183304Y549500D01*
X184696D01*
X185983Y550033D01*
X185988Y550038D01*
X194773D01*
X202443Y542368D01*
Y483160D01*
X201443Y482746D01*
X153094Y531094D01*
X152134Y531736D01*
X151000Y531962D01*
X78750D01*
X77801Y533605D01*
X76405Y535001D01*
X74695Y535989D01*
X72787Y536500D01*
X70813D01*
X68905Y535989D01*
X67195Y535001D01*
X65799Y533605D01*
X64811Y531895D01*
X64300Y529987D01*
Y528013D01*
X64811Y526105D01*
X65799Y524395D01*
X67195Y522999D01*
X68905Y522011D01*
X70813Y521500D01*
X72787D01*
X74695Y522011D01*
X76405Y522999D01*
X77801Y524395D01*
X78750Y526038D01*
X123570D01*
X123838Y525038D01*
X122218Y524103D01*
X119797Y521682D01*
X118086Y518718D01*
X117200Y515411D01*
Y511988D01*
X118086Y508682D01*
X119797Y505718D01*
X122218Y503297D01*
X125182Y501586D01*
X128489Y500700D01*
X131911D01*
X135218Y501586D01*
X138182Y503297D01*
X140603Y505718D01*
X142314Y508682D01*
X143200Y511988D01*
Y515411D01*
X142314Y518718D01*
X140603Y521682D01*
X138182Y524103D01*
X136562Y525038D01*
X136830Y526038D01*
X149773D01*
X197038Y478773D01*
Y463988D01*
X197033Y463983D01*
X196500Y462696D01*
Y461304D01*
X197033Y460017D01*
X198017Y459033D01*
X199304Y458500D01*
X200696D01*
X201443Y458809D01*
X202443Y458187D01*
Y434049D01*
X195906Y427511D01*
X195264Y426550D01*
X195038Y425417D01*
Y396962D01*
X185988D01*
X185983Y396967D01*
X184696Y397500D01*
X183304D01*
X182017Y396967D01*
X181033Y395983D01*
X180500Y394696D01*
Y393304D01*
X181033Y392017D01*
X182017Y391033D01*
X183304Y390500D01*
X184696D01*
X185983Y391033D01*
X185988Y391038D01*
X195038D01*
Y239227D01*
X190773Y234962D01*
X185988D01*
X185983Y234967D01*
X184696Y235500D01*
X183304D01*
X182017Y234967D01*
X181033Y233983D01*
X180500Y232696D01*
Y231304D01*
X181033Y230017D01*
X182017Y229033D01*
X183304Y228500D01*
X184696D01*
X185983Y229033D01*
X185988Y229038D01*
X192000D01*
X193134Y229263D01*
X194094Y229906D01*
X200094Y235906D01*
X200737Y236866D01*
X200962Y238000D01*
Y391038D01*
X314000D01*
X315133Y391264D01*
X316094Y391906D01*
X339227Y415038D01*
X390773D01*
X393906Y411906D01*
X394866Y411264D01*
X396000Y411038D01*
X450012D01*
X450017Y411033D01*
X451304Y410500D01*
X452696D01*
X453983Y411033D01*
X454967Y412017D01*
X455500Y413304D01*
Y414696D01*
X454967Y415983D01*
X453983Y416967D01*
X452696Y417500D01*
X451304D01*
X450017Y416967D01*
X450012Y416962D01*
X397227D01*
X396189Y418000D01*
X421094Y442906D01*
X421736Y443867D01*
X421962Y445000D01*
Y483139D01*
X422339Y483240D01*
X424311Y484378D01*
X425922Y485989D01*
X427061Y487961D01*
X427650Y490161D01*
Y492439D01*
X427061Y494639D01*
X425922Y496611D01*
X424311Y498222D01*
X423246Y498837D01*
X423514Y499837D01*
X439886D01*
X440154Y498837D01*
X439089Y498222D01*
X437478Y496611D01*
X436339Y494639D01*
X435750Y492439D01*
Y490161D01*
X436339Y487961D01*
X437478Y485989D01*
X439089Y484378D01*
X441061Y483240D01*
X441438Y483139D01*
Y448922D01*
X441664Y447789D01*
X442306Y446828D01*
X443500Y445633D01*
Y445304D01*
X444033Y444017D01*
X445017Y443033D01*
X446304Y442500D01*
X447696D01*
X448983Y443033D01*
X449967Y444017D01*
X450500Y445304D01*
Y446696D01*
X449967Y447983D01*
X448983Y448967D01*
X448233Y449277D01*
X447362Y450149D01*
Y483139D01*
X447739Y483240D01*
X449711Y484378D01*
X451322Y485989D01*
X452461Y487961D01*
X453050Y490161D01*
Y492439D01*
X452461Y494639D01*
X452054Y495343D01*
X452854Y495957D01*
X477038Y471773D01*
Y325000D01*
X477263Y323867D01*
X477906Y322906D01*
X484500Y316311D01*
Y316304D01*
X485033Y315017D01*
X486017Y314033D01*
X487304Y313500D01*
X488696D01*
X489983Y314033D01*
X490967Y315017D01*
X491500Y316304D01*
Y317696D01*
X490967Y318983D01*
X489983Y319967D01*
X488696Y320500D01*
X488689D01*
X482962Y326227D01*
Y473000D01*
X482737Y474133D01*
X482094Y475094D01*
X457689Y499500D01*
X459094Y500906D01*
X459737Y501866D01*
X459962Y503000D01*
Y533802D01*
X460962Y533900D01*
X461067Y533371D01*
X461113Y533303D01*
X461264Y532545D01*
X461906Y531584D01*
X462867Y530942D01*
X464000Y530716D01*
X464568Y530829D01*
X465000Y530743D01*
X565000D01*
X566629Y531067D01*
X568010Y531990D01*
X569010Y532990D01*
X569933Y534371D01*
X570257Y536000D01*
X569933Y537629D01*
X569010Y539010D01*
X567629Y539933D01*
X566000Y540257D01*
X564371Y539933D01*
X563359Y539257D01*
X465000D01*
X463371Y538933D01*
X461990Y538010D01*
X461067Y536629D01*
X460962Y536100D01*
X459962Y536198D01*
Y552768D01*
X459737Y553902D01*
X459094Y554863D01*
X457214Y556743D01*
X457628Y557743D01*
X537000D01*
X538629Y558067D01*
X540010Y558990D01*
X540933Y560371D01*
X541257Y562000D01*
X540933Y563629D01*
X540010Y565010D01*
X538629Y565933D01*
X537000Y566257D01*
X456186D01*
X451393Y571050D01*
X451807Y572050D01*
X453050D01*
Y589350D01*
X435750D01*
Y573132D01*
X425079D01*
X424665Y574132D01*
X425922Y575389D01*
X427061Y577361D01*
X427650Y579561D01*
Y581839D01*
X427061Y584039D01*
X425922Y586011D01*
X424311Y587622D01*
X422339Y588760D01*
X420139Y589350D01*
X417861D01*
X415661Y588760D01*
X413689Y587622D01*
X412078Y586011D01*
X410939Y584039D01*
X410350Y581839D01*
Y579561D01*
X410939Y577361D01*
X412078Y575389D01*
X413335Y574132D01*
X412921Y573132D01*
X401749D01*
X401367Y574056D01*
X401754Y574443D01*
X403096Y576767D01*
X403790Y579358D01*
Y579430D01*
X393600D01*
X383410D01*
Y579358D01*
X384104Y576767D01*
X385446Y574443D01*
X385834Y574056D01*
X385451Y573132D01*
X382888D01*
X375010Y581010D01*
X373629Y581933D01*
X372000Y582257D01*
X326763D01*
X277257Y631763D01*
Y803280D01*
X276933Y804909D01*
X276010Y806290D01*
X272290Y810010D01*
X270909Y810933D01*
X269280Y811257D01*
D02*
G37*
G36*
X640768Y505962D02*
X538000D01*
X536866Y505737D01*
X535906Y505094D01*
X526773Y495962D01*
X496988D01*
X496983Y495967D01*
X495696Y496500D01*
X494304D01*
X493017Y495967D01*
X492033Y494983D01*
X491500Y493696D01*
Y492304D01*
X492033Y491017D01*
X493017Y490033D01*
X494304Y489500D01*
X495696D01*
X496983Y490033D01*
X496988Y490038D01*
X528000D01*
X529133Y490263D01*
X530094Y490906D01*
X539227Y500038D01*
X639541D01*
X640038Y499541D01*
Y494988D01*
X640033Y494983D01*
X639500Y493696D01*
Y492304D01*
X640033Y491017D01*
X641017Y490033D01*
X642304Y489500D01*
X643696D01*
X644983Y490033D01*
X645967Y491017D01*
X646500Y492304D01*
Y493696D01*
X645967Y494983D01*
X645962Y494988D01*
Y500768D01*
X645736Y501902D01*
X645094Y502863D01*
X642862Y505094D01*
X641902Y505737D01*
X641714Y505774D01*
X640768Y505962D01*
D02*
G37*
G36*
X541696Y487500D02*
X540304D01*
X539017Y486967D01*
X539012Y486962D01*
X524000D01*
X522867Y486736D01*
X521906Y486094D01*
X504906Y469094D01*
X504263Y468134D01*
X504038Y467000D01*
Y264988D01*
X504033Y264983D01*
X503500Y263696D01*
Y262304D01*
X504033Y261017D01*
X505017Y260033D01*
X506304Y259500D01*
X507696D01*
X508983Y260033D01*
X509967Y261017D01*
X510500Y262304D01*
Y263696D01*
X509967Y264983D01*
X509962Y264988D01*
Y465773D01*
X525227Y481038D01*
X526990D01*
X527189Y480038D01*
X527017Y479967D01*
X526033Y478983D01*
X525500Y477696D01*
Y477689D01*
X517906Y470094D01*
X517263Y469133D01*
X517038Y468000D01*
Y264988D01*
X517033Y264983D01*
X516500Y263696D01*
Y262304D01*
X517033Y261017D01*
X518017Y260033D01*
X519304Y259500D01*
X520696D01*
X521983Y260033D01*
X522967Y261017D01*
X523500Y262304D01*
Y263696D01*
X522967Y264983D01*
X522962Y264988D01*
Y466773D01*
X529689Y473500D01*
X529696D01*
X530983Y474033D01*
X531967Y475017D01*
X532500Y476304D01*
Y477696D01*
X531967Y478983D01*
X530983Y479967D01*
X530811Y480038D01*
X531010Y481038D01*
X539012D01*
X539017Y481033D01*
X540304Y480500D01*
X541696D01*
X542983Y481033D01*
X543967Y482017D01*
X544500Y483304D01*
Y484696D01*
X543967Y485983D01*
X542983Y486967D01*
X541696Y487500D01*
D02*
G37*
G36*
X408696Y469500D02*
X407304D01*
X406017Y468967D01*
X406012Y468962D01*
X377988D01*
X377983Y468967D01*
X376696Y469500D01*
X375304D01*
X374017Y468967D01*
X373033Y467983D01*
X372500Y466696D01*
Y465304D01*
X373033Y464017D01*
X374017Y463033D01*
X375304Y462500D01*
X376696D01*
X377983Y463033D01*
X377988Y463038D01*
X406012D01*
X406017Y463033D01*
X407304Y462500D01*
X408696D01*
X409983Y463033D01*
X410967Y464017D01*
X411500Y465304D01*
Y466696D01*
X410967Y467983D01*
X409983Y468967D01*
X408696Y469500D01*
D02*
G37*
G36*
X364000Y570609D02*
X363450Y570500D01*
X363304D01*
X363168Y570444D01*
X362619Y570335D01*
X362153Y570023D01*
X362017Y569967D01*
X361914Y569864D01*
X361448Y569552D01*
X361137Y569086D01*
X361033Y568983D01*
X360977Y568847D01*
X360665Y568381D01*
X360556Y567831D01*
X360500Y567696D01*
Y567550D01*
X360391Y567000D01*
Y444000D01*
X360500Y443450D01*
Y443304D01*
X360556Y443168D01*
X360665Y442619D01*
X360977Y442153D01*
X361033Y442017D01*
X361137Y441914D01*
X361448Y441448D01*
X361914Y441137D01*
X362017Y441033D01*
X362153Y440977D01*
X362619Y440665D01*
X363168Y440556D01*
X363304Y440500D01*
X363450D01*
X364000Y440391D01*
X364550Y440500D01*
X364696D01*
X364832Y440556D01*
X365381Y440665D01*
X365847Y440977D01*
X365983Y441033D01*
X366086Y441137D01*
X366552Y441448D01*
X366864Y441914D01*
X366967Y442017D01*
X367023Y442153D01*
X367335Y442619D01*
X367444Y443168D01*
X367500Y443304D01*
Y443450D01*
X367609Y444000D01*
Y567000D01*
X367500Y567550D01*
Y567696D01*
X367444Y567831D01*
X367335Y568381D01*
X367023Y568847D01*
X366967Y568983D01*
X366864Y569086D01*
X366552Y569552D01*
X366086Y569864D01*
X365983Y569967D01*
X365847Y570023D01*
X365381Y570335D01*
X364832Y570444D01*
X364696Y570500D01*
X364550D01*
X364000Y570609D01*
D02*
G37*
G36*
X120987Y452600D02*
X119013D01*
X117105Y452089D01*
X115395Y451101D01*
X113998Y449705D01*
X113011Y447995D01*
X112500Y446087D01*
Y444113D01*
X113011Y442205D01*
X113998Y440495D01*
X115395Y439099D01*
X117105Y438111D01*
X119013Y437600D01*
X120987D01*
X122895Y438111D01*
X124605Y439099D01*
X126002Y440495D01*
X126989Y442205D01*
X127500Y444113D01*
Y446087D01*
X126989Y447995D01*
X126002Y449705D01*
X124605Y451101D01*
X122895Y452089D01*
X120987Y452600D01*
D02*
G37*
G36*
X354000Y556609D02*
X353450Y556500D01*
X353304D01*
X353168Y556444D01*
X352619Y556335D01*
X352153Y556023D01*
X352017Y555967D01*
X351914Y555864D01*
X351448Y555552D01*
X351137Y555086D01*
X351033Y554983D01*
X350977Y554847D01*
X350665Y554381D01*
X350556Y553831D01*
X350500Y553696D01*
Y553550D01*
X350391Y553000D01*
Y441000D01*
X350500Y440450D01*
Y440304D01*
X350556Y440168D01*
X350665Y439619D01*
X350977Y439153D01*
X351033Y439017D01*
X351137Y438914D01*
X351448Y438448D01*
X351914Y438136D01*
X352017Y438033D01*
X352153Y437977D01*
X352619Y437665D01*
X353168Y437556D01*
X353304Y437500D01*
X353450D01*
X354000Y437391D01*
X354550Y437500D01*
X354696D01*
X354832Y437556D01*
X355381Y437665D01*
X355847Y437977D01*
X355983Y438033D01*
X356086Y438136D01*
X356552Y438448D01*
X356864Y438914D01*
X356967Y439017D01*
X357023Y439153D01*
X357335Y439619D01*
X357444Y440168D01*
X357500Y440304D01*
Y440450D01*
X357609Y441000D01*
Y553000D01*
X357500Y553550D01*
Y553696D01*
X357444Y553831D01*
X357335Y554381D01*
X357023Y554847D01*
X356967Y554983D01*
X356864Y555086D01*
X356552Y555552D01*
X356086Y555864D01*
X355983Y555967D01*
X355847Y556023D01*
X355381Y556335D01*
X354832Y556444D01*
X354696Y556500D01*
X354550D01*
X354000Y556609D01*
D02*
G37*
G36*
X120987Y432300D02*
X119013D01*
X117105Y431789D01*
X115395Y430802D01*
X113998Y429405D01*
X113011Y427695D01*
X112500Y425787D01*
Y423813D01*
X113011Y421905D01*
X113998Y420195D01*
X115395Y418798D01*
X117105Y417811D01*
X119013Y417300D01*
X120987D01*
X122895Y417811D01*
X124605Y418798D01*
X126002Y420195D01*
X126989Y421905D01*
X127500Y423813D01*
Y425787D01*
X126989Y427695D01*
X126002Y429405D01*
X124605Y430802D01*
X122895Y431789D01*
X120987Y432300D01*
D02*
G37*
G36*
X270696Y602500D02*
X269304D01*
X268017Y601967D01*
X267033Y600983D01*
X266500Y599696D01*
Y598304D01*
X267033Y597017D01*
X268017Y596033D01*
X269304Y595500D01*
X270696D01*
X271446Y595810D01*
X275541D01*
X276038Y595314D01*
Y415239D01*
X273761Y412962D01*
X267988D01*
X267983Y412967D01*
X266696Y413500D01*
X265304D01*
X264017Y412967D01*
X264012Y412962D01*
X246988D01*
X246983Y412967D01*
X245696Y413500D01*
X244304D01*
X243017Y412967D01*
X242033Y411983D01*
X241500Y410696D01*
Y409304D01*
X242033Y408017D01*
X243017Y407033D01*
X244304Y406500D01*
X245696D01*
X246983Y407033D01*
X246988Y407038D01*
X264012D01*
X264017Y407033D01*
X265304Y406500D01*
X266696D01*
X267983Y407033D01*
X267988Y407038D01*
X274988D01*
X276121Y407263D01*
X277082Y407906D01*
X281094Y411918D01*
X281737Y412879D01*
X281962Y414012D01*
Y596540D01*
X281737Y597674D01*
X281094Y598635D01*
X278862Y600867D01*
X277902Y601509D01*
X276768Y601734D01*
X272215D01*
X271983Y601967D01*
X270696Y602500D01*
D02*
G37*
G36*
X120987Y409400D02*
X119013D01*
X117105Y408889D01*
X115395Y407901D01*
X113998Y406505D01*
X113011Y404795D01*
X112500Y402887D01*
Y400913D01*
X113011Y399005D01*
X113998Y397295D01*
X115395Y395899D01*
X117105Y394911D01*
X119013Y394400D01*
X120987D01*
X122895Y394911D01*
X124605Y395899D01*
X126002Y397295D01*
X126989Y399005D01*
X127500Y400913D01*
Y402887D01*
X126989Y404795D01*
X126002Y406505D01*
X124605Y407901D01*
X122895Y408889D01*
X120987Y409400D01*
D02*
G37*
G36*
X73070Y400919D02*
Y393170D01*
X80819D01*
X80224Y395389D01*
X79034Y397451D01*
X77351Y399134D01*
X75289Y400324D01*
X73070Y400919D01*
D02*
G37*
G36*
X70530Y400919D02*
X68311Y400324D01*
X66249Y399134D01*
X64566Y397451D01*
X63376Y395389D01*
X62781Y393170D01*
X70530D01*
Y400919D01*
D02*
G37*
G36*
X55270Y390719D02*
Y382970D01*
X63019D01*
X62424Y385189D01*
X61234Y387251D01*
X59551Y388934D01*
X57489Y390124D01*
X55270Y390719D01*
D02*
G37*
G36*
X52730D02*
X50511Y390124D01*
X48449Y388934D01*
X46766Y387251D01*
X45576Y385189D01*
X44981Y382970D01*
X52730D01*
Y390719D01*
D02*
G37*
G36*
X265696Y383500D02*
X264304D01*
X263017Y382967D01*
X263012Y382962D01*
X241988D01*
X241983Y382967D01*
X240696Y383500D01*
X239304D01*
X238017Y382967D01*
X237033Y381983D01*
X236500Y380696D01*
Y379304D01*
X237033Y378017D01*
X238017Y377033D01*
X239304Y376500D01*
X240696D01*
X241983Y377033D01*
X241988Y377038D01*
X263012D01*
X263017Y377033D01*
X264304Y376500D01*
X265696D01*
X266983Y377033D01*
X267967Y378017D01*
X268500Y379304D01*
Y380696D01*
X267967Y381983D01*
X266983Y382967D01*
X265696Y383500D01*
D02*
G37*
G36*
X70530Y390630D02*
X62781D01*
X63376Y388411D01*
X64566Y386349D01*
X66249Y384666D01*
X68311Y383476D01*
X70530Y382882D01*
Y390630D01*
D02*
G37*
G36*
X80819D02*
X73070D01*
Y382881D01*
X75289Y383476D01*
X77351Y384666D01*
X79034Y386349D01*
X80224Y388411D01*
X80819Y390630D01*
D02*
G37*
G36*
X616696Y379500D02*
X615304D01*
X614017Y378967D01*
X613033Y377983D01*
X612500Y376696D01*
Y375304D01*
X613033Y374017D01*
X613038Y374012D01*
Y355988D01*
X613033Y355983D01*
X612500Y354696D01*
Y353304D01*
X613033Y352017D01*
X614017Y351033D01*
X615304Y350500D01*
X616696D01*
X617983Y351033D01*
X618967Y352017D01*
X619500Y353304D01*
Y354696D01*
X618967Y355983D01*
X618962Y355988D01*
Y374012D01*
X618967Y374017D01*
X619500Y375304D01*
Y376696D01*
X618967Y377983D01*
X617983Y378967D01*
X616696Y379500D01*
D02*
G37*
G36*
X131911Y369200D02*
X128489D01*
X125182Y368314D01*
X122218Y366603D01*
X119797Y364182D01*
X118086Y361218D01*
X117200Y357911D01*
Y354488D01*
X118086Y351182D01*
X119797Y348218D01*
X122218Y345797D01*
X125182Y344086D01*
X128489Y343200D01*
X131911D01*
X135218Y344086D01*
X138182Y345797D01*
X140603Y348218D01*
X142314Y351182D01*
X143200Y354488D01*
Y357911D01*
X142314Y361218D01*
X140603Y364182D01*
X138182Y366603D01*
X135218Y368314D01*
X131911Y369200D01*
D02*
G37*
G36*
X574696Y305500D02*
X573304D01*
X572017Y304967D01*
X572012Y304962D01*
X533988D01*
X533983Y304967D01*
X532696Y305500D01*
X531304D01*
X530017Y304967D01*
X529033Y303983D01*
X528500Y302696D01*
Y301304D01*
X529033Y300017D01*
X530017Y299033D01*
X531304Y298500D01*
X532696D01*
X533983Y299033D01*
X533988Y299038D01*
X572012D01*
X572017Y299033D01*
X573304Y298500D01*
X574696D01*
X575983Y299033D01*
X576967Y300017D01*
X577500Y301304D01*
Y302696D01*
X576967Y303983D01*
X575983Y304967D01*
X574696Y305500D01*
D02*
G37*
G36*
X120987Y295100D02*
X119013D01*
X117105Y294589D01*
X115395Y293601D01*
X113998Y292205D01*
X113011Y290495D01*
X112500Y288587D01*
Y286613D01*
X113011Y284705D01*
X113998Y282995D01*
X115395Y281598D01*
X117105Y280611D01*
X119013Y280100D01*
X120987D01*
X122895Y280611D01*
X124605Y281598D01*
X126002Y282995D01*
X126989Y284705D01*
X127500Y286613D01*
Y288587D01*
X126989Y290495D01*
X126002Y292205D01*
X124605Y293601D01*
X122895Y294589D01*
X120987Y295100D01*
D02*
G37*
G36*
Y274800D02*
X119013D01*
X117105Y274289D01*
X115395Y273302D01*
X113998Y271905D01*
X113011Y270195D01*
X112500Y268287D01*
Y266313D01*
X113011Y264405D01*
X113998Y262695D01*
X115395Y261299D01*
X117105Y260311D01*
X119013Y259800D01*
X120987D01*
X122895Y260311D01*
X124605Y261299D01*
X126002Y262695D01*
X126989Y264405D01*
X127500Y266313D01*
Y268287D01*
X126989Y270195D01*
X126002Y271905D01*
X124605Y273302D01*
X122895Y274289D01*
X120987Y274800D01*
D02*
G37*
G36*
Y251900D02*
X119013D01*
X117105Y251389D01*
X115395Y250401D01*
X113998Y249005D01*
X113011Y247295D01*
X112500Y245387D01*
Y243413D01*
X113011Y241505D01*
X113998Y239795D01*
X115395Y238399D01*
X117105Y237411D01*
X119013Y236900D01*
X120987D01*
X122895Y237411D01*
X124605Y238399D01*
X126002Y239795D01*
X126989Y241505D01*
X127500Y243413D01*
Y245387D01*
X126989Y247295D01*
X126002Y249005D01*
X124605Y250401D01*
X122895Y251389D01*
X120987Y251900D01*
D02*
G37*
G36*
X73070Y243419D02*
Y235670D01*
X80819D01*
X80224Y237889D01*
X79034Y239951D01*
X77351Y241634D01*
X75289Y242824D01*
X73070Y243419D01*
D02*
G37*
G36*
X70530D02*
X68311Y242824D01*
X66249Y241634D01*
X64566Y239951D01*
X63376Y237889D01*
X62781Y235670D01*
X70530D01*
Y243419D01*
D02*
G37*
G36*
X55270Y233219D02*
Y225470D01*
X63019D01*
X62424Y227689D01*
X61234Y229751D01*
X59551Y231434D01*
X57489Y232624D01*
X55270Y233219D01*
D02*
G37*
G36*
X52730Y233219D02*
X50511Y232624D01*
X48449Y231434D01*
X46766Y229751D01*
X45576Y227689D01*
X44981Y225470D01*
X52730D01*
Y233219D01*
D02*
G37*
G36*
X80819Y233130D02*
X73070D01*
Y225381D01*
X75289Y225976D01*
X77351Y227166D01*
X79034Y228849D01*
X80224Y230911D01*
X80819Y233130D01*
D02*
G37*
G36*
X70530D02*
X62781D01*
X63376Y230911D01*
X64566Y228849D01*
X66249Y227166D01*
X68311Y225976D01*
X70530Y225381D01*
Y233130D01*
D02*
G37*
G36*
X63019Y222930D02*
X55270D01*
Y215182D01*
X57489Y215776D01*
X59551Y216966D01*
X61234Y218649D01*
X62424Y220711D01*
X63019Y222930D01*
D02*
G37*
G36*
X52730D02*
X44981D01*
X45576Y220711D01*
X46766Y218649D01*
X48449Y216966D01*
X50511Y215776D01*
X52730Y215181D01*
Y222930D01*
D02*
G37*
G36*
X72787Y221500D02*
X70813D01*
X68905Y220989D01*
X67195Y220002D01*
X65799Y218605D01*
X64811Y216895D01*
X64300Y214987D01*
Y213013D01*
X64811Y211105D01*
X65799Y209395D01*
X67195Y207999D01*
X68905Y207011D01*
X70813Y206500D01*
X72787D01*
X74695Y207011D01*
X76405Y207999D01*
X77801Y209395D01*
X78750Y211038D01*
X94773D01*
X105528Y200283D01*
X104867Y199529D01*
X104837Y199553D01*
X103707Y200420D01*
X101919Y201161D01*
X100000Y201413D01*
X98081Y201161D01*
X97725Y201013D01*
X73110D01*
X72787Y201100D01*
X70813D01*
X70704Y201071D01*
X67295D01*
X60058Y208308D01*
X60002Y208405D01*
X58605Y209802D01*
X56895Y210789D01*
X54987Y211300D01*
X53013D01*
X51105Y210789D01*
X49395Y209802D01*
X47998Y208405D01*
X47011Y206695D01*
X46500Y204787D01*
Y202813D01*
X47011Y200905D01*
X47998Y199195D01*
X49395Y197799D01*
X49877Y197520D01*
X55635Y191762D01*
X55118Y190865D01*
X54987Y190900D01*
X53013D01*
X51105Y190389D01*
X49395Y189401D01*
X47998Y188005D01*
X47011Y186295D01*
X46500Y184387D01*
Y182413D01*
X47011Y180505D01*
X47998Y178795D01*
X49395Y177399D01*
X51105Y176411D01*
X53013Y175900D01*
X54987D01*
X56820Y176391D01*
X59038Y174173D01*
Y171247D01*
X58038Y170427D01*
X57250Y170583D01*
X50750D01*
X49092Y170253D01*
X47686Y169314D01*
X46747Y167908D01*
X46417Y166250D01*
Y159750D01*
X46747Y158092D01*
X47686Y156686D01*
X49092Y155747D01*
X50750Y155417D01*
X57250D01*
X58908Y155747D01*
X60314Y156686D01*
X61253Y158092D01*
X61583Y159750D01*
Y164621D01*
X62507Y165003D01*
X76605Y150906D01*
X77566Y150264D01*
X78699Y150038D01*
X113050D01*
X113998Y148395D01*
X115395Y146999D01*
X117105Y146011D01*
X119013Y145500D01*
X120987D01*
X122895Y146011D01*
X124605Y146999D01*
X126002Y148395D01*
X126989Y150105D01*
X127500Y152013D01*
Y153987D01*
X126989Y155895D01*
X126002Y157605D01*
X124605Y159002D01*
X122895Y159989D01*
X120987Y160500D01*
X119013D01*
X117105Y159989D01*
X115395Y159002D01*
X113998Y157605D01*
X113050Y155962D01*
X79926D01*
X71188Y164700D01*
X71602Y165700D01*
X72787D01*
X74695Y166211D01*
X76405Y167199D01*
X77801Y168595D01*
X78789Y170305D01*
X79300Y172213D01*
Y174187D01*
X78789Y176095D01*
X77801Y177805D01*
X76405Y179202D01*
X74695Y180189D01*
X72787Y180700D01*
X70813D01*
X68905Y180189D01*
X67195Y179202D01*
X65799Y177805D01*
X65470Y177236D01*
X64293Y177197D01*
X64094Y177494D01*
X61009Y180580D01*
X61500Y182413D01*
Y184387D01*
X61090Y185917D01*
X61834Y186661D01*
X61870Y186677D01*
X62305Y186497D01*
X64224Y186244D01*
X70275D01*
X70813Y186100D01*
X72787D01*
X73110Y186187D01*
X92587D01*
Y181500D01*
Y170000D01*
X92839Y168081D01*
X93580Y166293D01*
X94758Y164758D01*
X96293Y163580D01*
X98081Y162839D01*
X100000Y162587D01*
X101919Y162839D01*
X103707Y163580D01*
X105242Y164758D01*
X106420Y166293D01*
X107161Y168081D01*
X107413Y170000D01*
Y181500D01*
Y194000D01*
X107161Y195919D01*
X106420Y197707D01*
X105553Y198837D01*
X105530Y198867D01*
X106283Y199528D01*
X145038Y160773D01*
Y146232D01*
X145264Y145098D01*
X145906Y144137D01*
X148137Y141906D01*
X149098Y141264D01*
X150232Y141038D01*
X172000D01*
X173134Y141264D01*
X174094Y141906D01*
X177227Y145038D01*
X190012D01*
X190017Y145033D01*
X191304Y144500D01*
X192696D01*
X193983Y145033D01*
X194967Y146017D01*
X195500Y147304D01*
Y148696D01*
X194967Y149983D01*
X193983Y150967D01*
X192696Y151500D01*
X191304D01*
X190017Y150967D01*
X190012Y150962D01*
X176000D01*
X174867Y150737D01*
X173906Y150094D01*
X170773Y146962D01*
X151459D01*
X150962Y147459D01*
Y162000D01*
X150737Y163134D01*
X150094Y164094D01*
X98094Y216094D01*
X97134Y216737D01*
X96000Y216962D01*
X78750D01*
X77801Y218605D01*
X76405Y220002D01*
X74695Y220989D01*
X72787Y221500D01*
D02*
G37*
G36*
X538696Y227500D02*
X537304D01*
X536017Y226967D01*
X535033Y225983D01*
X534500Y224696D01*
Y223304D01*
X535033Y222017D01*
X535253Y221797D01*
Y215785D01*
X535479Y214652D01*
X536121Y213691D01*
X553906Y195906D01*
X554866Y195264D01*
X556000Y195038D01*
X651012D01*
X651017Y195033D01*
X652304Y194500D01*
X653696D01*
X654983Y195033D01*
X655967Y196017D01*
X656500Y197304D01*
Y198696D01*
X655967Y199983D01*
X654983Y200967D01*
X653696Y201500D01*
X652304D01*
X651017Y200967D01*
X651012Y200962D01*
X557227D01*
X541177Y217012D01*
Y222524D01*
X541500Y223304D01*
Y224696D01*
X540967Y225983D01*
X539983Y226967D01*
X538696Y227500D01*
D02*
G37*
G36*
X676000Y231609D02*
X675450Y231500D01*
X675304D01*
X675169Y231444D01*
X674619Y231335D01*
X674153Y231023D01*
X674017Y230967D01*
X673914Y230863D01*
X673448Y230552D01*
X673136Y230086D01*
X673033Y229983D01*
X672977Y229847D01*
X672665Y229381D01*
X672556Y228832D01*
X672500Y228696D01*
Y228550D01*
X672391Y228000D01*
Y198000D01*
X672500Y197450D01*
Y197304D01*
X672556Y197169D01*
X672665Y196619D01*
X672977Y196153D01*
X673033Y196017D01*
X673136Y195914D01*
X673448Y195448D01*
X673914Y195137D01*
X674017Y195033D01*
X674153Y194977D01*
X674619Y194665D01*
X675169Y194556D01*
X675304Y194500D01*
X675450D01*
X676000Y194391D01*
X676550Y194500D01*
X676696D01*
X676832Y194556D01*
X677381Y194665D01*
X677847Y194977D01*
X677983Y195033D01*
X678086Y195137D01*
X678552Y195448D01*
X678864Y195914D01*
X678967Y196017D01*
X679023Y196153D01*
X679335Y196619D01*
X679444Y197169D01*
X679500Y197304D01*
Y197450D01*
X679609Y198000D01*
Y228000D01*
X679500Y228550D01*
Y228696D01*
X679444Y228832D01*
X679335Y229381D01*
X679023Y229847D01*
X678967Y229983D01*
X678864Y230086D01*
X678552Y230552D01*
X678086Y230863D01*
X677983Y230967D01*
X677847Y231023D01*
X677381Y231335D01*
X676832Y231444D01*
X676696Y231500D01*
X676550D01*
X676000Y231609D01*
D02*
G37*
G36*
X709053Y164300D02*
X706947D01*
X704912Y163755D01*
X703088Y162702D01*
X701598Y161212D01*
X700545Y159388D01*
X700000Y157353D01*
Y155247D01*
X700545Y153212D01*
X701598Y151388D01*
X703088Y149898D01*
X704912Y148845D01*
X706947Y148300D01*
X709053D01*
X711088Y148845D01*
X712912Y149898D01*
X714402Y151388D01*
X715455Y153212D01*
X716000Y155247D01*
Y157353D01*
X715455Y159388D01*
X714402Y161212D01*
X712912Y162702D01*
X711088Y163755D01*
X709053Y164300D01*
D02*
G37*
G36*
X609053D02*
X606947D01*
X604912Y163755D01*
X603088Y162702D01*
X601598Y161212D01*
X600545Y159388D01*
X600000Y157353D01*
Y155247D01*
X600545Y153212D01*
X601598Y151388D01*
X603088Y149898D01*
X604912Y148845D01*
X606947Y148300D01*
X609053D01*
X611088Y148845D01*
X612912Y149898D01*
X614402Y151388D01*
X615455Y153212D01*
X616000Y155247D01*
Y157353D01*
X615455Y159388D01*
X614402Y161212D01*
X612912Y162702D01*
X611088Y163755D01*
X609053Y164300D01*
D02*
G37*
G36*
X120987Y137600D02*
X119013D01*
X117105Y137089D01*
X115395Y136102D01*
X113998Y134705D01*
X113011Y132995D01*
X112500Y131087D01*
Y129113D01*
X113011Y127205D01*
X113998Y125495D01*
X115395Y124099D01*
X117105Y123111D01*
X119013Y122600D01*
X120987D01*
X122895Y123111D01*
X124605Y124099D01*
X126002Y125495D01*
X126989Y127205D01*
X127500Y129113D01*
Y131087D01*
X126989Y132995D01*
X126002Y134705D01*
X124605Y136102D01*
X122895Y137089D01*
X120987Y137600D01*
D02*
G37*
G36*
X64612Y130450D02*
X61189D01*
X57882Y129564D01*
X54918Y127853D01*
X52497Y125432D01*
X50786Y122468D01*
X49900Y119162D01*
Y115738D01*
X50786Y112432D01*
X52497Y109468D01*
X54918Y107047D01*
X57882Y105336D01*
X61189Y104450D01*
X64612D01*
X67918Y105336D01*
X70882Y107047D01*
X73303Y109468D01*
X75014Y112432D01*
X75900Y115738D01*
Y119162D01*
X75014Y122468D01*
X73303Y125432D01*
X70882Y127853D01*
X67918Y129564D01*
X64612Y130450D01*
D02*
G37*
%LPD*%
G36*
X329289Y869600D02*
X327511D01*
X324422Y874253D01*
X332378D01*
X329289Y869600D01*
D02*
G37*
G36*
X350642Y671039D02*
X350500Y670696D01*
Y669304D01*
X351033Y668017D01*
X352017Y667033D01*
X353304Y666500D01*
X354696D01*
X355983Y667033D01*
X356325Y667375D01*
X359351D01*
X361685Y665041D01*
Y654635D01*
X361033Y653983D01*
X360500Y652696D01*
Y651304D01*
X361033Y650017D01*
X362017Y649033D01*
X363016Y648619D01*
X363387Y647576D01*
X359311Y643500D01*
X359304D01*
X358017Y642967D01*
X357033Y641983D01*
X356500Y640696D01*
Y639304D01*
X357033Y638017D01*
X358017Y637033D01*
X359304Y636500D01*
X360696D01*
X361983Y637033D01*
X362967Y638017D01*
X363500Y639304D01*
Y639311D01*
X383227Y659038D01*
X395518D01*
X395803Y658345D01*
X395868Y658038D01*
X395263Y657133D01*
X395038Y656000D01*
Y654962D01*
X394000D01*
X392867Y654736D01*
X391906Y654094D01*
X391264Y653133D01*
X391038Y652000D01*
X391091Y651735D01*
X390456Y650962D01*
X390000D01*
X388867Y650736D01*
X387906Y650094D01*
X387263Y649134D01*
X387038Y648000D01*
X387263Y646867D01*
X387906Y645906D01*
X388867Y645264D01*
X390000Y645038D01*
X390456D01*
X391091Y644265D01*
X391038Y644000D01*
X391264Y642867D01*
X391906Y641906D01*
X392867Y641264D01*
X394000Y641038D01*
X395038D01*
Y640000D01*
X395263Y638867D01*
X395906Y637906D01*
X396866Y637263D01*
X398000Y637038D01*
X399133Y637263D01*
X400094Y637906D01*
X400737Y638867D01*
X400962Y640000D01*
Y645038D01*
X406000D01*
X407133Y645264D01*
X408094Y645906D01*
X408736Y646867D01*
X408962Y648000D01*
X408736Y649134D01*
X408094Y650094D01*
X407133Y650736D01*
X406000Y650962D01*
X400962D01*
Y656000D01*
X400737Y657133D01*
X400132Y658038D01*
X400197Y658345D01*
X400482Y659038D01*
X433435D01*
X433849Y658038D01*
X404773Y628962D01*
X367988D01*
X367983Y628967D01*
X366696Y629500D01*
X365304D01*
X364017Y628967D01*
X363033Y627983D01*
X362619Y626984D01*
X361576Y626613D01*
X346962Y641227D01*
Y668773D01*
X349794Y671606D01*
X350642Y671039D01*
D02*
G37*
G36*
X379416Y622038D02*
X379107Y621291D01*
Y619899D01*
X379639Y618612D01*
X380624Y617628D01*
X381910Y617095D01*
X383303D01*
X384589Y617628D01*
X384822Y617861D01*
X387024D01*
X387692Y616861D01*
X387535Y616481D01*
Y615089D01*
X388068Y613802D01*
X389052Y612818D01*
X390339Y612285D01*
X390394D01*
X394717Y607962D01*
X394698Y607722D01*
X394386Y606962D01*
X373459D01*
X366962Y613459D01*
Y620000D01*
X366736Y621133D01*
X366492Y621500D01*
X366553Y621802D01*
X366955Y622607D01*
X367983Y623033D01*
X367988Y623038D01*
X378793D01*
X379416Y622038D01*
D02*
G37*
D14*
X396000Y736000D02*
X402000Y730000D01*
Y696770D02*
Y730000D01*
Y696770D02*
X408000Y690770D01*
X354310Y669690D02*
X360310D01*
X364000Y666000D01*
X354000Y670000D02*
X354310Y669690D01*
X414000Y676000D02*
Y694000D01*
X396000Y684000D02*
X408770Y671230D01*
X416564D02*
X419334Y674000D01*
X384310Y689690D02*
X406310Y667690D01*
X423690D02*
X424000Y668000D01*
X408770Y671230D02*
X416564D01*
X406310Y667690D02*
X423690D01*
X436000Y742000D02*
X440000Y738000D01*
Y734000D02*
Y738000D01*
X384019Y726000D02*
Y738019D01*
X388000Y742000D01*
X436000D01*
X364000Y652000D02*
Y666000D01*
X378000Y690000D02*
X378310Y689690D01*
X384310D01*
X384019Y726000D02*
X384490Y725529D01*
Y721510D02*
Y725529D01*
Y721510D02*
X388000Y718000D01*
X394000D01*
X396000Y716000D01*
Y684000D02*
Y716000D01*
X419334Y674000D02*
X420000D01*
X407981Y700019D02*
X414000Y694000D01*
X407981Y700019D02*
Y726000D01*
D99*
X364000Y444000D02*
Y567000D01*
X354000Y441000D02*
Y553000D01*
X524300Y580700D02*
X526000Y579000D01*
X491300Y580700D02*
X524300D01*
X304000Y884000D02*
X307000Y887000D01*
X304000Y852000D02*
Y884000D01*
X263000Y920000D02*
X265000D01*
X295000Y890000D01*
Y650000D02*
Y890000D01*
Y650000D02*
X349000Y596000D01*
X562600D01*
X579800Y578800D01*
Y526800D02*
Y578800D01*
X676000Y198000D02*
Y228000D01*
X120000Y468000D02*
X121515Y469515D01*
Y476739D01*
X122000Y477223D01*
Y482000D01*
X105600Y498400D02*
X122000Y482000D01*
X54000Y498400D02*
X105600D01*
X627400Y977400D02*
X628800Y976000D01*
X642000D01*
X646000Y972000D01*
Y918000D02*
Y972000D01*
Y918000D02*
X660000Y904000D01*
X692000D01*
X678000Y702000D02*
Y860000D01*
X690000Y702000D02*
Y833695D01*
Y862000D01*
X627400Y924600D02*
X690000Y862000D01*
X627400Y924600D02*
Y952000D01*
X616000Y922000D02*
Y963400D01*
Y922000D02*
X678000Y860000D01*
X602000Y977400D02*
X616000Y963400D01*
X576600Y892976D02*
Y952000D01*
Y892976D02*
X579576Y890000D01*
X608000D01*
X624000Y874000D01*
Y840000D02*
Y874000D01*
X594000Y810000D02*
X624000Y840000D01*
X594000Y784000D02*
Y810000D01*
X552000Y742000D02*
X594000Y784000D01*
X552000Y718000D02*
Y742000D01*
X660000Y632000D02*
X663064D01*
X666000Y590000D02*
Y607980D01*
X666040Y608020D01*
Y629024D01*
X663064Y632000D02*
X666040Y629024D01*
X658000Y582000D02*
X666000Y590000D01*
X494000Y874000D02*
X508000D01*
X490000Y878000D02*
X494000Y874000D01*
X490000Y878000D02*
Y884000D01*
X480000Y894000D02*
X490000Y884000D01*
X444976Y894000D02*
X480000D01*
X442000Y891024D02*
X444976Y894000D01*
X442000Y880700D02*
Y891024D01*
Y880700D02*
X442700Y880000D01*
X470000Y858000D02*
X480000D01*
X460000Y848000D02*
X470000Y858000D01*
X460000Y820976D02*
Y848000D01*
X457024Y818000D02*
X460000Y820976D01*
X428000Y818000D02*
X457024D01*
D100*
X608000Y536000D02*
Y678000D01*
X54449Y361243D02*
X58012Y357679D01*
X54391Y361300D02*
X54449Y361243D01*
X71743Y193657D02*
X71800Y193600D01*
X70042Y195358D02*
X71743Y193657D01*
X77100Y340900D02*
X107500Y310500D01*
X120000D01*
X36000Y301000D02*
X173000D01*
X96000Y214000D02*
X148000Y162000D01*
Y146232D02*
Y162000D01*
X71800Y214000D02*
X96000D01*
X62000Y170205D02*
Y175400D01*
X54000Y183400D02*
Y183400D01*
Y183400D02*
X62000Y175400D01*
Y170205D02*
X62775Y169430D01*
X54000Y340900D02*
X77100D01*
X96000Y432000D02*
Y436000D01*
X532000Y302000D02*
X574000D01*
X78699Y153000D02*
X120000D01*
X63405Y168294D02*
X78699Y153000D01*
X63405Y168294D02*
Y168799D01*
X62775Y169430D02*
X63405Y168799D01*
X62775Y169430D02*
Y169430D01*
X120000Y625500D02*
Y642000D01*
X106100Y655900D02*
X120000Y642000D01*
X54000Y655900D02*
X106100D01*
X398000Y640000D02*
Y656000D01*
X394000Y644000D02*
X398000D01*
X394000Y652000D02*
X398000D01*
Y648000D02*
X406000D01*
X390000D02*
X398000D01*
X372232Y604000D02*
X480000D01*
X364000Y612232D02*
X372232Y604000D01*
X480000D02*
X558000Y682000D01*
X409190Y621190D02*
X586000Y798000D01*
X396868Y610000D02*
X470000D01*
X406000Y626000D02*
X580000Y800000D01*
X388429Y620823D02*
X388796Y621190D01*
X391083Y615785D02*
X396868Y610000D01*
X382834Y620823D02*
X388429D01*
X391035Y615785D02*
X391083D01*
X366000Y626000D02*
X406000D01*
X388796Y621190D02*
X409190D01*
X194000Y855000D02*
Y901000D01*
X258000Y444000D02*
Y716557D01*
X217000Y848000D02*
X222000Y843000D01*
Y822732D02*
Y843000D01*
X201000Y848000D02*
X217000D01*
X194000Y855000D02*
X201000Y848000D01*
X250000Y588000D02*
Y728000D01*
X238200Y739800D02*
X250000Y728000D01*
X120000Y739800D02*
X238200D01*
X376000Y466000D02*
X408000D01*
X444700Y555000D02*
X454768D01*
X457000Y503000D02*
Y552768D01*
X454768Y555000D02*
X457000Y552768D01*
X444400Y555300D02*
X444700Y555000D01*
X453500Y499500D02*
X457000Y503000D01*
X274988Y410000D02*
X279000Y414012D01*
X266322Y410000D02*
X274988D01*
X279000Y414012D02*
Y596540D01*
X245000Y410000D02*
X266000D01*
X276768Y598772D02*
X279000Y596540D01*
X270228Y598772D02*
X276768D01*
X270000Y599000D02*
X270228Y598772D01*
X240000Y380000D02*
X265000D01*
X173000Y301000D02*
X174000Y302000D01*
X32000Y305000D02*
X36000Y301000D01*
X32000Y305000D02*
Y367000D01*
X36500Y371500D01*
X71800D01*
X392000Y418000D02*
X396000Y414000D01*
X452000D01*
X338000Y418000D02*
X392000D01*
X419000Y445000D01*
X314000Y394000D02*
X338000Y418000D01*
X495000Y493000D02*
X528000D01*
X453500Y499500D02*
X480000Y473000D01*
Y325000D02*
X488000Y317000D01*
X480000Y325000D02*
Y473000D01*
X450201Y502799D02*
X453500Y499500D01*
X398030Y502799D02*
X450201D01*
X395798Y500567D02*
X398030Y502799D01*
X395798Y493498D02*
Y500567D01*
X393600Y491300D02*
X395798Y493498D01*
X419000Y445000D02*
Y491300D01*
X447000Y446000D02*
Y446322D01*
X444400Y448922D02*
X447000Y446322D01*
X444400Y448922D02*
Y491300D01*
X643000Y493000D02*
Y500768D01*
X640768Y503000D02*
X643000Y500768D01*
X538000Y503000D02*
X640768D01*
X528000Y493000D02*
X538000Y503000D01*
X184000Y553000D02*
X196000D01*
X205405Y543595D01*
Y432822D02*
Y543595D01*
X198000Y425417D02*
X205405Y432822D01*
X198000Y394000D02*
Y425417D01*
X184000Y232000D02*
X192000D01*
X198000Y238000D01*
Y394000D01*
X314000D01*
X184000D02*
X198000D01*
X465000Y534678D02*
Y535000D01*
X464000Y533678D02*
X465000Y534678D01*
X556000Y198000D02*
X653000D01*
X538215Y215785D02*
X556000Y198000D01*
X538215Y215785D02*
Y223785D01*
X538000Y224000D02*
X538215Y223785D01*
X344000Y640000D02*
Y670000D01*
X360000Y640000D02*
X382000Y662000D01*
X364000Y612232D02*
Y620000D01*
X344000Y640000D02*
X364000Y620000D01*
X470000Y610000D02*
X554000Y694000D01*
X618000Y522000D02*
Y533000D01*
X638000Y553000D01*
Y717000D01*
X629000Y726000D02*
X638000Y717000D01*
X591000Y726000D02*
X629000D01*
X585000Y732000D02*
X591000Y726000D01*
X585000Y732000D02*
Y750000D01*
X631000Y522000D02*
Y531000D01*
X648000Y548000D01*
Y720000D01*
X633000Y735000D02*
X648000Y720000D01*
X593000Y735000D02*
X633000D01*
X558000Y682000D02*
X598000D01*
X602000Y686000D01*
X524000Y484000D02*
X541000D01*
X507000Y467000D02*
X524000Y484000D01*
X507000Y263000D02*
Y467000D01*
X520000Y468000D02*
X529000Y477000D01*
X520000Y263000D02*
Y468000D01*
X697198Y249198D02*
X700000Y252000D01*
X594000Y476000D02*
X598000Y472000D01*
X634000D01*
X568000Y490000D02*
X574000Y484000D01*
X638971D01*
X680695Y442276D01*
Y326247D02*
X706000Y300942D01*
Y251198D02*
Y300942D01*
X680695Y326247D02*
Y442276D01*
X606000Y478000D02*
X636485D01*
X675885Y324254D02*
X700000Y300139D01*
Y252000D02*
Y300139D01*
X636485Y478000D02*
X675885Y438600D01*
Y324254D02*
Y438600D01*
X634000Y472000D02*
X671075Y434925D01*
Y322262D02*
X694000Y299337D01*
Y254008D02*
Y299337D01*
X671075Y322262D02*
Y434925D01*
X670388Y244388D02*
X699190D01*
X706000Y251198D01*
X666000Y240000D02*
X670388Y244388D01*
X666000Y200000D02*
Y240000D01*
X645232Y249198D02*
X697198D01*
X643000Y215000D02*
Y246966D01*
X645232Y249198D01*
X630008Y254008D02*
X694000D01*
X621000Y245000D02*
X630008Y254008D01*
X621000Y215000D02*
Y245000D01*
X250000Y563678D02*
Y564000D01*
Y563678D02*
X252000Y561678D01*
Y440000D02*
Y561678D01*
X52242Y674542D02*
X54000Y676300D01*
X203116Y616000D02*
Y666884D01*
X183500Y686500D02*
X203116Y666884D01*
X71800Y686500D02*
X183500D01*
X200000Y462000D02*
Y480000D01*
X151000Y529000D02*
X200000Y480000D01*
X71800Y529000D02*
X151000D01*
X176000Y148000D02*
X192000D01*
X172000Y144000D02*
X176000Y148000D01*
X150232Y144000D02*
X172000D01*
X148000Y146232D02*
X150232Y144000D01*
X54000Y361300D02*
X54391D01*
X71800Y508600D02*
X72972Y509772D01*
X97772D01*
X98000Y510000D01*
X472958Y937100D02*
X478300D01*
X464058Y928200D02*
X472958Y937100D01*
X432600Y928200D02*
X464058D01*
X382000Y662000D02*
X434000D01*
X344000Y670000D02*
X350000Y676000D01*
X360000D01*
X370000Y666000D01*
X602000Y694000D02*
X610000Y702000D01*
X554000Y694000D02*
X602000D01*
X434000Y662000D02*
X574000Y802000D01*
X382607Y620595D02*
X382834Y620823D01*
X580000Y864000D02*
X600000D01*
X574000Y858000D02*
X580000Y864000D01*
X574000Y802000D02*
Y858000D01*
X580000Y852000D02*
X584000Y856000D01*
X580000Y800000D02*
Y852000D01*
X584000Y856000D02*
X606000D01*
X606322Y855678D01*
X609478D01*
X613800Y860000D01*
X586000Y798000D02*
Y832000D01*
X588000Y834000D01*
Y850000D01*
X610000Y702000D02*
X628000D01*
X548000D02*
X576000D01*
X464000Y618000D02*
X548000Y702000D01*
X418000Y618000D02*
X464000D01*
X434000Y638000D02*
X470000D01*
X616000Y354000D02*
Y376000D01*
D101*
X40000Y662219D02*
X54000Y676219D01*
X96000Y389000D02*
Y432000D01*
Y348000D02*
Y389000D01*
X54449Y361243D02*
X61576D01*
X54057D02*
X54449D01*
X100000Y181500D02*
Y194000D01*
X40000Y672000D02*
Y684000D01*
Y695000D01*
Y662219D02*
Y672000D01*
X100000Y170000D02*
Y181500D01*
X71743Y508657D02*
X71800Y508600D01*
X64224Y508657D02*
X71743D01*
X54081Y518800D02*
X64224Y508657D01*
X54000Y518800D02*
X54081D01*
X99600Y193600D02*
X100000Y194000D01*
X71800Y193600D02*
X99600D01*
X64224Y193657D02*
X71743D01*
X54081Y203800D02*
X64224Y193657D01*
X54000Y203800D02*
X54081D01*
X54000Y361300D02*
X54057Y361243D01*
X61576D02*
X71719Y351100D01*
X71800D01*
X71857Y351043D01*
X92957D01*
X96000Y348000D01*
X92000Y436000D02*
X96000Y432000D01*
X54000Y436000D02*
X92000D01*
X40000Y450000D02*
X54000Y436000D01*
X40000Y450000D02*
Y522447D01*
X54000Y676219D02*
Y676300D01*
X40000Y522447D02*
Y662219D01*
Y522447D02*
X43590Y518857D01*
X53943D01*
X54000Y518800D01*
D102*
X275650Y956000D02*
X276000Y956350D01*
X266000Y956000D02*
X275650D01*
X62900Y751900D02*
Y752450D01*
X51000Y740000D02*
X62900Y751900D01*
X30300Y709000D02*
X46536D01*
X51000Y713464D02*
Y740000D01*
X46536Y709000D02*
X51000Y713464D01*
X266000Y938000D02*
Y956000D01*
Y938000D02*
X287600Y916400D01*
X96000Y488000D02*
X98000Y490000D01*
X96000Y476464D02*
Y488000D01*
X91536Y472000D02*
X96000Y476464D01*
X70000Y472000D02*
X91536D01*
X66690Y475310D02*
X70000Y472000D01*
X56690Y475310D02*
X66690D01*
X54000Y478000D02*
X56690Y475310D01*
X287600Y916400D02*
X378279D01*
X390079Y928200D01*
X391800D01*
D104*
X252000Y807000D02*
X264000D01*
X240000D02*
X252000D01*
X228000D02*
X240000D01*
X264000D02*
X269280D01*
X273000Y803280D01*
Y630000D02*
Y803280D01*
Y630000D02*
X325000Y578000D01*
X372000D01*
X381125Y568875D01*
X447548D01*
X454423Y562000D01*
X537000D01*
X565000Y535000D02*
X566000Y536000D01*
X465000Y535000D02*
X565000D01*
D105*
X328400Y869600D02*
Y880000D01*
Y869600D02*
X332000Y866000D01*
X354000D01*
X368000Y852000D01*
Y674000D02*
Y852000D01*
Y674000D02*
X370389Y671611D01*
X377611D01*
X382000Y676000D01*
X465600Y880000D02*
X466857Y878743D01*
X475257D01*
X486000Y868000D01*
Y790000D02*
Y868000D01*
X442000Y746000D02*
X486000Y790000D01*
X386000Y746000D02*
X442000D01*
X373611Y733611D02*
X386000Y746000D01*
X373611Y676389D02*
Y733611D01*
Y676389D02*
X374000Y676000D01*
D106*
X102000Y858000D02*
D03*
D107*
X42000D02*
D03*
D108*
X72000Y811000D02*
D03*
D109*
X186000Y934000D02*
D03*
X62900Y752450D02*
D03*
Y117450D02*
D03*
X130200Y513700D02*
D03*
Y356200D02*
D03*
D110*
X135200Y934000D02*
D03*
D111*
X724000Y588800D02*
D03*
Y675200D02*
D03*
D112*
X682200Y588800D02*
D03*
Y675200D02*
D03*
D113*
X687200Y660900D02*
D03*
Y603100D02*
D03*
D114*
X351300Y880000D02*
D03*
X442700D02*
D03*
X328400D02*
D03*
X465600D02*
D03*
X381600Y946000D02*
D03*
X402000D02*
D03*
X422400D02*
D03*
X371400Y928200D02*
D03*
X391800D02*
D03*
X412200D02*
D03*
X432600D02*
D03*
D115*
X361200Y946000D02*
D03*
D116*
X315700Y937100D02*
D03*
X478300D02*
D03*
D117*
X333500Y971400D02*
D03*
X460500D02*
D03*
X28600Y734700D02*
D03*
Y135200D02*
D03*
D118*
X120000Y401900D02*
D03*
Y310500D02*
D03*
Y424800D02*
D03*
Y287600D02*
D03*
Y559400D02*
D03*
Y468000D02*
D03*
Y582300D02*
D03*
Y445100D02*
D03*
X71800Y645700D02*
D03*
X54000Y655900D02*
D03*
X71800Y706900D02*
D03*
X54000Y696700D02*
D03*
X71800Y686500D02*
D03*
X54000Y676300D02*
D03*
X71800Y666100D02*
D03*
X71800Y488200D02*
D03*
X54000Y498400D02*
D03*
X71800Y508600D02*
D03*
X54000Y518800D02*
D03*
X71800Y529000D02*
D03*
X54000Y539200D02*
D03*
X71800Y549400D02*
D03*
Y330700D02*
D03*
X54000Y340900D02*
D03*
X71800Y351100D02*
D03*
X54000Y361300D02*
D03*
X71800Y371500D02*
D03*
X54000Y381700D02*
D03*
X71800Y391900D02*
D03*
Y173200D02*
D03*
X54000Y183400D02*
D03*
X71800Y193600D02*
D03*
X54000Y203800D02*
D03*
X71800Y214000D02*
D03*
X54000Y224200D02*
D03*
X71800Y234400D02*
D03*
X120000Y602600D02*
D03*
Y739800D02*
D03*
Y625500D02*
D03*
Y716900D02*
D03*
Y130100D02*
D03*
Y267300D02*
D03*
Y153000D02*
D03*
Y244400D02*
D03*
D119*
X54000Y635500D02*
D03*
Y478000D02*
D03*
Y320500D02*
D03*
Y163000D02*
D03*
D120*
X627400Y977400D02*
D03*
X444400Y516700D02*
D03*
Y580700D02*
D03*
D121*
X627400Y952000D02*
D03*
X602000Y977400D02*
D03*
Y952000D02*
D03*
X576600Y977400D02*
D03*
Y952000D02*
D03*
X444400Y491300D02*
D03*
X419000Y516700D02*
D03*
Y491300D02*
D03*
X393600Y516700D02*
D03*
Y491300D02*
D03*
X444400Y555300D02*
D03*
X419000Y580700D02*
D03*
Y555300D02*
D03*
X393600Y580700D02*
D03*
Y555300D02*
D03*
D122*
X708000Y156300D02*
D03*
X608000D02*
D03*
D123*
X200000Y90000D02*
D03*
X530000D02*
D03*
X710000Y960000D02*
D03*
X40000D02*
D03*
D124*
X249000Y971000D02*
D03*
X240000Y807000D02*
D03*
X252000D02*
D03*
X228000D02*
D03*
X264000D02*
D03*
X507000Y263000D02*
D03*
X51000Y740000D02*
D03*
X98000Y363000D02*
D03*
Y377000D02*
D03*
Y389000D02*
D03*
Y401000D02*
D03*
X100000Y169000D02*
D03*
Y181500D02*
D03*
X40000Y662219D02*
D03*
Y672000D02*
D03*
Y684000D02*
D03*
Y695000D02*
D03*
X30300Y709000D02*
D03*
X532000Y302000D02*
D03*
X285000Y845000D02*
D03*
X275000D02*
D03*
X260000D02*
D03*
X250000D02*
D03*
X240000D02*
D03*
X230000D02*
D03*
X624000Y426000D02*
D03*
X612000D02*
D03*
X599000D02*
D03*
X624000Y439000D02*
D03*
X612000D02*
D03*
X599000D02*
D03*
X644000Y803000D02*
D03*
X336000Y640000D02*
D03*
X353000Y648000D02*
D03*
X336000D02*
D03*
X226000Y368000D02*
D03*
X226350Y203650D02*
D03*
X654000Y221000D02*
D03*
X669000Y315000D02*
D03*
X728000Y702000D02*
D03*
X591000Y700000D02*
D03*
X658000Y662000D02*
D03*
X618000Y632000D02*
D03*
X630000Y612000D02*
D03*
X697000Y600000D02*
D03*
X671000Y553000D02*
D03*
X669000Y493000D02*
D03*
X647000Y531000D02*
D03*
X457000Y706000D02*
D03*
X503000Y824000D02*
D03*
X565000Y859000D02*
D03*
X508000Y902600D02*
D03*
X173000Y847000D02*
D03*
X260000Y831000D02*
D03*
X246000Y916000D02*
D03*
X348000Y728000D02*
D03*
X405000Y736000D02*
D03*
X396000D02*
D03*
X362000Y685000D02*
D03*
X324000Y665000D02*
D03*
X238000Y699000D02*
D03*
Y548000D02*
D03*
X292729Y561271D02*
D03*
X271450Y477789D02*
D03*
X212905Y445327D02*
D03*
X698000Y174000D02*
D03*
X632000D02*
D03*
X545050Y234050D02*
D03*
X562000Y156000D02*
D03*
X536000Y178000D02*
D03*
X401600Y103400D02*
D03*
X108000Y86000D02*
D03*
X89000Y766000D02*
D03*
X215000Y909000D02*
D03*
X149000Y908000D02*
D03*
X382000Y610000D02*
D03*
X391035Y615785D02*
D03*
X258000Y716557D02*
D03*
X222000Y822732D02*
D03*
X250000Y588000D02*
D03*
X364000Y567000D02*
D03*
X376000Y466000D02*
D03*
X354000Y553000D02*
D03*
X537000Y562000D02*
D03*
X270000Y599000D02*
D03*
X265000Y380000D02*
D03*
X266000Y410000D02*
D03*
X240000Y380000D02*
D03*
X245000Y410000D02*
D03*
X174000Y302000D02*
D03*
X96000Y348000D02*
D03*
X364000Y444000D02*
D03*
X354000Y441000D02*
D03*
X452000Y414000D02*
D03*
X526000Y579000D02*
D03*
X491300Y580700D02*
D03*
X495000Y493000D02*
D03*
X488000Y317000D02*
D03*
X408000Y466000D02*
D03*
X447000Y446000D02*
D03*
X643000Y493000D02*
D03*
X608000Y678000D02*
D03*
Y536000D02*
D03*
X184000Y232000D02*
D03*
Y394000D02*
D03*
Y553000D02*
D03*
X465000Y535000D02*
D03*
X566000Y536000D02*
D03*
X538000Y224000D02*
D03*
X653000Y198000D02*
D03*
X194000Y901000D02*
D03*
X307000Y887000D02*
D03*
X304000Y852000D02*
D03*
X263000Y920000D02*
D03*
X366000Y626000D02*
D03*
X360000Y640000D02*
D03*
X579800Y526800D02*
D03*
X631000Y522000D02*
D03*
X618000D02*
D03*
X602000Y686000D02*
D03*
X593000Y735000D02*
D03*
X585000Y750000D02*
D03*
X529000Y477000D02*
D03*
X541000Y484000D02*
D03*
X520000Y263000D02*
D03*
X574000Y302000D02*
D03*
X618000Y420000D02*
D03*
X605000D02*
D03*
X618000Y432000D02*
D03*
X605000D02*
D03*
X618000Y445000D02*
D03*
X605000D02*
D03*
X568000Y490000D02*
D03*
X606000Y478000D02*
D03*
X594000Y476000D02*
D03*
X666000Y200000D02*
D03*
X643000Y215000D02*
D03*
X621000D02*
D03*
X676000Y198000D02*
D03*
Y228000D02*
D03*
X250000Y564000D02*
D03*
X258000Y444000D02*
D03*
X252000Y440000D02*
D03*
X98000Y490000D02*
D03*
X203116Y616000D02*
D03*
X200000Y462000D02*
D03*
X192000Y148000D02*
D03*
X100000Y194000D02*
D03*
X98000Y510000D02*
D03*
X692000Y904000D02*
D03*
X552000Y718000D02*
D03*
X370000Y666000D02*
D03*
X394000Y644000D02*
D03*
X402000D02*
D03*
Y652000D02*
D03*
X394000D02*
D03*
X406000Y648000D02*
D03*
X390000D02*
D03*
X398000Y640000D02*
D03*
Y648000D02*
D03*
Y656000D02*
D03*
X414000Y676000D02*
D03*
X424000Y668000D02*
D03*
X382607Y620595D02*
D03*
X600000Y864000D02*
D03*
X588000Y850000D02*
D03*
X628000Y702000D02*
D03*
X576000D02*
D03*
X678000D02*
D03*
X690000D02*
D03*
X470000Y638000D02*
D03*
X434000D02*
D03*
X440000Y734000D02*
D03*
X418000Y618000D02*
D03*
X613800Y860000D02*
D03*
X730000Y914000D02*
D03*
X693450Y914550D02*
D03*
X616000Y354000D02*
D03*
Y376000D02*
D03*
X660000Y632000D02*
D03*
X658000Y582000D02*
D03*
X644000Y830000D02*
D03*
X643900Y817000D02*
D03*
X657900Y831000D02*
D03*
X636900Y824000D02*
D03*
X650900D02*
D03*
X664900D02*
D03*
Y810000D02*
D03*
X636900D02*
D03*
X650900D02*
D03*
X657900Y803000D02*
D03*
Y817000D02*
D03*
X354000Y670000D02*
D03*
X378000Y690000D02*
D03*
X408000Y690770D02*
D03*
X384019Y726000D02*
D03*
X407981D02*
D03*
X424000Y684000D02*
D03*
X420000Y674000D02*
D03*
X364000Y652000D02*
D03*
X382000Y676000D02*
D03*
X374000D02*
D03*
X508000Y874000D02*
D03*
X480000Y858000D02*
D03*
X428000Y818000D02*
D03*
X276000Y956350D02*
D03*
M02*
