M48
;Layer_Color=9474304
;FILE_FORMAT=4:4
METRIC,LZ
;TYPE=PLATED
T01F00S00C0.3000
T03F00S00C0.8000
T04F00S00C0.8900
T06F00S00C1.0200
T07F00S00C1.5700
T08F00S00C1.6000
;TYPE=NON_PLATED
T09F00S00C0.6500
T10F00S00C1.4000
T11F00S00C3.2000
T12F00S00C3.2500
%
T01
X00108Y00086
X00536Y00178
X00562Y00156
X00632Y00174
X00653Y00198
X00666Y002
X00676Y00198
Y00228
X00654Y00221
X00643Y00215
X00621
X00538Y00224
X0054505Y0023405
X0052Y00263
X00507
X00532Y00302
X00574
X00616Y00354
Y00376
X00618Y0042
X00624Y00426
X00618Y00432
X00612Y00426
X00605Y00432
X00599Y00426
X00605Y0042
Y00445
X00599Y00439
X00612
X00624
X00618Y00445
X00606Y00478
X00594Y00476
X00568Y0049
X00541Y00484
X00529Y00477
X00495Y00493
X00643
X00669
Y00315
X00698Y00174
X00488Y00317
X00452Y00414
X00447Y00446
X00408Y00466
X00376
X00364Y00444
X00354Y00441
X00258Y00444
X00252Y0044
X00245Y0041
X00266
X00265Y0038
X0024
X00226Y00368
X00184Y00394
X00212905Y00445327
X002Y00462
X0027145Y00477789
X00098Y0049
Y00401
Y00389
Y00377
Y00363
X00174Y00302
X00184Y00232
X0022635Y0020365
X00192Y00148
X001Y00169
Y001815
Y00194
X004016Y001034
X00096Y00348
X0004Y00662219
Y00672
Y00684
Y00695
X000303Y00709
X00051Y0074
X00089Y00766
X00173Y00847
X0023Y00845
X0024
X0025
X0026
Y00831
X00264Y00807
X00252
X0024
X00228
X00222Y00822732
X00275Y00845
X00285
X00304Y00852
X00307Y00887
X00428Y00818
X0048Y00858
X0044Y00734
X00405Y00736
X00396
X00384019Y00726
X00407981
X00408Y0069077
X00414Y00676
X0042Y00674
X00424Y00668
Y00684
X00382Y00676
X00374
X0037Y00666
X00364Y00652
X00353Y00648
X0036Y0064
X00366Y00626
X00382607Y00620595
X00382Y0061
X00391035Y00615785
X00418Y00618
X00434Y00638
X0047
X00402Y00644
Y00652
X00406Y00648
X00398
X00394Y00644
Y00652
X0039Y00648
X00398Y0064
Y00656
X00378Y0069
X00362Y00685
X00354Y0067
X00324Y00665
X00336Y00648
Y0064
X00348Y00728
X00258Y00716557
X00238Y00699
X00203116Y00616
X0025Y00588
Y00564
X00238Y00548
X00184Y00553
X00292729Y00561271
X0027Y00599
X00364Y00567
X00354Y00553
X00465Y00535
X004913Y005807
X00457Y00706
X00098Y0051
X00537Y00562
X00526Y00579
X00566Y00536
X005798Y005268
X00608Y00536
X00618Y00522
X00631
X00647Y00531
X00671Y00553
X00658Y00582
X0066Y00632
X00658Y00662
X00678Y00702
X0069
X00728
X00628
X00591Y007
X00576Y00702
X00552Y00718
X00593Y00735
X00585Y0075
X00602Y00686
X00608Y00678
X00618Y00632
X0063Y00612
X00697Y006
X006579Y00803
X00644
X006509Y0081
X006439Y00817
X00644Y0083
X006509Y00824
X006579Y00831
X006649Y00824
Y0081
X006579Y00817
X006369Y0081
Y00824
X006138Y0086
X006Y00864
X00588Y0085
X00565Y00859
X00508Y00874
X00503Y00824
X00508Y009026
X00692Y00904
X0069345Y0091455
X0073Y00914
X00263Y0092
X00246Y00916
X00215Y00909
X00194Y00901
X00149Y00908
X00249Y00971
X00276Y0095635
T03
X0012Y001301
Y00153
Y002444
Y002673
Y002876
Y003105
Y004019
Y004248
Y004451
Y00468
X000718Y004882
X00054Y00478
Y003817
Y003613
Y003409
Y003205
X000718Y003307
Y003511
Y003715
Y003919
Y002344
Y00214
Y001936
Y001732
X00054Y00163
Y001834
Y002038
Y002242
Y004984
Y005188
Y005392
X000718Y00529
Y005086
Y005494
X000718Y006457
Y006661
Y006865
Y007069
X00054Y006967
Y006763
Y006559
Y006355
X0012Y006255
Y006026
Y005823
Y005594
Y007169
Y007398
T04
X003284Y0088
X003513
X004427
X004656
X004326Y009282
X004122
X003918
X003714
X003612Y00946
X003816
X00402
X004224
T06
X003936Y004913
X00419
X004444
Y005167
X00419
X003936
Y005553
X00419
X004444
Y005807
X00419
X003936
X005766Y00952
X00602
X006274
Y009774
X00602
X005766
T07
X003157Y009371
X004783
T08
X001302Y003562
X000629Y0011745
Y0075245
X001302Y005137
X001352Y00934
X00186
T09
X006872Y006031
Y006609
T10
X00608Y001563
X00708
T11
X002Y0009
X0053
X0071Y0096
X0004
T12
X000286Y001352
Y007347
X003335Y009714
X004605
M30
