G04*
G04 #@! TF.GenerationSoftware,Altium Limited,Altium Designer,25.4.2 (15)*
G04*
G04 Layer_Color=16711935*
%FSLAX44Y44*%
%MOMM*%
G71*
G04*
G04 #@! TF.SameCoordinates,CF2555CE-50F3-4C54-A6B1-1294104F7050*
G04*
G04*
G04 #@! TF.FilePolarity,Negative*
G04*
G01*
G75*
%ADD79O,2.0032X6.5032*%
%ADD80O,2.0032X5.6032*%
%ADD81O,5.6032X2.0032*%
%ADD82C,2.6032*%
%ADD83R,2.6032X2.6032*%
G04:AMPARAMS|DCode=84|XSize=2.0032mm|YSize=1.2032mm|CornerRadius=0.3516mm|HoleSize=0mm|Usage=FLASHONLY|Rotation=180.000|XOffset=0mm|YOffset=0mm|HoleType=Round|Shape=RoundedRectangle|*
%AMROUNDEDRECTD84*
21,1,2.0032,0.5000,0,0,180.0*
21,1,1.3000,1.2032,0,0,180.0*
1,1,0.7032,-0.6500,0.2500*
1,1,0.7032,0.6500,0.2500*
1,1,0.7032,0.6500,-0.2500*
1,1,0.7032,-0.6500,-0.2500*
%
%ADD84ROUNDEDRECTD84*%
%ADD85O,2.3032X1.2032*%
%ADD86C,0.8532*%
%ADD87C,1.6012*%
%ADD88R,1.6012X1.6012*%
%ADD89C,2.5582*%
%ADD90C,3.4532*%
%ADD91C,1.5032*%
G04:AMPARAMS|DCode=92|XSize=1.5032mm|YSize=1.5032mm|CornerRadius=0.4266mm|HoleSize=0mm|Usage=FLASHONLY|Rotation=270.000|XOffset=0mm|YOffset=0mm|HoleType=Round|Shape=RoundedRectangle|*
%AMROUNDEDRECTD92*
21,1,1.5032,0.6500,0,0,270.0*
21,1,0.6500,1.5032,0,0,270.0*
1,1,0.8532,-0.3250,-0.3250*
1,1,0.8532,-0.3250,0.3250*
1,1,0.8532,0.3250,0.3250*
1,1,0.8532,0.3250,-0.3250*
%
%ADD92ROUNDEDRECTD92*%
%ADD93R,1.7332X1.7332*%
%ADD94C,1.7332*%
%ADD95C,1.6032*%
%ADD96C,3.4032*%
%ADD97C,0.7032*%
D79*
X102000Y858000D02*
D03*
D80*
X42000D02*
D03*
D81*
X72000Y811000D02*
D03*
D82*
X186000Y934000D02*
D03*
X62900Y752450D02*
D03*
Y117450D02*
D03*
X130200Y513700D02*
D03*
Y356200D02*
D03*
D83*
X135200Y934000D02*
D03*
D84*
X724000Y588800D02*
D03*
Y675200D02*
D03*
D85*
X682200Y588800D02*
D03*
Y675200D02*
D03*
D86*
X687200Y660900D02*
D03*
Y603100D02*
D03*
D87*
X351300Y880000D02*
D03*
X442700D02*
D03*
X328400D02*
D03*
X465600D02*
D03*
X381600Y946000D02*
D03*
X402000D02*
D03*
X422400D02*
D03*
X371400Y928200D02*
D03*
X391800D02*
D03*
X412200D02*
D03*
X432600D02*
D03*
D88*
X361200Y946000D02*
D03*
D89*
X315700Y937100D02*
D03*
X478300D02*
D03*
D90*
X333500Y971400D02*
D03*
X460500D02*
D03*
X28600Y734700D02*
D03*
Y135200D02*
D03*
D91*
X120000Y401900D02*
D03*
Y310500D02*
D03*
Y424800D02*
D03*
Y287600D02*
D03*
Y559400D02*
D03*
Y468000D02*
D03*
Y582300D02*
D03*
Y445100D02*
D03*
X71800Y645700D02*
D03*
X54000Y655900D02*
D03*
X71800Y706900D02*
D03*
X54000Y696700D02*
D03*
X71800Y686500D02*
D03*
X54000Y676300D02*
D03*
X71800Y666100D02*
D03*
X71800Y488200D02*
D03*
X54000Y498400D02*
D03*
X71800Y508600D02*
D03*
X54000Y518800D02*
D03*
X71800Y529000D02*
D03*
X54000Y539200D02*
D03*
X71800Y549400D02*
D03*
Y330700D02*
D03*
X54000Y340900D02*
D03*
X71800Y351100D02*
D03*
X54000Y361300D02*
D03*
X71800Y371500D02*
D03*
X54000Y381700D02*
D03*
X71800Y391900D02*
D03*
Y173200D02*
D03*
X54000Y183400D02*
D03*
X71800Y193600D02*
D03*
X54000Y203800D02*
D03*
X71800Y214000D02*
D03*
X54000Y224200D02*
D03*
X71800Y234400D02*
D03*
X120000Y602600D02*
D03*
Y739800D02*
D03*
Y625500D02*
D03*
Y716900D02*
D03*
Y130100D02*
D03*
Y267300D02*
D03*
Y153000D02*
D03*
Y244400D02*
D03*
D92*
X54000Y635500D02*
D03*
Y478000D02*
D03*
Y320500D02*
D03*
Y163000D02*
D03*
D93*
X627400Y977400D02*
D03*
X444400Y516700D02*
D03*
Y580700D02*
D03*
D94*
X627400Y952000D02*
D03*
X602000Y977400D02*
D03*
Y952000D02*
D03*
X576600Y977400D02*
D03*
Y952000D02*
D03*
X444400Y491300D02*
D03*
X419000Y516700D02*
D03*
Y491300D02*
D03*
X393600Y516700D02*
D03*
Y491300D02*
D03*
X444400Y555300D02*
D03*
X419000Y580700D02*
D03*
Y555300D02*
D03*
X393600Y580700D02*
D03*
Y555300D02*
D03*
D95*
X708000Y156300D02*
D03*
X608000D02*
D03*
D96*
X200000Y90000D02*
D03*
X530000D02*
D03*
X710000Y960000D02*
D03*
X40000D02*
D03*
D97*
X249000Y971000D02*
D03*
X240000Y807000D02*
D03*
X252000D02*
D03*
X228000D02*
D03*
X264000D02*
D03*
X507000Y263000D02*
D03*
X51000Y740000D02*
D03*
X98000Y363000D02*
D03*
Y377000D02*
D03*
Y389000D02*
D03*
Y401000D02*
D03*
X100000Y169000D02*
D03*
Y181500D02*
D03*
X40000Y662219D02*
D03*
Y672000D02*
D03*
Y684000D02*
D03*
Y695000D02*
D03*
X30300Y709000D02*
D03*
X532000Y302000D02*
D03*
X285000Y845000D02*
D03*
X275000D02*
D03*
X260000D02*
D03*
X250000D02*
D03*
X240000D02*
D03*
X230000D02*
D03*
X624000Y426000D02*
D03*
X612000D02*
D03*
X599000D02*
D03*
X624000Y439000D02*
D03*
X612000D02*
D03*
X599000D02*
D03*
X644000Y803000D02*
D03*
X336000Y640000D02*
D03*
X353000Y648000D02*
D03*
X336000D02*
D03*
X226000Y368000D02*
D03*
X226350Y203650D02*
D03*
X654000Y221000D02*
D03*
X669000Y315000D02*
D03*
X728000Y702000D02*
D03*
X591000Y700000D02*
D03*
X658000Y662000D02*
D03*
X618000Y632000D02*
D03*
X630000Y612000D02*
D03*
X697000Y600000D02*
D03*
X671000Y553000D02*
D03*
X669000Y493000D02*
D03*
X647000Y531000D02*
D03*
X457000Y706000D02*
D03*
X503000Y824000D02*
D03*
X565000Y859000D02*
D03*
X508000Y902600D02*
D03*
X173000Y847000D02*
D03*
X260000Y831000D02*
D03*
X246000Y916000D02*
D03*
X348000Y728000D02*
D03*
X405000Y736000D02*
D03*
X396000D02*
D03*
X362000Y685000D02*
D03*
X324000Y665000D02*
D03*
X238000Y699000D02*
D03*
Y548000D02*
D03*
X292729Y561271D02*
D03*
X271450Y477789D02*
D03*
X212905Y445327D02*
D03*
X698000Y174000D02*
D03*
X632000D02*
D03*
X545050Y234050D02*
D03*
X562000Y156000D02*
D03*
X536000Y178000D02*
D03*
X401600Y103400D02*
D03*
X108000Y86000D02*
D03*
X89000Y766000D02*
D03*
X215000Y909000D02*
D03*
X149000Y908000D02*
D03*
X382000Y610000D02*
D03*
X391035Y615785D02*
D03*
X258000Y716557D02*
D03*
X222000Y822732D02*
D03*
X250000Y588000D02*
D03*
X364000Y567000D02*
D03*
X376000Y466000D02*
D03*
X354000Y553000D02*
D03*
X537000Y562000D02*
D03*
X270000Y599000D02*
D03*
X265000Y380000D02*
D03*
X266000Y410000D02*
D03*
X240000Y380000D02*
D03*
X245000Y410000D02*
D03*
X174000Y302000D02*
D03*
X96000Y348000D02*
D03*
X364000Y444000D02*
D03*
X354000Y441000D02*
D03*
X452000Y414000D02*
D03*
X526000Y579000D02*
D03*
X491300Y580700D02*
D03*
X495000Y493000D02*
D03*
X488000Y317000D02*
D03*
X408000Y466000D02*
D03*
X447000Y446000D02*
D03*
X643000Y493000D02*
D03*
X608000Y678000D02*
D03*
Y536000D02*
D03*
X184000Y232000D02*
D03*
Y394000D02*
D03*
Y553000D02*
D03*
X465000Y535000D02*
D03*
X566000Y536000D02*
D03*
X538000Y224000D02*
D03*
X653000Y198000D02*
D03*
X194000Y901000D02*
D03*
X307000Y887000D02*
D03*
X304000Y852000D02*
D03*
X263000Y920000D02*
D03*
X366000Y626000D02*
D03*
X360000Y640000D02*
D03*
X579800Y526800D02*
D03*
X631000Y522000D02*
D03*
X618000D02*
D03*
X602000Y686000D02*
D03*
X593000Y735000D02*
D03*
X585000Y750000D02*
D03*
X529000Y477000D02*
D03*
X541000Y484000D02*
D03*
X520000Y263000D02*
D03*
X574000Y302000D02*
D03*
X618000Y420000D02*
D03*
X605000D02*
D03*
X618000Y432000D02*
D03*
X605000D02*
D03*
X618000Y445000D02*
D03*
X605000D02*
D03*
X568000Y490000D02*
D03*
X606000Y478000D02*
D03*
X594000Y476000D02*
D03*
X666000Y200000D02*
D03*
X643000Y215000D02*
D03*
X621000D02*
D03*
X676000Y198000D02*
D03*
Y228000D02*
D03*
X250000Y564000D02*
D03*
X258000Y444000D02*
D03*
X252000Y440000D02*
D03*
X98000Y490000D02*
D03*
X203116Y616000D02*
D03*
X200000Y462000D02*
D03*
X192000Y148000D02*
D03*
X100000Y194000D02*
D03*
X98000Y510000D02*
D03*
X692000Y904000D02*
D03*
X552000Y718000D02*
D03*
X370000Y666000D02*
D03*
X394000Y644000D02*
D03*
X402000D02*
D03*
Y652000D02*
D03*
X394000D02*
D03*
X406000Y648000D02*
D03*
X390000D02*
D03*
X398000Y640000D02*
D03*
Y648000D02*
D03*
Y656000D02*
D03*
X414000Y676000D02*
D03*
X424000Y668000D02*
D03*
X382607Y620595D02*
D03*
X600000Y864000D02*
D03*
X588000Y850000D02*
D03*
X628000Y702000D02*
D03*
X576000D02*
D03*
X678000D02*
D03*
X690000D02*
D03*
X470000Y638000D02*
D03*
X434000D02*
D03*
X440000Y734000D02*
D03*
X418000Y618000D02*
D03*
X613800Y860000D02*
D03*
X730000Y914000D02*
D03*
X693450Y914550D02*
D03*
X616000Y354000D02*
D03*
Y376000D02*
D03*
X660000Y632000D02*
D03*
X658000Y582000D02*
D03*
X644000Y830000D02*
D03*
X643900Y817000D02*
D03*
X657900Y831000D02*
D03*
X636900Y824000D02*
D03*
X650900D02*
D03*
X664900D02*
D03*
Y810000D02*
D03*
X636900D02*
D03*
X650900D02*
D03*
X657900Y803000D02*
D03*
Y817000D02*
D03*
X354000Y670000D02*
D03*
X378000Y690000D02*
D03*
X408000Y690770D02*
D03*
X384019Y726000D02*
D03*
X407981D02*
D03*
X424000Y684000D02*
D03*
X420000Y674000D02*
D03*
X364000Y652000D02*
D03*
X382000Y676000D02*
D03*
X374000D02*
D03*
X508000Y874000D02*
D03*
X480000Y858000D02*
D03*
X428000Y818000D02*
D03*
X276000Y956350D02*
D03*
M02*
