G04*
G04 #@! TF.GenerationSoftware,Altium Limited,Altium Designer,25.4.2 (15)*
G04*
G04 Layer_Color=8388736*
%FSLAX44Y44*%
%MOMM*%
G71*
G04*
G04 #@! TF.SameCoordinates,CF2555CE-50F3-4C54-A6B1-1294104F7050*
G04*
G04*
G04 #@! TF.FilePolarity,Negative*
G04*
G01*
G75*
%ADD39R,3.7000X1.1000*%
%ADD49R,1.0032X1.0032*%
%ADD50R,1.1032X1.7032*%
%ADD51R,3.3732X7.7632*%
%ADD52R,3.3732X7.7032*%
%ADD53P,3.8229X4X360.0*%
G04:AMPARAMS|DCode=54|XSize=1.0632mm|YSize=0.4632mm|CornerRadius=0.1107mm|HoleSize=0mm|Usage=FLASHONLY|Rotation=315.000|XOffset=0mm|YOffset=0mm|HoleType=Round|Shape=RoundedRectangle|*
%AMROUNDEDRECTD54*
21,1,1.0632,0.2418,0,0,315.0*
21,1,0.8418,0.4632,0,0,315.0*
1,1,0.2214,0.2121,-0.3831*
1,1,0.2214,-0.3831,0.2121*
1,1,0.2214,-0.2121,0.3831*
1,1,0.2214,0.3831,-0.2121*
%
%ADD54ROUNDEDRECTD54*%
G04:AMPARAMS|DCode=55|XSize=1.0632mm|YSize=0.4632mm|CornerRadius=0.1107mm|HoleSize=0mm|Usage=FLASHONLY|Rotation=45.000|XOffset=0mm|YOffset=0mm|HoleType=Round|Shape=RoundedRectangle|*
%AMROUNDEDRECTD55*
21,1,1.0632,0.2418,0,0,45.0*
21,1,0.8418,0.4632,0,0,45.0*
1,1,0.2214,0.3831,0.2121*
1,1,0.2214,-0.2121,-0.3831*
1,1,0.2214,-0.3831,-0.2121*
1,1,0.2214,0.2121,0.3831*
%
%ADD55ROUNDEDRECTD55*%
%ADD56R,1.7032X1.1032*%
%ADD57R,1.1032X1.1032*%
%ADD58R,0.8032X2.1732*%
%ADD59R,1.3532X0.8032*%
%ADD60R,1.3532X0.5032*%
G04:AMPARAMS|DCode=61|XSize=1.6532mm|YSize=0.7932mm|CornerRadius=0.1754mm|HoleSize=0mm|Usage=FLASHONLY|Rotation=0.000|XOffset=0mm|YOffset=0mm|HoleType=Round|Shape=RoundedRectangle|*
%AMROUNDEDRECTD61*
21,1,1.6532,0.4425,0,0,0.0*
21,1,1.3025,0.7932,0,0,0.0*
1,1,0.3507,0.6513,-0.2213*
1,1,0.3507,-0.6513,-0.2213*
1,1,0.3507,-0.6513,0.2213*
1,1,0.3507,0.6513,0.2213*
%
%ADD61ROUNDEDRECTD61*%
%ADD62R,0.6032X1.3732*%
%ADD63R,1.3732X0.6032*%
%ADD64R,0.9632X1.9032*%
G04:AMPARAMS|DCode=65|XSize=0.9032mm|YSize=1.2232mm|CornerRadius=0.1891mm|HoleSize=0mm|Usage=FLASHONLY|Rotation=90.000|XOffset=0mm|YOffset=0mm|HoleType=Round|Shape=RoundedRectangle|*
%AMROUNDEDRECTD65*
21,1,0.9032,0.8450,0,0,90.0*
21,1,0.5250,1.2232,0,0,90.0*
1,1,0.3782,0.4225,0.2625*
1,1,0.3782,0.4225,-0.2625*
1,1,0.3782,-0.4225,-0.2625*
1,1,0.3782,-0.4225,0.2625*
%
%ADD65ROUNDEDRECTD65*%
G04:AMPARAMS|DCode=66|XSize=0.9032mm|YSize=1.2232mm|CornerRadius=0.1891mm|HoleSize=0mm|Usage=FLASHONLY|Rotation=0.000|XOffset=0mm|YOffset=0mm|HoleType=Round|Shape=RoundedRectangle|*
%AMROUNDEDRECTD66*
21,1,0.9032,0.8450,0,0,0.0*
21,1,0.5250,1.2232,0,0,0.0*
1,1,0.3782,0.2625,-0.4225*
1,1,0.3782,-0.2625,-0.4225*
1,1,0.3782,-0.2625,0.4225*
1,1,0.3782,0.2625,0.4225*
%
%ADD66ROUNDEDRECTD66*%
G04:AMPARAMS|DCode=67|XSize=1.6032mm|YSize=1.1032mm|CornerRadius=0.2141mm|HoleSize=0mm|Usage=FLASHONLY|Rotation=0.000|XOffset=0mm|YOffset=0mm|HoleType=Round|Shape=RoundedRectangle|*
%AMROUNDEDRECTD67*
21,1,1.6032,0.6750,0,0,0.0*
21,1,1.1750,1.1032,0,0,0.0*
1,1,0.4282,0.5875,-0.3375*
1,1,0.4282,-0.5875,-0.3375*
1,1,0.4282,-0.5875,0.3375*
1,1,0.4282,0.5875,0.3375*
%
%ADD67ROUNDEDRECTD67*%
G04:AMPARAMS|DCode=68|XSize=0.6932mm|YSize=0.8032mm|CornerRadius=0.1506mm|HoleSize=0mm|Usage=FLASHONLY|Rotation=270.000|XOffset=0mm|YOffset=0mm|HoleType=Round|Shape=RoundedRectangle|*
%AMROUNDEDRECTD68*
21,1,0.6932,0.5020,0,0,270.0*
21,1,0.3920,0.8032,0,0,270.0*
1,1,0.3012,-0.2510,-0.1960*
1,1,0.3012,-0.2510,0.1960*
1,1,0.3012,0.2510,0.1960*
1,1,0.3012,0.2510,-0.1960*
%
%ADD68ROUNDEDRECTD68*%
G04:AMPARAMS|DCode=69|XSize=0.6932mm|YSize=0.8032mm|CornerRadius=0.1506mm|HoleSize=0mm|Usage=FLASHONLY|Rotation=180.000|XOffset=0mm|YOffset=0mm|HoleType=Round|Shape=RoundedRectangle|*
%AMROUNDEDRECTD69*
21,1,0.6932,0.5020,0,0,180.0*
21,1,0.3920,0.8032,0,0,180.0*
1,1,0.3012,-0.1960,0.2510*
1,1,0.3012,0.1960,0.2510*
1,1,0.3012,0.1960,-0.2510*
1,1,0.3012,-0.1960,-0.2510*
%
%ADD69ROUNDEDRECTD69*%
%ADD70R,1.0032X1.1032*%
%ADD71R,2.7032X1.9032*%
%ADD72R,1.9032X2.7032*%
G04:AMPARAMS|DCode=73|XSize=1.8432mm|YSize=0.7932mm|CornerRadius=0.1754mm|HoleSize=0mm|Usage=FLASHONLY|Rotation=90.000|XOffset=0mm|YOffset=0mm|HoleType=Round|Shape=RoundedRectangle|*
%AMROUNDEDRECTD73*
21,1,1.8432,0.4425,0,0,90.0*
21,1,1.4925,0.7932,0,0,90.0*
1,1,0.3507,0.2213,0.7463*
1,1,0.3507,0.2213,-0.7463*
1,1,0.3507,-0.2213,-0.7463*
1,1,0.3507,-0.2213,0.7463*
%
%ADD73ROUNDEDRECTD73*%
%ADD74R,0.8032X1.7032*%
%ADD75R,1.7032X2.5432*%
%ADD76R,0.7366X2.1844*%
%ADD77R,2.9232X1.4432*%
%ADD78R,1.4432X2.9232*%
%ADD79O,2.0032X6.5032*%
%ADD80O,2.0032X5.6032*%
%ADD81O,5.6032X2.0032*%
%ADD82C,2.6032*%
%ADD83R,2.6032X2.6032*%
G04:AMPARAMS|DCode=84|XSize=2.0032mm|YSize=1.2032mm|CornerRadius=0.3516mm|HoleSize=0mm|Usage=FLASHONLY|Rotation=180.000|XOffset=0mm|YOffset=0mm|HoleType=Round|Shape=RoundedRectangle|*
%AMROUNDEDRECTD84*
21,1,2.0032,0.5000,0,0,180.0*
21,1,1.3000,1.2032,0,0,180.0*
1,1,0.7032,-0.6500,0.2500*
1,1,0.7032,0.6500,0.2500*
1,1,0.7032,0.6500,-0.2500*
1,1,0.7032,-0.6500,-0.2500*
%
%ADD84ROUNDEDRECTD84*%
%ADD85O,2.3032X1.2032*%
%ADD86C,0.8532*%
%ADD87C,1.6012*%
%ADD88R,1.6012X1.6012*%
%ADD89C,2.5582*%
%ADD90C,3.4532*%
%ADD91C,1.5032*%
G04:AMPARAMS|DCode=92|XSize=1.5032mm|YSize=1.5032mm|CornerRadius=0.4266mm|HoleSize=0mm|Usage=FLASHONLY|Rotation=270.000|XOffset=0mm|YOffset=0mm|HoleType=Round|Shape=RoundedRectangle|*
%AMROUNDEDRECTD92*
21,1,1.5032,0.6500,0,0,270.0*
21,1,0.6500,1.5032,0,0,270.0*
1,1,0.8532,-0.3250,-0.3250*
1,1,0.8532,-0.3250,0.3250*
1,1,0.8532,0.3250,0.3250*
1,1,0.8532,0.3250,-0.3250*
%
%ADD92ROUNDEDRECTD92*%
%ADD93R,1.7332X1.7332*%
%ADD94C,1.7332*%
%ADD95C,1.6032*%
%ADD96C,3.4032*%
%ADD97C,0.7032*%
D39*
X148000Y845750D02*
D03*
Y816250D02*
D03*
D49*
X599000Y420000D02*
D03*
Y432500D02*
D03*
Y445000D02*
D03*
X611500Y420000D02*
D03*
Y445000D02*
D03*
X624000Y420000D02*
D03*
Y432500D02*
D03*
Y445000D02*
D03*
X611500Y432500D02*
D03*
D50*
X668700Y329950D02*
D03*
X656000D02*
D03*
X643300D02*
D03*
X630600D02*
D03*
X617900D02*
D03*
X605200D02*
D03*
X592500D02*
D03*
X579800D02*
D03*
X567100D02*
D03*
X554400D02*
D03*
X541700D02*
D03*
X529000D02*
D03*
X516300D02*
D03*
X503600D02*
D03*
Y504950D02*
D03*
X516300D02*
D03*
X529000D02*
D03*
X541700D02*
D03*
X554400D02*
D03*
X567100D02*
D03*
X579800D02*
D03*
X592500D02*
D03*
X605200D02*
D03*
X617900D02*
D03*
X630600D02*
D03*
X643300D02*
D03*
X656000D02*
D03*
X668700D02*
D03*
X563000Y889500D02*
D03*
X575700D02*
D03*
X588400D02*
D03*
X601100D02*
D03*
X613800D02*
D03*
X626500D02*
D03*
X639200D02*
D03*
X651900D02*
D03*
X664600D02*
D03*
X677300D02*
D03*
X690000D02*
D03*
X702700D02*
D03*
X715400D02*
D03*
X728100D02*
D03*
X563000Y714500D02*
D03*
X575700D02*
D03*
X588400D02*
D03*
X601100D02*
D03*
X613800D02*
D03*
X626500D02*
D03*
X639200D02*
D03*
X651900D02*
D03*
X664600D02*
D03*
X677300D02*
D03*
X690000D02*
D03*
X702700D02*
D03*
X715400D02*
D03*
X728100D02*
D03*
D51*
X346000Y382000D02*
D03*
D52*
Y102000D02*
D03*
D53*
X398000Y648000D02*
D03*
D54*
X420521Y643156D02*
D03*
X416986Y639621D02*
D03*
X413450Y636085D02*
D03*
X409915Y632550D02*
D03*
X406379Y629014D02*
D03*
X402844Y625479D02*
D03*
X375479Y652844D02*
D03*
X379014Y656379D02*
D03*
X382550Y659915D02*
D03*
X386085Y663450D02*
D03*
X389621Y666986D02*
D03*
X393156Y670521D02*
D03*
D55*
X402844D02*
D03*
X406379Y666986D02*
D03*
X409915Y663450D02*
D03*
X413450Y659915D02*
D03*
X416986Y656379D02*
D03*
X420521Y652844D02*
D03*
X393156Y625479D02*
D03*
X389621Y629014D02*
D03*
X386085Y632550D02*
D03*
X382550Y636085D02*
D03*
X379014Y639621D02*
D03*
X375479Y643156D02*
D03*
D56*
X550500Y795650D02*
D03*
Y782950D02*
D03*
Y770250D02*
D03*
Y757550D02*
D03*
Y744850D02*
D03*
Y808350D02*
D03*
Y821050D02*
D03*
Y833750D02*
D03*
Y846450D02*
D03*
Y859150D02*
D03*
D57*
X650900Y817000D02*
D03*
Y831000D02*
D03*
Y803000D02*
D03*
X664900Y817000D02*
D03*
Y831000D02*
D03*
Y803000D02*
D03*
X636900Y817000D02*
D03*
Y831000D02*
D03*
Y803000D02*
D03*
D58*
X257359Y491820D02*
D03*
X270059D02*
D03*
X282759D02*
D03*
X295459D02*
D03*
Y541320D02*
D03*
X282759D02*
D03*
X270059D02*
D03*
X257359D02*
D03*
D59*
X676450Y600000D02*
D03*
Y664000D02*
D03*
Y608000D02*
D03*
Y656000D02*
D03*
D60*
Y634500D02*
D03*
Y629500D02*
D03*
Y639500D02*
D03*
Y644500D02*
D03*
Y649500D02*
D03*
Y624500D02*
D03*
Y619500D02*
D03*
Y614500D02*
D03*
D61*
X209550Y839500D02*
D03*
Y830000D02*
D03*
Y820500D02*
D03*
X186450D02*
D03*
Y830000D02*
D03*
Y839500D02*
D03*
D62*
X402500Y716700D02*
D03*
X396000D02*
D03*
X389500D02*
D03*
Y699300D02*
D03*
X396000D02*
D03*
X402500D02*
D03*
D63*
X628600Y638500D02*
D03*
Y632000D02*
D03*
Y625500D02*
D03*
X646000D02*
D03*
Y632000D02*
D03*
Y638500D02*
D03*
D64*
X351550Y836000D02*
D03*
X364250D02*
D03*
X376950D02*
D03*
X389650D02*
D03*
X402350D02*
D03*
X415050D02*
D03*
X427750D02*
D03*
X440450D02*
D03*
Y748000D02*
D03*
X427750D02*
D03*
X415050D02*
D03*
X402350D02*
D03*
X389650D02*
D03*
X376950D02*
D03*
X364250D02*
D03*
X351550D02*
D03*
D65*
X280000Y965650D02*
D03*
Y980350D02*
D03*
X508000Y925350D02*
D03*
Y910650D02*
D03*
X562000Y134650D02*
D03*
Y149350D02*
D03*
X314000Y807350D02*
D03*
Y792650D02*
D03*
D66*
X634650Y594000D02*
D03*
X649350D02*
D03*
X670650Y564000D02*
D03*
X685350D02*
D03*
X74000Y778000D02*
D03*
X59300D02*
D03*
X99350Y86000D02*
D03*
X84650D02*
D03*
D67*
X250000Y980500D02*
D03*
Y961500D02*
D03*
D68*
X682000Y914550D02*
D03*
Y905450D02*
D03*
X562900Y687450D02*
D03*
Y696550D02*
D03*
X613986Y687450D02*
D03*
Y696550D02*
D03*
X508000Y885450D02*
D03*
Y894550D02*
D03*
X480000Y822673D02*
D03*
Y831773D02*
D03*
Y850550D02*
D03*
Y841450D02*
D03*
X627658Y687310D02*
D03*
Y696411D02*
D03*
X586941Y914550D02*
D03*
Y905450D02*
D03*
X601492Y914550D02*
D03*
Y905450D02*
D03*
X615644Y914550D02*
D03*
Y905450D02*
D03*
X652000Y914550D02*
D03*
Y905450D02*
D03*
X664000Y914550D02*
D03*
Y905450D02*
D03*
X374000Y606900D02*
D03*
Y616000D02*
D03*
X577232Y696550D02*
D03*
Y687450D02*
D03*
X654000Y530550D02*
D03*
Y521450D02*
D03*
X554000Y532550D02*
D03*
Y523450D02*
D03*
X503762Y301647D02*
D03*
Y310747D02*
D03*
X184000Y301360D02*
D03*
Y292260D02*
D03*
X184000Y140550D02*
D03*
Y131450D02*
D03*
Y401450D02*
D03*
Y410550D02*
D03*
X184000Y239103D02*
D03*
Y248203D02*
D03*
Y373450D02*
D03*
Y382550D02*
D03*
Y208256D02*
D03*
Y217356D02*
D03*
X184000Y318900D02*
D03*
Y328000D02*
D03*
Y157450D02*
D03*
Y166550D02*
D03*
Y610550D02*
D03*
Y601450D02*
D03*
Y454550D02*
D03*
Y445450D02*
D03*
X184000Y711152D02*
D03*
Y720253D02*
D03*
X184000Y559450D02*
D03*
Y568550D02*
D03*
X184000Y687338D02*
D03*
Y696438D02*
D03*
X184000Y533450D02*
D03*
Y542550D02*
D03*
X184000Y629646D02*
D03*
Y638746D02*
D03*
X184000Y473450D02*
D03*
Y482550D02*
D03*
X184177Y900827D02*
D03*
Y891728D02*
D03*
X156178D02*
D03*
Y900827D02*
D03*
X676000Y214550D02*
D03*
Y205450D02*
D03*
X710000Y214550D02*
D03*
Y205450D02*
D03*
X520000Y280550D02*
D03*
Y271450D02*
D03*
X506000Y280550D02*
D03*
Y271450D02*
D03*
X124000Y894450D02*
D03*
Y903550D02*
D03*
X201000Y893450D02*
D03*
Y902550D02*
D03*
X718000Y905450D02*
D03*
Y914550D02*
D03*
X702000Y905450D02*
D03*
Y914550D02*
D03*
X668230Y521327D02*
D03*
Y530427D02*
D03*
X640000Y521450D02*
D03*
Y530550D02*
D03*
X170177Y900827D02*
D03*
Y891728D02*
D03*
X142177D02*
D03*
Y900827D02*
D03*
X654000Y205450D02*
D03*
Y214550D02*
D03*
X215000Y893450D02*
D03*
Y902550D02*
D03*
D69*
X338550Y856000D02*
D03*
X329450D02*
D03*
X369450Y718000D02*
D03*
X378550D02*
D03*
X422550D02*
D03*
X413450D02*
D03*
X422550Y698000D02*
D03*
X413450D02*
D03*
X369450D02*
D03*
X378550D02*
D03*
X407450Y684000D02*
D03*
X416550D02*
D03*
X646550Y612000D02*
D03*
X637450D02*
D03*
X654550Y652000D02*
D03*
X645450D02*
D03*
X280550Y472000D02*
D03*
X271450D02*
D03*
X238550Y452000D02*
D03*
X229450D02*
D03*
X219100D02*
D03*
X210000D02*
D03*
X200450Y804000D02*
D03*
X209550D02*
D03*
X362550Y728000D02*
D03*
X353450D02*
D03*
X437450Y682000D02*
D03*
X446550D02*
D03*
X348550Y662000D02*
D03*
X339450D02*
D03*
X395100Y684000D02*
D03*
X386000D02*
D03*
X276550Y564000D02*
D03*
X267450D02*
D03*
X213550Y854000D02*
D03*
X204450D02*
D03*
X521450Y178000D02*
D03*
X530550D02*
D03*
D70*
X215000Y438000D02*
D03*
X224500Y418000D02*
D03*
X234000Y438000D02*
D03*
D71*
X648000Y562000D02*
D03*
X608000D02*
D03*
X112000Y772000D02*
D03*
X152000D02*
D03*
D72*
X455000Y375000D02*
D03*
Y335000D02*
D03*
X280000Y938000D02*
D03*
Y898000D02*
D03*
X246000Y898000D02*
D03*
Y938000D02*
D03*
D73*
X213650Y320150D02*
D03*
X226350D02*
D03*
Y383850D02*
D03*
X213650D02*
D03*
Y155850D02*
D03*
X226350D02*
D03*
Y219550D02*
D03*
X213650D02*
D03*
Y633993D02*
D03*
X226350D02*
D03*
Y697693D02*
D03*
X213650D02*
D03*
Y482200D02*
D03*
X226350D02*
D03*
Y545900D02*
D03*
X213650D02*
D03*
D74*
X710500Y185800D02*
D03*
X698000D02*
D03*
X687000D02*
D03*
X676000D02*
D03*
X665000D02*
D03*
X654000D02*
D03*
X643000D02*
D03*
X632000D02*
D03*
X621000D02*
D03*
X610000D02*
D03*
D75*
X729700Y107800D02*
D03*
X586300D02*
D03*
D76*
X506950Y199362D02*
D03*
X519650D02*
D03*
X532350D02*
D03*
X545050D02*
D03*
Y248638D02*
D03*
X532350D02*
D03*
X519650D02*
D03*
X506950D02*
D03*
D77*
X240000Y860400D02*
D03*
Y831600D02*
D03*
X280000Y860400D02*
D03*
Y831600D02*
D03*
X238000Y774400D02*
D03*
Y745600D02*
D03*
X504000Y811600D02*
D03*
Y840400D02*
D03*
D78*
X470400Y708000D02*
D03*
X441600D02*
D03*
X323200Y688000D02*
D03*
X352000D02*
D03*
D79*
X102000Y858000D02*
D03*
D80*
X42000D02*
D03*
D81*
X72000Y811000D02*
D03*
D82*
X186000Y934000D02*
D03*
X62900Y752450D02*
D03*
Y117450D02*
D03*
X130200Y513700D02*
D03*
Y356200D02*
D03*
D83*
X135200Y934000D02*
D03*
D84*
X724000Y588800D02*
D03*
Y675200D02*
D03*
D85*
X682200Y588800D02*
D03*
Y675200D02*
D03*
D86*
X687200Y660900D02*
D03*
Y603100D02*
D03*
D87*
X351300Y880000D02*
D03*
X442700D02*
D03*
X328400D02*
D03*
X465600D02*
D03*
X381600Y946000D02*
D03*
X402000D02*
D03*
X422400D02*
D03*
X371400Y928200D02*
D03*
X391800D02*
D03*
X412200D02*
D03*
X432600D02*
D03*
D88*
X361200Y946000D02*
D03*
D89*
X315700Y937100D02*
D03*
X478300D02*
D03*
D90*
X333500Y971400D02*
D03*
X460500D02*
D03*
X28600Y734700D02*
D03*
Y135200D02*
D03*
D91*
X120000Y401900D02*
D03*
Y310500D02*
D03*
Y424800D02*
D03*
Y287600D02*
D03*
Y559400D02*
D03*
Y468000D02*
D03*
Y582300D02*
D03*
Y445100D02*
D03*
X71800Y645700D02*
D03*
X54000Y655900D02*
D03*
X71800Y706900D02*
D03*
X54000Y696700D02*
D03*
X71800Y686500D02*
D03*
X54000Y676300D02*
D03*
X71800Y666100D02*
D03*
X71800Y488200D02*
D03*
X54000Y498400D02*
D03*
X71800Y508600D02*
D03*
X54000Y518800D02*
D03*
X71800Y529000D02*
D03*
X54000Y539200D02*
D03*
X71800Y549400D02*
D03*
Y330700D02*
D03*
X54000Y340900D02*
D03*
X71800Y351100D02*
D03*
X54000Y361300D02*
D03*
X71800Y371500D02*
D03*
X54000Y381700D02*
D03*
X71800Y391900D02*
D03*
Y173200D02*
D03*
X54000Y183400D02*
D03*
X71800Y193600D02*
D03*
X54000Y203800D02*
D03*
X71800Y214000D02*
D03*
X54000Y224200D02*
D03*
X71800Y234400D02*
D03*
X120000Y602600D02*
D03*
Y739800D02*
D03*
Y625500D02*
D03*
Y716900D02*
D03*
Y130100D02*
D03*
Y267300D02*
D03*
Y153000D02*
D03*
Y244400D02*
D03*
D92*
X54000Y635500D02*
D03*
Y478000D02*
D03*
Y320500D02*
D03*
Y163000D02*
D03*
D93*
X627400Y977400D02*
D03*
X444400Y516700D02*
D03*
Y580700D02*
D03*
D94*
X627400Y952000D02*
D03*
X602000Y977400D02*
D03*
Y952000D02*
D03*
X576600Y977400D02*
D03*
Y952000D02*
D03*
X444400Y491300D02*
D03*
X419000Y516700D02*
D03*
Y491300D02*
D03*
X393600Y516700D02*
D03*
Y491300D02*
D03*
X444400Y555300D02*
D03*
X419000Y580700D02*
D03*
Y555300D02*
D03*
X393600Y580700D02*
D03*
Y555300D02*
D03*
D95*
X708000Y156300D02*
D03*
X608000D02*
D03*
D96*
X200000Y90000D02*
D03*
X530000D02*
D03*
X710000Y960000D02*
D03*
X40000D02*
D03*
D97*
X249000Y971000D02*
D03*
X240000Y807000D02*
D03*
X252000D02*
D03*
X228000D02*
D03*
X264000D02*
D03*
X507000Y263000D02*
D03*
X51000Y740000D02*
D03*
X98000Y363000D02*
D03*
Y377000D02*
D03*
Y389000D02*
D03*
Y401000D02*
D03*
X100000Y169000D02*
D03*
Y181500D02*
D03*
X40000Y662219D02*
D03*
Y672000D02*
D03*
Y684000D02*
D03*
Y695000D02*
D03*
X30300Y709000D02*
D03*
X532000Y302000D02*
D03*
X285000Y845000D02*
D03*
X275000D02*
D03*
X260000D02*
D03*
X250000D02*
D03*
X240000D02*
D03*
X230000D02*
D03*
X624000Y426000D02*
D03*
X612000D02*
D03*
X599000D02*
D03*
X624000Y439000D02*
D03*
X612000D02*
D03*
X599000D02*
D03*
X644000Y803000D02*
D03*
X336000Y640000D02*
D03*
X353000Y648000D02*
D03*
X336000D02*
D03*
X226000Y368000D02*
D03*
X226350Y203650D02*
D03*
X654000Y221000D02*
D03*
X669000Y315000D02*
D03*
X728000Y702000D02*
D03*
X591000Y700000D02*
D03*
X658000Y662000D02*
D03*
X618000Y632000D02*
D03*
X630000Y612000D02*
D03*
X697000Y600000D02*
D03*
X671000Y553000D02*
D03*
X669000Y493000D02*
D03*
X647000Y531000D02*
D03*
X457000Y706000D02*
D03*
X503000Y824000D02*
D03*
X565000Y859000D02*
D03*
X508000Y902600D02*
D03*
X173000Y847000D02*
D03*
X260000Y831000D02*
D03*
X246000Y916000D02*
D03*
X348000Y728000D02*
D03*
X405000Y736000D02*
D03*
X396000D02*
D03*
X362000Y685000D02*
D03*
X324000Y665000D02*
D03*
X238000Y699000D02*
D03*
Y548000D02*
D03*
X292729Y561271D02*
D03*
X271450Y477789D02*
D03*
X212905Y445327D02*
D03*
X698000Y174000D02*
D03*
X632000D02*
D03*
X545050Y234050D02*
D03*
X562000Y156000D02*
D03*
X536000Y178000D02*
D03*
X401600Y103400D02*
D03*
X108000Y86000D02*
D03*
X89000Y766000D02*
D03*
X215000Y909000D02*
D03*
X149000Y908000D02*
D03*
X382000Y610000D02*
D03*
X391035Y615785D02*
D03*
X258000Y716557D02*
D03*
X222000Y822732D02*
D03*
X250000Y588000D02*
D03*
X364000Y567000D02*
D03*
X376000Y466000D02*
D03*
X354000Y553000D02*
D03*
X537000Y562000D02*
D03*
X270000Y599000D02*
D03*
X265000Y380000D02*
D03*
X266000Y410000D02*
D03*
X240000Y380000D02*
D03*
X245000Y410000D02*
D03*
X174000Y302000D02*
D03*
X96000Y348000D02*
D03*
X364000Y444000D02*
D03*
X354000Y441000D02*
D03*
X452000Y414000D02*
D03*
X526000Y579000D02*
D03*
X491300Y580700D02*
D03*
X495000Y493000D02*
D03*
X488000Y317000D02*
D03*
X408000Y466000D02*
D03*
X447000Y446000D02*
D03*
X643000Y493000D02*
D03*
X608000Y678000D02*
D03*
Y536000D02*
D03*
X184000Y232000D02*
D03*
Y394000D02*
D03*
Y553000D02*
D03*
X465000Y535000D02*
D03*
X566000Y536000D02*
D03*
X538000Y224000D02*
D03*
X653000Y198000D02*
D03*
X194000Y901000D02*
D03*
X307000Y887000D02*
D03*
X304000Y852000D02*
D03*
X263000Y920000D02*
D03*
X366000Y626000D02*
D03*
X360000Y640000D02*
D03*
X579800Y526800D02*
D03*
X631000Y522000D02*
D03*
X618000D02*
D03*
X602000Y686000D02*
D03*
X593000Y735000D02*
D03*
X585000Y750000D02*
D03*
X529000Y477000D02*
D03*
X541000Y484000D02*
D03*
X520000Y263000D02*
D03*
X574000Y302000D02*
D03*
X618000Y420000D02*
D03*
X605000D02*
D03*
X618000Y432000D02*
D03*
X605000D02*
D03*
X618000Y445000D02*
D03*
X605000D02*
D03*
X568000Y490000D02*
D03*
X606000Y478000D02*
D03*
X594000Y476000D02*
D03*
X666000Y200000D02*
D03*
X643000Y215000D02*
D03*
X621000D02*
D03*
X676000Y198000D02*
D03*
Y228000D02*
D03*
X250000Y564000D02*
D03*
X258000Y444000D02*
D03*
X252000Y440000D02*
D03*
X98000Y490000D02*
D03*
X203116Y616000D02*
D03*
X200000Y462000D02*
D03*
X192000Y148000D02*
D03*
X100000Y194000D02*
D03*
X98000Y510000D02*
D03*
X692000Y904000D02*
D03*
X552000Y718000D02*
D03*
X370000Y666000D02*
D03*
X394000Y644000D02*
D03*
X402000D02*
D03*
Y652000D02*
D03*
X394000D02*
D03*
X406000Y648000D02*
D03*
X390000D02*
D03*
X398000Y640000D02*
D03*
Y648000D02*
D03*
Y656000D02*
D03*
X414000Y676000D02*
D03*
X424000Y668000D02*
D03*
X382607Y620595D02*
D03*
X600000Y864000D02*
D03*
X588000Y850000D02*
D03*
X628000Y702000D02*
D03*
X576000D02*
D03*
X678000D02*
D03*
X690000D02*
D03*
X470000Y638000D02*
D03*
X434000D02*
D03*
X440000Y734000D02*
D03*
X418000Y618000D02*
D03*
X613800Y860000D02*
D03*
X730000Y914000D02*
D03*
X693450Y914550D02*
D03*
X616000Y354000D02*
D03*
Y376000D02*
D03*
X660000Y632000D02*
D03*
X658000Y582000D02*
D03*
X644000Y830000D02*
D03*
X643900Y817000D02*
D03*
X657900Y831000D02*
D03*
X636900Y824000D02*
D03*
X650900D02*
D03*
X664900D02*
D03*
Y810000D02*
D03*
X636900D02*
D03*
X650900D02*
D03*
X657900Y803000D02*
D03*
Y817000D02*
D03*
X354000Y670000D02*
D03*
X378000Y690000D02*
D03*
X408000Y690770D02*
D03*
X384019Y726000D02*
D03*
X407981D02*
D03*
X424000Y684000D02*
D03*
X420000Y674000D02*
D03*
X364000Y652000D02*
D03*
X382000Y676000D02*
D03*
X374000D02*
D03*
X508000Y874000D02*
D03*
X480000Y858000D02*
D03*
X428000Y818000D02*
D03*
X276000Y956350D02*
D03*
M02*
